# LowPolyPalms - coconut palm SM_Palm_Coco_D (cm, Z up)
mtllib SM_Palm_Coco_D.mtl
o SM_Palm_Coco_D
v 30.91 0.00 -21.58
v 18.08 32.33 -7.03
v 53.61 3.62 39.42
v 36.79 15.87 52.80
v -12.84 32.33 14.54
v 18.09 3.62 63.39
v -30.91 0.00 21.58
v 16.20 -20.89 60.58
v -18.08 -32.33 7.03
v 33.01 -33.14 47.20
v 12.84 -32.33 -14.54
v 51.71 -20.89 36.61
v 78.76 3.59 95.86
v 87.50 -16.64 87.64
v 58.74 3.59 108.22
v 47.47 -16.64 112.36
v 56.22 -36.86 104.14
v 76.23 -36.86 91.78
v 114.08 -11.44 141.56
v 97.43 -0.29 151.49
v 79.99 -11.44 159.93
v 79.19 -33.73 158.44
v 95.83 -44.87 148.51
v 113.27 -33.73 140.07
v 131.16 -6.87 195.87
v 140.78 -25.26 191.39
v 111.74 -6.87 204.48
v 101.96 -25.26 208.61
v 111.59 -43.65 204.13
v 131.00 -43.65 195.52
v 157.29 -13.67 243.73
v 140.49 -3.61 248.58
v 124.16 -13.67 254.85
v 124.64 -33.79 256.27
v 141.44 -43.84 251.42
v 157.76 -33.79 245.15
v 163.69 -1.05 295.18
v 173.66 -17.41 295.85
v 144.98 -1.05 299.33
v 136.23 -17.41 304.15
v 146.20 -33.77 304.82
v 164.91 -33.77 300.67
v 178.59 2.69 345.92
v 162.64 11.48 345.24
v 147.20 2.69 349.31
v 147.71 -14.90 354.08
v 163.66 -23.69 354.76
v 179.10 -14.90 350.69
v 174.42 24.12 394.85
v 183.11 9.99 399.99
v 157.06 24.12 394.86
v 148.38 9.99 400.01
v 157.07 -4.14 405.15
v 174.43 -4.14 405.14
v 177.80 37.88 448.06
v 163.82 45.48 443.40
v 149.21 37.88 445.34
v 148.58 22.69 451.94
v 162.56 15.09 456.60
v 177.17 22.69 454.66
v 165.09 66.24 495.44
v 171.90 53.85 502.72
v 149.43 66.24 492.73
v 140.57 53.85 497.28
v 147.38 41.46 504.56
v 163.04 41.46 507.27
v 159.56 86.32 549.62
v 147.39 93.16 543.26
v 133.67 86.32 543.64
v 132.11 72.63 550.38
v 144.28 65.78 556.74
v 158.00 72.63 556.36
v 141.84 117.31 596.14
v 147.66 105.73 603.70
v 127.30 117.31 592.44
v 118.58 105.73 596.30
v 124.40 94.15 603.86
v 138.94 94.15 607.56
v 137.31 139.98 627.65
v 145.74 123.19 638.61
v 116.23 139.98 622.29
v 103.59 123.19 627.89
v 112.02 106.41 638.85
v 133.10 106.41 644.21
v 117.75 137.48 660.46
v 126.75 137.48 650.46
v 113.20 145.25 650.46
v 84.80 205.52 790.02
v 113.33 129.64 650.46
v 123.21 150.37 648.46
v 127.81 161.20 680.70
v 130.18 161.85 680.13
v 128.74 152.24 647.05
v 120.71 155.64 647.05
v 126.62 163.35 680.13
v 132.40 172.04 711.20
v 187.11 188.80 696.60
v 106.43 223.02 696.60
v 137.00 182.87 739.98
v 164.59 194.14 731.07
v 125.93 210.54 731.07
v 141.59 193.70 767.04
v 210.89 229.11 740.23
v 118.89 268.14 740.23
v 146.19 204.53 792.36
v 176.77 217.60 780.83
v 134.33 235.60 780.83
v 150.78 215.36 815.95
v 214.10 251.01 786.17
v 132.41 285.66 786.17
v 155.38 226.20 837.82
v 178.14 238.01 826.74
v 148.05 250.77 826.74
v 159.97 237.03 857.96
v 196.50 258.95 836.93
v 150.35 278.53 836.93
v 164.57 247.86 876.37
v 170.40 251.64 872.50
v 163.23 254.68 872.50
v 169.16 258.69 893.05
v 106.08 129.74 646.70
v 90.31 119.27 678.08
v 88.06 119.86 677.12
v 100.77 131.65 644.66
v 105.78 124.10 644.66
v 89.99 116.96 677.12
v 74.54 108.80 707.80
v 22.15 125.18 685.13
v 69.32 54.15 685.13
v 58.77 98.33 735.84
v 31.34 105.97 722.87
v 55.17 70.08 722.87
v 43.00 87.85 762.20
v -28.73 98.66 722.32
v 25.13 17.55 722.32
v 27.23 77.38 786.89
v -3.01 83.23 769.46
v 20.88 47.24 769.46
v 11.46 66.91 809.91
v -54.35 75.28 767.07
v -6.36 3.01 767.07
v -4.31 56.44 831.25
v -27.32 60.66 815.70
v -9.35 33.59 815.70
v -20.08 45.97 850.92
v -57.20 47.90 820.90
v -32.70 11.01 820.90
v -35.85 35.50 868.91
v -41.88 36.03 863.69
v -37.70 29.73 863.69
v -51.62 25.03 885.23
v 131.67 136.05 644.93
v 150.73 134.09 676.02
v 151.97 132.10 675.10
v 134.59 131.24 642.84
v 135.50 140.17 642.84
v 152.35 135.78 675.10
v 169.80 132.13 704.97
v 198.36 87.73 682.31
v 206.80 169.77 682.31
v 188.86 130.16 731.77
v 203.70 107.08 719.02
v 208.09 149.74 719.02
v 207.92 128.20 756.43
v 248.36 70.16 718.92
v 259.34 176.79 718.92
v 226.98 126.24 778.95
v 245.68 104.43 760.33
v 249.74 143.79 760.33
v 246.04 124.28 799.33
v 283.63 72.98 757.01
v 293.29 166.84 757.01
v 265.11 122.31 817.56
v 278.32 105.35 800.95
v 281.50 136.24 800.95
v 284.17 120.35 833.65
v 306.07 94.24 802.45
v 310.93 141.46 802.45
v 303.23 118.39 847.61
v 306.66 114.41 841.92
v 307.40 121.59 841.92
v 322.29 116.43 859.41
v 108.92 148.35 643.17
v 91.27 170.09 673.48
v 91.88 172.22 672.27
v 110.65 153.45 640.52
v 103.58 147.70 640.52
v 89.06 169.93 672.27
v 73.61 191.84 701.81
v 86.22 240.59 671.18
v 23.30 189.50 671.18
v 55.95 213.58 728.16
v 63.22 238.81 711.58
v 29.77 211.65 711.58
v 38.30 235.32 752.52
v 54.92 300.11 704.82
v -28.52 232.35 704.82
v 20.64 257.06 774.91
v 27.53 283.90 753.32
v -7.04 255.83 753.32
v 2.99 278.80 795.32
v 11.14 334.30 740.58
v -53.00 282.22 740.58
v -14.67 300.55 813.74
v -9.90 319.98 794.33
v -34.67 299.87 794.33
v -32.32 322.29 830.18
v -27.86 351.99 793.49
v -62.31 324.02 793.49
v -49.98 344.03 844.65
v -48.80 348.83 838.43
v -54.92 343.86 838.43
v -67.63 365.77 857.13
v 116.37 123.55 641.40
v 113.69 96.28 672.62
v 111.93 95.01 671.32
v 111.67 120.96 638.73
v 120.48 120.09 638.73
v 115.16 94.70 671.32
v 111.00 69.00 701.75
v 67.72 39.28 668.76
v 147.65 31.41 668.76
v 108.32 41.73 728.80
v 86.12 26.37 710.40
v 127.09 22.33 710.40
v 105.63 14.45 753.76
v 44.45 -22.29 705.00
v 158.46 -33.51 705.00
v 102.94 -12.82 776.64
v 79.51 -29.24 753.25
v 122.73 -33.49 753.25
v 100.26 -40.10 797.43
v 49.27 -74.73 742.66
v 143.51 -84.01 742.66
v 97.57 -67.37 816.13
v 81.22 -79.45 794.99
v 111.25 -82.41 794.99
v 94.89 -94.64 832.75
v 72.12 -114.94 793.28
v 113.26 -119.00 793.28
v 92.20 -121.92 847.29
v 88.63 -124.98 840.38
v 95.10 -125.62 840.38
v 89.51 -149.19 859.74
v 128.10 146.90 639.64
v 150.47 167.25 665.79
v 152.48 166.77 664.35
v 132.95 145.95 636.23
v 127.62 151.82 636.23
v 150.19 169.30 664.35
v 172.84 187.59 688.88
v 217.58 173.77 655.53
v 163.30 233.44 655.53
v 195.21 207.94 708.93
v 216.53 203.70 687.84
v 193.00 229.57 687.84
v 217.57 228.28 725.93
v 271.62 212.15 669.00
v 206.62 283.61 669.00
v 239.94 248.63 739.87
v 259.74 243.66 712.35
v 236.86 268.81 712.35
v 262.31 268.97 750.77
v 301.56 255.37 686.58
v 252.48 309.33 686.58
v 284.68 289.32 758.61
v 296.57 283.63 734.82
v 280.14 301.70 734.82
v 307.04 309.66 763.40
v 322.83 299.08 721.23
v 298.00 326.38 721.23
v 329.41 330.01 765.14
v 331.99 327.25 758.38
v 326.90 332.84 758.38
v 351.78 350.35 763.83
v 103.84 139.10 637.87
v 70.12 143.03 658.51
v 69.42 144.85 656.92
v 102.27 143.76 634.42
v 101.24 134.94 634.42
v 69.02 141.42 656.92
v 36.40 146.96 676.27
v 19.04 191.20 629.74
v 9.34 107.90 629.74
v 2.68 150.89 691.14
v -4.08 175.38 667.01
v -9.53 128.62 667.01
v -31.04 154.82 703.13
v -46.87 211.37 631.41
v -59.46 103.43 631.41
v -64.76 158.75 712.23
v -69.88 179.65 678.94
v -74.55 139.59 678.94
v -98.48 162.68 718.44
v -103.69 209.14 643.37
v -114.24 118.67 643.37
v -132.20 166.61 721.78
v -131.99 181.68 694.16
v -135.46 151.90 694.16
v -165.92 170.54 722.22
v -161.61 195.61 675.15
v -167.49 145.16 675.15
v -199.64 174.47 719.78
v -198.34 177.40 711.41
v -199.04 171.33 711.41
v -233.36 178.41 714.46
v 128.04 127.99 636.11
v 157.76 100.58 656.15
v 157.07 98.76 654.55
v 126.76 123.69 632.12
v 132.22 129.61 632.12
v 159.52 101.42 654.55
v 187.49 73.17 672.64
v 176.51 35.19 624.11
v 224.46 87.19 624.11
v 217.22 45.76 685.60
v 208.12 25.84 660.94
v 236.34 56.44 660.94
v 246.94 18.35 695.01
v 227.70 -23.21 620.75
v 286.82 40.90 620.75
v 276.67 -9.06 700.88
v 267.12 -24.30 668.19
v 291.09 1.70 668.19
v 306.40 -36.47 703.20
v 282.15 -64.27 628.58
v 332.15 -10.04 628.58
v 336.12 -63.87 701.99
v 326.35 -71.55 675.11
v 342.98 -53.51 675.11
v 365.85 -91.28 697.22
v 345.37 -102.88 652.70
v 375.75 -69.93 652.70
v 395.58 -118.69 688.92
v 391.90 -119.93 681.43
v 396.51 -114.93 681.43
v 425.30 -146.10 677.07
v 115.50 151.30 634.34
v 109.30 189.59 653.61
v 110.89 190.61 651.95
v 119.53 153.81 630.67
v 110.89 152.41 630.67
v 107.46 190.05 651.95
v 103.09 227.87 669.34
v 134.56 250.77 620.56
v 65.99 239.65 620.56
v 96.88 266.16 681.54
v 113.38 276.09 654.90
v 78.09 270.37 654.90
v 90.67 304.44 690.21
v 133.60 324.55 617.28
v 43.59 309.96 617.28
v 84.46 342.73 695.35
v 100.65 348.26 662.32
v 67.36 342.86 662.32
v 78.26 381.01 696.95
v 117.75 387.10 624.22
v 38.86 374.31 624.22
v 72.05 419.30 695.02
v 84.16 418.66 668.11
v 60.76 414.87 668.11
v 65.84 457.58 689.56
v 88.14 452.75 644.83
v 46.21 445.95 644.83
v 59.63 495.87 680.56
v 62.62 494.19 672.88
v 57.33 493.34 672.88
v 53.42 534.15 668.03
v 108.41 127.05 632.58
v 82.67 98.31 644.75
v 81.21 98.92 642.80
v 104.57 128.65 628.25
v 110.42 123.42 628.25
v 83.45 96.92 642.80
v 56.94 69.56 653.02
v 21.51 90.05 601.99
v 81.20 36.61 601.99
v 31.20 40.81 657.40
v 15.96 52.03 628.60
v 44.03 26.90 628.60
v 5.47 12.06 657.87
v -24.64 43.14 577.61
v 39.67 -14.43 577.61
v -20.27 -16.68 654.45
v -32.17 0.16 621.35
v -2.22 -26.65 621.35
v -46.00 -45.43 647.12
v -67.52 -2.72 574.45
v -1.19 -62.10 574.45
v -71.74 -74.18 635.89
v -77.52 -57.38 610.55
v -54.41 -78.07 610.55
v -97.48 -102.92 620.77
v -97.68 -75.91 575.60
v -70.61 -100.15 575.60
v -123.21 -131.67 601.74
v -123.00 -126.60 594.54
v -118.19 -130.90 594.54
v -148.95 -160.42 578.81
v 131.64 139.21 630.81
v 171.42 144.14 637.83
v 171.84 142.53 635.94
v 132.89 135.15 626.57
v 131.86 143.44 626.57
v 171.43 145.80 635.94
v 211.19 149.07 640.12
v 215.60 112.91 594.35
v 206.63 185.22 594.35
v 250.97 154.01 637.69
v 250.27 135.63 612.96
v 245.80 171.65 612.96
v 290.74 158.94 630.55
v 279.05 118.56 560.68
v 269.54 195.23 560.68
v 330.52 163.87 618.68
v 322.92 144.50 590.71
v 318.42 180.80 590.71
v 370.30 168.80 602.09
v 346.86 125.76 541.69
v 337.05 204.82 541.69
v 410.07 173.74 580.78
v 398.32 162.09 558.60
v 395.83 182.16 558.60
v 449.85 178.67 554.75
v 426.99 158.08 519.14
v 422.65 193.05 519.14
v 489.63 183.60 523.99
v 485.50 179.79 518.47
v 484.69 186.30 518.47
v 529.40 188.54 488.52
v 105.95 145.02 629.05
v 70.38 167.73 634.96
v 71.01 169.04 632.90
v 107.40 148.50 624.39
v 103.39 142.23 624.39
v 69.45 166.61 632.90
v 34.81 190.44 636.18
v 56.42 221.68 583.66
v 15.56 157.69 583.66
v -0.76 213.15 632.71
v 13.09 227.78 605.13
v -8.20 194.43 605.13
v -36.33 235.86 624.53
v 2.98 261.70 547.40
v -43.23 189.33 547.40
v -71.90 258.58 611.66
v -52.57 267.18 579.34
v -71.58 237.42 579.34
v -107.47 281.29 594.10
v -60.17 293.02 523.00
v -98.21 233.44 523.00
v -143.04 304.00 571.84
v -123.99 308.19 548.17
v -138.82 284.96 548.17
v -178.60 326.71 544.88
v -144.65 328.91 505.37
v -166.31 294.98 505.37
v -214.17 349.42 513.22
v -208.36 348.83 506.74
v -211.18 344.40 506.74
v -249.74 372.13 476.87
v 121.02 123.87 627.28
v 130.74 83.39 622.65
v 129.28 83.40 620.60
v 117.22 123.49 622.65
v 124.57 125.25 622.65
v 132.03 84.06 620.60
v 140.46 42.91 613.02
v 101.83 48.24 564.30
v 172.46 65.21 564.30
v 150.19 2.44 598.37
v 130.80 8.70 572.58
v 164.62 16.83 572.58
v 159.91 -38.04 578.73
v 113.47 -11.64 510.09
v 189.30 6.58 510.09
v 169.64 -78.52 554.07
v 147.90 -65.48 526.86
v 183.08 -57.03 526.86
v 179.36 -119.00 524.41
v 130.94 -84.60 466.47
v 206.87 -66.35 466.47
v 189.09 -159.48 489.74
v 174.26 -144.24 469.27
v 195.37 -139.16 469.27
v 198.81 -199.95 450.07
v 171.40 -172.95 417.84
v 210.97 -163.45 417.84
v 208.53 -240.43 405.39
v 205.00 -235.02 400.02
v 209.23 -234.00 400.02
v 218.26 -280.91 355.71
v 123.39 150.29 625.52
v 140.63 189.38 616.67
v 141.87 188.27 614.77
v 126.35 147.93 620.86
v 119.66 150.88 620.86
v 138.98 189.54 614.77
v 157.87 228.47 602.34
v 179.47 199.28 557.34
v 121.76 224.74 557.34
v 175.11 267.56 582.51
v 183.74 250.19 559.03
v 156.47 262.22 559.03
v 192.35 306.64 557.21
v 212.25 255.51 498.19
v 141.17 286.86 498.19
v 209.59 345.73 526.41
v 215.22 322.20 501.88
v 188.41 334.03 501.88
v 226.83 384.82 490.13
v 238.00 328.67 438.82
v 177.82 355.21 438.82
v 244.06 423.91 448.36
v 244.06 403.36 430.32
v 228.90 410.05 430.32
v 261.30 463.00 401.11
v 264.44 425.92 373.21
v 231.81 440.31 373.21
v 278.54 502.08 348.37
v 277.92 495.83 343.77
v 274.34 497.41 343.77
v 295.78 541.17 290.14
v 104.35 133.42 623.75
v 69.45 122.82 616.26
v 69.53 124.47 614.35
v 104.08 137.44 619.31
v 106.36 129.93 619.31
v 70.43 121.50 614.35
v 34.55 112.23 602.43
v 45.34 146.04 559.19
v 62.31 90.12 559.19
v -0.35 101.64 582.29
v 9.47 118.27 560.02
v 17.06 93.27 560.02
v -35.25 91.04 555.81
v -5.42 140.19 503.13
v 16.87 66.77 503.13
v -70.14 80.45 523.01
v -54.36 100.69 501.73
v -45.77 72.39 501.73
v -105.04 69.85 483.88
v -64.13 113.11 439.28
v -46.99 56.64 439.28
v -139.94 59.26 438.42
v -123.51 73.66 423.49
v -118.28 56.42 423.49
v -174.84 48.67 386.64
v -145.57 73.60 363.24
v -136.65 44.21 363.24
v -209.74 38.07 328.53
v -204.50 42.05 324.86
v -203.17 37.68 324.86
v -244.64 27.48 264.09
v 130.46 131.62 621.99
v 162.90 116.64 609.09
v 161.56 115.85 607.12
v 127.46 128.99 617.50
v 130.51 135.60 617.50
v 162.63 118.18 607.12
v 195.34 101.67 589.89
v 161.98 90.31 549.07
v 182.34 134.43 549.07
v 227.79 86.70 564.39
v 207.87 80.40 545.13
v 219.66 105.94 545.13
v 260.23 71.73 532.59
v 203.09 55.20 486.63
v 235.73 125.93 486.63
v 292.67 56.75 494.48
v 266.93 52.97 475.61
v 278.85 78.79 475.61
v 325.12 41.78 450.07
v 266.21 43.87 409.23
v 285.30 85.25 409.23
v 357.56 26.81 399.36
v 335.62 26.00 386.37
v 343.94 44.02 386.37
v 390.00 11.84 342.34
v 351.93 12.79 321.57
v 364.57 40.19 321.57
v 422.45 -3.14 279.03
v 416.11 -1.96 275.67
v 417.44 0.92 275.67
v 454.89 -18.11 209.41
v 111.22 149.87 620.22
v 94.76 181.11 601.25
v 96.52 180.76 599.49
v 115.50 149.58 616.03
v 109.04 146.17 616.03
v 94.05 179.45 599.49
v 78.29 212.36 574.55
v 112.22 199.11 542.73
v 70.04 176.88 542.73
v 61.83 243.60 540.12
v 81.09 235.73 525.42
v 57.43 223.27 525.42
v 45.37 274.85 497.97
v 91.84 243.81 460.27
v 44.70 218.97 460.27
v 28.90 306.09 448.08
v 49.56 292.11 433.63
v 28.76 281.15 433.63
v 12.44 337.34 390.48
v 55.32 300.24 360.13
v 18.80 280.99 360.13
v -4.02 368.58 325.14
v 10.83 354.32 315.17
v -0.65 348.27 315.17
v -20.48 399.83 252.08
v 7.00 376.87 236.87
v -17.09 364.18 236.87
v -36.95 431.07 171.29
v -33.07 426.45 168.83
v -35.33 425.26 168.83
v -53.41 462.32 82.77
v 118.83 159.46 595.68
v 119.33 169.51 533.63
v 122.36 157.88 531.76
v 120.87 153.88 594.79
v 116.25 154.11 594.79
v 115.16 158.23 531.76
v 119.82 179.55 472.38
v 124.79 152.03 467.87
v 112.17 152.65 467.87
v 120.32 189.60 411.93
v 123.10 175.69 409.62
v 116.18 176.03 409.62
v 120.82 199.65 352.28
v 122.78 184.53 349.73
v 117.37 184.80 349.73
v 121.31 209.70 293.43
v 99.73 150.11 594.80
v 93.94 154.17 532.32
v 106.92 151.06 530.90
v 105.40 148.27 594.15
v 103.39 145.40 594.15
v 101.29 143.02 530.90
v 88.14 158.23 470.64
v 116.97 146.59 467.14
v 108.92 135.11 467.14
v 82.35 162.29 409.76
v 97.32 157.32 407.99
v 92.13 149.91 407.99
v 76.55 166.35 349.67
v 91.91 159.17 347.69
v 88.55 154.37 347.69
v 70.76 170.41 290.39
v 95.87 135.15 607.80
v 80.76 133.55 552.69
v 91.45 138.43 549.59
v 101.05 137.79 606.31
v 101.49 133.66 606.31
v 92.24 131.02 549.59
v 65.65 131.94 498.37
v 90.82 142.58 491.00
v 92.50 126.83 491.00
v 50.54 130.33 444.85
v 63.25 135.86 441.07
v 64.13 127.60 441.07
v 35.42 128.72 392.13
v 49.75 132.64 387.88
v 50.25 127.90 387.88
v 20.31 127.11 340.22
v 98.81 126.29 587.99
v 77.09 113.45 538.15
v 83.28 121.51 533.34
v 101.98 130.71 585.47
v 104.21 126.93 585.47
v 87.14 114.99 533.34
v 55.38 100.61 489.11
v 71.07 118.08 477.50
v 78.24 105.94 477.50
v 33.66 87.78 440.87
v 42.68 95.38 434.74
v 44.67 92.01 434.74
v 11.95 74.94 393.43
v 21.70 82.97 386.74
v 23.68 79.61 386.74
v -9.77 62.10 346.79
v 107.21 118.17 599.18
v 101.97 108.57 538.49
v 103.33 120.14 536.53
v 107.60 124.08 598.21
v 111.96 121.70 598.21
v 110.97 115.97 536.53
v 96.73 98.97 478.61
v 102.38 125.47 473.83
v 115.97 118.06 473.83
v 91.49 89.37 419.53
v 94.64 102.75 417.06
v 101.05 99.25 417.06
v 86.26 79.76 361.24
v 89.92 94.08 358.54
v 96.31 90.59 358.54
v 81.02 70.16 303.76
v 129.62 118.96 587.32
v 135.95 109.08 530.71
v 128.04 115.42 528.70
v 125.17 122.81 586.15
v 127.98 124.61 586.15
v 133.50 118.92 528.70
v 142.29 99.20 474.90
v 123.90 113.99 470.16
v 136.52 122.08 470.16
v 148.62 89.32 419.89
v 140.72 98.28 417.35
v 143.78 100.24 417.35
v 154.96 79.44 365.68
v 146.03 88.67 362.93
v 150.29 91.40 362.93
v 161.29 69.55 312.26
v 138.88 131.37 596.51
v 153.03 127.27 532.46
v 141.11 127.27 529.81
v 133.02 131.36 595.21
v 133.93 134.50 595.21
v 142.95 133.64 529.81
v 167.18 123.18 469.21
v 139.55 125.47 462.84
v 142.60 136.00 462.84
v 181.33 119.08 406.76
v 167.25 119.02 403.56
v 169.46 126.65 403.56
v 195.47 114.99 345.12
v 180.59 117.51 341.51
v 181.54 120.80 341.51
v 209.62 110.89 284.27
v 138.39 145.08 602.94
v 151.52 149.91 538.72
v 142.95 142.70 536.41
v 134.09 141.07 601.76
v 132.52 145.35 601.76
v 140.32 149.85 536.41
v 164.65 154.74 475.31
v 144.35 138.39 469.83
v 138.59 154.03 469.83
v 177.78 159.58 412.70
v 166.23 153.18 409.76
v 164.84 156.96 409.76
v 190.91 164.41 350.89
v 179.20 156.38 347.75
v 176.79 162.93 347.75
v 204.04 169.24 289.87
v 129.27 156.22 605.35
v 134.78 165.17 554.24
v 132.71 154.86 552.20
v 128.40 150.39 604.23
v 124.47 152.81 604.23
v 126.51 158.68 552.20
v 140.29 174.12 503.94
v 134.53 150.34 499.04
v 121.65 158.26 499.04
v 145.80 183.07 454.44
v 142.81 171.03 451.91
v 136.39 174.97 451.91
v 151.30 192.02 405.74
v 146.06 179.79 402.88
v 142.75 181.82 402.88
v 156.81 200.98 357.84
v 124.17 176.61 571.90
v 111.75 189.02 571.90
v 111.75 176.61 586.80
v 111.75 176.61 556.38
v 99.34 176.61 571.90
v 111.75 164.19 571.90
v 113.14 151.39 556.89
v 98.79 165.74 556.89
v 98.79 151.39 574.11
v 98.79 151.39 538.94
v 84.43 151.39 556.89
v 98.79 137.04 556.89
v 139.32 174.92 580.22
v 125.99 188.25 580.22
v 125.99 174.92 596.22
v 125.99 174.92 563.55
v 112.65 174.92 580.22
v 125.99 161.58 580.22
v 106.75 155.07 590.96
v 94.89 166.93 590.96
v 94.89 155.07 605.19
v 94.89 155.07 576.13
v 83.03 155.07 590.96
v 94.89 143.21 590.96
v 131.55 108.56 562.79
v 117.77 122.35 562.79
v 117.77 108.56 579.33
v 117.77 108.56 545.56
v 103.99 108.56 562.79
v 117.77 94.78 562.79
v 135.69 97.28 549.31
v 122.36 110.62 549.31
v 122.36 97.28 565.32
v 122.36 97.28 532.64
v 109.02 97.28 549.31
v 122.36 83.94 549.31
v 132.30 112.14 598.01
v 118.52 125.91 598.01
v 118.52 112.14 614.54
v 118.52 112.14 580.78
v 104.74 112.14 598.01
v 118.52 98.36 598.01
v 95.44 116.12 585.97
v 82.36 129.19 585.97
v 82.36 116.12 601.66
v 82.36 116.12 569.62
v 69.28 116.12 585.97
v 82.36 103.04 585.97
vt 0.0000 0.0000
vt 0.5000 0.0000
vt 0.5000 0.3000
vt 0.5150 0.3000
vt 0.5357 0.0000
vt 0.4643 0.0000
vt 0.4850 0.3000
vt 0.5000 0.6000
vt 0.8512 0.6000
vt 0.1488 0.6000
vt 0.5000 0.9000
vt 0.6850 0.9000
vt 0.3150 0.9000
vt 0.5000 1.2000
vt 0.9896 1.2000
vt 0.0104 1.2000
vt 0.5000 1.5000
vt 0.7093 1.5000
vt 0.2907 1.5000
vt 0.5000 1.8000
vt 0.9671 1.8000
vt 0.0329 1.8000
vt 0.5000 2.1000
vt 0.6662 2.1000
vt 0.3338 2.1000
vt 0.5000 2.4000
vt 0.7826 2.4000
vt 0.2174 2.4000
vt 0.5000 2.7000
vt 0.5473 2.7000
vt 0.4527 2.7000
vt 0.5000 3.0000
vt 0.5149 0.3000
vt 0.5355 0.0000
vt 0.4645 0.0000
vt 0.4851 0.3000
vt 0.5154 0.3000
vt 0.5367 0.0000
vt 0.4633 0.0000
vt 0.4846 0.3000
vt 0.5358 0.0000
vt 0.4642 0.0000
vt 0.5143 0.3000
vt 0.5340 0.0000
vt 0.4660 0.0000
vt 0.4857 0.3000
vt 0.5133 0.3000
vt 0.5317 0.0000
vt 0.4683 0.0000
vt 0.4867 0.3000
vt 0.5141 0.3000
vt 0.5337 0.0000
vt 0.4663 0.0000
vt 0.4859 0.3000
vt 0.5142 0.3000
vt 0.5338 0.0000
vt 0.4662 0.0000
vt 0.4858 0.3000
vt 0.5135 0.3000
vt 0.5322 0.0000
vt 0.4678 0.0000
vt 0.4865 0.3000
vt 0.5151 0.3000
vt 0.5360 0.0000
vt 0.4640 0.0000
vt 0.4849 0.3000
vt 0.5137 0.3000
vt 0.5325 0.0000
vt 0.4675 0.0000
vt 0.4863 0.3000
vt 0.5153 0.3000
vt 0.5365 0.0000
vt 0.4635 0.0000
vt 0.4847 0.3000
vt 0.5158 0.3000
vt 0.5377 0.0000
vt 0.4623 0.0000
vt 0.4842 0.3000
vt 0.5164 0.3000
vt 0.5391 0.0000
vt 0.4609 0.0000
vt 0.4836 0.3000
vt 0.5183 0.3000
vt 0.5436 0.0000
vt 0.4564 0.0000
vt 0.4817 0.3000
vt 0.7128 0.6000
vt 0.6050 0.0000
vt 0.3950 0.0000
vt 0.2872 0.6000
vt 0.9958 1.2000
vt 0.0042 1.2000
vt 0.7516 1.8000
vt 0.2484 1.8000
vt 0.7705 2.4000
vt 0.2295 2.4000
vt 0.5951 0.0000
vt 0.4049 0.0000
vt 0.6051 0.0000
vt 0.3949 0.0000
vt 0.6136 0.0000
vt 0.3864 0.0000
vt 0.6081 0.0000
vt 0.3919 0.0000
vt 0.6236 0.0000
vt 0.3764 0.0000
vt 0.6046 0.0000
vt 0.3954 0.0000
vt 0.6117 0.0000
vt 0.3883 0.0000
vt 0.6192 0.0000
vt 0.3808 0.0000
vn 0.8161 0.4733 -0.3317
vn 0.6042 0.7963 0.0300
vn 0.1519 0.9641 0.2177
vn -0.1876 0.7903 0.5833
vn -0.5918 0.4730 0.6527
vn -0.6470 -0.0371 0.7616
vn -0.6715 -0.5089 0.5385
vn -0.3198 -0.8639 0.3892
vn -0.0075 -0.9999 -0.0108
vn 0.4730 -0.8653 -0.1660
vn 0.7364 -0.5088 -0.4459
vn 0.9374 -0.0327 -0.3468
vn 0.7969 0.4888 -0.3549
vn 0.4637 0.8616 -0.2063
vn 0.1076 0.9788 0.1742
vn -0.3736 0.8633 0.3392
vn -0.6490 0.4819 0.5887
vn -0.8562 0.0070 0.5166
vn -0.7199 -0.5048 0.4763
vn -0.5022 -0.8518 0.1490
vn -0.0322 -0.9981 -0.0521
vn 0.3354 -0.8545 -0.3965
vn 0.7276 -0.5011 -0.4685
vn 0.8186 0.0025 -0.5743
vn 0.7574 0.4987 -0.4214
vn 0.5067 0.8550 -0.1105
vn 0.0356 0.9977 0.0577
vn -0.3531 0.8495 0.3920
vn -0.7381 0.5031 0.4496
vn -0.8251 -0.0080 0.5649
vn -0.7922 -0.4902 0.3634
vn -0.4396 -0.8666 0.2360
vn -0.0711 -0.9908 -0.1152
vn 0.4231 -0.8654 -0.2683
vn 0.7042 -0.4961 -0.5079
vn 0.8971 -0.0028 -0.4419
vn 0.8139 0.4987 -0.2979
vn 0.4517 0.8659 -0.2149
vn 0.0488 0.9927 0.1100
vn -0.4438 0.8668 0.2274
vn -0.7310 0.4945 0.4702
vn -0.9109 0.0052 0.4125
vn -0.7544 -0.4989 0.4266
vn -0.4837 -0.8612 0.1560
vn 0.0087 -0.9998 0.0196
vn 0.4134 -0.8642 -0.2868
vn 0.7949 -0.5001 -0.3436
vn 0.8814 -0.0002 -0.4724
vn 0.7880 0.5001 -0.3592
vn 0.4791 0.8668 -0.1383
vn -0.0253 0.9980 -0.0571
vn -0.4462 0.8657 0.2270
vn -0.8234 0.4988 0.2704
vn -0.9023 0.0090 0.4310
vn -0.8139 -0.4987 0.2981
vn -0.4356 -0.8583 0.2713
vn -0.0015 -1.0000 -0.0033
vn 0.4953 -0.8634 -0.0956
vn 0.7998 -0.5001 -0.3320
vn 0.9536 0.0014 -0.3010
vn 0.8359 0.4999 -0.2266
vn 0.4378 0.8591 -0.2652
vn -0.0110 0.9987 -0.0494
vn -0.5237 0.8519 0.0034
vn -0.8247 0.5119 0.2407
vn -0.9714 -0.0063 0.2373
vn -0.8041 -0.4752 0.3571
vn -0.4589 -0.8648 0.2040
vn 0.0403 -0.9825 0.1817
vn 0.5053 -0.8605 -0.0648
vn 0.8625 -0.4938 -0.1109
vn 0.9541 0.0015 -0.2996
vn 0.8253 0.4913 -0.2785
vn 0.4794 0.8537 -0.2036
vn -0.0540 0.9684 -0.2436
vn -0.5029 0.8633 -0.0422
vn -0.8814 0.4724 0.0038
vn -0.9744 0.0318 0.2225
vn -0.8375 -0.5012 0.2178
vn -0.4667 -0.8210 0.3289
vn 0.0408 -0.9821 0.1839
vn 0.5210 -0.8369 0.1679
vn 0.8720 -0.4852 -0.0644
vn 0.9951 0.0023 -0.0990
vn 0.8654 0.4819 -0.1374
vn 0.4678 0.8235 -0.3209
vn -0.0001 0.9691 -0.2468
vn -0.5291 0.8062 -0.2647
vn -0.8594 0.5085 -0.0531
vn -0.9994 -0.0221 0.0265
vn -0.8628 -0.4391 0.2505
vn -0.4743 -0.8399 0.2638
vn 0.0002 -0.9323 0.3618
vn 0.5250 -0.8252 0.2081
vn 0.8661 -0.4710 0.1674
vn 0.9964 0.0064 -0.0841
vn 0.8659 0.4681 -0.1761
vn 0.5246 0.8155 -0.2443
vn -0.0002 0.9153 -0.4028
vn -0.4713 0.8296 -0.2995
vn -0.8627 0.4376 -0.2535
vn -0.9992 0.0389 -0.0056
vn -0.8648 -0.4869 0.1224
vn -0.5344 -0.7714 0.3454
vn 0.0001 -0.9367 0.3501
vn 0.4640 -0.7894 0.4020
vn 0.8657 -0.4587 0.2005
vn 0.9943 0.0053 0.1067
vn 0.8854 0.4631 -0.0396
vn 0.5329 0.7814 -0.3247
vn 0.0644 0.9264 -0.3711
vn -0.4578 0.7638 -0.4550
vn -0.8261 0.4852 -0.2866
vn -0.9874 -0.0270 -0.1559
vn -0.8991 -0.4183 0.1286
vn -0.5282 -0.8035 0.2746
vn -0.0800 -0.8839 0.4608
vn 0.4636 -0.7877 0.4057
vn 0.8135 -0.4431 0.3767
vn 0.9944 0.0050 0.1060
vn 0.8918 0.4462 -0.0743
vn 0.5671 0.7895 -0.2347
vn 0.0809 0.8810 -0.4661
vn -0.4102 0.7979 -0.4416
vn -0.8052 0.4227 -0.4159
vn -0.9854 0.0297 -0.1675
vn -0.8825 -0.4697 0.0255
vn -0.5850 -0.7479 0.3138
vn -0.0725 -0.9057 0.4177
vn 0.3924 -0.7578 0.5213
vn 0.8151 -0.4476 0.3678
vn 0.9689 0.0114 0.2470
vn 0.8856 0.4635 0.0285
vn 0.5795 0.7626 -0.2874
vn 0.1028 0.9089 -0.4042
vn -0.3904 0.7533 -0.5293
vn -0.7917 0.4637 -0.3977
vn -0.9632 -0.0222 -0.2678
vn -0.9034 -0.4268 0.0415
vn -0.5673 -0.7890 0.2358
vn -0.1206 -0.8721 0.4742
vn 0.4026 -0.7806 0.4781
vn 0.7739 -0.4270 0.4677
vn 0.9763 -0.0045 0.2165
vn 0.9180 0.3725 -0.1360
vn 0.1435 0.8130 -0.5643
vn -0.7416 0.3725 -0.5580
vn -0.8521 -0.5086 -0.1234
vn -0.0776 -0.9492 0.3050
vn 0.8075 -0.5086 0.2987
vn 0.6556 0.6152 0.4378
vn -0.0168 0.9977 0.0660
vn -0.7851 0.6152 0.0714
vn -0.8810 -0.1496 0.4487
vn -0.2087 -0.5321 0.8206
vn 0.5597 -0.1496 0.8151
vn 0.4800 0.8367 -0.2637
vn -0.9806 -0.0082 -0.1960
vn 0.4381 -0.7491 0.4969
vn -0.3663 0.8965 -0.2490
vn 0.8998 0.3611 -0.2450
vn -0.3133 0.9088 -0.2755
vn 0.8598 0.3839 -0.3366
vn -0.3489 0.8941 -0.2808
vn 0.8667 0.3359 -0.3687
vn -0.4376 0.8579 -0.2692
vn 0.8515 0.1822 -0.4916
vn -0.5166 0.8171 -0.2558
vn 0.9569 0.2260 -0.1826
vn -0.4668 0.8347 -0.2923
vn 0.8085 0.0930 -0.5811
vn -0.5652 0.7803 -0.2678
vn 0.9588 0.1479 -0.2425
vn -0.5493 0.7817 -0.2952
vn 0.9035 0.0796 -0.4211
vn -0.6084 0.7410 -0.2842
vn 0.9520 0.0697 -0.2979
vn -0.6463 0.7089 -0.2823
vn 0.9589 0.0280 -0.2823
vn -0.1753 -0.9041 -0.3897
vn -0.8986 0.1911 -0.3951
vn -0.0860 -0.9245 -0.3714
vn -0.9126 0.2601 -0.3155
vn -0.1105 -0.9091 -0.4017
vn -0.8620 0.2624 -0.4337
vn -0.0647 -0.9136 -0.4015
vn -0.6563 0.3822 -0.6505
vn 0.0585 -0.9319 -0.3578
vn -0.8522 0.4048 -0.3316
vn 0.0455 -0.9207 -0.3877
vn -0.7017 0.4616 -0.5427
vn 0.1198 -0.9234 -0.3645
vn -0.8236 0.4559 -0.3374
vn 0.1042 -0.9101 -0.4010
vn -0.6346 0.5257 -0.5665
vn 0.2241 -0.9148 -0.3359
vn -0.7580 0.5604 -0.3338
vn 0.2307 -0.9049 -0.3577
vn -0.7445 0.5638 -0.3577
vn 0.7013 0.5951 -0.3924
vn 0.5647 -0.7254 -0.3935
vn 0.6798 0.6106 -0.4063
vn 0.5160 -0.7326 -0.4438
vn 0.6522 0.6327 -0.4175
vn 0.5026 -0.7514 -0.4276
vn 0.6289 0.6445 -0.4348
vn 0.3895 -0.7399 -0.5485
vn 0.5832 0.6867 -0.4339
vn 0.3381 -0.7726 -0.5374
vn 0.5024 0.7686 -0.3960
vn 0.4325 -0.8573 -0.2794
vn 0.5042 0.7386 -0.4475
vn 0.2987 -0.8189 -0.4901
vn 0.4497 0.7786 -0.4377
vn 0.1745 -0.8326 -0.5257
vn 0.3887 0.8224 -0.4155
vn 0.1988 -0.8824 -0.4264
vn 0.3341 0.8547 -0.3973
vn 0.1530 -0.9048 -0.3973
vn -0.8566 0.0229 -0.5154
vn 0.1549 0.8413 -0.5179
vn -0.8610 -0.0382 -0.5072
vn 0.2452 0.7926 -0.5583
vn -0.8607 -0.0919 -0.5008
vn 0.2634 0.8275 -0.4959
vn -0.8461 -0.1004 -0.5235
vn 0.3282 0.7271 -0.6030
vn -0.8446 -0.1596 -0.5111
vn 0.3423 0.7772 -0.5279
vn -0.8357 -0.1977 -0.5124
vn 0.4999 0.5462 -0.6721
vn -0.8423 -0.3107 -0.4404
vn 0.4528 0.7898 -0.4138
vn -0.8193 -0.2921 -0.4935
vn 0.5448 0.6035 -0.5822
vn -0.8214 -0.3904 -0.4159
vn 0.5461 0.7295 -0.4119
vn -0.8012 -0.3902 -0.4536
vn 0.5464 0.7041 -0.4536
vn 0.6168 -0.6183 -0.4871
vn -0.7250 -0.4809 -0.4931
vn 0.7158 -0.5415 -0.4410
vn -0.8083 -0.3973 -0.4346
vn 0.7136 -0.5274 -0.4610
vn -0.8011 -0.3641 -0.4751
vn 0.7312 -0.4983 -0.4658
vn -0.8184 -0.4222 -0.3898
vn 0.7035 -0.4961 -0.5089
vn -0.7738 -0.2698 -0.5731
vn 0.7704 -0.4327 -0.4682
vn -0.8354 -0.2401 -0.4944
vn 0.7829 -0.4024 -0.4744
vn -0.8386 -0.1884 -0.5112
vn 0.8272 -0.3495 -0.4399
vn -0.8464 -0.0216 -0.5321
vn 0.8866 -0.2824 -0.3662
vn -0.9240 -0.0975 -0.3699
vn 0.9010 -0.2504 -0.3543
vn -0.9325 -0.0699 -0.3543
vn -0.1857 0.8462 -0.4995
vn 0.8257 -0.2640 -0.4985
vn -0.1899 0.8207 -0.5390
vn 0.8290 -0.2391 -0.5056
vn -0.1926 0.7880 -0.5848
vn 0.6720 -0.3392 -0.6583
vn -0.3400 0.7943 -0.5034
vn 0.8108 -0.3641 -0.4582
vn -0.3499 0.7601 -0.5476
vn 0.6221 -0.4983 -0.6039
vn -0.4595 0.7554 -0.4672
vn 0.6623 -0.5668 -0.4899
vn -0.5025 0.7307 -0.4621
vn 0.6582 -0.5878 -0.4704
vn -0.5491 0.7082 -0.4439
vn 0.5791 -0.6727 -0.4605
vn -0.5999 0.6937 -0.3987
vn 0.6531 -0.6456 -0.3959
vn -0.6029 0.6314 -0.4877
vn 0.5716 -0.6598 -0.4877
vn -0.4597 -0.6237 -0.6322
vn -0.2997 0.7122 -0.6347
vn -0.3998 -0.6866 -0.6073
vn -0.1102 0.7369 -0.6670
vn -0.3412 -0.7415 -0.5777
vn -0.2099 0.8055 -0.5541
vn -0.3080 -0.7097 -0.6337
vn 0.1638 0.6823 -0.7125
vn -0.2446 -0.7869 -0.5665
vn 0.0497 0.8024 -0.5947
vn -0.1907 -0.8443 -0.5008
vn -0.0132 0.8683 -0.4959
vn -0.1492 -0.8454 -0.5128
vn 0.0922 0.8504 -0.5179
vn -0.1080 -0.8724 -0.4768
vn 0.0990 0.8734 -0.4769
vn -0.0681 -0.8780 -0.4738
vn 0.1746 0.8642 -0.4720
vn -0.0564 -0.9399 -0.3368
vn 0.1613 0.9277 -0.3368
vn 0.7218 0.3437 -0.6007
vn -0.2817 -0.7495 -0.5991
vn 0.6717 0.3291 -0.6637
vn -0.4564 -0.4782 -0.7503
vn 0.6860 0.4896 -0.5383
vn -0.3856 -0.7657 -0.5148
vn 0.6309 0.4731 -0.6150
vn -0.6452 -0.3779 -0.6640
vn 0.6398 0.5880 -0.4949
vn -0.5546 -0.6654 -0.4997
vn 0.6168 0.6288 -0.4735
vn -0.6357 -0.6049 -0.4795
vn 0.5978 0.6680 -0.4432
vn -0.6351 -0.6326 -0.4432
vn 0.5812 0.7019 -0.4118
vn -0.6182 -0.6675 -0.4151
vn 0.5411 0.7190 -0.4362
vn -0.6797 -0.5909 -0.4346
vn 0.5371 0.7497 -0.3867
vn -0.7037 -0.5961 -0.3867
vn -0.7275 0.2107 -0.6530
vn 0.6241 0.4269 -0.6545
vn -0.7563 0.1400 -0.6390
vn 0.6830 0.1146 -0.7213
vn -0.8467 0.0320 -0.5312
vn 0.7948 0.2856 -0.5354
vn -0.8472 -0.0171 -0.5310
vn 0.8159 0.1931 -0.5450
vn -0.8514 -0.0683 -0.5200
vn 0.8380 0.1225 -0.5317
vn -0.8826 -0.1241 -0.4534
vn 0.8621 0.2414 -0.4455
vn -0.8611 -0.1639 -0.4813
vn 0.8767 0.0451 -0.4790
vn -0.8949 -0.2019 -0.3980
vn 0.9075 0.1243 -0.4012
vn -0.8790 -0.2394 -0.4124
vn 0.9127 0.0271 -0.4077
vn -0.9199 -0.2485 -0.3034
vn 0.9513 0.0550 -0.3034
vn 0.4322 -0.6511 -0.6239
vn -0.6919 0.3611 -0.6252
vn 0.5144 -0.6284 -0.5835
vn -0.7062 0.4146 -0.5739
vn 0.5427 -0.5785 -0.6089
vn -0.5808 0.5297 -0.6181
vn 0.6192 -0.5633 -0.5471
vn -0.4411 0.7153 -0.5420
vn 0.6841 -0.5562 -0.4719
vn -0.6637 0.5788 -0.4739
vn 0.7025 -0.4997 -0.5068
vn -0.5661 0.6515 -0.5050
vn 0.7354 -0.4663 -0.4918
vn -0.5378 0.6866 -0.4893
vn 0.7667 -0.4407 -0.4669
vn -0.3565 0.8556 -0.3753
vn 0.8011 -0.5121 -0.3099
vn -0.6001 0.7366 -0.3118
vn 0.8181 -0.4812 -0.3149
vn -0.5684 0.7601 -0.3149
vn 0.0307 0.7274 -0.6855
vn 0.2041 -0.6983 -0.6861
vn -0.0558 0.7540 -0.6544
vn 0.0607 -0.7496 -0.6592
vn -0.1336 0.7713 -0.6223
vn 0.0238 -0.7834 -0.6211
vn -0.2021 0.7888 -0.5804
vn -0.3177 -0.8019 -0.5059
vn -0.2420 0.8571 -0.4548
vn 0.0258 -0.8839 -0.4670
vn -0.3040 0.8199 -0.4851
vn -0.1232 -0.8718 -0.4741
vn -0.3445 0.8225 -0.4525
vn -0.2254 -0.8863 -0.4045
vn -0.3122 0.8992 -0.3066
vn -0.0741 -0.9472 -0.3120
vn -0.3405 0.8920 -0.2973
vn -0.1065 -0.9475 -0.3014
vn -0.3857 0.8683 -0.3118
vn -0.1619 -0.9363 -0.3118
vn -0.4948 -0.6150 -0.6140
vn 0.3526 0.7057 -0.6145
vn -0.4551 -0.6820 -0.5725
vn 0.4027 0.7159 -0.5703
vn -0.3954 -0.7087 -0.5842
vn 0.4821 0.6531 -0.5839
vn -0.3455 -0.7460 -0.5693
vn 0.7544 0.4303 -0.4957
vn -0.3564 -0.8160 -0.4550
vn 0.6059 0.6560 -0.4500
vn -0.3304 -0.8441 -0.4224
vn 0.7133 0.5897 -0.3788
vn -0.3294 -0.8716 -0.3630
vn 0.6297 0.6800 -0.3756
vn -0.2766 -0.8831 -0.3790
vn 0.7387 0.5833 -0.3378
vn -0.3011 -0.9022 -0.3089
vn 0.7020 0.6458 -0.3002
vn -0.3476 -0.9095 -0.2282
vn 0.6788 0.6979 -0.2282
vn 0.7394 0.2492 -0.6254
vn -0.7731 -0.1090 -0.6249
vn 0.7747 0.3164 -0.5474
vn -0.8245 -0.1110 -0.5549
vn 0.7452 0.3778 -0.5495
vn -0.8444 0.0455 -0.5338
vn 0.7720 0.4179 -0.4789
vn -0.8985 0.2047 -0.3884
vn 0.8155 0.4311 -0.3861
vn -0.9152 -0.0167 -0.4027
vn 0.7834 0.4787 -0.3965
vn -0.9207 0.0976 -0.3778
vn 0.7874 0.4990 -0.3618
vn -0.9371 0.1357 -0.3216
vn 0.8449 0.4640 -0.2663
vn -0.9567 0.0023 -0.2912
vn 0.8195 0.5020 -0.2764
vn -0.9612 0.0896 -0.2610
vn 0.8928 0.4186 -0.1663
vn -0.9855 -0.0326 -0.1663
vn -0.7757 0.2071 -0.5961
vn 0.6765 -0.4320 -0.5964
vn -0.7939 0.1325 -0.5934
vn 0.5682 -0.6147 -0.5471
vn -0.8593 0.1278 -0.4953
vn 0.6553 -0.5854 -0.4774
vn -0.8985 0.1234 -0.4214
vn 0.6910 -0.5927 -0.4137
vn -0.9153 0.0954 -0.3913
vn 0.6716 -0.6439 -0.3665
vn -0.9392 0.1131 -0.3243
vn 0.7182 -0.6143 -0.3269
vn -0.9477 0.0910 -0.3060
vn 0.6854 -0.6791 -0.2627
vn -0.9627 0.1788 -0.2032
vn 0.7982 -0.5482 -0.2498
vn -0.9653 0.1000 -0.2414
vn 0.7203 -0.6547 -0.2291
vn -0.9674 0.2052 -0.1487
vn 0.8038 -0.5760 -0.1487
vn 0.3457 -0.6856 -0.6407
vn -0.0906 0.7630 -0.6400
vn 0.4378 -0.6901 -0.5763
vn 0.1586 0.8480 -0.5058
vn 0.4896 -0.7420 -0.4580
vn 0.0550 0.9029 -0.4263
vn 0.5098 -0.7818 -0.3591
vn -0.1034 0.9017 -0.4197
vn 0.5679 -0.7371 -0.3662
vn 0.0917 0.9358 -0.3405
vn 0.5710 -0.7632 -0.3026
vn 0.1045 0.9638 -0.2452
vn 0.5628 -0.7884 -0.2484
vn 0.0473 0.9728 -0.2267
vn 0.5395 -0.8188 -0.1961
vn -0.0071 0.9805 -0.1966
vn 0.5496 -0.8155 -0.1814
vn 0.0059 0.9841 -0.1777
vn 0.5293 -0.8352 -0.1494
vn -0.0242 0.9885 -0.1494
vn 0.1466 0.8086 -0.5699
vn -0.5265 -0.6332 -0.5673
vn 0.1400 0.8815 -0.4509
vn -0.6643 -0.6302 -0.4019
vn 0.1360 0.9201 -0.3672
vn -0.5852 -0.7132 -0.3859
vn 0.0648 0.9267 -0.3702
vn -0.6290 -0.6663 -0.4004
vn 0.0149 0.9349 -0.3546
vn -0.7358 -0.5995 -0.3148
vn 0.0627 0.9587 -0.2774
vn -0.7831 -0.6071 -0.1352
vn 0.1614 0.9698 -0.1831
vn -0.6156 -0.7599 -0.2086
vn 0.0867 0.9746 -0.2066
vn -0.6996 -0.6910 -0.1819
vn 0.1178 0.9782 -0.1709
vn -0.6740 -0.7213 -0.1593
vn 0.2325 0.9675 -0.0997
vn -0.5853 -0.8046 -0.0997
vn -0.5675 -0.6247 -0.5364
vn 0.8378 0.1117 -0.5345
vn -0.5788 -0.6842 -0.4437
vn 0.9204 0.0216 -0.3903
vn -0.6088 -0.7102 -0.3535
vn 0.9233 0.1140 -0.3667
vn -0.5652 -0.7529 -0.3373
vn 0.9795 -0.0771 -0.1864
vn -0.6621 -0.7137 -0.2285
vn 0.9612 0.1462 -0.2338
vn -0.6456 -0.7333 -0.2132
vn 0.9883 0.0720 -0.1341
vn -0.7062 -0.6914 -0.1527
vn 0.9722 0.1862 -0.1420
vn -0.7293 -0.6730 -0.1235
vn 0.9598 0.2346 -0.1538
vn -0.6793 -0.7203 -0.1402
vn 0.9804 0.1487 -0.1295
vn -0.7823 -0.6187 -0.0729
vn 0.9526 0.2954 -0.0729
vn -0.9402 -0.3350 -0.0618
vn 0.9023 -0.4288 -0.0436
vn -0.9683 -0.2451 -0.0481
vn 0.9386 -0.3447 -0.0139
vn -0.9845 -0.1717 -0.0366
vn 0.9628 -0.2672 -0.0408
vn -0.9811 -0.1892 -0.0400
vn 0.9574 -0.2877 -0.0232
vn -0.9918 -0.1241 -0.0295
vn 0.9748 -0.2212 -0.0295
vn -0.3114 -0.9497 -0.0328
vn 0.7848 0.6178 -0.0494
vn -0.2368 -0.9707 -0.0417
vn 0.8362 0.5474 0.0321
vn -0.3770 -0.9258 -0.0259
vn 0.7400 0.6713 -0.0420
vn -0.3184 -0.9474 -0.0333
vn 0.7846 0.6200 -0.0008
vn -0.4259 -0.9046 -0.0203
vn 0.7050 0.7089 -0.0203
vn 0.4311 -0.8976 -0.0920
vn 0.2348 0.9685 -0.0835
vn 0.3945 -0.9152 -0.0827
vn 0.1968 0.9780 -0.0690
vn 0.3692 -0.9262 -0.0764
vn 0.1653 0.9831 -0.0788
vn 0.3774 -0.9226 -0.0800
vn 0.1852 0.9818 -0.0427
vn 0.2519 -0.9668 -0.0434
vn 0.0427 0.9981 -0.0434
vn 0.7548 -0.6348 -0.1653
vn -0.1899 0.9687 -0.1597
vn 0.7369 -0.6582 -0.1540
vn -0.2081 0.9702 -0.1241
vn 0.6954 -0.7077 -0.1247
vn -0.2726 0.9571 -0.0977
vn 0.6152 -0.7853 -0.0691
vn -0.3903 0.9183 -0.0665
vn 0.6074 -0.7917 -0.0649
vn -0.4009 0.9138 -0.0649
vn 0.9942 -0.0785 -0.0734
vn -0.6032 0.7950 -0.0641
vn 0.9897 -0.1271 -0.0662
vn -0.6385 0.7692 -0.0253
vn 0.9749 -0.2169 -0.0512
vn -0.7096 0.7031 -0.0465
vn 0.9703 -0.2369 -0.0482
vn -0.7239 0.6885 -0.0433
vn 0.9657 -0.2556 -0.0453
vn -0.7376 0.6737 -0.0453
vn 0.6612 0.7481 -0.0566
vn -0.9551 -0.2896 -0.0630
vn 0.6338 0.7708 -0.0645
vn -0.9651 -0.2539 -0.0636
vn 0.6356 0.7693 -0.0650
vn -0.9678 -0.2499 -0.0296
vn 0.7541 0.6560 -0.0315
vn -0.9097 -0.4132 -0.0418
vn 0.7246 0.6879 -0.0413
vn -0.9276 -0.3712 -0.0413
vn 0.0117 0.9981 -0.0612
vn -0.5232 -0.8500 -0.0609
vn 0.0135 0.9980 -0.0616
vn -0.5289 -0.8482 -0.0271
vn 0.0926 0.9947 -0.0442
vn -0.4487 -0.8915 -0.0628
vn 0.0101 0.9979 -0.0640
vn -0.5331 -0.8457 -0.0241
vn 0.1733 0.9845 -0.0260
vn -0.3793 -0.9249 -0.0260
vn -0.6681 0.7397 -0.0809
vn -0.0309 -0.9969 -0.0724
vn -0.6310 0.7725 -0.0718
vn 0.0185 -0.9978 -0.0631
vn -0.6145 0.7860 -0.0682
vn 0.0344 -0.9988 -0.0337
vn -0.4780 0.8777 -0.0329
vn 0.2093 -0.9764 -0.0536
vn -0.5549 0.8302 -0.0536
vn 0.1157 -0.9918 -0.0536
vn -0.9836 0.1628 -0.0775
vn 0.5876 -0.8063 -0.0678
vn -0.9753 0.2096 -0.0695
vn 0.6246 -0.7793 -0.0510
vn -0.9670 0.2470 -0.0629
vn 0.6562 -0.7521 -0.0614
vn -0.9655 0.2529 -0.0627
vn 0.6556 -0.7548 -0.0205
vn -0.9160 0.4000 -0.0306
vn 0.7700 -0.6373 -0.0306
vn 0.6092 0.6092 0.5077
vn 0.6155 0.6155 -0.4924
vn -0.6092 0.6092 0.5077
vn -0.6155 0.6155 -0.4924
vn -0.6092 -0.6092 0.5077
vn -0.6155 -0.6155 -0.4924
vn 0.6092 -0.6092 0.5077
vn 0.6155 -0.6155 -0.4924
usemtl TrunkA
f 1/1/1 2/1/1 3/1/1
f 3/1/2 2/1/2 4/1/2
f 2/1/3 5/1/3 4/1/3
f 4/1/4 5/1/4 6/1/4
f 5/1/5 7/1/5 6/1/5
f 6/1/6 7/1/6 8/1/6
f 7/1/7 9/1/7 8/1/7
f 8/1/8 9/1/8 10/1/8
f 9/1/9 11/1/9 10/1/9
f 10/1/10 11/1/10 12/1/10
f 11/1/11 1/1/11 12/1/11
f 12/1/12 1/1/12 3/1/12
f 14/1/25 13/1/25 19/1/25
f 19/1/26 13/1/26 20/1/26
f 13/1/27 15/1/27 20/1/27
f 20/1/28 15/1/28 21/1/28
f 15/1/29 16/1/29 21/1/29
f 21/1/30 16/1/30 22/1/30
f 16/1/31 17/1/31 22/1/31
f 22/1/32 17/1/32 23/1/32
f 17/1/33 18/1/33 23/1/33
f 23/1/34 18/1/34 24/1/34
f 18/1/35 14/1/35 24/1/35
f 24/1/36 14/1/36 19/1/36
f 26/1/49 25/1/49 31/1/49
f 31/1/50 25/1/50 32/1/50
f 25/1/51 27/1/51 32/1/51
f 32/1/52 27/1/52 33/1/52
f 27/1/53 28/1/53 33/1/53
f 33/1/54 28/1/54 34/1/54
f 28/1/55 29/1/55 34/1/55
f 34/1/56 29/1/56 35/1/56
f 29/1/57 30/1/57 35/1/57
f 35/1/58 30/1/58 36/1/58
f 30/1/59 26/1/59 36/1/59
f 36/1/60 26/1/60 31/1/60
f 38/1/73 37/1/73 43/1/73
f 43/1/74 37/1/74 44/1/74
f 37/1/75 39/1/75 44/1/75
f 44/1/76 39/1/76 45/1/76
f 39/1/77 40/1/77 45/1/77
f 45/1/78 40/1/78 46/1/78
f 40/1/79 41/1/79 46/1/79
f 46/1/80 41/1/80 47/1/80
f 41/1/81 42/1/81 47/1/81
f 47/1/82 42/1/82 48/1/82
f 42/1/83 38/1/83 48/1/83
f 48/1/84 38/1/84 43/1/84
f 50/1/97 49/1/97 55/1/97
f 55/1/98 49/1/98 56/1/98
f 49/1/99 51/1/99 56/1/99
f 56/1/100 51/1/100 57/1/100
f 51/1/101 52/1/101 57/1/101
f 57/1/102 52/1/102 58/1/102
f 52/1/103 53/1/103 58/1/103
f 58/1/104 53/1/104 59/1/104
f 53/1/105 54/1/105 59/1/105
f 59/1/106 54/1/106 60/1/106
f 54/1/107 50/1/107 60/1/107
f 60/1/108 50/1/108 55/1/108
f 62/1/121 61/1/121 67/1/121
f 67/1/122 61/1/122 68/1/122
f 61/1/123 63/1/123 68/1/123
f 68/1/124 63/1/124 69/1/124
f 63/1/125 64/1/125 69/1/125
f 69/1/126 64/1/126 70/1/126
f 64/1/127 65/1/127 70/1/127
f 70/1/128 65/1/128 71/1/128
f 65/1/129 66/1/129 71/1/129
f 71/1/130 66/1/130 72/1/130
f 66/1/131 62/1/131 72/1/131
f 72/1/132 62/1/132 67/1/132
usemtl TrunkB
f 3/1/13 13/1/13 14/1/13
f 3/1/14 4/1/14 13/1/14
f 4/1/15 15/1/15 13/1/15
f 4/1/16 6/1/16 15/1/16
f 6/1/17 16/1/17 15/1/17
f 6/1/18 8/1/18 16/1/18
f 8/1/19 17/1/19 16/1/19
f 8/1/20 10/1/20 17/1/20
f 10/1/21 18/1/21 17/1/21
f 10/1/22 12/1/22 18/1/22
f 12/1/23 14/1/23 18/1/23
f 12/1/24 3/1/24 14/1/24
f 19/1/37 25/1/37 26/1/37
f 19/1/38 20/1/38 25/1/38
f 20/1/39 27/1/39 25/1/39
f 20/1/40 21/1/40 27/1/40
f 21/1/41 28/1/41 27/1/41
f 21/1/42 22/1/42 28/1/42
f 22/1/43 29/1/43 28/1/43
f 22/1/44 23/1/44 29/1/44
f 23/1/45 30/1/45 29/1/45
f 23/1/46 24/1/46 30/1/46
f 24/1/47 26/1/47 30/1/47
f 24/1/48 19/1/48 26/1/48
f 31/1/61 37/1/61 38/1/61
f 31/1/62 32/1/62 37/1/62
f 32/1/63 39/1/63 37/1/63
f 32/1/64 33/1/64 39/1/64
f 33/1/65 40/1/65 39/1/65
f 33/1/66 34/1/66 40/1/66
f 34/1/67 41/1/67 40/1/67
f 34/1/68 35/1/68 41/1/68
f 35/1/69 42/1/69 41/1/69
f 35/1/70 36/1/70 42/1/70
f 36/1/71 38/1/71 42/1/71
f 36/1/72 31/1/72 38/1/72
f 43/1/85 49/1/85 50/1/85
f 43/1/86 44/1/86 49/1/86
f 44/1/87 51/1/87 49/1/87
f 44/1/88 45/1/88 51/1/88
f 45/1/89 52/1/89 51/1/89
f 45/1/90 46/1/90 52/1/90
f 46/1/91 53/1/91 52/1/91
f 46/1/92 47/1/92 53/1/92
f 47/1/93 54/1/93 53/1/93
f 47/1/94 48/1/94 54/1/94
f 48/1/95 50/1/95 54/1/95
f 48/1/96 43/1/96 50/1/96
f 55/1/109 61/1/109 62/1/109
f 55/1/110 56/1/110 61/1/110
f 56/1/111 63/1/111 61/1/111
f 56/1/112 57/1/112 63/1/112
f 57/1/113 64/1/113 63/1/113
f 57/1/114 58/1/114 64/1/114
f 58/1/115 65/1/115 64/1/115
f 58/1/116 59/1/116 65/1/116
f 59/1/117 66/1/117 65/1/117
f 59/1/118 60/1/118 66/1/118
f 60/1/119 62/1/119 66/1/119
f 60/1/120 55/1/120 62/1/120
f 67/1/133 73/1/133 74/1/133
f 67/1/134 68/1/134 73/1/134
f 68/1/135 75/1/135 73/1/135
f 68/1/136 69/1/136 75/1/136
f 69/1/137 76/1/137 75/1/137
f 69/1/138 70/1/138 76/1/138
f 70/1/139 77/1/139 76/1/139
f 70/1/140 71/1/140 77/1/140
f 71/1/141 78/1/141 77/1/141
f 71/1/142 72/1/142 78/1/142
f 72/1/143 74/1/143 78/1/143
f 72/1/144 67/1/144 74/1/144
usemtl Husk
f 74/1/145 73/1/145 79/1/145 80/1/145
f 73/1/146 75/1/146 81/1/146 79/1/146
f 75/1/147 76/1/147 82/1/147 81/1/147
f 76/1/148 77/1/148 83/1/148 82/1/148
f 77/1/149 78/1/149 84/1/149 83/1/149
f 78/1/150 74/1/150 80/1/150 84/1/150
f 80/1/151 79/1/151 85/1/151
f 79/1/152 81/1/152 85/1/152
f 81/1/153 82/1/153 85/1/153
f 82/1/154 83/1/154 85/1/154
f 83/1/155 84/1/155 85/1/155
f 84/1/156 80/1/156 85/1/156
usemtl Young
f 86/1/157 87/1/157 88/1/157
f 87/1/158 89/1/158 88/1/158
f 89/1/159 86/1/159 88/1/159
f 90/2/160 91/3/160 92/4/160 93/5/160
f 94/6/161 95/7/161 91/3/161 90/2/161
f 91/3/162 96/8/162 97/9/162 92/4/162
f 95/7/163 98/10/163 96/8/163 91/3/163
f 96/8/164 99/11/164 100/12/164 97/9/164
f 98/10/165 101/13/165 99/11/165 96/8/165
f 99/11/166 102/14/166 103/15/166 100/12/166
f 101/13/167 104/16/167 102/14/167 99/11/167
f 102/14/168 105/17/168 106/18/168 103/15/168
f 104/16/169 107/19/169 105/17/169 102/14/169
f 105/17/170 108/20/170 109/21/170 106/18/170
f 107/19/171 110/22/171 108/20/171 105/17/171
f 108/20/172 111/23/172 112/24/172 109/21/172
f 110/22/173 113/25/173 111/23/173 108/20/173
f 111/23/174 114/26/174 115/27/174 112/24/174
f 113/25/175 116/28/175 114/26/175 111/23/175
f 114/26/176 117/29/176 118/30/176 115/27/176
f 116/28/177 119/31/177 117/29/177 114/26/177
f 117/29/178 120/32/178 118/30/178
f 119/31/179 120/32/179 117/29/179
f 121/2/180 122/3/180 123/33/180 124/34/180
f 125/35/181 126/36/181 122/3/181 121/2/181
f 122/3/182 127/8/182 128/9/182 123/33/182
f 126/36/183 129/10/183 127/8/183 122/3/183
f 127/8/184 130/11/184 131/12/184 128/9/184
f 129/10/185 132/13/185 130/11/185 127/8/185
f 130/11/186 133/14/186 134/15/186 131/12/186
f 132/13/187 135/16/187 133/14/187 130/11/187
f 133/14/188 136/17/188 137/18/188 134/15/188
f 135/16/189 138/19/189 136/17/189 133/14/189
f 136/17/190 139/20/190 140/21/190 137/18/190
f 138/19/191 141/22/191 139/20/191 136/17/191
f 139/20/192 142/23/192 143/24/192 140/21/192
f 141/22/193 144/25/193 142/23/193 139/20/193
f 142/23/194 145/26/194 146/27/194 143/24/194
f 144/25/195 147/28/195 145/26/195 142/23/195
f 145/26/196 148/29/196 149/30/196 146/27/196
f 147/28/197 150/31/197 148/29/197 145/26/197
f 148/29/198 151/32/198 149/30/198
f 150/31/199 151/32/199 148/29/199
f 152/2/200 153/3/200 154/37/200 155/38/200
f 156/39/201 157/40/201 153/3/201 152/2/201
f 153/3/202 158/8/202 159/9/202 154/37/202
f 157/40/203 160/10/203 158/8/203 153/3/203
f 158/8/204 161/11/204 162/12/204 159/9/204
f 160/10/205 163/13/205 161/11/205 158/8/205
f 161/11/206 164/14/206 165/15/206 162/12/206
f 163/13/207 166/16/207 164/14/207 161/11/207
f 164/14/208 167/17/208 168/18/208 165/15/208
f 166/16/209 169/19/209 167/17/209 164/14/209
f 167/17/210 170/20/210 171/21/210 168/18/210
f 169/19/211 172/22/211 170/20/211 167/17/211
f 170/20/212 173/23/212 174/24/212 171/21/212
f 172/22/213 175/25/213 173/23/213 170/20/213
f 173/23/214 176/26/214 177/27/214 174/24/214
f 175/25/215 178/28/215 176/26/215 173/23/215
f 176/26/216 179/29/216 180/30/216 177/27/216
f 178/28/217 181/31/217 179/29/217 176/26/217
f 179/29/218 182/32/218 180/30/218
f 181/31/219 182/32/219 179/29/219
usemtl Frond
f 183/2/220 184/3/220 185/4/220 186/41/220
f 187/42/221 188/7/221 184/3/221 183/2/221
f 184/3/222 189/8/222 190/9/222 185/4/222
f 188/7/223 191/10/223 189/8/223 184/3/223
f 189/8/224 192/11/224 193/12/224 190/9/224
f 191/10/225 194/13/225 192/11/225 189/8/225
f 192/11/226 195/14/226 196/15/226 193/12/226
f 194/13/227 197/16/227 195/14/227 192/11/227
f 195/14/228 198/17/228 199/18/228 196/15/228
f 197/16/229 200/19/229 198/17/229 195/14/229
f 198/17/230 201/20/230 202/21/230 199/18/230
f 200/19/231 203/22/231 201/20/231 198/17/231
f 201/20/232 204/23/232 205/24/232 202/21/232
f 203/22/233 206/25/233 204/23/233 201/20/233
f 204/23/234 207/26/234 208/27/234 205/24/234
f 206/25/235 209/28/235 207/26/235 204/23/235
f 207/26/236 210/29/236 211/30/236 208/27/236
f 209/28/237 212/31/237 210/29/237 207/26/237
f 210/29/238 213/32/238 211/30/238
f 212/31/239 213/32/239 210/29/239
f 214/2/240 215/3/240 216/43/240 217/44/240
f 218/45/241 219/46/241 215/3/241 214/2/241
f 215/3/242 220/8/242 221/9/242 216/43/242
f 219/46/243 222/10/243 220/8/243 215/3/243
f 220/8/244 223/11/244 224/12/244 221/9/244
f 222/10/245 225/13/245 223/11/245 220/8/245
f 223/11/246 226/14/246 227/15/246 224/12/246
f 225/13/247 228/16/247 226/14/247 223/11/247
f 226/14/248 229/17/248 230/18/248 227/15/248
f 228/16/249 231/19/249 229/17/249 226/14/249
f 229/17/250 232/20/250 233/21/250 230/18/250
f 231/19/251 234/22/251 232/20/251 229/17/251
f 232/20/252 235/23/252 236/24/252 233/21/252
f 234/22/253 237/25/253 235/23/253 232/20/253
f 235/23/254 238/26/254 239/27/254 236/24/254
f 237/25/255 240/28/255 238/26/255 235/23/255
f 238/26/256 241/29/256 242/30/256 239/27/256
f 240/28/257 243/31/257 241/29/257 238/26/257
f 241/29/258 244/32/258 242/30/258
f 243/31/259 244/32/259 241/29/259
f 245/2/260 246/3/260 247/37/260 248/38/260
f 249/39/261 250/40/261 246/3/261 245/2/261
f 246/3/262 251/8/262 252/9/262 247/37/262
f 250/40/263 253/10/263 251/8/263 246/3/263
f 251/8/264 254/11/264 255/12/264 252/9/264
f 253/10/265 256/13/265 254/11/265 251/8/265
f 254/11/266 257/14/266 258/15/266 255/12/266
f 256/13/267 259/16/267 257/14/267 254/11/267
f 257/14/268 260/17/268 261/18/268 258/15/268
f 259/16/269 262/19/269 260/17/269 257/14/269
f 260/17/270 263/20/270 264/21/270 261/18/270
f 262/19/271 265/22/271 263/20/271 260/17/271
f 263/20/272 266/23/272 267/24/272 264/21/272
f 265/22/273 268/25/273 266/23/273 263/20/273
f 266/23/274 269/26/274 270/27/274 267/24/274
f 268/25/275 271/28/275 269/26/275 266/23/275
f 269/26/276 272/29/276 273/30/276 270/27/276
f 271/28/277 274/31/277 272/29/277 269/26/277
f 272/29/278 275/32/278 273/30/278
f 274/31/279 275/32/279 272/29/279
f 276/2/280 277/3/280 278/47/280 279/48/280
f 280/49/281 281/50/281 277/3/281 276/2/281
f 277/3/282 282/8/282 283/9/282 278/47/282
f 281/50/283 284/10/283 282/8/283 277/3/283
f 282/8/284 285/11/284 286/12/284 283/9/284
f 284/10/285 287/13/285 285/11/285 282/8/285
f 285/11/286 288/14/286 289/15/286 286/12/286
f 287/13/287 290/16/287 288/14/287 285/11/287
f 288/14/288 291/17/288 292/18/288 289/15/288
f 290/16/289 293/19/289 291/17/289 288/14/289
f 291/17/290 294/20/290 295/21/290 292/18/290
f 293/19/291 296/22/291 294/20/291 291/17/291
f 294/20/292 297/23/292 298/24/292 295/21/292
f 296/22/293 299/25/293 297/23/293 294/20/293
f 297/23/294 300/26/294 301/27/294 298/24/294
f 299/25/295 302/28/295 300/26/295 297/23/295
f 300/26/296 303/29/296 304/30/296 301/27/296
f 302/28/297 305/31/297 303/29/297 300/26/297
f 303/29/298 306/32/298 304/30/298
f 305/31/299 306/32/299 303/29/299
f 307/2/300 308/3/300 309/51/300 310/52/300
f 311/53/301 312/54/301 308/3/301 307/2/301
f 308/3/302 313/8/302 314/9/302 309/51/302
f 312/54/303 315/10/303 313/8/303 308/3/303
f 313/8/304 316/11/304 317/12/304 314/9/304
f 315/10/305 318/13/305 316/11/305 313/8/305
f 316/11/306 319/14/306 320/15/306 317/12/306
f 318/13/307 321/16/307 319/14/307 316/11/307
f 319/14/308 322/17/308 323/18/308 320/15/308
f 321/16/309 324/19/309 322/17/309 319/14/309
f 322/17/310 325/20/310 326/21/310 323/18/310
f 324/19/311 327/22/311 325/20/311 322/17/311
f 325/20/312 328/23/312 329/24/312 326/21/312
f 327/22/313 330/25/313 328/23/313 325/20/313
f 328/23/314 331/26/314 332/27/314 329/24/314
f 330/25/315 333/28/315 331/26/315 328/23/315
f 331/26/316 334/29/316 335/30/316 332/27/316
f 333/28/317 336/31/317 334/29/317 331/26/317
f 334/29/318 337/32/318 335/30/318
f 336/31/319 337/32/319 334/29/319
f 338/2/320 339/3/320 340/55/320 341/56/320
f 342/57/321 343/58/321 339/3/321 338/2/321
f 339/3/322 344/8/322 345/9/322 340/55/322
f 343/58/323 346/10/323 344/8/323 339/3/323
f 344/8/324 347/11/324 348/12/324 345/9/324
f 346/10/325 349/13/325 347/11/325 344/8/325
f 347/11/326 350/14/326 351/15/326 348/12/326
f 349/13/327 352/16/327 350/14/327 347/11/327
f 350/14/328 353/17/328 354/18/328 351/15/328
f 352/16/329 355/19/329 353/17/329 350/14/329
f 353/17/330 356/20/330 357/21/330 354/18/330
f 355/19/331 358/22/331 356/20/331 353/17/331
f 356/20/332 359/23/332 360/24/332 357/21/332
f 358/22/333 361/25/333 359/23/333 356/20/333
f 359/23/334 362/26/334 363/27/334 360/24/334
f 361/25/335 364/28/335 362/26/335 359/23/335
f 362/26/336 365/29/336 366/30/336 363/27/336
f 364/28/337 367/31/337 365/29/337 362/26/337
f 365/29/338 368/32/338 366/30/338
f 367/31/339 368/32/339 365/29/339
f 369/2/340 370/3/340 371/59/340 372/60/340
f 373/61/341 374/62/341 370/3/341 369/2/341
f 370/3/342 375/8/342 376/9/342 371/59/342
f 374/62/343 377/10/343 375/8/343 370/3/343
f 375/8/344 378/11/344 379/12/344 376/9/344
f 377/10/345 380/13/345 378/11/345 375/8/345
f 378/11/346 381/14/346 382/15/346 379/12/346
f 380/13/347 383/16/347 381/14/347 378/11/347
f 381/14/348 384/17/348 385/18/348 382/15/348
f 383/16/349 386/19/349 384/17/349 381/14/349
f 384/17/350 387/20/350 388/21/350 385/18/350
f 386/19/351 389/22/351 387/20/351 384/17/351
f 387/20/352 390/23/352 391/24/352 388/21/352
f 389/22/353 392/25/353 390/23/353 387/20/353
f 390/23/354 393/26/354 394/27/354 391/24/354
f 392/25/355 395/28/355 393/26/355 390/23/355
f 393/26/356 396/29/356 397/30/356 394/27/356
f 395/28/357 398/31/357 396/29/357 393/26/357
f 396/29/358 399/32/358 397/30/358
f 398/31/359 399/32/359 396/29/359
f 400/2/360 401/3/360 402/63/360 403/64/360
f 404/65/361 405/66/361 401/3/361 400/2/361
f 401/3/362 406/8/362 407/9/362 402/63/362
f 405/66/363 408/10/363 406/8/363 401/3/363
f 406/8/364 409/11/364 410/12/364 407/9/364
f 408/10/365 411/13/365 409/11/365 406/8/365
f 409/11/366 412/14/366 413/15/366 410/12/366
f 411/13/367 414/16/367 412/14/367 409/11/367
f 412/14/368 415/17/368 416/18/368 413/15/368
f 414/16/369 417/19/369 415/17/369 412/14/369
f 415/17/370 418/20/370 419/21/370 416/18/370
f 417/19/371 420/22/371 418/20/371 415/17/371
f 418/20/372 421/23/372 422/24/372 419/21/372
f 420/22/373 423/25/373 421/23/373 418/20/373
f 421/23/374 424/26/374 425/27/374 422/24/374
f 423/25/375 426/28/375 424/26/375 421/23/375
f 424/26/376 427/29/376 428/30/376 425/27/376
f 426/28/377 429/31/377 427/29/377 424/26/377
f 427/29/378 430/32/378 428/30/378
f 429/31/379 430/32/379 427/29/379
f 431/2/380 432/3/380 433/67/380 434/68/380
f 435/69/381 436/70/381 432/3/381 431/2/381
f 432/3/382 437/8/382 438/9/382 433/67/382
f 436/70/383 439/10/383 437/8/383 432/3/383
f 437/8/384 440/11/384 441/12/384 438/9/384
f 439/10/385 442/13/385 440/11/385 437/8/385
f 440/11/386 443/14/386 444/15/386 441/12/386
f 442/13/387 445/16/387 443/14/387 440/11/387
f 443/14/388 446/17/388 447/18/388 444/15/388
f 445/16/389 448/19/389 446/17/389 443/14/389
f 446/17/390 449/20/390 450/21/390 447/18/390
f 448/19/391 451/22/391 449/20/391 446/17/391
f 449/20/392 452/23/392 453/24/392 450/21/392
f 451/22/393 454/25/393 452/23/393 449/20/393
f 452/23/394 455/26/394 456/27/394 453/24/394
f 454/25/395 457/28/395 455/26/395 452/23/395
f 455/26/396 458/29/396 459/30/396 456/27/396
f 457/28/397 460/31/397 458/29/397 455/26/397
f 458/29/398 461/32/398 459/30/398
f 460/31/399 461/32/399 458/29/399
f 462/2/400 463/3/400 464/55/400 465/56/400
f 466/57/401 467/58/401 463/3/401 462/2/401
f 463/3/402 468/8/402 469/9/402 464/55/402
f 467/58/403 470/10/403 468/8/403 463/3/403
f 468/8/404 471/11/404 472/12/404 469/9/404
f 470/10/405 473/13/405 471/11/405 468/8/405
f 471/11/406 474/14/406 475/15/406 472/12/406
f 473/13/407 476/16/407 474/14/407 471/11/407
f 474/14/408 477/17/408 478/18/408 475/15/408
f 476/16/409 479/19/409 477/17/409 474/14/409
f 477/17/410 480/20/410 481/21/410 478/18/410
f 479/19/411 482/22/411 480/20/411 477/17/411
f 480/20/412 483/23/412 484/24/412 481/21/412
f 482/22/413 485/25/413 483/23/413 480/20/413
f 483/23/414 486/26/414 487/27/414 484/24/414
f 485/25/415 488/28/415 486/26/415 483/23/415
f 486/26/416 489/29/416 490/30/416 487/27/416
f 488/28/417 491/31/417 489/29/417 486/26/417
f 489/29/418 492/32/418 490/30/418
f 491/31/419 492/32/419 489/29/419
f 493/2/420 494/3/420 495/71/420 496/72/420
f 497/73/421 498/74/421 494/3/421 493/2/421
f 494/3/422 499/8/422 500/9/422 495/71/422
f 498/74/423 501/10/423 499/8/423 494/3/423
f 499/8/424 502/11/424 503/12/424 500/9/424
f 501/10/425 504/13/425 502/11/425 499/8/425
f 502/11/426 505/14/426 506/15/426 503/12/426
f 504/13/427 507/16/427 505/14/427 502/11/427
f 505/14/428 508/17/428 509/18/428 506/15/428
f 507/16/429 510/19/429 508/17/429 505/14/429
f 508/17/430 511/20/430 512/21/430 509/18/430
f 510/19/431 513/22/431 511/20/431 508/17/431
f 511/20/432 514/23/432 515/24/432 512/21/432
f 513/22/433 516/25/433 514/23/433 511/20/433
f 514/23/434 517/26/434 518/27/434 515/24/434
f 516/25/435 519/28/435 517/26/435 514/23/435
f 517/26/436 520/29/436 521/30/436 518/27/436
f 519/28/437 522/31/437 520/29/437 517/26/437
f 520/29/438 523/32/438 521/30/438
f 522/31/439 523/32/439 520/29/439
usemtl Old
f 524/2/440 525/3/440 526/75/440 527/76/440
f 528/77/441 529/78/441 525/3/441 524/2/441
f 525/3/442 530/8/442 531/9/442 526/75/442
f 529/78/443 532/10/443 530/8/443 525/3/443
f 530/8/444 533/11/444 534/12/444 531/9/444
f 532/10/445 535/13/445 533/11/445 530/8/445
f 533/11/446 536/14/446 537/15/446 534/12/446
f 535/13/447 538/16/447 536/14/447 533/11/447
f 536/14/448 539/17/448 540/18/448 537/15/448
f 538/16/449 541/19/449 539/17/449 536/14/449
f 539/17/450 542/20/450 543/21/450 540/18/450
f 541/19/451 544/22/451 542/20/451 539/17/451
f 542/20/452 545/23/452 546/24/452 543/21/452
f 544/22/453 547/25/453 545/23/453 542/20/453
f 545/23/454 548/26/454 549/27/454 546/24/454
f 547/25/455 550/28/455 548/26/455 545/23/455
f 548/26/456 551/29/456 552/30/456 549/27/456
f 550/28/457 553/31/457 551/29/457 548/26/457
f 551/29/458 554/32/458 552/30/458
f 553/31/459 554/32/459 551/29/459
f 555/2/460 556/3/460 557/79/460 558/80/460
f 559/81/461 560/82/461 556/3/461 555/2/461
f 556/3/462 561/8/462 562/9/462 557/79/462
f 560/82/463 563/10/463 561/8/463 556/3/463
f 561/8/464 564/11/464 565/12/464 562/9/464
f 563/10/465 566/13/465 564/11/465 561/8/465
f 564/11/466 567/14/466 568/15/466 565/12/466
f 566/13/467 569/16/467 567/14/467 564/11/467
f 567/14/468 570/17/468 571/18/468 568/15/468
f 569/16/469 572/19/469 570/17/469 567/14/469
f 570/17/470 573/20/470 574/21/470 571/18/470
f 572/19/471 575/22/471 573/20/471 570/17/471
f 573/20/472 576/23/472 577/24/472 574/21/472
f 575/22/473 578/25/473 576/23/473 573/20/473
f 576/23/474 579/26/474 580/27/474 577/24/474
f 578/25/475 581/28/475 579/26/475 576/23/475
f 579/26/476 582/29/476 583/30/476 580/27/476
f 581/28/477 584/31/477 582/29/477 579/26/477
f 582/29/478 585/32/478 583/30/478
f 584/31/479 585/32/479 582/29/479
f 586/2/480 587/3/480 588/83/480 589/84/480
f 590/85/481 591/86/481 587/3/481 586/2/481
f 587/3/482 592/8/482 593/9/482 588/83/482
f 591/86/483 594/10/483 592/8/483 587/3/483
f 592/8/484 595/11/484 596/12/484 593/9/484
f 594/10/485 597/13/485 595/11/485 592/8/485
f 595/11/486 598/14/486 599/15/486 596/12/486
f 597/13/487 600/16/487 598/14/487 595/11/487
f 598/14/488 601/17/488 602/18/488 599/15/488
f 600/16/489 603/19/489 601/17/489 598/14/489
f 601/17/490 604/20/490 605/21/490 602/18/490
f 603/19/491 606/22/491 604/20/491 601/17/491
f 604/20/492 607/23/492 608/24/492 605/21/492
f 606/22/493 609/25/493 607/23/493 604/20/493
f 607/23/494 610/26/494 611/27/494 608/24/494
f 609/25/495 612/28/495 610/26/495 607/23/495
f 610/26/496 613/29/496 614/30/496 611/27/496
f 612/28/497 615/31/497 613/29/497 610/26/497
f 613/29/498 616/32/498 614/30/498
f 615/31/499 616/32/499 613/29/499
usemtl Dead
f 617/2/500 618/8/500 619/87/500 620/88/500
f 621/89/501 622/90/501 618/8/501 617/2/501
f 618/8/502 623/14/502 624/91/502 619/87/502
f 622/90/503 625/92/503 623/14/503 618/8/503
f 623/14/504 626/20/504 627/93/504 624/91/504
f 625/92/505 628/94/505 626/20/505 623/14/505
f 626/20/506 629/26/506 630/95/506 627/93/506
f 628/94/507 631/96/507 629/26/507 626/20/507
f 629/26/508 632/32/508 630/95/508
f 631/96/509 632/32/509 629/26/509
f 633/2/510 634/8/510 635/87/510 636/97/510
f 637/98/511 638/90/511 634/8/511 633/2/511
f 634/8/512 639/14/512 640/91/512 635/87/512
f 638/90/513 641/92/513 639/14/513 634/8/513
f 639/14/514 642/20/514 643/93/514 640/91/514
f 641/92/515 644/94/515 642/20/515 639/14/515
f 642/20/516 645/26/516 646/95/516 643/93/516
f 644/94/517 647/96/517 645/26/517 642/20/517
f 645/26/518 648/32/518 646/95/518
f 647/96/519 648/32/519 645/26/519
f 649/2/520 650/8/520 651/87/520 652/99/520
f 653/100/521 654/90/521 650/8/521 649/2/521
f 650/8/522 655/14/522 656/91/522 651/87/522
f 654/90/523 657/92/523 655/14/523 650/8/523
f 655/14/524 658/20/524 659/93/524 656/91/524
f 657/92/525 660/94/525 658/20/525 655/14/525
f 658/20/526 661/26/526 662/95/526 659/93/526
f 660/94/527 663/96/527 661/26/527 658/20/527
f 661/26/528 664/32/528 662/95/528
f 663/96/529 664/32/529 661/26/529
f 665/2/530 666/8/530 667/87/530 668/101/530
f 669/102/531 670/90/531 666/8/531 665/2/531
f 666/8/532 671/14/532 672/91/532 667/87/532
f 670/90/533 673/92/533 671/14/533 666/8/533
f 671/14/534 674/20/534 675/93/534 672/91/534
f 673/92/535 676/94/535 674/20/535 671/14/535
f 674/20/536 677/26/536 678/95/536 675/93/536
f 676/94/537 679/96/537 677/26/537 674/20/537
f 677/26/538 680/32/538 678/95/538
f 679/96/539 680/32/539 677/26/539
f 681/2/540 682/8/540 683/87/540 684/103/540
f 685/104/541 686/90/541 682/8/541 681/2/541
f 682/8/542 687/14/542 688/91/542 683/87/542
f 686/90/543 689/92/543 687/14/543 682/8/543
f 687/14/544 690/20/544 691/93/544 688/91/544
f 689/92/545 692/94/545 690/20/545 687/14/545
f 690/20/546 693/26/546 694/95/546 691/93/546
f 692/94/547 695/96/547 693/26/547 690/20/547
f 693/26/548 696/32/548 694/95/548
f 695/96/549 696/32/549 693/26/549
f 697/2/550 698/8/550 699/87/550 700/105/550
f 701/106/551 702/90/551 698/8/551 697/2/551
f 698/8/552 703/14/552 704/91/552 699/87/552
f 702/90/553 705/92/553 703/14/553 698/8/553
f 703/14/554 706/20/554 707/93/554 704/91/554
f 705/92/555 708/94/555 706/20/555 703/14/555
f 706/20/556 709/26/556 710/95/556 707/93/556
f 708/94/557 711/96/557 709/26/557 706/20/557
f 709/26/558 712/32/558 710/95/558
f 711/96/559 712/32/559 709/26/559
f 713/2/560 714/8/560 715/87/560 716/107/560
f 717/108/561 718/90/561 714/8/561 713/2/561
f 714/8/562 719/14/562 720/91/562 715/87/562
f 718/90/563 721/92/563 719/14/563 714/8/563
f 719/14/564 722/20/564 723/93/564 720/91/564
f 721/92/565 724/94/565 722/20/565 719/14/565
f 722/20/566 725/26/566 726/95/566 723/93/566
f 724/94/567 727/96/567 725/26/567 722/20/567
f 725/26/568 728/32/568 726/95/568
f 727/96/569 728/32/569 725/26/569
f 729/2/570 730/8/570 731/87/570 732/109/570
f 733/110/571 734/90/571 730/8/571 729/2/571
f 730/8/572 735/14/572 736/91/572 731/87/572
f 734/90/573 737/92/573 735/14/573 730/8/573
f 735/14/574 738/20/574 739/93/574 736/91/574
f 737/92/575 740/94/575 738/20/575 735/14/575
f 738/20/576 741/26/576 742/95/576 739/93/576
f 740/94/577 743/96/577 741/26/577 738/20/577
f 741/26/578 744/32/578 742/95/578
f 743/96/579 744/32/579 741/26/579
f 745/2/580 746/8/580 747/87/580 748/111/580
f 749/112/581 750/90/581 746/8/581 745/2/581
f 746/8/582 751/14/582 752/91/582 747/87/582
f 750/90/583 753/92/583 751/14/583 746/8/583
f 751/14/584 754/20/584 755/93/584 752/91/584
f 753/92/585 756/94/585 754/20/585 751/14/585
f 754/20/586 757/26/586 758/95/586 755/93/586
f 756/94/587 759/96/587 757/26/587 754/20/587
f 757/26/588 760/32/588 758/95/588
f 759/96/589 760/32/589 757/26/589
usemtl Nut
f 761/1/590 762/1/590 763/1/590
f 762/1/591 761/1/591 764/1/591
f 762/1/592 765/1/592 763/1/592
f 765/1/593 762/1/593 764/1/593
f 765/1/594 766/1/594 763/1/594
f 766/1/595 765/1/595 764/1/595
f 766/1/596 761/1/596 763/1/596
f 761/1/597 766/1/597 764/1/597
f 767/1/590 768/1/590 769/1/590
f 768/1/591 767/1/591 770/1/591
f 768/1/592 771/1/592 769/1/592
f 771/1/593 768/1/593 770/1/593
f 771/1/594 772/1/594 769/1/594
f 772/1/595 771/1/595 770/1/595
f 772/1/596 767/1/596 769/1/596
f 767/1/597 772/1/597 770/1/597
f 773/1/590 774/1/590 775/1/590
f 774/1/591 773/1/591 776/1/591
f 774/1/592 777/1/592 775/1/592
f 777/1/593 774/1/593 776/1/593
f 777/1/594 778/1/594 775/1/594
f 778/1/595 777/1/595 776/1/595
f 778/1/596 773/1/596 775/1/596
f 773/1/597 778/1/597 776/1/597
f 779/1/590 780/1/590 781/1/590
f 780/1/591 779/1/591 782/1/591
f 780/1/592 783/1/592 781/1/592
f 783/1/593 780/1/593 782/1/593
f 783/1/594 784/1/594 781/1/594
f 784/1/595 783/1/595 782/1/595
f 784/1/596 779/1/596 781/1/596
f 779/1/597 784/1/597 782/1/597
f 785/1/590 786/1/590 787/1/590
f 786/1/591 785/1/591 788/1/591
f 786/1/592 789/1/592 787/1/592
f 789/1/593 786/1/593 788/1/593
f 789/1/594 790/1/594 787/1/594
f 790/1/595 789/1/595 788/1/595
f 790/1/596 785/1/596 787/1/596
f 785/1/597 790/1/597 788/1/597
f 791/1/590 792/1/590 793/1/590
f 792/1/591 791/1/591 794/1/591
f 792/1/592 795/1/592 793/1/592
f 795/1/593 792/1/593 794/1/593
f 795/1/594 796/1/594 793/1/594
f 796/1/595 795/1/595 794/1/595
f 796/1/596 791/1/596 793/1/596
f 791/1/597 796/1/597 794/1/597
f 797/1/590 798/1/590 799/1/590
f 798/1/591 797/1/591 800/1/591
f 798/1/592 801/1/592 799/1/592
f 801/1/593 798/1/593 800/1/593
f 801/1/594 802/1/594 799/1/594
f 802/1/595 801/1/595 800/1/595
f 802/1/596 797/1/596 799/1/596
f 797/1/597 802/1/597 800/1/597
f 803/1/590 804/1/590 805/1/590
f 804/1/591 803/1/591 806/1/591
f 804/1/592 807/1/592 805/1/592
f 807/1/593 804/1/593 806/1/593
f 807/1/594 808/1/594 805/1/594
f 808/1/595 807/1/595 806/1/595
f 808/1/596 803/1/596 805/1/596
f 803/1/597 808/1/597 806/1/597
