# LowPolyPalms - broken dead palm (cm, Z up)
mtllib SM_Palm_Dead_C.mtl
o SM_Palm_Dead_C
v 33.86 0.00 -12.95
v 20.86 29.40 3.80
v 41.31 -10.61 50.90
v 23.49 0.50 61.72
v -13.00 29.40 16.76
v 2.90 -10.61 64.99
v -33.86 0.00 12.95
v 0.13 -32.82 57.44
v -20.86 -29.40 -3.80
v 17.95 -43.92 46.61
v 13.00 -29.40 -16.76
v 38.54 -32.82 43.34
v 52.25 -23.47 110.53
v 60.86 -41.80 101.19
v 31.13 -23.47 117.67
v 18.62 -41.80 115.47
v 27.23 -60.13 106.14
v 48.35 -60.13 99.00
v 75.59 -49.58 159.84
v 59.11 -39.49 168.10
v 40.86 -49.58 170.76
v 39.10 -69.77 165.16
v 55.59 -79.86 156.90
v 73.83 -69.77 154.24
v 84.42 -58.16 217.72
v 92.78 -74.83 211.07
v 65.43 -58.16 223.32
v 54.79 -74.83 222.26
v 63.16 -91.51 215.61
v 82.15 -91.51 210.02
v 105.27 -77.72 268.14
v 90.16 -68.55 274.09
v 74.16 -77.72 276.78
v 73.25 -96.05 273.52
v 88.35 -105.22 267.57
v 104.36 -96.05 264.88
v 112.84 -80.50 324.59
v 120.85 -95.58 320.55
v 95.87 -80.50 329.04
v 86.90 -95.58 329.45
v 94.91 -110.66 325.41
v 111.89 -110.66 320.96
v 131.70 -92.60 376.25
v 117.94 -84.36 380.20
v 103.92 -92.60 383.11
v 103.66 -109.09 382.08
v 117.43 -117.33 378.14
v 131.45 -109.09 375.22
v 138.25 -89.26 431.67
v 145.82 -102.75 429.84
v 123.07 -89.26 435.16
v 115.46 -102.75 436.83
v 123.03 -116.24 435.00
v 138.21 -116.24 431.50
v 155.02 -94.20 484.54
v 142.48 -86.85 486.84
v 130.07 -94.20 489.79
v 130.21 -108.91 490.46
v 142.76 -116.26 488.16
v 155.16 -108.91 485.21
v 160.10 -85.59 539.30
v 167.17 -97.64 539.10
v 146.36 -85.59 541.87
v 139.69 -97.64 544.23
v 146.77 -109.69 544.03
v 160.51 -109.69 541.46
v 174.15 -84.88 593.20
v 162.58 -78.25 594.18
v 151.27 -84.88 596.81
v 151.53 -98.14 598.47
v 163.10 -104.78 597.49
v 174.41 -98.14 594.86
v 176.75 -72.61 647.52
v 183.41 -83.76 648.17
v 163.88 -72.61 649.35
v 157.67 -83.76 651.83
v 164.33 -94.91 652.48
v 177.20 -94.91 650.65
v 184.92 -62.20 684.15
v 194.57 -78.36 685.09
v 166.25 -62.20 686.80
v 157.25 -78.36 690.39
v 166.90 -94.52 691.33
v 185.56 -94.52 688.68
v 180.30 -73.94 718.62
v 158.46 -71.30 666.47
v 148.16 -70.06 605.46
v 160.50 -67.51 603.42
v 164.26 -70.13 665.52
v 163.82 -73.83 665.52
v 159.54 -75.48 603.42
v 137.86 -68.82 545.26
v 166.88 -64.52 540.35
v 165.02 -79.89 540.35
v 127.56 -67.57 485.85
v 142.40 -66.55 483.28
v 141.73 -72.10 483.28
v 117.26 -66.33 427.24
v 133.19 -64.94 424.45
v 132.40 -71.47 424.45
v 106.96 -65.09 369.43
v 179.09 -95.91 653.89
v 178.94 -98.58 596.88
v 175.99 -86.17 596.30
v 177.49 -90.13 653.62
v 181.31 -90.34 653.62
v 183.23 -86.57 596.30
v 178.79 -101.25 540.67
v 174.79 -71.81 539.27
v 186.01 -72.43 539.27
v 178.64 -103.92 485.26
v 175.79 -89.11 484.55
v 183.11 -89.52 484.55
v 178.50 -106.59 430.65
v 177.12 -90.44 429.86
v 181.64 -90.69 429.86
v 178.35 -109.27 376.84
v 199.86 -84.00 652.10
v 204.58 -86.42 596.27
v 191.93 -85.16 595.14
v 193.91 -83.43 651.58
v 195.94 -79.49 651.58
v 196.19 -76.87 595.14
v 209.30 -88.85 541.24
v 180.30 -82.84 538.47
v 187.54 -68.76 538.47
v 214.02 -91.28 487.01
v 199.60 -87.04 485.55
v 202.19 -82.01 485.55
v 218.74 -93.70 433.58
v 203.34 -88.82 431.98
v 205.81 -84.02 431.98
v 223.46 -96.13 380.95
v 195.36 -57.90 664.07
v 197.21 -55.92 613.47
v 192.03 -67.58 612.82
v 193.29 -63.52 663.77
v 189.87 -60.32 663.77
v 185.91 -61.83 612.82
v 199.07 -53.95 563.67
v 183.83 -79.44 562.07
v 174.58 -70.77 562.07
v 200.92 -51.97 514.67
v 193.94 -65.34 513.86
v 188.03 -59.78 513.86
v 202.78 -50.00 466.47
v 194.86 -64.14 465.58
v 189.16 -58.79 465.58
v 204.63 -48.02 419.07
v 175.90 -52.38 661.73
v 174.91 -47.49 610.83
v 180.53 -58.90 609.62
v 178.98 -57.51 661.18
v 175.08 -58.30 661.18
v 174.20 -60.19 609.62
v 173.91 -42.60 560.74
v 187.97 -68.66 557.89
v 171.17 -72.09 557.89
v 172.91 -37.71 511.45
v 179.40 -51.27 509.96
v 172.25 -52.72 509.96
v 171.92 -32.83 462.95
v 178.47 -47.59 461.31
v 171.67 -48.97 461.31
v 170.92 -27.94 415.26
v 182.89 -87.70 703.62
v 191.86 -135.24 725.21
v 190.78 -136.57 722.39
v 180.01 -90.31 699.05
v 186.53 -89.08 699.05
v 193.35 -136.09 722.39
v 200.82 -182.78 741.80
v 189.97 -167.78 728.25
v 205.47 -164.85 728.25
v 203.60 -197.52 646.80
v 195.55 -180.90 643.98
v 205.05 -179.10 643.98
v 206.38 -212.26 551.80
v 195.07 -190.33 548.06
v 208.92 -187.71 548.06
v 209.16 -227.00 456.80
v 192.62 -80.59 703.62
v 253.41 -113.42 737.52
v 253.95 -115.09 734.72
v 193.01 -84.52 699.10
v 196.12 -78.77 699.10
v 255.11 -112.95 734.72
v 314.21 -146.25 766.41
v 298.21 -149.07 750.21
v 307.79 -131.32 750.21
v 327.40 -153.37 671.41
v 309.17 -150.36 668.65
v 314.88 -139.78 668.65
v 340.60 -160.50 576.41
v 316.28 -156.30 572.72
v 323.75 -142.46 572.72
v 353.80 -167.63 481.41
v 175.07 -86.93 703.62
v 153.88 -139.51 747.38
v 151.90 -140.60 744.97
v 171.40 -89.01 699.34
v 176.26 -90.96 699.34
v 154.55 -141.67 744.97
v 132.69 -192.10 786.14
v 131.33 -177.00 768.92
v 144.15 -182.16 768.92
v 127.09 -206.02 691.14
v 129.03 -187.64 688.33
v 138.42 -191.43 688.33
v 121.48 -219.93 596.14
v 124.21 -195.41 592.38
v 136.51 -200.36 592.38
v 115.88 -233.84 501.14
v 170.21 -64.23 703.62
v 137.18 -32.42 714.09
v 137.93 -30.94 711.24
v 171.48 -61.25 698.57
v 167.28 -65.61 698.57
v 135.72 -33.22 711.24
v 104.15 -0.62 719.57
v 122.07 -8.02 707.30
v 112.22 -18.25 707.30
v 93.35 9.79 624.57
v 109.36 0.58 621.74
v 103.15 -5.87 621.74
v 82.54 20.19 529.57
v 104.51 8.94 525.84
v 94.61 -1.33 525.84
v 71.73 30.59 434.57
v 166.55 -76.60 703.62
v 105.86 -88.33 717.79
v 105.03 -86.90 714.93
v 164.86 -74.14 698.41
v 165.90 -79.51 698.41
v 105.62 -89.96 714.93
v 45.16 -100.06 726.96
v 58.96 -88.37 712.84
v 62.32 -105.77 712.84
v 30.43 -102.91 631.96
v 47.11 -94.97 629.13
v 48.87 -104.05 629.13
v 15.70 -105.75 536.96
v 37.95 -95.08 533.19
v 40.33 -107.36 533.19
v 0.98 -108.60 441.96
vt 0.0000 0.0000
vt 0.5000 0.0000
vt 0.5000 0.6000
vt 0.7128 0.6000
vt 0.6000 0.0000
vt 0.4000 0.0000
vt 0.2872 0.6000
vt 0.5000 1.2000
vt 0.9958 1.2000
vt 0.0042 1.2000
vt 0.5000 1.8000
vt 0.7516 1.8000
vt 0.2484 1.8000
vt 0.5000 2.4000
vt 0.7705 2.4000
vt 0.2295 2.4000
vt 0.5000 3.0000
vt 0.5485 0.6000
vt 0.5882 0.0000
vt 0.4118 0.0000
vt 0.4515 0.6000
vt 0.8374 1.2000
vt 0.1626 1.2000
vt 0.7748 1.8000
vt 0.2252 1.8000
vt 0.8670 2.4000
vt 0.1330 2.4000
vn 0.9063 0.4211 -0.0359
vn 0.6338 0.7032 0.3221
vn 0.1661 0.8853 0.4342
vn -0.2695 0.6957 0.6659
vn -0.6984 0.4206 0.5790
vn -0.8220 -0.0888 0.5625
vn -0.8229 -0.5083 0.2537
vn -0.4746 -0.8728 0.1140
vn -0.0828 -0.9728 -0.2164
vn 0.4326 -0.8709 -0.2334
vn 0.7819 -0.5081 -0.3612
vn 0.9885 -0.0796 -0.1287
vn 0.8898 0.4516 -0.0657
vn 0.5599 0.8251 0.0754
vn 0.1271 0.9179 0.3760
vn -0.3825 0.8292 0.4075
vn -0.7398 0.4446 0.5050
vn -0.9520 0.0148 0.3056
vn -0.8466 -0.4961 0.1929
vn -0.5796 -0.8047 -0.1287
vn -0.0843 -0.9647 -0.2494
vn 0.3633 -0.8095 -0.4612
vn 0.7848 -0.4904 -0.3790
vn 0.9332 0.0057 -0.3592
vn 0.8623 0.4829 -0.1525
vn 0.5714 0.8057 0.1561
vn 0.0870 0.9624 0.2574
vn -0.3762 0.8023 0.4635
vn -0.7834 0.4888 0.3840
vn -0.9286 -0.0218 0.3705
vn -0.8796 -0.4648 0.1009
vn -0.5331 -0.8455 -0.0310
vn -0.1045 -0.9453 -0.3091
vn 0.4169 -0.8432 -0.3395
vn 0.7667 -0.4712 -0.4359
vn 0.9692 -0.0164 -0.2456
vn 0.8813 0.4680 -0.0651
vn 0.5372 0.8424 0.0429
vn 0.0912 0.9465 0.3096
vn -0.4186 0.8447 0.3335
vn -0.7710 0.4641 0.4361
vn -0.9640 0.0103 0.2659
vn -0.8458 -0.4993 0.1882
vn -0.5533 -0.8278 -0.0928
vn -0.0552 -0.9807 -0.1874
vn 0.4035 -0.8306 -0.3839
vn 0.8093 -0.4963 -0.3141
vn 0.9488 0.0049 -0.3159
vn 0.8546 0.4933 -0.1620
vn 0.5443 0.8331 0.0981
vn 0.0518 0.9830 0.1759
vn -0.4135 0.8312 0.3715
vn -0.8094 0.4964 0.3137
vn -0.9425 -0.0128 0.3340
vn -0.8691 -0.4813 0.1137
vn -0.5124 -0.8585 0.0219
vn -0.0661 -0.9722 -0.2245
vn 0.4485 -0.8574 -0.2526
vn 0.7960 -0.4847 -0.3624
vn 0.9767 -0.0102 -0.2142
vn 0.8689 0.4863 -0.0926
vn 0.5111 0.8591 -0.0262
vn 0.0543 0.9769 0.2068
vn -0.4532 0.8601 0.2341
vn -0.7985 0.4843 0.3575
vn -0.9715 0.0058 0.2371
vn -0.8393 -0.5019 0.2091
vn -0.5246 -0.8511 -0.0206
vn -0.0239 -0.9956 -0.0910
vn 0.4408 -0.8524 -0.2813
vn 0.8312 -0.5006 -0.2420
vn 0.9588 0.0032 -0.2840
vn 0.8447 0.4999 -0.1913
vn 0.5163 0.8563 0.0120
vn 0.0177 0.9976 0.0675
vn -0.4492 0.8553 0.2583
vn -0.8325 0.5012 0.2361
vn -0.9532 -0.0042 0.3025
vn -0.8569 -0.4943 0.1460
vn -0.4901 -0.8660 0.0997
vn -0.0296 -0.9932 -0.1130
vn 0.4784 -0.8657 -0.1474
vn 0.8214 -0.4959 -0.2817
vn 0.9816 -0.0032 -0.1911
vn 0.8568 0.4987 -0.1312
vn 0.4874 0.8663 -0.1097
vn 0.0200 0.9960 0.0871
vn -0.4840 0.8664 0.1225
vn -0.8237 0.4980 0.2711
vn -0.9776 0.0019 0.2103
vn -0.8331 -0.4997 0.2373
vn -0.4988 -0.8642 0.0657
vn 0.0043 -0.9998 0.0187
vn 0.4738 -0.8647 -0.1668
vn 0.8501 -0.4999 -0.1657
vn 0.9671 0.0010 -0.2545
vn 0.8378 0.5000 -0.2192
vn 0.4938 0.8662 -0.0758
vn -0.0099 0.9990 -0.0430
vn -0.4800 0.8661 0.1398
vn -0.8523 0.4998 0.1545
vn -0.9641 0.0028 0.2656
vn -0.8481 -0.4998 0.1759
vn -0.4737 -0.8630 0.1755
vn -0.0001 -1.0000 -0.0003
vn 0.5023 -0.8638 -0.0406
vn 0.8431 -0.5000 -0.1979
vn 0.9861 0.0019 -0.1663
vn 0.8506 0.5016 -0.1578
vn 0.4728 0.8627 -0.1796
vn -0.0042 0.9997 -0.0227
vn -0.5070 0.8618 0.0160
vn -0.8451 0.5030 0.1812
vn -0.9847 -0.0015 0.1740
vn -0.8332 -0.4930 0.2503
vn -0.4822 -0.8654 0.1364
vn 0.0215 -0.9931 0.1153
vn 0.4985 -0.8649 -0.0594
vn 0.8641 -0.4954 -0.0889
vn 0.9761 -0.0005 -0.2174
vn 0.8388 0.4958 -0.2251
vn 0.4839 0.8643 -0.1374
vn -0.0245 0.9910 -0.1314
vn -0.4999 0.8655 0.0335
vn -0.8669 0.4935 0.0711
vn -0.9770 0.0074 0.2133
vn -0.8471 -0.4999 0.1802
vn -0.4707 -0.8538 0.2224
vn 0.0162 -0.9961 0.0867
vn 0.5142 -0.8561 0.0513
vn 0.8593 -0.4981 -0.1160
vn 0.9917 0.0035 -0.1286
vn 0.8522 0.5000 -0.1538
vn 0.4719 0.8549 -0.2157
vn -0.0144 0.9948 -0.1012
vn -0.5175 0.8524 -0.0748
vn -0.8613 0.5001 0.0900
vn -0.9933 -0.0052 0.1156
vn -0.8416 -0.4893 0.2287
vn -0.4800 -0.8616 0.1653
vn 0.0250 -0.9841 0.1760
vn 0.5100 -0.8598 0.0244
vn 0.8719 -0.4894 -0.0152
vn 0.9861 -0.0013 -0.1662
vn 0.8221 0.4725 -0.3176
vn -0.0378 0.9633 -0.2656
vn -0.8780 0.4725 -0.0759
vn -0.8585 -0.5091 0.0618
vn 0.0014 -1.0000 0.0098
vn 0.8417 -0.5091 -0.1799
vn 0.8166 0.5041 0.2811
vn 0.0466 0.9436 0.3277
vn -0.7059 0.5041 0.4976
vn -0.6883 -0.3750 0.6209
vn 0.0817 -0.8145 0.5743
vn 0.8342 -0.3750 0.4044
vn 0.1897 -0.9805 -0.0520
vn 0.4175 0.9072 -0.0529
vn 0.1938 -0.9796 -0.0534
vn 0.4258 0.9044 -0.0263
vn 0.1388 -0.9893 -0.0448
vn 0.3735 0.9273 -0.0257
vn 0.0629 -0.9975 -0.0322
vn 0.2977 0.9540 -0.0371
vn 0.0807 -0.9961 -0.0358
vn 0.3154 0.9483 -0.0358
vn 0.9641 0.2651 -0.0149
vn -0.9290 0.3700 -0.0069
vn 0.9730 0.2303 -0.0135
vn -0.9404 0.3379 0.0380
vn 0.9909 0.1342 -0.0091
vn -0.9700 0.2417 -0.0242
vn 0.9819 0.1888 -0.0119
vn -0.9547 0.2971 0.0193
vn 0.9964 0.0845 -0.0069
vn -0.9810 0.1937 -0.0069
vn 0.0974 0.9946 -0.0350
vn -0.7523 -0.6580 -0.0338
vn 0.1027 0.9941 -0.0350
vn -0.7522 -0.6586 0.0205
vn 0.2051 0.9784 -0.0259
vn -0.6781 -0.7350 -0.0036
vn 0.2832 0.9589 -0.0185
vn -0.6155 -0.7880 -0.0120
vn 0.3037 0.9526 -0.0167
vn -0.5979 -0.8014 -0.0167
vn -0.9378 0.3464 -0.0209
vn 0.4043 -0.9146 -0.0045
vn -0.9134 0.4066 -0.0179
vn 0.4597 -0.8865 0.0536
vn -0.8580 0.5136 -0.0118
vn 0.5673 -0.8230 -0.0294
vn -0.8859 0.4636 -0.0151
vn 0.5182 -0.8552 -0.0054
vn -0.8722 0.4890 -0.0138
vn 0.5431 -0.8396 -0.0138
vn -0.8588 -0.5113 -0.0323
vn 0.9906 -0.1363 -0.0121
vn -0.8976 -0.4400 -0.0251
vn 0.9976 -0.0514 -0.0465
vn -0.8810 -0.4722 -0.0290
vn 0.9957 -0.0911 -0.0145
vn -0.9027 -0.4295 -0.0248
vn 0.9990 -0.0429 -0.0152
vn -0.9148 -0.4034 -0.0222
vn 0.9997 -0.0131 -0.0222
vn 0.8603 -0.0673 -0.5054
vn -0.7785 -0.3660 -0.5098
vn 0.9256 0.0433 -0.3760
vn -0.8473 -0.4224 -0.3219
vn 0.8340 0.5484 -0.0607
vn -0.9734 0.2268 -0.0335
vn 0.9019 0.4300 -0.0403
vn -0.9964 0.0710 -0.0467
vn 0.8910 0.4518 -0.0440
vn -0.9944 0.0963 -0.0440
vn 0.6096 0.6234 -0.4896
vn -0.1936 -0.8480 -0.4933
vn 0.5669 0.7502 -0.3404
vn -0.2351 -0.9252 -0.2978
vn -0.0873 0.9924 -0.0866
vn -0.9040 -0.4261 -0.0345
vn 0.1702 0.9841 -0.0502
vn -0.7297 -0.6820 -0.0484
vn 0.1770 0.9830 -0.0492
vn -0.7248 -0.6872 -0.0492
vn 0.7348 -0.5836 -0.3456
vn -0.9341 0.0889 -0.3457
vn 0.7448 -0.5635 -0.3574
vn -0.9473 0.0570 -0.3152
vn 0.9979 0.0196 -0.0618
vn -0.6847 0.7280 -0.0351
vn 0.9929 -0.1115 -0.0422
vn -0.7928 0.6081 -0.0409
vn 0.9923 -0.1168 -0.0414
vn -0.7961 0.6037 -0.0414
vn -0.6798 -0.5439 -0.4920
vn 0.5191 0.6986 -0.4924
vn -0.6489 -0.5915 -0.4786
vn 0.5292 0.7067 -0.4696
vn -0.4118 -0.9097 -0.0528
vn 0.8999 0.4348 -0.0326
vn -0.5028 -0.8636 -0.0374
vn 0.8425 0.5364 -0.0496
vn -0.4614 -0.8861 -0.0446
vn 0.8680 0.4945 -0.0446
vn 0.0688 -0.8931 -0.4445
vn -0.2699 0.8543 -0.4443
vn 0.0989 -0.8778 -0.4687
vn -0.2850 0.8415 -0.4590
vn 0.6024 -0.7951 -0.0696
vn 0.2947 0.9552 -0.0278
vn 0.4238 -0.9049 -0.0386
vn 0.0560 0.9977 -0.0394
vn 0.4266 -0.9036 -0.0391
vn 0.0592 0.9975 -0.0391
usemtl TrunkA
f 1/1/1 2/1/1 3/1/1
f 3/1/2 2/1/2 4/1/2
f 2/1/3 5/1/3 4/1/3
f 4/1/4 5/1/4 6/1/4
f 5/1/5 7/1/5 6/1/5
f 6/1/6 7/1/6 8/1/6
f 7/1/7 9/1/7 8/1/7
f 8/1/8 9/1/8 10/1/8
f 9/1/9 11/1/9 10/1/9
f 10/1/10 11/1/10 12/1/10
f 11/1/11 1/1/11 12/1/11
f 12/1/12 1/1/12 3/1/12
f 14/1/25 13/1/25 19/1/25
f 19/1/26 13/1/26 20/1/26
f 13/1/27 15/1/27 20/1/27
f 20/1/28 15/1/28 21/1/28
f 15/1/29 16/1/29 21/1/29
f 21/1/30 16/1/30 22/1/30
f 16/1/31 17/1/31 22/1/31
f 22/1/32 17/1/32 23/1/32
f 17/1/33 18/1/33 23/1/33
f 23/1/34 18/1/34 24/1/34
f 18/1/35 14/1/35 24/1/35
f 24/1/36 14/1/36 19/1/36
f 26/1/49 25/1/49 31/1/49
f 31/1/50 25/1/50 32/1/50
f 25/1/51 27/1/51 32/1/51
f 32/1/52 27/1/52 33/1/52
f 27/1/53 28/1/53 33/1/53
f 33/1/54 28/1/54 34/1/54
f 28/1/55 29/1/55 34/1/55
f 34/1/56 29/1/56 35/1/56
f 29/1/57 30/1/57 35/1/57
f 35/1/58 30/1/58 36/1/58
f 30/1/59 26/1/59 36/1/59
f 36/1/60 26/1/60 31/1/60
f 38/1/73 37/1/73 43/1/73
f 43/1/74 37/1/74 44/1/74
f 37/1/75 39/1/75 44/1/75
f 44/1/76 39/1/76 45/1/76
f 39/1/77 40/1/77 45/1/77
f 45/1/78 40/1/78 46/1/78
f 40/1/79 41/1/79 46/1/79
f 46/1/80 41/1/80 47/1/80
f 41/1/81 42/1/81 47/1/81
f 47/1/82 42/1/82 48/1/82
f 42/1/83 38/1/83 48/1/83
f 48/1/84 38/1/84 43/1/84
f 50/1/97 49/1/97 55/1/97
f 55/1/98 49/1/98 56/1/98
f 49/1/99 51/1/99 56/1/99
f 56/1/100 51/1/100 57/1/100
f 51/1/101 52/1/101 57/1/101
f 57/1/102 52/1/102 58/1/102
f 52/1/103 53/1/103 58/1/103
f 58/1/104 53/1/104 59/1/104
f 53/1/105 54/1/105 59/1/105
f 59/1/106 54/1/106 60/1/106
f 54/1/107 50/1/107 60/1/107
f 60/1/108 50/1/108 55/1/108
f 62/1/121 61/1/121 67/1/121
f 67/1/122 61/1/122 68/1/122
f 61/1/123 63/1/123 68/1/123
f 68/1/124 63/1/124 69/1/124
f 63/1/125 64/1/125 69/1/125
f 69/1/126 64/1/126 70/1/126
f 64/1/127 65/1/127 70/1/127
f 70/1/128 65/1/128 71/1/128
f 65/1/129 66/1/129 71/1/129
f 71/1/130 66/1/130 72/1/130
f 66/1/131 62/1/131 72/1/131
f 72/1/132 62/1/132 67/1/132
usemtl TrunkB
f 3/1/13 13/1/13 14/1/13
f 3/1/14 4/1/14 13/1/14
f 4/1/15 15/1/15 13/1/15
f 4/1/16 6/1/16 15/1/16
f 6/1/17 16/1/17 15/1/17
f 6/1/18 8/1/18 16/1/18
f 8/1/19 17/1/19 16/1/19
f 8/1/20 10/1/20 17/1/20
f 10/1/21 18/1/21 17/1/21
f 10/1/22 12/1/22 18/1/22
f 12/1/23 14/1/23 18/1/23
f 12/1/24 3/1/24 14/1/24
f 19/1/37 25/1/37 26/1/37
f 19/1/38 20/1/38 25/1/38
f 20/1/39 27/1/39 25/1/39
f 20/1/40 21/1/40 27/1/40
f 21/1/41 28/1/41 27/1/41
f 21/1/42 22/1/42 28/1/42
f 22/1/43 29/1/43 28/1/43
f 22/1/44 23/1/44 29/1/44
f 23/1/45 30/1/45 29/1/45
f 23/1/46 24/1/46 30/1/46
f 24/1/47 26/1/47 30/1/47
f 24/1/48 19/1/48 26/1/48
f 31/1/61 37/1/61 38/1/61
f 31/1/62 32/1/62 37/1/62
f 32/1/63 39/1/63 37/1/63
f 32/1/64 33/1/64 39/1/64
f 33/1/65 40/1/65 39/1/65
f 33/1/66 34/1/66 40/1/66
f 34/1/67 41/1/67 40/1/67
f 34/1/68 35/1/68 41/1/68
f 35/1/69 42/1/69 41/1/69
f 35/1/70 36/1/70 42/1/70
f 36/1/71 38/1/71 42/1/71
f 36/1/72 31/1/72 38/1/72
f 43/1/85 49/1/85 50/1/85
f 43/1/86 44/1/86 49/1/86
f 44/1/87 51/1/87 49/1/87
f 44/1/88 45/1/88 51/1/88
f 45/1/89 52/1/89 51/1/89
f 45/1/90 46/1/90 52/1/90
f 46/1/91 53/1/91 52/1/91
f 46/1/92 47/1/92 53/1/92
f 47/1/93 54/1/93 53/1/93
f 47/1/94 48/1/94 54/1/94
f 48/1/95 50/1/95 54/1/95
f 48/1/96 43/1/96 50/1/96
f 55/1/109 61/1/109 62/1/109
f 55/1/110 56/1/110 61/1/110
f 56/1/111 63/1/111 61/1/111
f 56/1/112 57/1/112 63/1/112
f 57/1/113 64/1/113 63/1/113
f 57/1/114 58/1/114 64/1/114
f 58/1/115 65/1/115 64/1/115
f 58/1/116 59/1/116 65/1/116
f 59/1/117 66/1/117 65/1/117
f 59/1/118 60/1/118 66/1/118
f 60/1/119 62/1/119 66/1/119
f 60/1/120 55/1/120 62/1/120
f 67/1/133 73/1/133 74/1/133
f 67/1/134 68/1/134 73/1/134
f 68/1/135 75/1/135 73/1/135
f 68/1/136 69/1/136 75/1/136
f 69/1/137 76/1/137 75/1/137
f 69/1/138 70/1/138 76/1/138
f 70/1/139 77/1/139 76/1/139
f 70/1/140 71/1/140 77/1/140
f 71/1/141 78/1/141 77/1/141
f 71/1/142 72/1/142 78/1/142
f 72/1/143 74/1/143 78/1/143
f 72/1/144 67/1/144 74/1/144
usemtl Husk
f 74/1/145 73/1/145 79/1/145 80/1/145
f 73/1/146 75/1/146 81/1/146 79/1/146
f 75/1/147 76/1/147 82/1/147 81/1/147
f 76/1/148 77/1/148 83/1/148 82/1/148
f 77/1/149 78/1/149 84/1/149 83/1/149
f 78/1/150 74/1/150 80/1/150 84/1/150
f 80/1/151 79/1/151 85/1/151
f 79/1/152 81/1/152 85/1/152
f 81/1/153 82/1/153 85/1/153
f 82/1/154 83/1/154 85/1/154
f 83/1/155 84/1/155 85/1/155
f 84/1/156 80/1/156 85/1/156
usemtl Dead
f 86/2/157 87/3/157 88/4/157 89/5/157
f 90/6/158 91/7/158 87/3/158 86/2/158
f 87/3/159 92/8/159 93/9/159 88/4/159
f 91/7/160 94/10/160 92/8/160 87/3/160
f 92/8/161 95/11/161 96/12/161 93/9/161
f 94/10/162 97/13/162 95/11/162 92/8/162
f 95/11/163 98/14/163 99/15/163 96/12/163
f 97/13/164 100/16/164 98/14/164 95/11/164
f 98/14/165 101/17/165 99/15/165
f 100/16/166 101/17/166 98/14/166
f 102/2/167 103/3/167 104/4/167 105/5/167
f 106/6/168 107/7/168 103/3/168 102/2/168
f 103/3/169 108/8/169 109/9/169 104/4/169
f 107/7/170 110/10/170 108/8/170 103/3/170
f 108/8/171 111/11/171 112/12/171 109/9/171
f 110/10/172 113/13/172 111/11/172 108/8/172
f 111/11/173 114/14/173 115/15/173 112/12/173
f 113/13/174 116/16/174 114/14/174 111/11/174
f 114/14/175 117/17/175 115/15/175
f 116/16/176 117/17/176 114/14/176
f 118/2/177 119/3/177 120/4/177 121/5/177
f 122/6/178 123/7/178 119/3/178 118/2/178
f 119/3/179 124/8/179 125/9/179 120/4/179
f 123/7/180 126/10/180 124/8/180 119/3/180
f 124/8/181 127/11/181 128/12/181 125/9/181
f 126/10/182 129/13/182 127/11/182 124/8/182
f 127/11/183 130/14/183 131/15/183 128/12/183
f 129/13/184 132/16/184 130/14/184 127/11/184
f 130/14/185 133/17/185 131/15/185
f 132/16/186 133/17/186 130/14/186
f 134/2/187 135/3/187 136/4/187 137/5/187
f 138/6/188 139/7/188 135/3/188 134/2/188
f 135/3/189 140/8/189 141/9/189 136/4/189
f 139/7/190 142/10/190 140/8/190 135/3/190
f 140/8/191 143/11/191 144/12/191 141/9/191
f 142/10/192 145/13/192 143/11/192 140/8/192
f 143/11/193 146/14/193 147/15/193 144/12/193
f 145/13/194 148/16/194 146/14/194 143/11/194
f 146/14/195 149/17/195 147/15/195
f 148/16/196 149/17/196 146/14/196
f 150/2/197 151/3/197 152/4/197 153/5/197
f 154/6/198 155/7/198 151/3/198 150/2/198
f 151/3/199 156/8/199 157/9/199 152/4/199
f 155/7/200 158/10/200 156/8/200 151/3/200
f 156/8/201 159/11/201 160/12/201 157/9/201
f 158/10/202 161/13/202 159/11/202 156/8/202
f 159/11/203 162/14/203 163/15/203 160/12/203
f 161/13/204 164/16/204 162/14/204 159/11/204
f 162/14/205 165/17/205 163/15/205
f 164/16/206 165/17/206 162/14/206
f 166/2/207 167/3/207 168/18/207 169/19/207
f 170/20/208 171/21/208 167/3/208 166/2/208
f 167/3/209 172/8/209 173/22/209 168/18/209
f 171/21/210 174/23/210 172/8/210 167/3/210
f 172/8/211 175/11/211 176/24/211 173/22/211
f 174/23/212 177/25/212 175/11/212 172/8/212
f 175/11/213 178/14/213 179/26/213 176/24/213
f 177/25/214 180/27/214 178/14/214 175/11/214
f 178/14/215 181/17/215 179/26/215
f 180/27/216 181/17/216 178/14/216
f 182/2/217 183/3/217 184/18/217 185/19/217
f 186/20/218 187/21/218 183/3/218 182/2/218
f 183/3/219 188/8/219 189/22/219 184/18/219
f 187/21/220 190/23/220 188/8/220 183/3/220
f 188/8/221 191/11/221 192/24/221 189/22/221
f 190/23/222 193/25/222 191/11/222 188/8/222
f 191/11/223 194/14/223 195/26/223 192/24/223
f 193/25/224 196/27/224 194/14/224 191/11/224
f 194/14/225 197/17/225 195/26/225
f 196/27/226 197/17/226 194/14/226
f 198/2/227 199/3/227 200/18/227 201/19/227
f 202/20/228 203/21/228 199/3/228 198/2/228
f 199/3/229 204/8/229 205/22/229 200/18/229
f 203/21/230 206/23/230 204/8/230 199/3/230
f 204/8/231 207/11/231 208/24/231 205/22/231
f 206/23/232 209/25/232 207/11/232 204/8/232
f 207/11/233 210/14/233 211/26/233 208/24/233
f 209/25/234 212/27/234 210/14/234 207/11/234
f 210/14/235 213/17/235 211/26/235
f 212/27/236 213/17/236 210/14/236
f 214/2/237 215/3/237 216/18/237 217/19/237
f 218/20/238 219/21/238 215/3/238 214/2/238
f 215/3/239 220/8/239 221/22/239 216/18/239
f 219/21/240 222/23/240 220/8/240 215/3/240
f 220/8/241 223/11/241 224/24/241 221/22/241
f 222/23/242 225/25/242 223/11/242 220/8/242
f 223/11/243 226/14/243 227/26/243 224/24/243
f 225/25/244 228/27/244 226/14/244 223/11/244
f 226/14/245 229/17/245 227/26/245
f 228/27/246 229/17/246 226/14/246
f 230/2/247 231/3/247 232/18/247 233/19/247
f 234/20/248 235/21/248 231/3/248 230/2/248
f 231/3/249 236/8/249 237/22/249 232/18/249
f 235/21/250 238/23/250 236/8/250 231/3/250
f 236/8/251 239/11/251 240/24/251 237/22/251
f 238/23/252 241/25/252 239/11/252 236/8/252
f 239/11/253 242/14/253 243/26/253 240/24/253
f 241/25/254 244/27/254 242/14/254 239/11/254
f 242/14/255 245/17/255 243/26/255
f 244/27/256 245/17/256 242/14/256
