# LowPolyPalms - coconut palm SM_Palm_Coco_C (cm, Z up)
mtllib SM_Palm_Coco_C.mtl
o SM_Palm_Coco_C
v 37.63 0.00 2.32
v 19.03 32.47 -2.29
v 18.59 17.27 46.67
v -2.72 29.58 44.12
v -18.60 32.47 -4.60
v -24.18 17.27 44.12
v -37.63 0.00 -2.32
v -24.34 -7.33 46.67
v -19.03 -32.47 2.29
v -3.03 -19.64 49.22
v 18.60 -32.47 4.60
v 18.44 -7.33 49.21
v 6.29 29.97 91.97
v 17.93 9.70 94.59
v -17.19 29.97 90.70
v -29.05 9.70 92.07
v -17.41 -10.57 94.70
v 6.08 -10.57 95.96
v 11.50 25.33 139.82
v -7.79 36.46 137.91
v -27.18 25.33 138.09
v -27.27 3.07 140.18
v -7.98 -8.05 142.09
v 11.41 3.07 141.91
v 0.94 36.80 185.38
v 11.50 18.48 187.36
v -20.28 36.80 184.68
v -30.95 18.48 185.97
v -20.39 0.16 187.95
v 0.84 0.16 188.65
v 6.53 32.59 232.82
v -10.92 42.64 231.63
v -28.40 32.59 232.15
v -28.43 12.49 233.85
v -10.98 2.44 235.04
v 6.50 12.49 234.52
v -1.92 42.94 278.72
v 7.66 26.39 280.09
v -21.09 42.94 278.63
v -30.68 26.39 279.91
v -21.10 9.84 281.28
v -1.93 9.84 281.37
v 4.40 39.12 325.82
v -11.39 48.21 325.29
v -27.17 39.12 326.14
v -27.16 20.94 327.51
v -11.36 11.85 328.04
v 4.42 20.94 327.19
v -1.92 48.45 372.06
v 6.79 33.46 372.92
v -19.27 48.45 372.47
v -27.93 33.46 373.75
v -19.22 18.46 374.61
v -1.87 18.46 374.19
v 5.17 44.94 418.94
v -9.20 53.21 418.90
v -23.53 44.94 419.96
v -23.49 28.39 421.06
v -9.12 20.12 421.10
v 5.21 28.39 420.04
v 0.65 53.39 465.47
v 8.62 39.65 465.96
v -15.23 53.39 466.18
v -23.13 39.65 467.38
v -15.16 25.91 467.87
v 0.72 25.91 467.16
v 8.25 50.07 512.23
v -5.04 57.73 512.47
v -18.29 50.07 513.57
v -18.24 34.75 514.43
v -4.95 27.09 514.20
v 8.29 34.75 513.10
v 4.91 57.90 558.91
v 12.43 44.93 559.21
v -10.07 57.90 559.70
v -17.52 44.93 560.79
v -10.00 31.96 561.09
v 4.98 31.96 560.30
v 10.28 65.81 596.81
v 21.19 47.00 597.25
v -11.44 65.81 597.95
v -22.25 47.00 599.53
v -11.34 28.19 599.97
v 10.38 28.19 598.83
v 1.12 48.69 629.80
v 10.12 48.69 619.80
v -3.42 56.46 619.80
v 8.97 56.76 779.38
v -3.29 40.85 619.80
v -11.63 54.49 617.80
v -22.50 59.43 650.20
v -22.98 61.84 649.65
v -12.66 60.27 616.58
v -16.66 51.46 616.58
v -24.63 58.21 649.65
v -33.36 64.37 680.97
v -54.66 115.99 664.73
v -86.26 46.47 664.73
v -44.23 69.31 710.12
v -52.55 97.65 701.99
v -71.06 56.94 701.99
v -55.10 74.25 737.66
v -81.47 146.99 713.49
v -127.25 46.30 713.49
v -65.97 79.19 763.58
v -78.00 109.70 752.36
v -96.87 68.20 752.36
v -76.84 84.13 787.87
v -108.90 148.53 759.49
v -146.44 65.95 759.49
v -87.70 89.07 810.55
v -97.83 112.47 800.23
v -112.00 81.31 800.23
v -98.57 94.01 831.61
v -119.00 131.04 811.61
v -139.91 85.05 811.61
v -109.44 98.95 851.05
v -112.88 105.00 847.44
v -116.26 97.56 847.44
v -120.31 103.89 868.87
v 5.27 35.32 616.30
v 10.32 19.09 645.36
v 9.00 17.13 644.48
v 1.81 30.82 614.38
v 10.68 33.57 614.38
v 12.52 18.23 644.48
v 15.36 2.85 673.31
v -12.02 -48.92 647.67
v 67.27 -24.27 647.67
v 20.41 -13.38 700.15
v 4.90 -40.06 686.65
v 48.31 -26.57 686.65
v 25.45 -29.61 725.89
v -13.32 -100.37 688.05
v 97.50 -65.93 688.05
v 30.50 -45.85 750.52
v 16.20 -76.45 732.88
v 59.62 -62.96 732.88
v 35.55 -62.08 774.05
v 1.75 -129.10 734.11
v 101.37 -98.14 734.11
v 40.59 -78.32 796.47
v 28.36 -101.80 781.86
v 63.98 -90.74 781.86
v 45.64 -94.55 817.78
v 30.00 -134.92 790.02
v 81.40 -118.95 790.02
v 50.68 -110.79 838.00
v 48.87 -117.50 832.91
v 55.98 -115.29 832.91
v 55.73 -127.02 857.10
v 6.11 61.77 614.80
v 13.93 82.26 644.64
v 16.06 83.03 643.53
v 11.37 63.31 612.37
v 3.21 66.43 612.37
v 12.85 84.25 643.53
v 21.75 102.75 673.12
v 73.23 117.59 647.70
v -6.77 148.12 647.70
v 29.57 123.24 700.23
v 55.18 132.90 685.18
v 16.89 147.51 685.18
v 37.38 143.73 725.99
v 104.72 168.37 684.86
v 3.58 206.96 684.86
v 45.20 164.22 750.38
v 73.42 174.82 731.92
v 31.22 190.92 731.92
v 53.02 184.71 773.42
v 113.47 209.69 729.37
v 24.57 243.61 729.37
v 60.84 205.20 795.09
v 81.74 214.09 778.62
v 51.18 225.75 778.62
v 68.66 225.69 815.40
v 101.95 241.83 785.29
v 54.58 259.91 785.29
v 76.48 246.18 834.35
v 82.05 248.65 829.19
v 73.97 251.74 829.19
v 84.29 266.67 851.94
v -11.70 43.07 613.30
v -34.02 33.29 644.92
v -36.02 34.34 643.80
v -16.48 45.63 610.72
v -13.05 37.83 610.72
v -34.60 31.11 643.80
v -56.34 23.50 674.41
v -99.44 50.15 649.76
v -65.94 -26.25 649.76
v -78.66 13.72 701.79
v -101.69 23.79 686.00
v -86.86 -10.04 686.00
v -100.97 3.94 727.06
v -159.82 35.08 685.39
v -117.94 -60.45 685.39
v -123.29 -5.85 750.20
v -147.91 5.29 730.25
v -131.78 -31.50 730.25
v -145.61 -15.63 771.23
v -198.49 6.74 723.08
v -164.99 -69.69 723.08
v -167.93 -25.42 790.13
v -185.87 -17.15 772.23
v -174.01 -44.21 772.23
v -190.25 -35.20 806.92
v -218.98 -21.69 774.57
v -199.78 -65.49 774.57
v -212.56 -44.98 821.60
v -216.99 -43.00 815.76
v -214.11 -49.59 815.76
v -234.88 -54.77 834.15
v 15.05 47.36 611.80
v 41.26 44.85 638.46
v 42.40 43.06 637.10
v 17.32 42.50 609.12
v 18.20 51.70 609.12
v 42.72 46.40 637.10
v 67.46 42.34 662.38
v 92.76 -6.05 627.62
v 101.48 85.06 627.62
v 93.67 39.84 683.58
v 106.68 15.68 663.34
v 111.03 61.09 663.34
v 119.87 37.33 702.05
v 152.51 -22.81 643.25
v 163.32 90.19 643.25
v 146.07 34.82 717.80
v 157.81 8.78 691.87
v 162.54 58.16 691.87
v 172.28 32.31 730.82
v 195.09 -21.82 667.90
v 204.94 81.13 667.90
v 198.48 29.80 741.11
v 205.16 12.61 716.67
v 208.30 45.42 716.67
v 224.68 27.30 748.68
v 232.57 0.70 704.61
v 237.47 51.92 704.61
v 250.89 24.79 753.52
v 251.60 21.24 745.59
v 252.26 28.14 745.59
v 277.09 22.28 755.63
v -5.44 61.06 610.30
v -19.06 86.72 641.72
v -18.00 88.68 640.53
v -3.09 65.79 607.46
v -10.68 61.76 607.46
v -21.27 86.94 640.53
v -32.67 112.39 670.26
v -12.50 162.92 632.54
v -85.82 124.02 632.54
v -46.28 138.05 695.92
v -33.97 163.66 675.71
v -74.40 142.22 675.71
v -59.90 163.71 718.71
v -36.20 227.84 656.74
v -126.29 180.05 656.74
v -73.51 189.37 738.62
v -61.95 215.26 711.18
v -101.44 194.31 711.18
v -87.13 215.04 755.66
v -57.04 269.08 693.02
v -148.74 220.43 693.02
v -100.74 240.70 769.82
v -89.69 258.21 746.33
v -121.43 241.37 746.33
v -114.36 266.36 781.11
v -97.34 292.06 737.67
v -145.17 266.68 737.67
v -127.97 292.02 789.52
v -125.84 295.33 781.52
v -131.90 292.11 781.52
v -141.58 317.69 795.06
v -0.60 34.80 608.80
v -4.29 5.01 635.87
v -6.19 4.08 634.49
v -5.26 32.59 605.73
v 3.37 31.52 605.73
v -2.69 3.64 634.49
v -7.98 -24.77 659.62
v -49.01 -48.55 620.72
v 25.99 -57.84 620.72
v -11.68 -54.56 680.07
v -34.38 -64.75 659.46
v 7.86 -69.98 659.46
v -15.37 -84.35 697.21
v -67.19 -110.53 634.48
v 28.50 -122.39 634.48
v -19.06 -114.13 711.04
v -40.01 -123.20 682.50
v -0.95 -128.04 682.50
v -22.75 -143.92 721.56
v -63.11 -159.50 652.43
v 12.59 -168.88 652.43
v -26.44 -173.71 728.77
v -41.16 -176.52 703.94
v -12.84 -180.03 703.94
v -30.13 -203.49 732.68
v -50.11 -204.43 687.58
v -10.98 -209.27 687.58
v -33.82 -233.28 733.28
v -37.34 -232.58 725.84
v -30.23 -233.46 725.84
v -37.51 -263.06 730.57
v 11.38 58.22 607.30
v 36.21 81.28 632.84
v 38.11 80.90 631.23
v 16.06 57.16 603.71
v 10.66 62.97 603.71
v 35.97 83.21 631.23
v 61.04 104.34 655.25
v 105.90 89.57 618.18
v 49.63 150.16 618.18
v 85.87 127.40 674.55
v 108.12 119.69 653.43
v 79.83 150.15 653.43
v 110.71 150.46 690.74
v 163.39 133.53 627.97
v 97.72 204.25 627.97
v 135.54 173.52 703.80
v 155.14 166.99 674.59
v 130.48 193.55 674.59
v 160.37 196.58 713.75
v 200.23 177.90 647.15
v 144.69 237.71 647.15
v 185.20 219.64 720.59
v 197.81 211.58 696.45
v 178.11 232.81 696.45
v 210.03 242.69 724.31
v 224.61 231.18 679.73
v 199.63 258.09 679.73
v 234.87 265.75 724.92
v 237.15 263.00 717.66
v 232.29 268.23 717.66
v 259.70 288.81 722.40
v -12.69 50.98 605.80
v -48.44 56.88 625.28
v -49.03 58.60 623.54
v -13.84 55.69 602.27
v -15.30 46.89 602.27
v -49.56 55.45 623.54
v -84.19 62.79 641.70
v -94.85 109.21 597.70
v -109.22 22.28 597.70
v -119.94 68.70 655.07
v -125.32 89.44 628.46
v -131.70 50.80 628.46
v -155.69 74.61 665.37
v -165.94 123.97 590.37
v -181.28 31.17 590.37
v -191.43 80.52 672.62
v -193.74 99.22 638.88
v -199.63 63.55 638.88
v -227.18 86.42 676.81
v -226.24 126.48 600.47
v -239.18 48.20 600.47
v -262.93 92.33 677.94
v -260.24 106.81 651.04
v -265.04 77.76 651.04
v -298.68 98.24 676.02
v -290.69 118.95 628.82
v -297.78 76.06 628.82
v -334.43 104.15 671.03
v -332.50 106.92 662.98
v -333.50 100.90 662.98
v -370.17 110.06 662.99
v 10.53 38.33 604.30
v 37.27 8.85 625.15
v 36.49 7.09 623.52
v 9.06 34.14 600.26
v 14.83 39.38 600.26
v 39.09 9.46 623.52
v 64.02 -20.63 641.94
v 45.47 -59.72 597.48
v 104.72 -5.95 597.48
v 90.77 -50.11 654.65
v 82.94 -66.96 627.77
v 108.30 -43.94 627.77
v 117.52 -79.59 663.31
v 89.44 -120.91 592.73
v 161.37 -55.64 592.73
v 144.27 -109.06 667.89
v 130.36 -124.34 637.22
v 160.81 -96.70 637.22
v 171.01 -138.54 668.41
v 141.59 -161.46 594.83
v 196.68 -111.47 594.83
v 197.76 -168.02 664.86
v 185.26 -174.49 639.11
v 205.41 -156.20 639.11
v 224.51 -197.50 657.24
v 199.45 -206.42 615.01
v 235.81 -173.42 615.01
v 251.26 -226.98 645.56
v 246.82 -227.73 638.52
v 252.44 -222.63 638.52
v 278.01 -256.46 629.81
v 1.01 62.69 602.80
v 0.72 99.78 617.65
v 2.41 100.39 615.88
v 4.70 64.48 598.42
v -2.71 64.42 598.42
v -0.97 100.37 615.88
v 0.44 136.86 628.12
v 34.74 148.08 579.09
v -34.03 147.55 579.09
v 0.15 173.95 634.21
v 17.17 176.93 607.20
v -16.91 176.66 607.20
v -0.13 211.03 635.93
v 47.15 210.51 565.49
v -47.40 209.78 565.49
v -0.42 248.12 633.28
v 15.70 244.03 601.04
v -16.47 243.79 601.04
v -0.70 285.20 626.26
v 35.15 267.97 555.76
v -36.29 267.42 555.76
v -0.99 322.29 614.86
v 11.92 313.52 590.66
v -13.76 313.32 590.66
v -1.28 359.37 599.08
v 20.54 340.40 559.56
v -22.80 340.07 559.56
v -1.56 396.45 578.94
v 1.56 392.56 572.43
v -4.63 392.51 572.43
v -1.85 433.54 554.42
v -7.60 37.74 601.30
v -32.60 6.35 608.44
v -34.02 7.18 606.53
v -11.34 39.75 597.06
v -4.80 34.55 597.06
v -31.48 5.15 606.53
v -57.60 -25.05 611.05
v -85.59 -3.29 564.05
v -30.14 -47.45 564.05
v -82.60 -56.44 609.16
v -95.75 -42.73 584.64
v -66.29 -66.18 584.64
v -107.60 -87.83 602.74
v -132.05 -49.49 534.45
v -64.76 -103.08 534.45
v -132.60 -119.22 591.81
v -142.43 -99.83 564.28
v -111.50 -124.46 564.28
v -157.60 -150.62 576.37
v -165.44 -107.71 511.36
v -114.03 -148.66 511.36
v -182.60 -182.01 556.40
v -185.59 -164.47 534.98
v -164.83 -181.00 534.98
v -207.60 -213.41 531.92
v -209.77 -181.74 496.77
v -176.25 -208.43 496.77
v -232.60 -244.80 502.93
v -231.89 -239.52 497.06
v -227.61 -242.93 497.06
v -257.60 -276.19 469.42
v 14.64 52.31 599.80
v 55.88 63.33 606.48
v 56.48 61.88 604.50
v 16.33 48.72 595.30
v 14.32 56.26 595.30
v 55.68 64.89 604.50
v 97.13 74.36 608.46
v 104.81 44.01 560.14
v 88.64 104.49 560.14
v 138.37 85.38 605.75
v 140.24 67.27 581.49
v 130.95 102.01 581.49
v 179.61 96.41 598.34
v 174.66 54.53 530.06
v 154.42 130.23 530.06
v 220.85 107.43 586.24
v 215.59 89.44 557.50
v 207.32 120.41 557.50
v 262.09 118.46 569.45
v 244.44 77.02 507.54
v 226.11 145.56 507.54
v 303.33 129.48 547.96
v 293.78 117.07 525.68
v 288.86 135.47 525.68
v 344.58 140.51 521.77
v 327.78 114.40 487.40
v 316.99 154.75 487.40
v 385.82 151.53 490.90
v 381.99 148.19 485.04
v 380.83 152.53 485.04
v 427.06 162.56 455.32
v -11.21 55.33 598.30
v -47.34 74.79 601.42
v -46.58 76.28 599.53
v -9.56 59.09 593.92
v -13.44 51.89 593.92
v -48.16 73.34 599.53
v -83.47 94.25 599.70
v -63.35 121.55 552.34
v -95.19 62.44 552.34
v -119.61 113.72 593.15
v -107.50 124.11 566.93
v -121.62 97.89 566.93
v -155.74 133.18 581.76
v -115.70 161.68 517.14
v -157.51 84.06 517.14
v -191.88 152.64 565.53
v -172.91 161.25 537.76
v -188.63 132.06 537.76
v -228.01 172.10 544.47
v -181.75 184.56 483.61
v -212.96 126.62 483.61
v -264.14 191.56 518.58
v -246.01 195.62 498.23
v -257.55 174.19 498.23
v -300.28 211.02 487.85
v -268.05 213.01 453.89
v -284.20 183.02 453.89
v -336.41 230.49 452.29
v -330.61 230.96 447.02
v -333.62 225.38 447.02
v -372.54 249.95 411.88
v 5.40 35.37 596.80
v 17.78 -3.12 595.07
v 16.20 -3.40 593.13
v 1.64 34.36 592.24
v 9.05 36.74 592.24
v 19.23 -2.42 593.13
v 30.16 -41.60 587.66
v -12.22 -42.10 538.34
v 64.88 -17.31 538.34
v 42.53 -80.09 574.58
v 22.77 -75.06 547.06
v 55.66 -64.48 547.06
v 54.91 -118.57 555.84
v -0.17 -97.66 486.96
v 87.47 -69.47 486.96
v 67.28 -157.05 531.42
v 46.33 -142.97 502.01
v 76.09 -133.40 502.01
v 79.66 -195.54 501.34
v 31.98 -158.11 439.66
v 96.58 -137.34 439.66
v 92.03 -234.02 465.58
v 73.07 -220.19 445.70
v 99.38 -211.73 445.70
v 104.41 -272.50 424.16
v 78.57 -242.01 390.41
v 107.62 -232.66 390.41
v 116.78 -310.99 377.06
v 112.67 -305.39 371.73
v 116.86 -304.04 371.73
v 129.16 -349.47 324.30
v 6.69 61.54 595.30
v 24.29 102.15 589.97
v 25.42 101.23 587.91
v 9.73 59.59 590.51
v 3.18 62.43 590.51
v 22.84 102.34 587.91
v 41.89 142.76 578.29
v 62.45 117.94 534.81
v 9.73 140.80 534.81
v 59.50 183.37 560.26
v 68.55 167.88 538.10
v 42.00 179.38 538.10
v 77.10 223.97 535.89
v 99.47 177.15 481.14
v 27.63 208.29 481.14
v 94.70 264.58 505.17
v 102.81 242.58 483.02
v 73.11 255.46 483.02
v 112.31 305.19 468.10
v 119.68 253.22 418.87
v 69.34 275.04 418.87
v 129.91 345.80 424.69
v 131.58 326.24 408.27
v 114.50 333.64 408.27
v 147.52 386.41 374.94
v 151.62 351.38 349.42
v 119.14 365.46 349.42
v 165.12 427.02 318.83
v 164.77 421.06 314.65
v 161.01 422.69 314.65
v 182.72 467.63 256.39
v -12.15 44.23 593.80
v -47.68 32.29 583.63
v -47.42 33.78 581.61
v -12.02 47.89 589.05
v -9.84 41.40 589.05
v -46.58 31.27 581.61
v -83.22 20.35 566.89
v -71.92 58.54 524.09
v -51.15 -3.26 524.09
v -118.75 8.41 543.58
v -108.33 26.98 521.33
v -99.23 -0.10 521.33
v -154.28 -3.53 513.69
v -121.47 48.17 459.93
v -96.90 -24.92 459.93
v -189.81 -15.47 477.24
v -172.83 5.94 455.62
v -163.34 -22.28 455.62
v -225.34 -27.41 434.20
v -183.45 20.61 389.69
v -162.95 -40.39 389.69
v -260.87 -39.35 384.60
v -243.10 -24.65 369.34
v -237.83 -40.34 369.34
v -296.41 -51.29 328.43
v -265.91 -24.40 304.80
v -255.85 -54.31 304.80
v -331.94 -63.23 265.68
v -326.15 -59.47 261.89
v -325.05 -62.74 261.89
v -367.47 -75.17 196.36
v 14.18 43.64 592.30
v 46.73 31.04 579.59
v 45.41 30.10 577.66
v 11.39 41.23 587.56
v 13.74 47.30 587.56
v 46.39 32.63 577.66
v 79.29 18.45 559.93
v 42.09 -1.84 518.64
v 65.44 58.49 518.64
v 111.84 5.85 533.32
v 89.81 -4.11 513.65
v 102.25 28.04 513.65
v 144.40 -6.75 499.75
v 81.02 -23.21 449.64
v 108.61 48.09 449.64
v 176.95 -19.34 459.24
v 148.22 -24.75 439.52
v 159.35 3.99 439.52
v 209.51 -31.94 411.77
v 142.94 -34.98 369.98
v 162.32 15.12 369.98
v 242.06 -44.54 357.35
v 217.69 -44.35 343.61
v 223.91 -28.27 343.61
v 274.62 -57.13 295.99
v 232.57 -53.04 274.08
v 240.77 -31.86 274.08
v 307.17 -69.73 227.67
v 299.95 -69.36 224.32
v 301.58 -65.15 224.32
v 339.73 -82.33 152.40
v -4.69 61.43 590.80
v -18.91 92.65 580.04
v -17.20 92.58 578.19
v -1.05 61.44 586.03
v -7.08 58.70 586.03
v -19.98 91.31 578.19
v -33.13 123.87 562.00
v 3.26 114.73 524.98
v -50.12 90.42 524.98
v -47.36 155.08 536.68
v -27.62 147.41 518.72
v -54.52 135.16 518.72
v -61.58 186.30 504.09
v -10.48 157.92 459.58
v -73.70 129.12 459.58
v -75.80 217.51 464.21
v -54.02 203.10 446.76
v -79.22 191.62 446.76
v -90.03 248.73 417.06
v -47.66 207.24 379.70
v -86.51 189.54 379.70
v -104.25 279.95 362.63
v -87.37 265.83 350.91
v -104.67 257.95 350.91
v -118.47 311.16 300.93
v -94.35 282.03 281.76
v -112.31 273.85 281.76
v -132.69 342.38 231.94
v -128.26 337.66 229.04
v -132.04 335.93 229.04
v -146.92 373.60 155.68
v -1.54 34.95 589.30
v -7.83 2.44 575.04
v -9.11 3.68 573.26
v -4.88 37.48 585.01
v 2.50 36.05 585.01
v -6.18 3.12 573.26
v -14.12 -30.07 553.02
v -37.99 2.28 518.22
v 20.10 -8.95 518.22
v -20.40 -62.58 523.23
v -31.79 -43.13 506.58
v -2.58 -48.78 506.58
v -26.69 -95.08 485.67
v -49.73 -38.01 444.39
v 15.97 -50.71 444.39
v -32.98 -127.59 440.35
v -42.20 -101.77 424.46
v -14.79 -107.07 424.46
v -39.27 -160.10 387.26
v -57.28 -99.88 354.88
v -0.09 -110.94 354.88
v -45.55 -192.61 326.40
v -51.43 -170.53 315.89
v -31.86 -174.31 315.89
v -51.84 -225.12 257.79
v -55.41 -186.11 240.60
v -33.98 -190.25 240.60
v -58.13 -257.62 181.40
v -59.16 -251.03 178.81
v -54.71 -251.89 178.81
v -64.41 -290.13 97.25
v -20.85 47.52 557.72
v -41.48 46.43 506.72
v -30.69 50.34 502.24
v -15.69 49.71 555.58
v -15.48 45.90 555.58
v -30.34 43.69 502.24
v -62.11 45.33 456.53
v -36.71 53.32 445.84
v -36.01 40.08 445.84
v -82.74 44.23 407.14
v -69.68 47.48 401.57
v -69.41 42.39 401.57
v -103.37 43.13 358.55
v -89.21 45.84 352.43
v -89.01 41.94 352.43
v -124.00 42.04 310.76
v -13.49 32.24 564.28
v -26.63 17.45 506.49
v -22.33 27.44 502.93
v -11.46 37.59 562.45
v -8.42 34.88 562.45
v -17.21 22.89 502.93
v -39.76 2.65 449.50
v -27.82 24.87 440.92
v -19.11 17.14 440.92
v -52.90 -12.14 393.32
v -47.51 -0.52 388.97
v -42.01 -5.41 388.97
v -66.04 -26.93 337.93
v -58.66 -15.39 333.06
v -55.44 -18.24 333.06
v -79.18 -41.73 283.34
v 11.76 29.44 573.68
v 22.18 10.59 520.81
v 14.52 17.71 516.73
v 7.30 32.86 571.59
v 11.23 35.03 571.59
v 20.22 20.86 516.73
v 32.59 -8.26 468.74
v 15.49 8.96 459.01
v 27.11 15.38 459.01
v 43.01 -27.11 417.46
v 35.34 -17.56 412.36
v 39.00 -15.53 412.36
v 53.42 -45.95 366.99
v 44.55 -36.23 361.49
v 49.91 -33.27 361.49
v 63.84 -64.80 317.32
v 22.76 44.73 563.50
v 33.02 42.85 502.32
v 22.60 42.10 500.58
v 16.98 43.40 562.58
v 17.83 48.03 562.58
v 23.54 47.25 500.58
v 43.29 40.97 441.94
v 18.96 40.67 437.79
v 20.64 49.88 437.79
v 53.55 39.09 382.36
v 41.25 38.04 380.26
v 42.42 44.44 380.26
v 63.82 37.21 323.58
v 50.57 37.84 321.23
v 51.21 41.33 321.23
v 74.09 35.33 265.60
v 13.55 66.84 577.22
v 19.25 75.18 525.49
v 16.55 63.28 523.25
v 12.17 61.11 576.15
v 8.70 63.48 576.15
v 9.14 68.35 523.25
v 24.96 83.51 474.55
v 14.88 56.99 469.04
v 3.88 64.52 469.04
v 30.67 91.84 424.41
v 25.26 78.51 421.56
v 20.19 81.98 421.56
v 36.37 100.17 375.07
v 30.32 85.95 371.95
v 25.30 89.39 371.95
v 42.08 108.51 326.54
v -7.67 68.86 571.51
v -15.25 86.28 514.26
v -8.04 79.50 511.23
v -3.55 64.87 569.75
v -7.54 63.13 569.75
v -15.20 76.38 511.23
v -22.83 103.69 457.82
v -9.44 85.13 450.24
v -18.37 81.25 450.24
v -30.41 121.10 402.18
v -22.79 112.33 398.36
v -29.19 109.54 398.36
v -38.00 138.51 347.33
v -30.26 128.74 343.13
v -36.12 126.19 343.13
v -45.58 155.93 293.29
v -8.66 30.12 549.52
v -20.82 42.27 549.52
v -20.82 30.12 564.10
v -20.82 30.12 534.33
v -32.97 30.12 549.52
v -20.82 17.97 549.52
v -16.01 57.06 560.17
v -28.20 69.26 560.17
v -28.20 57.06 574.80
v -28.20 57.06 544.94
v -40.39 57.06 560.17
v -28.20 44.87 560.17
v 2.49 35.36 553.06
v -11.65 49.50 553.06
v -11.65 35.36 570.04
v -11.65 35.36 535.39
v -25.79 35.36 553.06
v -11.65 21.21 553.06
v 34.70 44.10 530.28
v 21.17 57.63 530.28
v 21.17 44.10 546.51
v 21.17 44.10 513.36
v 7.63 44.10 530.28
v 21.17 30.57 530.28
v 52.73 34.18 526.88
v 39.08 47.83 526.88
v 39.08 34.18 543.26
v 39.08 34.18 509.82
v 25.43 34.18 526.88
v 39.08 20.53 526.88
v 44.70 42.85 541.70
v 30.34 57.21 541.70
v 30.34 42.85 558.93
v 30.34 42.85 523.76
v 15.99 42.85 541.70
v 30.34 28.50 541.70
v 6.08 74.08 573.58
v -8.19 88.34 573.58
v -8.19 74.08 590.70
v -8.19 74.08 555.75
v -22.45 74.08 573.58
v -8.19 59.81 573.58
v 14.16 76.99 557.55
v 0.66 90.49 557.55
v 0.66 76.99 573.76
v 0.66 76.99 540.67
v -12.85 76.99 557.55
v 0.66 63.48 557.55
v 11.25 86.56 539.16
v -2.27 100.07 539.16
v -2.27 86.56 555.37
v -2.27 86.56 522.26
v -15.78 86.56 539.16
v -2.27 73.04 539.16
vn 0.8450 0.5080 0.1650
vn 0.4580 0.8480 0.2670
vn -0.0040 0.9980 0.0600
vn -0.4860 0.8480 0.2090
vn -0.8590 0.5080 0.0600
vn -0.9630 0.0340 0.2660
vn -0.8660 -0.4730 0.1640
vn -0.4960 -0.7800 0.3820
vn -0.0170 -0.9630 0.2690
vn 0.4470 -0.7790 0.4400
vn 0.8390 -0.4730 0.2690
vn 0.9230 0.0340 0.3830
vn 0.8580 0.5050 0.0920
vn 0.5070 0.8560 -0.1030
vn 0.0000 1.0000 -0.0080
vn -0.4910 0.8560 -0.1600
vn -0.8640 0.5040 -0.0080
vn -0.9950 -0.0040 -0.1020
vn -0.8690 -0.4870 0.0920
vn -0.5010 -0.8650 0.0140
vn -0.0100 -0.9810 0.1920
vn 0.4960 -0.8650 0.0710
vn 0.8530 -0.4860 0.1920
vn 1.0000 -0.0050 0.0130
vn 0.8690 0.4930 -0.0470
vn 0.4970 0.8670 0.0300
vn 0.0070 0.9900 -0.1380
vn -0.4980 0.8670 -0.0200
vn -0.8600 0.4940 -0.1330
vn -0.9990 0.0080 0.0380
vn -0.8650 -0.5010 -0.0370
vn -0.5050 -0.8510 0.1460
vn -0.0030 -0.9990 0.0540
vn 0.4900 -0.8500 0.1960
vn 0.8640 -0.5020 0.0490
vn 0.9900 0.0090 0.1380
vn 0.8610 0.5040 0.0730
vn 0.5050 0.8580 -0.0990
vn 0.0000 1.0000 -0.0070
vn -0.4940 0.8580 -0.1380
vn -0.8640 0.5030 0.0040
vn -0.9970 -0.0030 -0.0790
vn -0.8670 -0.4890 0.0950
vn -0.5010 -0.8650 0.0190
vn -0.0060 -0.9850 0.1750
vn 0.4970 -0.8660 0.0590
vn 0.8580 -0.4880 0.1630
vn 1.0000 -0.0040 -0.0010
vn 0.8680 0.4940 -0.0580
vn 0.4980 0.8670 0.0180
vn 0.0040 0.9920 -0.1240
vn -0.4990 0.8670 -0.0090
vn -0.8630 0.4950 -0.1040
vn -0.9990 0.0060 0.0530
vn -0.8650 -0.5010 -0.0170
vn -0.5010 -0.8540 0.1410
vn -0.0020 -0.9990 0.0490
vn 0.4950 -0.8520 0.1680
vn 0.8650 -0.5020 0.0280
vn 0.9940 0.0070 0.1060
vn 0.8630 0.5030 0.0450
vn 0.5020 0.8590 -0.1010
vn 0.0000 1.0000 -0.0060
vn -0.4980 0.8600 -0.1130
vn -0.8640 0.5030 0.0240
vn -0.9990 -0.0020 -0.0480
vn -0.8640 -0.4920 0.1060
vn -0.5000 -0.8650 0.0290
vn -0.0010 -0.9870 0.1580
vn 0.4990 -0.8660 0.0410
vn 0.8620 -0.4900 0.1280
vn 1.0000 -0.0040 -0.0240
vn 0.8660 0.4950 -0.0760
vn 0.4990 0.8670 0.0030
vn 0.0010 0.9940 -0.1120
vn -0.4990 0.8670 0.0060
vn -0.8650 0.4960 -0.0710
vn -0.9970 0.0050 0.0740
vn -0.8660 -0.5010 0.0070
vn -0.4970 -0.8560 0.1400
vn -0.0000 -0.9990 0.0430
vn 0.5000 -0.8550 0.1380
vn 0.8650 -0.5010 0.0020
vn 0.9980 0.0060 0.0690
vn 0.8640 0.5030 0.0170
vn 0.4990 0.8600 -0.1060
vn -0.0000 1.0000 -0.0050
vn -0.5010 0.8610 -0.0880
vn -0.8640 0.5020 0.0460
vn -1.0000 -0.0020 -0.0160
vn -0.8620 -0.4930 0.1190
vn -0.4990 -0.8660 0.0380
vn 0.0030 -0.9900 0.1410
vn 0.5000 -0.8660 0.0210
vn 0.8660 -0.4920 0.0900
vn 0.9990 -0.0030 -0.0510
vn 0.8630 0.4960 -0.0930
vn 0.4990 0.8670 -0.0100
vn -0.0020 0.9950 -0.1010
vn -0.4990 0.8670 0.0190
vn -0.8670 0.4970 -0.0410
vn -0.9960 0.0040 0.0940
vn -0.8650 -0.5010 0.0280
vn -0.4940 -0.8580 0.1380
vn 0.0010 -0.9990 0.0360
vn 0.5030 -0.8570 0.1080
vn 0.8650 -0.5010 -0.0250
vn 0.9990 0.0050 0.0340
vn 0.8650 0.5020 -0.0070
vn 0.4960 0.8610 -0.1080
vn -0.0000 1.0000 -0.0040
vn -0.5030 0.8620 -0.0670
vn -0.8630 0.5020 0.0630
vn -1.0000 -0.0020 0.0080
vn -0.8600 -0.4950 0.1270
vn -0.4990 -0.8660 0.0430
vn 0.0060 -0.9920 0.1240
vn 0.5000 -0.8660 0.0020
vn 0.8680 -0.4940 0.0570
vn 0.9970 -0.0030 -0.0740
vn 0.8620 0.4970 -0.1050
vn 0.4990 0.8660 -0.0200
vn -0.0040 0.9960 -0.0920
vn -0.4990 0.8660 0.0290
vn -0.8670 0.4970 -0.0210
vn -0.9950 0.0030 0.1040
vn -0.8650 -0.5010 0.0380
vn -0.4930 -0.8600 0.1310
vn 0.0010 -1.0000 0.0250
vn 0.5040 -0.8600 0.0820
vn 0.8640 -0.5010 -0.0460
vn 1.0000 0.0030 0.0070
vn 0.8650 0.5010 -0.0220
vn 0.4950 0.8620 -0.1090
vn -0.5030 0.8620 -0.0570
vn -0.8630 0.5010 0.0680
vn -1.0000 -0.0020 0.0160
vn -0.8600 -0.4960 0.1220
vn -0.4980 -0.8660 0.0360
vn 0.0050 -0.9950 0.1040
vn 0.4990 -0.8660 -0.0160
vn 0.8680 -0.4960 0.0320
vn 0.9960 -0.0020 -0.0890
vn 0.8460 0.4860 -0.2210
vn -0.0110 0.9790 -0.2030
vn -0.8640 0.4860 -0.1310
vn -0.8610 -0.5020 -0.0780
vn -0.0050 -0.9950 -0.0970
vn 0.8490 -0.5020 -0.1680
vn 0.7680 0.4560 0.4500
vn 0.0240 0.8850 0.4660
vn -0.7170 0.4560 0.5280
vn -0.7140 -0.4010 0.5740
vn 0.0290 -0.8290 0.5580
vn 0.7700 -0.4010 0.4960
vn 0.4970 0.8670 -0.0400
vn -0.9970 -0.0080 0.0770
vn 0.5040 -0.8620 0.0470
vn -0.9290 -0.2490 -0.2740
vn -0.4220 0.8630 -0.2780
vn -0.8690 -0.4330 -0.2370
vn -0.2400 0.9380 -0.2510
vn -0.8980 -0.3430 -0.2770
vn -0.3920 0.9150 -0.0970
vn -0.8720 -0.4070 -0.2710
vn -0.2410 0.9110 -0.3340
vn -0.8560 -0.4390 -0.2750
vn -0.1920 0.9120 -0.3630
vn -0.8140 -0.5190 -0.2590
vn -0.0940 0.9270 -0.3630
vn -0.8250 -0.4850 -0.2900
vn -0.2380 0.9580 -0.1600
vn -0.7760 -0.5720 -0.2660
vn -0.0240 0.9300 -0.3660
vn -0.7580 -0.5930 -0.2730
vn -0.0280 0.9490 -0.3130
vn -0.7470 -0.5980 -0.2900
vn -0.0410 0.9560 -0.2900
vn 0.8380 -0.4010 -0.3700
vn -0.4650 -0.8000 -0.3790
vn 0.8910 -0.3040 -0.3370
vn -0.5630 -0.7510 -0.3450
vn 0.8740 -0.3250 -0.3610
vn -0.5230 -0.7980 -0.3010
vn 0.8860 -0.2940 -0.3590
vn -0.5690 -0.7250 -0.3880
vn 0.9120 -0.2310 -0.3390
vn -0.6440 -0.5740 -0.5060
vn 0.9020 -0.2410 -0.3590
vn -0.6010 -0.7250 -0.3360
vn 0.8980 -0.2360 -0.3730
vn -0.6040 -0.7100 -0.3630
vn 0.9350 -0.1380 -0.3260
vn -0.7110 -0.5620 -0.4230
vn 0.9590 -0.0480 -0.2780
vn -0.7880 -0.4420 -0.4290
vn 0.9570 -0.0410 -0.2870
vn -0.7650 -0.5760 -0.2870
vn -0.4870 0.7740 -0.4040
vn 0.8770 0.2470 -0.4120
vn -0.4430 0.7810 -0.4400
vn 0.8510 0.2900 -0.4370
vn -0.5230 0.7460 -0.4120
vn 0.8410 0.1110 -0.5290
vn -0.5280 0.7350 -0.4250
vn 0.8840 0.1960 -0.4260
vn -0.5490 0.7180 -0.4270
vn 0.8740 0.1350 -0.4670
vn -0.5890 0.6930 -0.4160
vn 0.8870 0.0900 -0.4530
vn -0.6130 0.6730 -0.4150
vn 0.8860 0.0470 -0.4620
vn -0.6630 0.6390 -0.3900
vn 0.9030 -0.0060 -0.4290
vn -0.6590 0.6300 -0.4090
vn 0.9170 0.0450 -0.3970
vn -0.6650 0.6160 -0.4220
vn 0.9060 0.0170 -0.4220
vn -0.2220 -0.8760 -0.4280
vn -0.7940 0.4310 -0.4300
vn -0.2530 -0.8450 -0.4710
vn -0.7950 0.3860 -0.4690
vn -0.1110 -0.9040 -0.4140
vn -0.5630 0.5830 -0.5860
vn -0.1380 -0.8770 -0.4610
vn -0.7670 0.4780 -0.4270
vn -0.0550 -0.8990 -0.4340
vn -0.5420 0.6200 -0.5670
vn 0.0000 -0.9070 -0.4220
vn -0.6270 0.6310 -0.4560
vn 0.0230 -0.8990 -0.4380
vn -0.6390 0.6290 -0.4430
vn 0.0670 -0.8980 -0.4340
vn -0.5920 0.6680 -0.4510
vn 0.1300 -0.9050 -0.4060
vn -0.4890 0.7430 -0.4570
vn 0.1550 -0.8940 -0.4210
vn -0.5520 0.7190 -0.4210
vn 0.5420 0.6990 -0.4670
vn 0.3820 -0.7870 -0.4840
vn 0.5410 0.6590 -0.5230
vn 0.4090 -0.7490 -0.5200
vn 0.4890 0.7000 -0.5210
vn 0.2590 -0.7690 -0.5850
vn 0.4340 0.7390 -0.5150
vn 0.2370 -0.8030 -0.5470
vn 0.4020 0.7310 -0.5520
vn 0.3110 -0.7960 -0.5190
vn 0.3410 0.7700 -0.5390
vn 0.1190 -0.8130 -0.5700
vn 0.2760 0.8200 -0.5020
vn -0.1580 -0.8020 -0.5760
vn 0.2190 0.8520 -0.4750
vn -0.0080 -0.8720 -0.4900
vn 0.1590 0.9070 -0.3910
vn -0.2590 -0.8730 -0.4130
vn 0.1190 0.9100 -0.3960
vn -0.0560 -0.9160 -0.3960
vn -0.8520 0.1580 -0.4980
vn 0.3460 0.7970 -0.4960
vn -0.8940 0.0230 -0.4470
vn 0.4850 0.7470 -0.4530
vn -0.8700 0.0300 -0.4920
vn 0.4360 0.7820 -0.4450
vn -0.8960 -0.0890 -0.4350
vn 0.6210 0.5970 -0.5080
vn -0.8780 -0.1030 -0.4670
vn 0.5560 0.7060 -0.4390
vn -0.8530 -0.1150 -0.5090
vn 0.5580 0.6690 -0.4910
vn -0.8410 -0.1620 -0.5160
vn 0.6330 0.5530 -0.5420
vn -0.8470 -0.2410 -0.4740
vn 0.7100 0.4950 -0.5000
vn -0.8650 -0.3380 -0.3700
vn 0.8640 0.2760 -0.4210
vn -0.8490 -0.3690 -0.3790
vn 0.7810 0.4960 -0.3790
vn 0.6510 -0.5530 -0.5200
vn -0.7660 -0.3740 -0.5240
vn 0.7340 -0.4760 -0.4830
vn -0.8280 -0.2770 -0.4880
vn 0.7010 -0.4610 -0.5450
vn -0.7970 -0.3600 -0.4860
vn 0.7850 -0.3790 -0.4900
vn -0.8370 -0.0710 -0.5420
vn 0.8080 -0.3270 -0.4890
vn -0.8510 -0.0300 -0.5250
vn 0.8580 -0.2620 -0.4420
vn -0.8810 0.0540 -0.4700
vn 0.8500 -0.2210 -0.4790
vn -0.8830 -0.1000 -0.4580
vn 0.9030 -0.1640 -0.3970
vn -0.8990 0.1680 -0.4030
vn 0.8930 -0.1190 -0.4340
vn -0.9000 0.0280 -0.4350
vn 0.8990 -0.0720 -0.4330
vn -0.8890 0.1500 -0.4330
vn -0.2570 0.8280 -0.4980
vn 0.8030 -0.3210 -0.5020
vn -0.2150 0.7900 -0.5750
vn 0.7750 -0.2690 -0.5720
vn -0.2740 0.7740 -0.5710
vn 0.7040 -0.3730 -0.6040
vn -0.3740 0.7680 -0.5210
vn 0.6760 -0.4850 -0.5550
vn -0.4530 0.7560 -0.4730
vn 0.5520 -0.6400 -0.5350
vn -0.4790 0.7280 -0.4910
vn 0.6950 -0.5270 -0.4890
vn -0.5110 0.6990 -0.5000
vn 0.6560 -0.5650 -0.5010
vn -0.5990 0.7060 -0.3780
vn 0.5620 -0.7320 -0.3840
vn -0.6050 0.6630 -0.4420
vn 0.6900 -0.5730 -0.4410
vn -0.6340 0.6350 -0.4410
vn 0.5870 -0.6800 -0.4410
vn -0.4220 -0.7140 -0.5590
vn -0.1510 0.8090 -0.5690
vn -0.3960 -0.6780 -0.6190
vn -0.1610 0.7700 -0.6180
vn -0.3290 -0.7760 -0.5380
vn 0.1690 0.7810 -0.6010
vn -0.2800 -0.8190 -0.5010
vn 0.0570 0.8550 -0.5150
vn -0.2350 -0.8570 -0.4590
vn 0.2240 0.8480 -0.4810
vn -0.1970 -0.8670 -0.4570
vn 0.1020 0.8830 -0.4580
vn -0.1580 -0.8630 -0.4800
vn 0.0640 0.8750 -0.4790
vn -0.1260 -0.9000 -0.4160
vn 0.2320 0.8820 -0.4100
vn -0.1060 -0.9320 -0.3460
vn 0.3110 0.8930 -0.3240
vn -0.0780 -0.9370 -0.3410
vn 0.2280 0.9120 -0.3410
vn 0.7480 0.2420 -0.6180
vn -0.3070 -0.7270 -0.6140
vn 0.7340 0.3280 -0.5950
vn -0.4000 -0.6960 -0.5960
vn 0.7380 0.4540 -0.5000
vn -0.6670 -0.5020 -0.5500
vn 0.6930 0.4670 -0.5490
vn -0.5060 -0.6710 -0.5420
vn 0.6580 0.5110 -0.5530
vn -0.5840 -0.5930 -0.5540
vn 0.6650 0.5950 -0.4510
vn -0.7360 -0.5110 -0.4450
vn 0.6280 0.6260 -0.4620
vn -0.6590 -0.5900 -0.4670
vn 0.5820 0.6530 -0.4840
vn -0.6900 -0.5340 -0.4890
vn 0.5740 0.6930 -0.4360
vn -0.7820 -0.4630 -0.4170
vn 0.5480 0.7220 -0.4220
vn -0.7720 -0.4750 -0.4220
vn -0.7430 0.2440 -0.6240
vn 0.7380 0.2650 -0.6200
vn -0.8260 0.1470 -0.5440
vn 0.8240 0.1510 -0.5460
vn -0.8470 0.0800 -0.5250
vn 0.8460 0.0170 -0.5330
vn -0.8300 0.0190 -0.5570
vn 0.8280 0.0610 -0.5570
vn -0.8960 -0.0390 -0.4430
vn 0.8460 -0.3830 -0.3700
vn -0.8960 -0.0890 -0.4340
vn 0.8980 -0.0780 -0.4340
vn -0.8940 -0.1380 -0.4270
vn 0.8950 -0.1120 -0.4310
vn -0.8950 -0.1800 -0.4080
vn 0.8980 -0.1690 -0.4060
vn -0.9240 -0.1880 -0.3320
vn 0.9250 -0.2510 -0.2840
vn -0.9240 -0.2160 -0.3150
vn 0.9270 -0.2010 -0.3150
vn 0.5270 -0.5640 -0.6360
vn -0.6620 0.3950 -0.6370
vn 0.6000 -0.5280 -0.6010
vn -0.6470 0.4690 -0.6020
vn 0.6390 -0.4720 -0.6070
vn -0.6100 0.5090 -0.6080
vn 0.7170 -0.4650 -0.5180
vn -0.5640 0.6570 -0.5000
vn 0.7380 -0.3980 -0.5440
vn -0.6140 0.5420 -0.5740
vn 0.8040 -0.4470 -0.3920
vn -0.5300 0.7810 -0.3320
vn 0.8200 -0.3810 -0.4270
vn -0.6190 0.6190 -0.4840
vn 0.8440 -0.3710 -0.3860
vn -0.5420 0.7510 -0.3770
vn 0.8600 -0.4270 -0.2800
vn -0.5460 0.8120 -0.2050
vn 0.8720 -0.4120 -0.2650
vn -0.5960 0.7580 -0.2650
vn -0.1110 0.7850 -0.6100
vn 0.2900 -0.7370 -0.6100
vn -0.1920 0.8170 -0.5440
vn 0.2360 -0.8050 -0.5440
vn -0.2440 0.7680 -0.5920
vn 0.2580 -0.7580 -0.5990
vn -0.3060 0.8210 -0.4820
vn 0.0570 -0.8860 -0.4600
vn -0.3510 0.8210 -0.4500
vn 0.0580 -0.9000 -0.4330
vn -0.3930 0.8120 -0.4320
vn 0.0620 -0.9010 -0.4300
vn -0.3940 0.8640 -0.3130
vn -0.1000 -0.9750 -0.1970
vn -0.4580 0.8010 -0.3850
vn 0.0530 -0.9070 -0.4180
vn -0.4110 0.8810 -0.2350
vn -0.0400 -0.9900 -0.1340
vn -0.4260 0.8770 -0.2230
vn 0.0680 -0.9730 -0.2230
vn -0.3990 -0.6340 -0.6620
vn 0.3130 0.6810 -0.6620
vn -0.3660 -0.7310 -0.5760
vn 0.4150 0.7050 -0.5760
vn -0.3470 -0.8060 -0.4800
vn 0.6250 0.6460 -0.4380
vn -0.2700 -0.8080 -0.5240
vn 0.4810 0.6920 -0.5390
vn -0.2620 -0.8570 -0.4440
vn 0.6980 0.6120 -0.3720
vn -0.2580 -0.8890 -0.3780
vn 0.6360 0.6850 -0.3550
vn -0.2180 -0.9020 -0.3740
vn 0.6080 0.6900 -0.3930
vn -0.2500 -0.9230 -0.2910
vn 0.6660 0.6990 -0.2610
vn -0.2010 -0.9310 -0.3050
vn 0.6400 0.6930 -0.3320
vn -0.1840 -0.9400 -0.2880
vn 0.6830 0.6710 -0.2880
vn 0.7280 0.2630 -0.6330
vn -0.7460 -0.2080 -0.6330
vn 0.7100 0.3460 -0.6130
vn -0.7790 -0.1320 -0.6130
vn 0.7740 0.4120 -0.4810
vn -0.9200 0.1100 -0.3760
vn 0.7540 0.4670 -0.4610
vn -0.8840 -0.0630 -0.4630
vn 0.8070 0.4790 -0.3460
vn -0.9740 0.1290 -0.1880
vn 0.8040 0.5050 -0.3150
vn -0.9500 -0.0510 -0.3090
vn 0.7590 0.5570 -0.3370
vn -0.9090 -0.0680 -0.4120
vn 0.8470 0.4920 -0.2040
vn -0.9900 -0.0340 -0.1350
vn 0.8630 0.4780 -0.1630
vn -0.9870 -0.0930 -0.1340
vn 0.8610 0.4860 -0.1530
vn -0.9830 -0.1070 -0.1530
vn -0.7880 0.2690 -0.5540
vn 0.7330 -0.3970 -0.5530
vn -0.8310 0.2120 -0.5140
vn 0.7220 -0.4630 -0.5140
vn -0.8660 0.1670 -0.4710
vn 0.7020 -0.5480 -0.4550
vn -0.8840 0.1100 -0.4550
vn 0.6870 -0.5630 -0.4590
vn -0.9070 0.0810 -0.4130
vn 0.6700 -0.6300 -0.3930
vn -0.9460 0.1430 -0.2920
vn 0.7260 -0.6440 -0.2390
vn -0.9560 0.1370 -0.2600
vn 0.7470 -0.6190 -0.2420
vn -0.9590 0.0840 -0.2700
vn 0.7220 -0.6310 -0.2840
vn -0.9680 0.1790 -0.1740
vn 0.7700 -0.6290 -0.1070
vn -0.9720 0.1710 -0.1630
vn 0.7890 -0.5920 -0.1630
vn 0.4010 -0.7630 -0.5070
vn -0.1330 0.8530 -0.5050
vn 0.4800 -0.7140 -0.5100
vn -0.0500 0.8580 -0.5110
vn 0.5150 -0.7610 -0.3940
vn 0.0800 0.9520 -0.2940
vn 0.5600 -0.7410 -0.3700
vn -0.0060 0.9270 -0.3750
vn 0.5710 -0.7620 -0.3060
vn 0.0540 0.9690 -0.2390
vn 0.5860 -0.7630 -0.2720
vn 0.0120 0.9640 -0.2650
vn 0.5300 -0.8280 -0.1800
vn 0.0130 0.9990 -0.0450
vn 0.5650 -0.8040 -0.1860
vn -0.0440 0.9790 -0.2000
vn 0.4890 -0.8650 -0.1120
vn -0.0950 0.9950 -0.0430
vn 0.4940 -0.8630 -0.1040
vn -0.1280 0.9860 -0.1040
vn 0.1310 0.8520 -0.5080
vn -0.4760 -0.7180 -0.5080
vn 0.0510 0.8770 -0.4770
vn -0.5520 -0.6830 -0.4780
vn -0.0130 0.8980 -0.4400
vn -0.6050 -0.6580 -0.4480
vn 0.0200 0.9420 -0.3340
vn -0.6640 -0.6920 -0.2830
vn 0.0160 0.9580 -0.2850
vn -0.6630 -0.7070 -0.2450
vn 0.0830 0.9760 -0.2020
vn -0.6290 -0.7630 -0.1490
vn 0.1010 0.9810 -0.1660
vn -0.6070 -0.7850 -0.1270
vn 0.1570 0.9810 -0.1180
vn -0.5570 -0.8260 -0.0920
vn 0.1110 0.9850 -0.1290
vn -0.5690 -0.8080 -0.1550
vn 0.1060 0.9870 -0.1190
vn -0.5860 -0.8020 -0.1190
vn -0.6470 -0.4950 -0.5800
vn 0.7930 0.1730 -0.5850
vn -0.6480 -0.5800 -0.4940
vn 0.8650 0.1050 -0.4910
vn -0.6390 -0.6390 -0.4290
vn 0.9150 0.0340 -0.4020
vn -0.6660 -0.6620 -0.3430
vn 0.9490 0.0420 -0.3120
vn -0.6780 -0.6760 -0.2880
vn 0.9690 0.0360 -0.2430
vn -0.7650 -0.6190 -0.1790
vn 0.9850 0.1290 -0.1110
vn -0.7070 -0.6770 -0.2030
vn 0.9500 0.1330 -0.2830
vn -0.8010 -0.5880 -0.1130
vn 0.9790 0.1940 -0.0640
vn -0.7610 -0.6350 -0.1300
vn 0.9720 0.1710 -0.1620
vn -0.7590 -0.6390 -0.1200
vn 0.9810 0.1540 -0.1200
vn 0.8350 0.0770 -0.5450
vn -0.7450 0.3890 -0.5410
vn 0.8740 0.1460 -0.4640
vn -0.7560 0.4630 -0.4630
vn 0.8990 0.1880 -0.3950
vn -0.7590 0.5390 -0.3660
vn 0.9400 0.1630 -0.2990
vn -0.8050 0.5350 -0.2570
vn 0.9490 0.1790 -0.2600
vn -0.8120 0.5300 -0.2450
vn 0.9610 0.1700 -0.2180
vn -0.8270 0.5250 -0.2040
vn 0.9680 0.1670 -0.1890
vn -0.8340 0.5240 -0.1730
vn 0.9930 0.0420 -0.1110
vn -0.9010 0.4290 -0.0660
vn 0.9870 0.1050 -0.1260
vn -0.8780 0.4520 -0.1560
vn 0.9870 0.1090 -0.1160
vn -0.8760 0.4690 -0.1160
vn 0.3010 -0.9480 -0.1020
vn 0.2010 0.9750 -0.0960
vn 0.2650 -0.9600 -0.0880
vn 0.1650 0.9830 -0.0790
vn 0.2130 -0.9750 -0.0680
vn 0.1210 0.9920 -0.0390
vn 0.1670 -0.9850 -0.0490
vn 0.0670 0.9970 -0.0360
vn 0.0620 0.9970 -0.0490
vn 0.9010 -0.4220 -0.0970
vn -0.5250 0.8460 -0.0930
vn 0.8670 -0.4940 -0.0720
vn -0.5890 0.8060 -0.0570
vn 0.8900 -0.4470 -0.0900
vn -0.5540 0.8240 -0.1140
vn 0.8320 -0.5520 -0.0500
vn -0.6400 0.7680 -0.0220
vn 0.8320 -0.5530 -0.0500
vn -0.6470 0.7610 -0.0500
vn 0.7080 0.6980 -0.1100
vn -0.9690 -0.2240 -0.1010
vn 0.7330 0.6730 -0.0970
vn -0.9610 -0.2600 -0.0900
vn 0.7940 0.6050 -0.0610
vn -0.9420 -0.3340 -0.0190
vn 0.7590 0.6450 -0.0840
vn -0.9480 -0.3040 -0.0970
vn 0.7590 0.6450 -0.0860
vn -0.9500 -0.3000 -0.0860
vn -0.0650 0.9970 -0.0420
vn -0.4170 -0.9090 -0.0270
vn -0.0070 0.9990 -0.0320
vn -0.3620 -0.9320 -0.0220
vn -0.0780 0.9960 -0.0450
vn -0.4200 -0.9040 -0.0740
vn 0.0510 0.9980 -0.0230
vn -0.3110 -0.9500 0.0040
vn -0.3060 -0.9520 -0.0230
vn -0.9700 0.2330 -0.0690
vn 0.5680 -0.8200 -0.0710
vn -0.9310 0.3630 -0.0450
vn 0.6710 -0.7410 -0.0130
vn -0.9230 0.3830 -0.0410
vn 0.6890 -0.7240 -0.0300
vn -0.9160 0.3980 -0.0390
vn 0.7020 -0.7110 -0.0340
vn 0.7030 -0.7100 -0.0390
vn -0.7060 -0.6980 -0.1190
vn 0.9920 0.0420 -0.1200
vn -0.8220 -0.5670 -0.0640
vn 0.9780 0.2060 -0.0340
vn -0.7710 -0.6300 -0.0920
vn 0.9810 0.1460 -0.1250
vn -0.7980 -0.5980 -0.0790
vn 0.9820 0.1740 -0.0710
vn -0.7980 -0.5970 -0.0810
vn 0.9810 0.1770 -0.0810
vn 0.6090 0.6090 0.5080
vn 0.6150 0.6150 -0.4920
vn -0.6090 0.6090 0.5080
vn -0.6150 0.6150 -0.4920
vn -0.6090 -0.6090 0.5080
vn -0.6150 -0.6150 -0.4920
vn 0.6090 -0.6090 0.5080
vn 0.6150 -0.6150 -0.4920
usemtl TrunkA
f 1//1 2//1 3//1
f 3//2 2//2 4//2
f 2//3 5//3 4//3
f 4//4 5//4 6//4
f 5//5 7//5 6//5
f 6//6 7//6 8//6
f 7//7 9//7 8//7
f 8//8 9//8 10//8
f 9//9 11//9 10//9
f 10//10 11//10 12//10
f 11//11 1//11 12//11
f 12//12 1//12 3//12
f 14//25 13//25 19//25
f 19//26 13//26 20//26
f 13//27 15//27 20//27
f 20//28 15//28 21//28
f 15//29 16//29 21//29
f 21//30 16//30 22//30
f 16//31 17//31 22//31
f 22//32 17//32 23//32
f 17//33 18//33 23//33
f 23//34 18//34 24//34
f 18//35 14//35 24//35
f 24//36 14//36 19//36
f 26//49 25//49 31//49
f 31//50 25//50 32//50
f 25//51 27//51 32//51
f 32//52 27//52 33//52
f 27//53 28//53 33//53
f 33//54 28//54 34//54
f 28//55 29//55 34//55
f 34//56 29//56 35//56
f 29//57 30//57 35//57
f 35//58 30//58 36//58
f 30//59 26//59 36//59
f 36//60 26//60 31//60
f 38//73 37//73 43//73
f 43//74 37//74 44//74
f 37//75 39//75 44//75
f 44//76 39//76 45//76
f 39//77 40//77 45//77
f 45//78 40//78 46//78
f 40//79 41//79 46//79
f 46//80 41//80 47//80
f 41//81 42//81 47//81
f 47//82 42//82 48//82
f 42//83 38//83 48//83
f 48//84 38//84 43//84
f 50//97 49//97 55//97
f 55//98 49//98 56//98
f 49//99 51//99 56//99
f 56//100 51//100 57//100
f 51//101 52//101 57//101
f 57//102 52//102 58//102
f 52//103 53//103 58//103
f 58//104 53//104 59//104
f 53//105 54//105 59//105
f 59//106 54//106 60//106
f 54//107 50//107 60//107
f 60//108 50//108 55//108
f 62//121 61//121 67//121
f 67//122 61//122 68//122
f 61//123 63//123 68//123
f 68//124 63//124 69//124
f 63//125 64//125 69//125
f 69//126 64//126 70//126
f 64//127 65//127 70//127
f 70//128 65//128 71//128
f 65//129 66//129 71//129
f 71//130 66//130 72//130
f 66//131 62//131 72//131
f 72//132 62//132 67//132
usemtl TrunkB
f 3//13 13//13 14//13
f 3//14 4//14 13//14
f 4//15 15//15 13//15
f 4//16 6//16 15//16
f 6//17 16//17 15//17
f 6//18 8//18 16//18
f 8//19 17//19 16//19
f 8//20 10//20 17//20
f 10//21 18//21 17//21
f 10//22 12//22 18//22
f 12//23 14//23 18//23
f 12//24 3//24 14//24
f 19//37 25//37 26//37
f 19//38 20//38 25//38
f 20//39 27//39 25//39
f 20//40 21//40 27//40
f 21//41 28//41 27//41
f 21//42 22//42 28//42
f 22//43 29//43 28//43
f 22//44 23//44 29//44
f 23//45 30//45 29//45
f 23//46 24//46 30//46
f 24//47 26//47 30//47
f 24//48 19//48 26//48
f 31//61 37//61 38//61
f 31//62 32//62 37//62
f 32//63 39//63 37//63
f 32//64 33//64 39//64
f 33//65 40//65 39//65
f 33//66 34//66 40//66
f 34//67 41//67 40//67
f 34//68 35//68 41//68
f 35//69 42//69 41//69
f 35//70 36//70 42//70
f 36//71 38//71 42//71
f 36//72 31//72 38//72
f 43//85 49//85 50//85
f 43//86 44//86 49//86
f 44//87 51//87 49//87
f 44//88 45//88 51//88
f 45//89 52//89 51//89
f 45//90 46//90 52//90
f 46//91 53//91 52//91
f 46//92 47//92 53//92
f 47//93 54//93 53//93
f 47//94 48//94 54//94
f 48//95 50//95 54//95
f 48//96 43//96 50//96
f 55//109 61//109 62//109
f 55//110 56//110 61//110
f 56//111 63//111 61//111
f 56//112 57//112 63//112
f 57//113 64//113 63//113
f 57//114 58//114 64//114
f 58//115 65//115 64//115
f 58//116 59//116 65//116
f 59//117 66//117 65//117
f 59//118 60//118 66//118
f 60//119 62//119 66//119
f 60//120 55//120 62//120
f 67//133 73//133 74//133
f 67//134 68//134 73//134
f 68//111 75//111 73//111
f 68//135 69//135 75//135
f 69//136 76//136 75//136
f 69//137 70//137 76//137
f 70//138 77//138 76//138
f 70//139 71//139 77//139
f 71//140 78//140 77//140
f 71//141 72//141 78//141
f 72//142 74//142 78//142
f 72//143 67//143 74//143
usemtl Husk
f 74//144 73//144 79//144 80//144
f 73//145 75//145 81//145 79//145
f 75//146 76//146 82//146 81//146
f 76//147 77//147 83//147 82//147
f 77//148 78//148 84//148 83//148
f 78//149 74//149 80//149 84//149
f 80//150 79//150 85//150
f 79//151 81//151 85//151
f 81//152 82//152 85//152
f 82//153 83//153 85//153
f 83//154 84//154 85//154
f 84//155 80//155 85//155
usemtl Young
f 86//156 87//156 88//156
f 87//157 89//157 88//157
f 89//158 86//158 88//158
f 90//159 91//159 92//159 93//159
f 94//160 95//160 91//160 90//160
f 91//161 96//161 97//161 92//161
f 95//162 98//162 96//162 91//162
f 96//163 99//163 100//163 97//163
f 98//164 101//164 99//164 96//164
f 99//165 102//165 103//165 100//165
f 101//166 104//166 102//166 99//166
f 102//167 105//167 106//167 103//167
f 104//168 107//168 105//168 102//168
f 105//169 108//169 109//169 106//169
f 107//170 110//170 108//170 105//170
f 108//171 111//171 112//171 109//171
f 110//172 113//172 111//172 108//172
f 111//173 114//173 115//173 112//173
f 113//174 116//174 114//174 111//174
f 114//175 117//175 118//175 115//175
f 116//176 119//176 117//176 114//176
f 117//177 120//177 118//177
f 119//178 120//178 117//178
f 121//179 122//179 123//179 124//179
f 125//180 126//180 122//180 121//180
f 122//181 127//181 128//181 123//181
f 126//182 129//182 127//182 122//182
f 127//183 130//183 131//183 128//183
f 129//184 132//184 130//184 127//184
f 130//185 133//185 134//185 131//185
f 132//186 135//186 133//186 130//186
f 133//187 136//187 137//187 134//187
f 135//188 138//188 136//188 133//188
f 136//189 139//189 140//189 137//189
f 138//190 141//190 139//190 136//190
f 139//191 142//191 143//191 140//191
f 141//192 144//192 142//192 139//192
f 142//193 145//193 146//193 143//193
f 144//194 147//194 145//194 142//194
f 145//195 148//195 149//195 146//195
f 147//196 150//196 148//196 145//196
f 148//197 151//197 149//197
f 150//198 151//198 148//198
f 152//199 153//199 154//199 155//199
f 156//200 157//200 153//200 152//200
f 153//201 158//201 159//201 154//201
f 157//202 160//202 158//202 153//202
f 158//203 161//203 162//203 159//203
f 160//204 163//204 161//204 158//204
f 161//205 164//205 165//205 162//205
f 163//206 166//206 164//206 161//206
f 164//207 167//207 168//207 165//207
f 166//208 169//208 167//208 164//208
f 167//209 170//209 171//209 168//209
f 169//210 172//210 170//210 167//210
f 170//211 173//211 174//211 171//211
f 172//212 175//212 173//212 170//212
f 173//213 176//213 177//213 174//213
f 175//214 178//214 176//214 173//214
f 176//215 179//215 180//215 177//215
f 178//216 181//216 179//216 176//216
f 179//217 182//217 180//217
f 181//218 182//218 179//218
usemtl Frond
f 183//219 184//219 185//219 186//219
f 187//220 188//220 184//220 183//220
f 184//221 189//221 190//221 185//221
f 188//222 191//222 189//222 184//222
f 189//223 192//223 193//223 190//223
f 191//224 194//224 192//224 189//224
f 192//225 195//225 196//225 193//225
f 194//226 197//226 195//226 192//226
f 195//227 198//227 199//227 196//227
f 197//228 200//228 198//228 195//228
f 198//229 201//229 202//229 199//229
f 200//230 203//230 201//230 198//230
f 201//231 204//231 205//231 202//231
f 203//232 206//232 204//232 201//232
f 204//233 207//233 208//233 205//233
f 206//234 209//234 207//234 204//234
f 207//235 210//235 211//235 208//235
f 209//236 212//236 210//236 207//236
f 210//237 213//237 211//237
f 212//238 213//238 210//238
f 214//239 215//239 216//239 217//239
f 218//240 219//240 215//240 214//240
f 215//241 220//241 221//241 216//241
f 219//242 222//242 220//242 215//242
f 220//243 223//243 224//243 221//243
f 222//244 225//244 223//244 220//244
f 223//245 226//245 227//245 224//245
f 225//246 228//246 226//246 223//246
f 226//247 229//247 230//247 227//247
f 228//248 231//248 229//248 226//248
f 229//249 232//249 233//249 230//249
f 231//250 234//250 232//250 229//250
f 232//251 235//251 236//251 233//251
f 234//252 237//252 235//252 232//252
f 235//253 238//253 239//253 236//253
f 237//254 240//254 238//254 235//254
f 238//255 241//255 242//255 239//255
f 240//256 243//256 241//256 238//256
f 241//257 244//257 242//257
f 243//258 244//258 241//258
f 245//259 246//259 247//259 248//259
f 249//260 250//260 246//260 245//260
f 246//261 251//261 252//261 247//261
f 250//262 253//262 251//262 246//262
f 251//263 254//263 255//263 252//263
f 253//264 256//264 254//264 251//264
f 254//265 257//265 258//265 255//265
f 256//266 259//266 257//266 254//266
f 257//267 260//267 261//267 258//267
f 259//268 262//268 260//268 257//268
f 260//269 263//269 264//269 261//269
f 262//270 265//270 263//270 260//270
f 263//271 266//271 267//271 264//271
f 265//272 268//272 266//272 263//272
f 266//273 269//273 270//273 267//273
f 268//274 271//274 269//274 266//274
f 269//275 272//275 273//275 270//275
f 271//276 274//276 272//276 269//276
f 272//277 275//277 273//277
f 274//278 275//278 272//278
f 276//279 277//279 278//279 279//279
f 280//280 281//280 277//280 276//280
f 277//281 282//281 283//281 278//281
f 281//282 284//282 282//282 277//282
f 282//283 285//283 286//283 283//283
f 284//284 287//284 285//284 282//284
f 285//285 288//285 289//285 286//285
f 287//286 290//286 288//286 285//286
f 288//287 291//287 292//287 289//287
f 290//288 293//288 291//288 288//288
f 291//289 294//289 295//289 292//289
f 293//290 296//290 294//290 291//290
f 294//291 297//291 298//291 295//291
f 296//292 299//292 297//292 294//292
f 297//293 300//293 301//293 298//293
f 299//294 302//294 300//294 297//294
f 300//295 303//295 304//295 301//295
f 302//296 305//296 303//296 300//296
f 303//297 306//297 304//297
f 305//298 306//298 303//298
f 307//299 308//299 309//299 310//299
f 311//300 312//300 308//300 307//300
f 308//301 313//301 314//301 309//301
f 312//302 315//302 313//302 308//302
f 313//303 316//303 317//303 314//303
f 315//304 318//304 316//304 313//304
f 316//305 319//305 320//305 317//305
f 318//306 321//306 319//306 316//306
f 319//307 322//307 323//307 320//307
f 321//308 324//308 322//308 319//308
f 322//309 325//309 326//309 323//309
f 324//310 327//310 325//310 322//310
f 325//311 328//311 329//311 326//311
f 327//312 330//312 328//312 325//312
f 328//313 331//313 332//313 329//313
f 330//314 333//314 331//314 328//314
f 331//315 334//315 335//315 332//315
f 333//316 336//316 334//316 331//316
f 334//317 337//317 335//317
f 336//318 337//318 334//318
f 338//319 339//319 340//319 341//319
f 342//320 343//320 339//320 338//320
f 339//321 344//321 345//321 340//321
f 343//322 346//322 344//322 339//322
f 344//323 347//323 348//323 345//323
f 346//324 349//324 347//324 344//324
f 347//325 350//325 351//325 348//325
f 349//326 352//326 350//326 347//326
f 350//327 353//327 354//327 351//327
f 352//328 355//328 353//328 350//328
f 353//329 356//329 357//329 354//329
f 355//330 358//330 356//330 353//330
f 356//331 359//331 360//331 357//331
f 358//332 361//332 359//332 356//332
f 359//333 362//333 363//333 360//333
f 361//334 364//334 362//334 359//334
f 362//335 365//335 366//335 363//335
f 364//336 367//336 365//336 362//336
f 365//337 368//337 366//337
f 367//338 368//338 365//338
f 369//339 370//339 371//339 372//339
f 373//340 374//340 370//340 369//340
f 370//341 375//341 376//341 371//341
f 374//342 377//342 375//342 370//342
f 375//343 378//343 379//343 376//343
f 377//344 380//344 378//344 375//344
f 378//345 381//345 382//345 379//345
f 380//346 383//346 381//346 378//346
f 381//347 384//347 385//347 382//347
f 383//348 386//348 384//348 381//348
f 384//349 387//349 388//349 385//349
f 386//350 389//350 387//350 384//350
f 387//351 390//351 391//351 388//351
f 389//352 392//352 390//352 387//352
f 390//353 393//353 394//353 391//353
f 392//354 395//354 393//354 390//354
f 393//355 396//355 397//355 394//355
f 395//356 398//356 396//356 393//356
f 396//357 399//357 397//357
f 398//358 399//358 396//358
f 400//359 401//359 402//359 403//359
f 404//360 405//360 401//360 400//360
f 401//361 406//361 407//361 402//361
f 405//362 408//362 406//362 401//362
f 406//363 409//363 410//363 407//363
f 408//364 411//364 409//364 406//364
f 409//365 412//365 413//365 410//365
f 411//366 414//366 412//366 409//366
f 412//367 415//367 416//367 413//367
f 414//368 417//368 415//368 412//368
f 415//369 418//369 419//369 416//369
f 417//370 420//370 418//370 415//370
f 418//371 421//371 422//371 419//371
f 420//372 423//372 421//372 418//372
f 421//373 424//373 425//373 422//373
f 423//374 426//374 424//374 421//374
f 424//375 427//375 428//375 425//375
f 426//376 429//376 427//376 424//376
f 427//377 430//377 428//377
f 429//378 430//378 427//378
f 431//379 432//379 433//379 434//379
f 435//380 436//380 432//380 431//380
f 432//381 437//381 438//381 433//381
f 436//382 439//382 437//382 432//382
f 437//383 440//383 441//383 438//383
f 439//384 442//384 440//384 437//384
f 440//385 443//385 444//385 441//385
f 442//386 445//386 443//386 440//386
f 443//387 446//387 447//387 444//387
f 445//388 448//388 446//388 443//388
f 446//389 449//389 450//389 447//389
f 448//390 451//390 449//390 446//390
f 449//391 452//391 453//391 450//391
f 451//392 454//392 452//392 449//392
f 452//393 455//393 456//393 453//393
f 454//394 457//394 455//394 452//394
f 455//395 458//395 459//395 456//395
f 457//396 460//396 458//396 455//396
f 458//397 461//397 459//397
f 460//398 461//398 458//398
f 462//399 463//399 464//399 465//399
f 466//400 467//400 463//400 462//400
f 463//401 468//401 469//401 464//401
f 467//402 470//402 468//402 463//402
f 468//403 471//403 472//403 469//403
f 470//404 473//404 471//404 468//404
f 471//405 474//405 475//405 472//405
f 473//406 476//406 474//406 471//406
f 474//407 477//407 478//407 475//407
f 476//408 479//408 477//408 474//408
f 477//409 480//409 481//409 478//409
f 479//410 482//410 480//410 477//410
f 480//411 483//411 484//411 481//411
f 482//412 485//412 483//412 480//412
f 483//413 486//413 487//413 484//413
f 485//414 488//414 486//414 483//414
f 486//415 489//415 490//415 487//415
f 488//416 491//416 489//416 486//416
f 489//417 492//417 490//417
f 491//418 492//418 489//418
f 493//419 494//419 495//419 496//419
f 497//420 498//420 494//420 493//420
f 494//421 499//421 500//421 495//421
f 498//422 501//422 499//422 494//422
f 499//423 502//423 503//423 500//423
f 501//424 504//424 502//424 499//424
f 502//425 505//425 506//425 503//425
f 504//426 507//426 505//426 502//426
f 505//427 508//427 509//427 506//427
f 507//428 510//428 508//428 505//428
f 508//429 511//429 512//429 509//429
f 510//430 513//430 511//430 508//430
f 511//431 514//431 515//431 512//431
f 513//432 516//432 514//432 511//432
f 514//433 517//433 518//433 515//433
f 516//434 519//434 517//434 514//434
f 517//435 520//435 521//435 518//435
f 519//436 522//436 520//436 517//436
f 520//437 523//437 521//437
f 522//438 523//438 520//438
f 524//439 525//439 526//439 527//439
f 528//440 529//440 525//440 524//440
f 525//441 530//441 531//441 526//441
f 529//442 532//442 530//442 525//442
f 530//443 533//443 534//443 531//443
f 532//444 535//444 533//444 530//444
f 533//445 536//445 537//445 534//445
f 535//446 538//446 536//446 533//446
f 536//447 539//447 540//447 537//447
f 538//448 541//448 539//448 536//448
f 539//449 542//449 543//449 540//449
f 541//450 544//450 542//450 539//450
f 542//451 545//451 546//451 543//451
f 544//452 547//452 545//452 542//452
f 545//453 548//453 549//453 546//453
f 547//454 550//454 548//454 545//454
f 548//455 551//455 552//455 549//455
f 550//456 553//456 551//456 548//456
f 551//457 554//457 552//457
f 553//458 554//458 551//458
f 555//459 556//459 557//459 558//459
f 559//460 560//460 556//460 555//460
f 556//461 561//461 562//461 557//461
f 560//462 563//462 561//462 556//462
f 561//463 564//463 565//463 562//463
f 563//464 566//464 564//464 561//464
f 564//465 567//465 568//465 565//465
f 566//466 569//466 567//466 564//466
f 567//467 570//467 571//467 568//467
f 569//468 572//468 570//468 567//468
f 570//469 573//469 574//469 571//469
f 572//470 575//470 573//470 570//470
f 573//471 576//471 577//471 574//471
f 575//472 578//472 576//472 573//472
f 576//473 579//473 580//473 577//473
f 578//474 581//474 579//474 576//474
f 579//475 582//475 583//475 580//475
f 581//476 584//476 582//476 579//476
f 582//477 585//477 583//477
f 584//478 585//478 582//478
usemtl Old
f 586//479 587//479 588//479 589//479
f 590//480 591//480 587//480 586//480
f 587//481 592//481 593//481 588//481
f 591//482 594//482 592//482 587//482
f 592//483 595//483 596//483 593//483
f 594//484 597//484 595//484 592//484
f 595//485 598//485 599//485 596//485
f 597//486 600//486 598//486 595//486
f 598//487 601//487 602//487 599//487
f 600//488 603//488 601//488 598//488
f 601//489 604//489 605//489 602//489
f 603//490 606//490 604//490 601//490
f 604//491 607//491 608//491 605//491
f 606//492 609//492 607//492 604//492
f 607//493 610//493 611//493 608//493
f 609//494 612//494 610//494 607//494
f 610//495 613//495 614//495 611//495
f 612//496 615//496 613//496 610//496
f 613//497 616//497 614//497
f 615//498 616//498 613//498
f 617//499 618//499 619//499 620//499
f 621//500 622//500 618//500 617//500
f 618//501 623//501 624//501 619//501
f 622//502 625//502 623//502 618//502
f 623//503 626//503 627//503 624//503
f 625//504 628//504 626//504 623//504
f 626//505 629//505 630//505 627//505
f 628//506 631//506 629//506 626//506
f 629//507 632//507 633//507 630//507
f 631//508 634//508 632//508 629//508
f 632//509 635//509 636//509 633//509
f 634//510 637//510 635//510 632//510
f 635//511 638//511 639//511 636//511
f 637//512 640//512 638//512 635//512
f 638//513 641//513 642//513 639//513
f 640//514 643//514 641//514 638//514
f 641//515 644//515 645//515 642//515
f 643//516 646//516 644//516 641//516
f 644//517 647//517 645//517
f 646//518 647//518 644//518
f 648//519 649//519 650//519 651//519
f 652//520 653//520 649//520 648//520
f 649//521 654//521 655//521 650//521
f 653//522 656//522 654//522 649//522
f 654//523 657//523 658//523 655//523
f 656//524 659//524 657//524 654//524
f 657//525 660//525 661//525 658//525
f 659//526 662//526 660//526 657//526
f 660//527 663//527 664//527 661//527
f 662//528 665//528 663//528 660//528
f 663//529 666//529 667//529 664//529
f 665//530 668//530 666//530 663//530
f 666//531 669//531 670//531 667//531
f 668//532 671//532 669//532 666//532
f 669//533 672//533 673//533 670//533
f 671//534 674//534 672//534 669//534
f 672//535 675//535 676//535 673//535
f 674//536 677//536 675//536 672//536
f 675//537 678//537 676//537
f 677//538 678//538 675//538
f 679//539 680//539 681//539 682//539
f 683//540 684//540 680//540 679//540
f 680//541 685//541 686//541 681//541
f 684//542 687//542 685//542 680//542
f 685//543 688//543 689//543 686//543
f 687//544 690//544 688//544 685//544
f 688//545 691//545 692//545 689//545
f 690//546 693//546 691//546 688//546
f 691//547 694//547 695//547 692//547
f 693//548 696//548 694//548 691//548
f 694//549 697//549 698//549 695//549
f 696//550 699//550 697//550 694//550
f 697//551 700//551 701//551 698//551
f 699//552 702//552 700//552 697//552
f 700//553 703//553 704//553 701//553
f 702//554 705//554 703//554 700//554
f 703//555 706//555 707//555 704//555
f 705//556 708//556 706//556 703//556
f 706//557 709//557 707//557
f 708//558 709//558 706//558
usemtl Dead
f 710//559 711//559 712//559 713//559
f 714//560 715//560 711//560 710//560
f 711//561 716//561 717//561 712//561
f 715//562 718//562 716//562 711//562
f 716//563 719//563 720//563 717//563
f 718//564 721//564 719//564 716//564
f 719//565 722//565 723//565 720//565
f 721//566 724//566 722//566 719//566
f 722//565 725//565 723//565
f 724//567 725//567 722//567
f 726//568 727//568 728//568 729//568
f 730//569 731//569 727//569 726//569
f 727//570 732//570 733//570 728//570
f 731//571 734//571 732//571 727//571
f 732//572 735//572 736//572 733//572
f 734//573 737//573 735//573 732//573
f 735//574 738//574 739//574 736//574
f 737//575 740//575 738//575 735//575
f 738//576 741//576 739//576
f 740//577 741//577 738//577
f 742//578 743//578 744//578 745//578
f 746//579 747//579 743//579 742//579
f 743//580 748//580 749//580 744//580
f 747//581 750//581 748//581 743//581
f 748//582 751//582 752//582 749//582
f 750//583 753//583 751//583 748//583
f 751//584 754//584 755//584 752//584
f 753//585 756//585 754//585 751//585
f 754//586 757//586 755//586
f 756//587 757//587 754//587
f 758//588 759//588 760//588 761//588
f 762//589 763//589 759//589 758//589
f 759//590 764//590 765//590 760//590
f 763//591 766//591 764//591 759//591
f 764//592 767//592 768//592 765//592
f 766//593 769//593 767//593 764//593
f 767//594 770//594 771//594 768//594
f 769//595 772//595 770//595 767//595
f 770//594 773//594 771//594
f 772//596 773//596 770//596
f 774//597 775//597 776//597 777//597
f 778//598 779//598 775//598 774//598
f 775//599 780//599 781//599 776//599
f 779//600 782//600 780//600 775//600
f 780//601 783//601 784//601 781//601
f 782//602 785//602 783//602 780//602
f 783//603 786//603 787//603 784//603
f 785//604 788//604 786//604 783//604
f 786//603 789//603 787//603
f 788//605 789//605 786//605
f 790//606 791//606 792//606 793//606
f 794//607 795//607 791//607 790//607
f 791//608 796//608 797//608 792//608
f 795//609 798//609 796//609 791//609
f 796//610 799//610 800//610 797//610
f 798//611 801//611 799//611 796//611
f 799//612 802//612 803//612 800//612
f 801//613 804//613 802//613 799//613
f 802//614 805//614 803//614
f 804//615 805//615 802//615
usemtl Nut
f 806//616 807//616 808//616
f 807//617 806//617 809//617
f 807//618 810//618 808//618
f 810//619 807//619 809//619
f 810//620 811//620 808//620
f 811//621 810//621 809//621
f 811//622 806//622 808//622
f 806//623 811//623 809//623
f 812//616 813//616 814//616
f 813//617 812//617 815//617
f 813//618 816//618 814//618
f 816//619 813//619 815//619
f 816//620 817//620 814//620
f 817//621 816//621 815//621
f 817//622 812//622 814//622
f 812//623 817//623 815//623
f 818//616 819//616 820//616
f 819//617 818//617 821//617
f 819//618 822//618 820//618
f 822//619 819//619 821//619
f 822//620 823//620 820//620
f 823//621 822//621 821//621
f 823//622 818//622 820//622
f 818//623 823//623 821//623
f 824//616 825//616 826//616
f 825//617 824//617 827//617
f 825//618 828//618 826//618
f 828//619 825//619 827//619
f 828//620 829//620 826//620
f 829//621 828//621 827//621
f 829//622 824//622 826//622
f 824//623 829//623 827//623
f 830//616 831//616 832//616
f 831//617 830//617 833//617
f 831//618 834//618 832//618
f 834//619 831//619 833//619
f 834//620 835//620 832//620
f 835//621 834//621 833//621
f 835//622 830//622 832//622
f 830//623 835//623 833//623
f 836//616 837//616 838//616
f 837//617 836//617 839//617
f 837//618 840//618 838//618
f 840//619 837//619 839//619
f 840//620 841//620 838//620
f 841//621 840//621 839//621
f 841//622 836//622 838//622
f 836//623 841//623 839//623
f 842//616 843//616 844//616
f 843//617 842//617 845//617
f 843//618 846//618 844//618
f 846//619 843//619 845//619
f 846//620 847//620 844//620
f 847//621 846//621 845//621
f 847//622 842//622 844//622
f 842//623 847//623 845//623
f 848//616 849//616 850//616
f 849//617 848//617 851//617
f 849//618 852//618 850//618
f 852//619 849//619 851//619
f 852//620 853//620 850//620
f 853//621 852//621 851//621
f 853//622 848//622 850//622
f 848//623 853//623 851//623
f 854//616 855//616 856//616
f 855//617 854//617 857//617
f 855//618 858//618 856//618
f 858//619 855//619 857//619
f 858//620 859//620 856//620
f 859//621 858//621 857//621
f 859//622 854//622 856//622
f 854//623 859//623 857//623
