# LowPolyPalms - coconut palm SM_Palm_Coco_E (cm, Z up)
mtllib SM_Palm_Coco_E.mtl
o SM_Palm_Coco_E
v 42.19 0.00 -10.60
v 20.47 37.59 -7.77
v 32.01 16.61 24.83
v 7.51 31.00 29.84
v -21.71 37.59 2.83
v -16.54 16.61 36.68
v -42.19 0.00 10.60
v -16.09 -12.19 38.50
v -20.47 -37.59 7.77
v 8.40 -26.58 33.49
v 21.71 -37.59 -2.83
v 32.46 -12.19 26.66
v 28.68 28.24 58.92
v 42.51 4.25 57.15
v 1.63 28.24 65.10
v -11.60 4.25 69.52
v 2.23 -19.74 67.75
v 29.28 -19.74 61.57
v 44.93 19.22 89.69
v 22.21 32.55 93.93
v -0.29 19.22 99.25
v -0.06 -7.45 100.31
v 22.66 -20.78 96.07
v 45.16 -7.45 90.75
v 41.37 29.13 123.81
v 54.05 6.90 121.80
v 16.16 29.13 128.67
v 3.65 6.90 131.53
v 16.33 -15.32 129.53
v 41.53 -15.32 124.66
v 55.75 19.50 154.74
v 34.69 31.85 158.48
v 13.60 19.50 162.07
v 13.57 -5.20 161.93
v 34.64 -17.55 158.19
v 55.73 -5.20 154.60
v 51.72 27.11 188.88
v 63.37 6.52 186.38
v 28.21 27.11 192.50
v 16.35 6.52 193.62
v 28.00 -14.07 191.12
v 51.51 -14.07 187.50
v 64.21 16.43 219.72
v 44.62 27.87 223.07
v 24.84 16.43 225.01
v 24.65 -6.46 223.61
v 44.24 -17.91 220.26
v 64.02 -6.46 218.32
v 59.57 21.68 253.73
v 70.38 2.57 250.80
v 37.56 21.68 256.27
v 26.37 2.57 255.87
v 37.18 -16.54 252.93
v 59.18 -16.54 250.40
v 70.31 10.04 284.38
v 51.95 20.69 287.33
v 33.36 10.04 287.95
v 33.13 -11.27 285.62
v 51.49 -21.92 282.67
v 70.08 -11.27 282.05
v 65.06 13.47 318.09
v 75.25 -4.41 315.01
v 44.31 13.47 319.74
v 33.76 -4.41 318.32
v 43.95 -22.30 315.25
v 64.70 -22.30 313.59
v 74.41 1.44 348.56
v 56.95 11.50 351.05
v 39.31 1.44 350.82
v 39.13 -18.68 348.10
v 56.60 -28.75 345.62
v 74.24 -18.68 345.85
v 68.69 4.16 381.80
v 78.54 -13.00 378.86
v 48.73 4.16 382.93
v 38.61 -13.00 381.14
v 48.46 -30.16 378.20
v 68.42 -30.16 377.07
v 74.98 7.67 413.06
v 89.26 -17.21 408.81
v 46.03 7.67 414.71
v 31.36 -17.21 412.11
v 45.64 -42.09 407.86
v 74.59 -42.09 406.21
v 61.73 -20.66 435.38
v 70.73 -20.66 425.38
v 57.18 -12.89 425.38
v 68.48 -37.06 554.07
v 57.32 -28.50 425.38
v 74.33 -26.76 423.38
v 86.28 -32.55 448.20
v 86.80 -34.88 447.40
v 75.38 -32.38 421.56
v 79.39 -24.11 421.56
v 88.43 -31.51 447.40
v 98.24 -38.34 472.38
v 114.43 -85.21 452.90
v 145.05 -22.01 452.90
v 110.19 -44.14 495.94
v 115.94 -69.95 486.54
v 134.01 -32.66 486.54
v 122.14 -49.93 518.86
v 139.75 -117.02 492.36
v 185.71 -22.16 492.36
v 134.10 -55.72 541.14
v 145.81 -82.06 527.83
v 162.03 -48.59 527.83
v 146.05 -61.51 562.80
v 171.52 -120.31 532.58
v 207.98 -45.07 532.58
v 158.01 -67.31 583.83
v 167.36 -87.88 572.67
v 179.95 -61.90 572.67
v 169.96 -73.10 604.22
v 188.56 -105.81 583.71
v 207.16 -67.42 583.71
v 181.92 -78.89 623.98
v 185.03 -84.31 620.46
v 188.10 -77.98 620.46
v 193.87 -84.68 643.11
v 56.18 -7.80 421.38
v 49.37 8.00 446.11
v 50.67 9.96 445.19
v 59.39 -3.17 419.31
v 50.62 -6.95 419.31
v 47.06 8.40 445.19
v 42.56 23.80 469.45
v 65.64 65.16 447.52
v -3.36 35.40 447.52
v 35.74 39.60 491.38
v 45.90 61.55 478.31
v 12.81 47.28 478.31
v 28.93 55.40 511.92
v 56.56 112.33 476.06
v -31.44 74.39 476.06
v 22.12 71.20 531.06
v 33.24 95.16 514.64
v -2.94 79.56 514.64
v 15.31 87.00 548.80
v 35.57 139.51 508.22
v -36.80 108.31 508.22
v 8.49 102.79 565.14
v 14.77 120.91 549.59
v -8.98 110.66 549.59
v 1.68 118.59 580.09
v 12.04 148.21 552.20
v -26.97 131.39 552.20
v -5.13 134.39 593.64
v -3.26 139.13 588.80
v -9.87 136.28 588.80
v -11.95 150.19 605.80
v 59.35 -34.45 419.38
v 56.93 -48.44 444.76
v 54.99 -49.75 443.83
v 54.58 -37.43 417.29
v 62.83 -38.86 417.29
v 58.32 -50.32 443.83
v 54.52 -62.42 468.77
v 12.33 -84.76 451.01
v 86.77 -97.61 451.01
v 52.10 -76.41 491.41
v 32.27 -90.59 480.20
v 66.03 -96.42 480.20
v 49.69 -90.40 512.68
v -3.22 -126.44 482.00
v 87.44 -142.09 482.00
v 47.27 -104.39 532.59
v 25.65 -120.23 518.34
v 62.33 -126.56 518.34
v 44.86 -118.38 551.12
v -0.29 -154.96 516.34
v 75.12 -167.98 516.34
v 42.44 -132.36 568.28
v 26.09 -144.60 555.50
v 53.74 -149.37 555.50
v 40.03 -146.35 584.08
v 14.08 -167.45 560.41
v 57.40 -174.92 560.41
v 37.61 -160.34 598.51
v 34.17 -164.19 593.99
v 39.56 -165.12 593.99
v 35.20 -174.33 611.56
v 72.51 -11.72 417.38
v 89.13 2.05 439.35
v 91.23 1.43 438.10
v 77.55 -13.07 414.42
v 72.12 -6.52 414.42
v 88.91 4.23 438.10
v 105.75 15.82 459.73
v 148.31 4.00 431.93
v 102.05 59.84 431.93
v 122.37 29.59 478.53
v 143.97 24.93 462.16
v 121.81 51.67 462.16
v 138.99 43.36 495.75
v 193.74 33.12 448.95
v 139.12 99.05 448.95
v 155.62 57.13 511.39
v 178.42 51.63 490.96
v 154.45 80.56 490.96
v 172.24 70.90 525.45
v 221.39 56.77 478.54
v 167.48 121.83 478.54
v 188.86 84.67 537.92
v 205.20 80.18 519.97
v 187.48 101.57 519.97
v 205.48 98.45 548.82
v 229.45 94.65 514.55
v 206.21 122.70 514.55
v 222.10 112.22 558.13
v 225.78 111.45 552.19
v 222.03 115.97 552.19
v 238.72 125.99 565.86
v 47.77 -19.63 415.38
v 23.79 -17.88 440.53
v 22.66 -16.01 439.28
v 45.02 -15.18 412.45
v 44.40 -23.64 412.45
v 22.40 -19.56 439.28
v -0.19 -16.12 463.78
v -26.16 18.09 433.15
v -30.87 -46.18 433.15
v -24.17 -14.36 485.12
v -36.03 5.31 469.48
v -38.77 -32.10 469.48
v -48.15 -12.61 504.56
v -78.66 37.49 460.22
v -85.63 -57.73 460.22
v -72.13 -10.85 522.09
v -85.18 8.64 501.15
v -87.88 -28.23 501.15
v -96.11 -9.10 537.72
v -125.05 28.37 485.95
v -130.19 -41.94 485.95
v -120.08 -7.34 551.44
v -129.32 5.73 532.29
v -131.13 -18.92 532.29
v -144.06 -5.58 563.26
v -157.99 15.44 529.12
v -160.91 -24.35 529.12
v -168.04 -3.83 573.17
v -170.14 -1.01 567.00
v -170.53 -6.30 567.00
v -192.02 -2.07 581.18
v 71.19 -30.98 413.38
v 89.12 -50.54 431.94
v 88.65 -52.41 430.32
v 69.36 -35.70 410.17
v 76.05 -29.56 410.17
v 91.03 -50.23 430.32
v 107.06 -70.11 448.04
v 94.18 -105.30 417.26
v 143.24 -60.33 417.26
v 125.00 -89.68 461.67
v 119.67 -106.36 443.06
v 142.08 -85.81 443.06
v 142.94 -109.24 472.84
v 129.58 -148.57 419.50
v 183.27 -99.35 419.50
v 160.87 -128.81 481.54
v 154.06 -144.06 457.96
v 176.66 -123.34 457.96
v 178.81 -148.38 487.78
v 161.64 -178.09 433.18
v 209.90 -133.85 433.18
v 196.75 -167.94 491.56
v 189.97 -176.77 471.50
v 206.13 -161.96 471.50
v 214.69 -187.51 492.87
v 202.85 -198.50 457.36
v 226.66 -176.68 457.36
v 232.62 -207.08 491.72
v 230.18 -208.61 485.86
v 234.36 -204.78 485.86
v 250.56 -226.65 488.11
v 62.69 -6.69 411.38
v 64.86 24.64 424.82
v 66.67 25.15 423.16
v 66.92 -5.26 407.38
v 58.70 -4.69 407.38
v 63.13 25.40 423.16
v 67.02 55.96 435.55
v 98.90 64.87 398.39
v 36.67 69.17 398.39
v 69.19 87.28 443.56
v 85.28 90.51 423.11
v 53.69 92.69 423.11
v 71.35 118.61 448.85
v 114.18 122.48 394.43
v 29.46 128.34 394.43
v 73.51 149.93 451.43
v 88.58 149.88 425.88
v 58.59 151.96 425.88
v 75.68 181.25 451.29
v 106.03 176.36 392.69
v 44.94 180.58 392.69
v 77.84 212.58 448.43
v 89.16 209.06 428.10
v 66.14 210.65 428.10
v 80.01 243.90 442.86
v 94.60 234.90 406.69
v 64.32 236.99 406.69
v 82.17 275.23 434.58
v 84.21 273.22 428.52
v 79.87 273.52 428.52
v 84.33 306.55 423.58
v 51.16 -29.84 409.38
v 28.02 -49.94 424.93
v 26.31 -49.12 423.27
v 46.94 -27.93 405.57
v 52.46 -34.28 405.57
v 28.59 -51.75 423.27
v 4.89 -70.05 437.38
v -27.27 -53.43 399.71
v 16.85 -104.21 399.71
v -18.25 -90.15 446.71
v -31.96 -83.19 423.89
v -13.27 -104.70 423.89
v -41.38 -110.25 452.93
v -77.04 -82.48 395.85
v -18.85 -149.44 395.85
v -64.52 -130.36 456.05
v -74.99 -120.45 428.45
v -56.17 -142.11 428.45
v -87.65 -150.46 456.06
v -106.12 -124.46 394.35
v -64.48 -172.38 394.35
v -110.78 -170.56 452.96
v -114.86 -160.71 430.66
v -101.60 -175.97 430.66
v -133.92 -190.67 446.75
v -140.07 -169.73 410.84
v -114.04 -199.68 410.84
v -157.06 -210.77 437.43
v -157.04 -207.44 431.24
v -153.75 -211.23 431.24
v -180.19 -230.88 425.01
v 75.71 -19.89 407.38
v 107.13 -18.18 419.18
v 107.81 -19.66 417.26
v 77.55 -23.55 403.00
v 77.14 -16.05 403.00
v 107.64 -16.62 417.26
v 138.55 -16.46 426.99
v 146.59 -42.96 391.37
v 143.66 10.75 391.37
v 169.97 -14.75 430.82
v 171.82 -26.95 410.51
v 170.48 -2.41 410.51
v 201.39 -13.03 430.68
v 199.85 -49.13 379.21
v 195.93 22.68 379.21
v 232.81 -11.32 426.55
v 229.32 -26.29 404.48
v 227.72 3.18 404.48
v 264.23 -9.60 418.44
v 248.93 -35.39 366.47
v 246.21 14.36 366.47
v 295.64 -7.89 406.35
v 288.66 -18.86 389.42
v 287.51 2.26 389.42
v 327.06 -6.17 390.27
v 311.41 -21.89 361.54
v 309.79 7.74 361.54
v 358.49 -4.46 370.22
v 355.38 -6.90 365.60
v 355.13 -2.38 365.60
v 389.90 -2.75 346.19
v 51.76 -10.82 405.38
v 28.57 12.05 407.28
v 29.67 13.15 405.30
v 54.26 -7.91 400.78
v 48.88 -13.37 400.78
v 27.49 10.93 405.30
v 5.38 34.92 404.85
v 30.44 52.15 364.18
v -11.50 9.63 364.18
v -17.81 57.80 398.08
v -3.17 64.27 376.64
v -24.08 43.07 376.64
v -41.00 80.67 386.98
v 1.22 91.10 331.14
v -50.85 38.31 331.14
v -64.20 103.55 371.55
v -45.14 104.81 348.07
v -65.19 84.47 348.07
v -87.39 126.42 351.78
v -41.73 125.02 302.05
v -85.36 80.79 302.05
v -110.58 149.29 327.68
v -93.68 147.00 310.76
v -108.05 132.43 310.76
v -133.77 172.17 299.25
v -105.84 162.68 270.99
v -123.90 144.37 270.99
v -156.96 195.04 266.48
v -152.24 192.97 261.99
v -154.82 190.35 261.99
v -180.15 217.92 229.38
v 64.83 -34.31 403.38
v 72.14 -66.56 405.76
v 70.62 -66.92 403.79
v 60.86 -35.53 399.05
v 68.93 -33.70 399.05
v 73.68 -66.22 403.79
v 79.46 -98.81 403.87
v 52.06 -99.50 359.61
v 104.48 -87.60 359.61
v 86.78 -131.06 397.71
v 70.04 -129.28 376.05
v 101.11 -122.23 376.05
v 94.10 -163.31 387.28
v 55.16 -148.94 327.75
v 123.02 -133.54 327.75
v 101.42 -195.55 372.57
v 86.54 -185.68 347.20
v 110.57 -180.23 347.20
v 108.73 -227.80 353.60
v 73.11 -201.17 300.55
v 129.38 -188.40 300.55
v 116.05 -260.05 330.36
v 103.34 -248.87 312.47
v 122.69 -244.47 312.47
v 123.37 -292.30 302.84
v 100.25 -271.65 274.68
v 135.31 -263.70 274.68
v 130.69 -324.55 271.06
v 127.38 -320.44 266.44
v 131.90 -319.42 266.44
v 138.01 -356.80 235.00
v 69.24 -8.84 401.38
v 86.60 18.49 395.91
v 87.51 17.35 393.86
v 72.02 -11.53 396.80
v 65.62 -7.46 396.80
v 85.18 18.83 393.86
v 103.97 45.83 386.23
v 119.29 20.46 349.98
v 74.50 48.92 349.98
v 121.33 73.16 372.34
v 126.72 58.55 353.21
v 105.82 71.83 353.21
v 138.70 100.49 354.24
v 146.93 58.72 304.79
v 97.39 90.20 304.79
v 156.07 127.82 331.94
v 159.99 108.08 312.62
v 136.53 122.99 312.62
v 173.43 155.16 305.43
v 171.01 110.92 261.70
v 134.41 134.17 261.70
v 190.80 182.49 274.71
v 190.22 165.63 260.36
v 175.78 174.80 260.36
v 208.17 209.82 239.78
v 204.86 180.40 216.51
v 182.94 194.33 216.51
v 225.53 237.15 200.65
v 224.18 232.30 196.86
v 221.71 233.86 196.86
v 242.90 264.49 157.31
v 47.96 -23.20 399.38
v 19.04 -28.53 395.21
v 19.19 -26.95 393.26
v 47.90 -19.30 394.82
v 49.29 -26.85 394.82
v 19.75 -29.96 393.26
v -9.89 -33.87 386.12
v 0.06 -8.86 349.64
v 8.33 -53.68 349.64
v -38.82 -39.21 372.11
v -31.09 -25.55 354.10
v -26.72 -49.20 354.10
v -67.74 -44.54 353.18
v -40.18 -10.75 307.47
v -29.94 -66.28 307.47
v -96.67 -49.88 329.33
v -82.47 -36.12 310.93
v -78.50 -57.67 310.93
v -125.59 -55.22 300.57
v -89.58 -25.86 262.19
v -81.47 -69.80 262.19
v -154.52 -60.56 266.90
v -140.95 -49.62 254.42
v -137.94 -65.93 254.42
v -183.45 -65.89 228.30
v -157.13 -51.11 207.84
v -153.59 -70.31 207.84
v -212.37 -71.23 184.79
v -207.86 -68.58 181.65
v -207.21 -72.10 181.65
v -241.30 -76.57 136.37
v 74.30 -26.81 397.38
v 100.91 -39.82 385.39
v 99.44 -40.80 383.59
v 71.18 -28.86 392.69
v 74.01 -23.08 392.69
v 100.78 -38.06 383.59
v 127.52 -52.84 368.15
v 100.58 -61.36 337.64
v 117.71 -26.34 337.64
v 154.12 -65.85 345.66
v 138.40 -69.41 330.84
v 147.28 -51.26 330.84
v 180.73 -78.87 317.93
v 135.80 -88.18 282.53
v 160.50 -37.69 282.53
v 207.34 -91.89 284.96
v 187.28 -93.26 270.47
v 196.11 -75.21 270.47
v 233.95 -104.90 246.74
v 188.12 -101.96 215.95
v 203.50 -70.53 215.95
v 260.55 -117.92 203.28
v 243.49 -118.20 193.51
v 250.30 -104.27 193.51
v 287.16 -130.93 154.58
v 258.06 -127.12 138.53
v 266.29 -110.30 138.53
v 313.77 -143.95 100.63
v 308.77 -143.41 98.16
v 310.28 -140.33 98.16
v 340.38 -156.96 41.44
v 56.29 -7.75 395.38
v 45.29 18.31 381.01
v 46.93 17.79 379.17
v 60.00 -8.73 390.77
v 54.40 -11.10 390.77
v 44.52 16.77 379.17
v 34.30 44.37 361.05
v 63.09 29.60 330.22
v 24.78 13.44 330.22
v 23.30 70.43 335.51
v 39.51 61.46 320.96
v 18.43 52.57 320.96
v 12.31 96.50 304.38
v 54.53 67.81 268.65
v 3.39 46.24 268.65
v 1.32 122.56 267.66
v 18.47 108.07 253.33
v -0.27 100.16 253.33
v -9.68 148.62 225.36
v 26.12 111.84 195.38
v -8.31 97.32 195.38
v -20.67 174.69 177.47
v -8.10 160.83 167.62
v -19.52 156.01 167.62
v -31.66 200.75 124.00
v -10.10 176.48 108.54
v -29.33 168.37 108.54
v -42.66 226.81 64.94
v -39.33 222.43 62.50
v -41.84 221.37 62.50
v -53.65 252.87 0.30
v 83.26 -16.15 373.66
v 93.98 -13.90 328.01
v 87.02 -18.18 326.16
v 78.18 -19.05 372.33
v 77.44 -15.52 372.33
v 85.89 -12.78 326.16
v 104.69 -11.66 283.01
v 88.01 -20.74 278.55
v 85.77 -10.03 278.55
v 115.41 -9.42 238.64
v 106.40 -12.78 236.28
v 105.81 -9.95 236.28
v 126.12 -7.17 194.91
v 116.66 -11.33 192.36
v 115.78 -7.17 192.36
v 136.84 -4.93 151.83
v 71.59 -0.99 392.09
v 81.75 19.28 345.85
v 80.43 10.82 341.82
v 71.41 -6.47 389.65
v 67.30 -4.41 389.65
v 75.76 13.16 341.82
v 91.91 39.55 300.25
v 89.48 19.76 290.84
v 77.50 25.77 290.84
v 102.07 59.83 255.28
v 99.66 50.09 250.31
v 95.71 52.07 250.31
v 112.23 80.09 210.96
v 110.25 69.50 205.62
v 104.93 72.16 205.62
v 122.39 100.37 167.28
v 42.17 -10.57 388.97
v 35.85 -7.32 341.92
v 44.88 -8.45 340.62
v 48.10 -11.05 388.14
v 46.00 -15.12 388.14
v 42.02 -14.01 340.62
v 29.53 -4.05 295.50
v 50.27 -8.40 292.35
v 45.10 -18.43 292.35
v 23.21 -0.80 249.73
v 33.75 -2.92 248.11
v 31.05 -8.15 248.11
v 16.89 2.46 204.60
v 28.08 -0.39 202.81
v 25.70 -5.00 202.81
v 10.56 5.72 160.10
v 48.02 -37.86 391.36
v 34.32 -55.04 343.42
v 37.64 -46.33 339.31
v 49.62 -32.58 389.01
v 52.80 -35.11 389.01
v 42.07 -49.86 339.31
v 20.62 -72.23 296.11
v 30.20 -52.88 286.24
v 37.34 -58.57 286.24
v 6.92 -89.41 249.44
v 11.55 -79.50 244.39
v 15.55 -82.69 244.39
v -6.78 -106.60 203.41
v -1.39 -96.19 197.88
v 2.16 -99.03 197.88
v -20.48 -123.78 158.02
v 72.46 -39.86 377.58
v 76.85 -47.70 336.74
v 69.61 -40.28 334.52
v 68.06 -35.97 376.36
v 71.45 -34.07 376.36
v 74.32 -37.64 334.52
v 81.24 -55.55 296.54
v 62.98 -39.71 291.42
v 77.30 -31.70 291.42
v 85.62 -63.39 256.98
v 77.79 -54.00 254.23
v 81.72 -51.80 254.23
v 90.01 -71.24 218.06
v 81.12 -61.54 215.08
v 86.40 -58.59 215.08
v 94.39 -79.08 179.78
vn 0.8660 0.4990 0.0150
vn 0.5280 0.7870 0.3200
vn 0.0470 0.9810 0.1880
vn -0.3170 0.7840 0.5340
vn -0.7550 0.4990 0.4250
vn -0.7230 0.0330 0.6900
vn -0.7390 -0.4640 0.4890
vn -0.2910 -0.7170 0.6340
vn 0.0790 -0.9460 0.3160
vn 0.5510 -0.7210 0.4200
vn 0.8820 -0.4640 0.0790
vn 0.9650 0.0320 0.2620
vn 0.8600 0.5020 -0.0870
vn 0.4530 0.8570 -0.2480
vn 0.0190 0.9970 0.0810
vn -0.5180 0.8550 -0.0190
vn -0.8070 0.5020 0.3100
vn -0.9890 -0.0060 0.1470
vn -0.7920 -0.4840 0.3710
vn -0.4920 -0.8670 0.0840
vn 0.0470 -0.9780 0.2040
vn 0.4780 -0.8670 -0.1440
vn 0.8730 -0.4860 -0.0260
vn 0.9510 -0.0050 -0.3100
vn 0.8200 0.4940 -0.2880
vn 0.5040 0.8640 -0.0130
vn -0.0290 0.9910 -0.1270
vn -0.4640 0.8630 0.2020
vn -0.8660 0.4930 0.0820
vn -0.9360 0.0060 0.3530
vn -0.8550 -0.5020 0.1290
vn -0.4440 -0.8480 0.2890
vn -0.0070 -0.9990 -0.0310
vn 0.5210 -0.8500 0.0750
vn 0.8310 -0.5020 -0.2400
vn 0.9970 0.0050 -0.0770
vn 0.8650 0.4990 -0.0550
vn 0.4670 0.8610 -0.2010
vn 0.0200 0.9950 0.1010
vn -0.5110 0.8600 -0.0040
vn -0.8180 0.4980 0.2890
vn -0.9930 -0.0040 0.1200
vn -0.8090 -0.4910 0.3220
vn -0.4990 -0.8650 0.0470
vn 0.0320 -0.9850 0.1670
vn 0.4780 -0.8660 -0.1500
vn 0.8700 -0.4930 -0.0210
vn 0.9620 -0.0030 -0.2740
vn 0.8350 0.4980 -0.2330
vn 0.5100 0.8600 0.0310
vn -0.0160 0.9970 -0.0810
vn -0.4670 0.8590 0.2120
vn -0.8640 0.4970 0.0770
vn -0.9510 -0.0010 0.3100
vn -0.8620 -0.5000 0.0830
vn -0.4620 -0.8570 0.2280
vn -0.0130 -0.9980 -0.0690
vn 0.5110 -0.8580 0.0480
vn 0.8360 -0.5000 -0.2270
vn 0.9990 -0.0010 -0.0510
vn 0.8700 0.4930 -0.0070
vn 0.4830 0.8650 -0.1360
vn 0.0220 0.9900 0.1420
vn -0.5020 0.8640 0.0250
vn -0.8270 0.4910 0.2740
vn -0.9960 0.0010 0.0870
vn -0.8270 -0.4990 0.2570
vn -0.5070 -0.8620 -0.0110
vn 0.0170 -0.9940 0.1080
vn 0.4760 -0.8630 -0.1710
vn 0.8660 -0.5000 -0.0240
vn 0.9720 0.0000 -0.2340
vn 0.8490 0.5010 -0.1700
vn 0.5140 0.8540 0.0880
vn -0.0040 1.0000 -0.0230
vn -0.4700 0.8520 0.2310
vn -0.8620 0.5010 0.0750
vn -0.9650 -0.0080 0.2630
vn -0.8690 -0.4950 0.0260
vn -0.4790 -0.8640 0.1530
vn -0.0190 -0.9930 -0.1200
vn 0.5020 -0.8650 0.0100
vn 0.8400 -0.4960 -0.2190
vn 1.0000 -0.0070 -0.0230
vn 0.8720 0.4870 0.0440
vn 0.4950 0.8660 -0.0660
vn 0.0220 0.9820 0.1880
vn -0.4960 0.8670 0.0560
vn -0.8360 0.4840 0.2590
vn -0.9990 0.0050 0.0520
vn -0.8430 -0.5050 0.1870
vn -0.5130 -0.8550 -0.0750
vn 0.0050 -0.9990 0.0430
vn 0.4760 -0.8570 -0.1970
vn 0.8630 -0.5050 -0.0280
vn 0.9810 0.0040 -0.1930
vn 0.8580 0.5020 -0.1100
vn 0.5140 0.8460 0.1410
vn 0.0030 1.0000 0.0300
vn -0.4760 0.8440 0.2470
vn -0.8610 0.5030 0.0700
vn -0.9760 -0.0130 0.2160
vn -0.8720 -0.4890 -0.0290
vn -0.4910 -0.8680 0.0790
vn -0.0190 -0.9850 -0.1690
vn 0.4960 -0.8680 -0.0270
vn 0.8460 -0.4910 -0.2100
vn 1.0000 -0.0110 0.0040
vn 0.8720 0.4820 0.0870
vn 0.5010 0.8660 -0.0100
vn 0.0180 0.9750 0.2210
vn -0.4940 0.8660 0.0770
vn -0.8440 0.4790 0.2390
vn -1.0000 0.0090 0.0170
vn -0.8530 -0.5070 0.1230
vn -0.5130 -0.8490 -0.1290
vn -0.0010 -1.0000 -0.0120
vn 0.4800 -0.8500 -0.2150
vn 0.8620 -0.5060 -0.0300
vn 0.9880 0.0070 -0.1560
vn 0.8620 0.5030 -0.0660
vn 0.5100 0.8420 0.1760
vn 0.0050 0.9980 0.0610
vn -0.4830 0.8400 0.2480
vn -0.8620 0.5040 0.0560
vn -0.9850 -0.0150 0.1710
vn -0.8720 -0.4840 -0.0750
vn -0.4970 -0.8680 0.0230
vn -0.0160 -0.9790 -0.2010
vn 0.4950 -0.8670 -0.0490
vn 0.8510 -0.4870 -0.1970
vn 1.0000 -0.0120 0.0270
vn 0.8700 0.4810 0.1100
vn 0.5010 0.8650 0.0150
vn 0.0130 0.9740 0.2280
vn -0.4950 0.8660 0.0720
vn -0.8520 0.4800 0.2090
vn -1.0000 0.0110 -0.0180
vn -0.8590 -0.5060 0.0730
vn -0.5100 -0.8440 -0.1640
vn -0.0020 -0.9990 -0.0440
vn 0.4850 -0.8460 -0.2200
vn 0.8620 -0.5060 -0.0250
vn 0.9910 0.0090 -0.1310
vn 0.8280 0.5140 -0.2240
vn -0.0060 0.9940 -0.1100
vn -0.8480 0.5140 -0.1290
vn -0.8560 -0.4470 -0.2610
vn -0.0210 -0.9270 -0.3750
vn 0.8210 -0.4470 -0.3570
vn 0.6550 0.2540 0.7120
vn 0.0450 0.6050 0.7950
vn -0.5700 0.2540 0.7810
vn -0.5750 -0.4470 0.6850
vn 0.0340 -0.7980 0.6010
vn 0.6490 -0.4470 0.6150
vn 0.4940 0.8610 0.1180
vn -0.9960 -0.0080 0.0860
vn 0.5020 -0.8590 -0.1010
vn 0.8810 0.3170 -0.3510
vn 0.2940 -0.8860 -0.3570
vn 0.8480 0.4250 -0.3170
vn 0.1870 -0.9260 -0.3270
vn 0.8730 0.3270 -0.3630
vn 0.3740 -0.9120 -0.1660
vn 0.8600 0.3660 -0.3560
vn 0.2250 -0.8910 -0.3940
vn 0.8060 0.5100 -0.3000
vn -0.1110 -0.7600 -0.6400
vn 0.8050 0.5070 -0.3090
vn 0.1040 -0.9470 -0.3030
vn 0.7930 0.5260 -0.3060
vn 0.0480 -0.9330 -0.3580
vn 0.7540 0.5990 -0.2720
vn -0.0490 -0.9360 -0.3480
vn 0.7460 0.6070 -0.2730
vn -0.0220 -0.9580 -0.2870
vn 0.7420 0.6090 -0.2800
vn -0.0180 -0.9600 -0.2800
vn -0.8280 0.3400 -0.4450
vn 0.3230 0.8330 -0.4500
vn -0.8670 0.2570 -0.4270
vn 0.4100 0.8030 -0.4340
vn -0.8980 0.1740 -0.4040
vn 0.5260 0.6640 -0.5320
vn -0.8910 0.1660 -0.4230
vn 0.4900 0.7640 -0.4190
vn -0.8970 0.1260 -0.4230
vn 0.5490 0.6720 -0.4960
vn -0.9170 0.0480 -0.3950
vn 0.6220 0.6280 -0.4690
vn -0.9250 -0.0060 -0.3800
vn 0.6810 0.5460 -0.4890
vn -0.9230 -0.0370 -0.3820
vn 0.6680 0.6300 -0.3970
vn -0.9140 -0.0490 -0.4020
vn 0.6590 0.6410 -0.3940
vn -0.9060 -0.0690 -0.4180
vn 0.6720 0.6110 -0.4180
vn 0.6320 -0.7020 -0.3270
vn -0.8310 -0.4460 -0.3340
vn 0.5520 -0.7430 -0.3770
vn -0.7700 -0.5200 -0.3700
vn 0.6670 -0.6640 -0.3390
vn -0.7950 -0.2420 -0.5560
vn 0.6590 -0.6610 -0.3600
vn -0.8430 -0.4090 -0.3480
vn 0.6940 -0.6260 -0.3560
vn -0.8420 -0.2730 -0.4660
vn 0.7370 -0.5820 -0.3440
vn -0.8790 -0.2520 -0.4050
vn 0.7250 -0.5810 -0.3710
vn -0.8820 -0.3490 -0.3160
vn 0.7640 -0.5370 -0.3590
vn -0.8910 -0.2050 -0.4060
vn 0.8560 -0.4360 -0.2790
vn -0.8630 0.1130 -0.4920
vn 0.8580 -0.4220 -0.2930
vn -0.9500 -0.1100 -0.2930
vn -0.0440 0.8610 -0.5060
vn 0.8400 -0.2020 -0.5040
vn -0.0920 0.8580 -0.5050
vn 0.8240 -0.2510 -0.5070
vn -0.1750 0.8620 -0.4760
vn 0.7100 -0.4080 -0.5740
vn -0.2330 0.8570 -0.4600
vn 0.7630 -0.4160 -0.4940
vn -0.2360 0.8400 -0.4890
vn 0.8160 -0.3560 -0.4550
vn -0.2500 0.8230 -0.5100
vn 0.7670 -0.3950 -0.5060
vn -0.3100 0.8160 -0.4870
vn 0.6140 -0.5510 -0.5650
vn -0.4240 0.8190 -0.3870
vn 0.6080 -0.6540 -0.4500
vn -0.4520 0.8050 -0.3840
vn 0.6820 -0.6150 -0.3970
vn -0.4710 0.7890 -0.3930
vn 0.6880 -0.6100 -0.3930
vn -0.5610 -0.6680 -0.4890
vn -0.4580 0.7420 -0.4890
vn -0.4810 -0.7590 -0.4390
vn -0.3590 0.8200 -0.4460
vn -0.5010 -0.7030 -0.5050
vn -0.4970 0.7670 -0.4060
vn -0.4630 -0.7290 -0.5050
vn -0.3270 0.7860 -0.5240
vn -0.4050 -0.7810 -0.4750
vn -0.1090 0.8040 -0.5850
vn -0.3360 -0.8420 -0.4210
vn -0.1100 0.8700 -0.4800
vn -0.3080 -0.8480 -0.4300
vn -0.1600 0.8830 -0.4420
vn -0.2710 -0.8650 -0.4220
vn -0.1170 0.8940 -0.4340
vn -0.2100 -0.9150 -0.3450
vn 0.1040 0.9080 -0.4060
vn -0.1860 -0.9160 -0.3540
vn -0.0500 0.9340 -0.3540
vn 0.8140 0.2480 -0.5250
vn -0.3350 -0.7710 -0.5420
vn 0.7770 0.2290 -0.5870
vn -0.2930 -0.7570 -0.5840
vn 0.7760 0.3430 -0.5290
vn -0.5290 -0.5920 -0.6080
vn 0.7620 0.4150 -0.4970
vn -0.5200 -0.6790 -0.5190
vn 0.7360 0.4510 -0.5040
vn -0.5320 -0.6750 -0.5120
vn 0.7130 0.4960 -0.4950
vn -0.5770 -0.6460 -0.5000
vn 0.6930 0.5440 -0.4730
vn -0.6690 -0.5670 -0.4820
vn 0.6850 0.6000 -0.4140
vn -0.7010 -0.5810 -0.4140
vn 0.6510 0.6230 -0.4340
vn -0.6510 -0.6210 -0.4370
vn 0.6240 0.6520 -0.4300
vn -0.7040 -0.5650 -0.4300
vn -0.6880 0.3260 -0.6490
vn 0.7260 0.2320 -0.6470
vn -0.7630 0.2560 -0.5930
vn 0.7910 0.1410 -0.5960
vn -0.7850 0.2040 -0.5850
vn 0.8020 0.0460 -0.5960
vn -0.7820 0.1560 -0.6040
vn 0.7960 0.0560 -0.6030
vn -0.8570 0.1010 -0.5060
vn 0.8030 -0.3310 -0.4960
vn -0.8840 0.0590 -0.4630
vn 0.8800 -0.1140 -0.4600
vn -0.8720 0.0160 -0.4880
vn 0.8680 -0.0270 -0.4970
vn -0.9280 -0.0020 -0.3740
vn 0.9090 -0.2230 -0.3520
vn -0.9490 -0.0170 -0.3140
vn 0.9310 -0.2230 -0.2900
vn -0.9510 -0.0420 -0.3060
vn 0.9360 -0.1720 -0.3060
vn 0.2390 -0.7510 -0.6160
vn -0.7080 0.3430 -0.6170
vn 0.3190 -0.7360 -0.5970
vn -0.6810 0.4210 -0.5990
vn 0.4470 -0.7450 -0.4960
vn -0.4510 0.7050 -0.5480
vn 0.4280 -0.6780 -0.5970
vn -0.6840 0.4470 -0.5770
vn 0.5470 -0.7000 -0.4590
vn -0.2090 0.8750 -0.4360
vn 0.5830 -0.6710 -0.4570
vn -0.5800 0.6740 -0.4570
vn 0.6300 -0.6620 -0.4070
vn -0.4520 0.8060 -0.3820
vn 0.6490 -0.6040 -0.4630
vn -0.5490 0.6870 -0.4760
vn 0.6910 -0.6370 -0.3420
vn -0.3960 0.8760 -0.2760
vn 0.7140 -0.6170 -0.3310
vn -0.5110 0.7930 -0.3310
vn 0.1680 0.8070 -0.5660
vn 0.2510 -0.7840 -0.5670
vn 0.1000 0.8090 -0.5790
vn 0.1870 -0.7930 -0.5790
vn 0.0160 0.8580 -0.5140
vn -0.0480 -0.8530 -0.5190
vn -0.0470 0.8180 -0.5730
vn 0.0950 -0.8130 -0.5740
vn -0.1170 0.8300 -0.5450
vn -0.0940 -0.8420 -0.5320
vn -0.1530 0.9020 -0.4030
vn -0.1840 -0.9150 -0.3590
vn -0.2250 0.8570 -0.4630
vn 0.0460 -0.8470 -0.5300
vn -0.2360 0.9010 -0.3640
vn -0.1900 -0.9240 -0.3330
vn -0.2500 0.9160 -0.3140
vn -0.1840 -0.9390 -0.2900
vn -0.2760 0.9140 -0.2960
vn -0.1750 -0.9390 -0.2960
vn -0.5780 -0.5350 -0.6170
vn 0.5300 0.5820 -0.6170
vn -0.5360 -0.6060 -0.5870
vn 0.6010 0.5430 -0.5870
vn -0.5020 -0.6710 -0.5460
vn 0.7120 0.4640 -0.5270
vn -0.4770 -0.7250 -0.4960
vn 0.7400 0.4660 -0.4840
vn -0.4750 -0.7700 -0.4270
vn 0.8480 0.3940 -0.3560
vn -0.4530 -0.8000 -0.3940
vn 0.8000 0.4580 -0.3870
vn -0.4550 -0.8220 -0.3430
vn 0.8550 0.4260 -0.2970
vn -0.5190 -0.8210 -0.2370
vn 0.8480 0.4940 -0.1900
vn -0.5400 -0.8200 -0.1900
vn 0.8330 0.5300 -0.1570
vn -0.5320 -0.8280 -0.1780
vn 0.8200 0.5440 -0.1780
vn 0.7720 0.1290 -0.6220
vn -0.7560 -0.2010 -0.6230
vn 0.8280 0.2180 -0.5160
vn -0.8440 -0.1510 -0.5150
vn 0.7700 0.2840 -0.5720
vn -0.7740 -0.2080 -0.5970
vn 0.8240 0.3350 -0.4580
vn -0.9060 0.0400 -0.4200
vn 0.8590 0.3610 -0.3630
vn -0.9550 0.1490 -0.2550
vn 0.8400 0.4040 -0.3620
vn -0.9280 -0.0140 -0.3720
vn 0.8410 0.4290 -0.3300
vn -0.9490 0.0470 -0.3110
vn 0.8200 0.4680 -0.3300
vn -0.9380 0.0550 -0.3420
vn 0.8700 0.4320 -0.2380
vn -0.9830 0.0840 -0.1640
vn 0.8660 0.4460 -0.2230
vn -0.9740 0.0290 -0.2230
vn -0.7550 0.3720 -0.5400
vn 0.6480 -0.5420 -0.5350
vn -0.7820 0.3040 -0.5440
vn 0.6090 -0.5770 -0.5440
vn -0.8360 0.2960 -0.4620
vn 0.5660 -0.7160 -0.4090
vn -0.8710 0.2940 -0.3930
vn 0.6170 -0.6940 -0.3710
vn -0.8830 0.2260 -0.4110
vn 0.6200 -0.6280 -0.4700
vn -0.9100 0.3160 -0.2700
vn 0.6230 -0.7580 -0.1920
vn -0.9210 0.2700 -0.2800
vn 0.6580 -0.6800 -0.3240
vn -0.9280 0.2900 -0.2350
vn 0.6490 -0.7290 -0.2190
vn -0.9170 0.3710 -0.1480
vn 0.6930 -0.7170 -0.0760
vn -0.9210 0.3650 -0.1380
vn 0.7220 -0.6780 -0.1380
vn 0.2280 -0.7650 -0.6030
vn -0.0520 0.7970 -0.6010
vn 0.3030 -0.8220 -0.4810
vn -0.0010 0.8790 -0.4780
vn 0.3700 -0.8100 -0.4550
vn 0.0560 0.8880 -0.4560
vn 0.4000 -0.8360 -0.3760
vn 0.1130 0.9300 -0.3490
vn 0.4170 -0.8520 -0.3150
vn 0.1510 0.9550 -0.2550
vn 0.4240 -0.8660 -0.2650
vn 0.1040 0.9640 -0.2460
vn 0.4540 -0.8540 -0.2550
vn 0.1030 0.9560 -0.2750
vn 0.3840 -0.9090 -0.1620
vn 0.0670 0.9910 -0.1160
vn 0.4120 -0.8960 -0.1640
vn 0.0550 0.9820 -0.1800
vn 0.4200 -0.8950 -0.1520
vn 0.0730 0.9860 -0.1520
vn 0.1450 0.8140 -0.5620
vn -0.5400 -0.6200 -0.5690
vn 0.1760 0.8970 -0.4060
vn -0.6090 -0.6850 -0.3990
vn 0.1390 0.9190 -0.3680
vn -0.6480 -0.6710 -0.3610
vn 0.0860 0.9310 -0.3540
vn -0.6720 -0.6440 -0.3650
vn 0.1310 0.9540 -0.2710
vn -0.7420 -0.6490 -0.1720
vn 0.1920 0.9620 -0.1940
vn -0.6680 -0.7290 -0.1530
vn 0.1110 0.9690 -0.2220
vn -0.6480 -0.7010 -0.2980
vn 0.2070 0.9670 -0.1460
vn -0.6550 -0.7470 -0.1090
vn 0.1770 0.9730 -0.1470
vn -0.6530 -0.7400 -0.1610
vn 0.1730 0.9750 -0.1370
vn -0.6640 -0.7350 -0.1370
vn -0.6950 -0.5490 -0.4640
vn 0.8770 0.1170 -0.4650
vn -0.7110 -0.5910 -0.3810
vn 0.9210 0.0930 -0.3780
vn -0.6780 -0.6400 -0.3610
vn 0.9220 0.0590 -0.3820
vn -0.6960 -0.6520 -0.3000
vn 0.9600 0.0280 -0.2790
vn -0.7340 -0.6380 -0.2330
vn 0.9890 0.0250 -0.1490
vn -0.7730 -0.6100 -0.1750
vn 0.9840 0.1090 -0.1420
vn -0.7830 -0.6040 -0.1490
vn 0.9840 0.1280 -0.1270
vn -0.7820 -0.6080 -0.1360
vn 0.9820 0.1350 -0.1350
vn -0.8180 -0.5670 -0.0980
vn 0.9820 0.1760 -0.0650
vn -0.8160 -0.5700 -0.0910
vn 0.9780 0.1870 -0.0910
vn -0.5070 0.8580 -0.0770
vn -0.1190 -0.9900 -0.0810
vn -0.4630 0.8840 -0.0660
vn -0.0720 -0.9960 -0.0570
vn -0.3420 0.9390 -0.0350
vn 0.0500 -0.9990 0.0220
vn -0.3900 0.9190 -0.0480
vn 0.0140 -0.9980 -0.0600
vn -0.3900 0.9190 -0.0490
vn 0.0110 -0.9990 -0.0490
vn -0.9700 0.2090 -0.1210
vn 0.7460 -0.6570 -0.1100
vn -0.9740 0.1840 -0.1350
vn 0.7310 -0.6680 -0.1400
vn -0.9550 0.2820 -0.0890
vn 0.7870 -0.6150 -0.0460
vn -0.9650 0.2370 -0.1130
vn 0.7700 -0.6260 -0.1230
vn -0.9650 0.2380 -0.1140
vn 0.7680 -0.6300 -0.1140
vn -0.1320 -0.9900 -0.0510
vn 0.7310 0.6810 -0.0450
vn -0.2110 -0.9770 -0.0400
vn 0.6750 0.7370 -0.0240
vn -0.2040 -0.9780 -0.0420
vn 0.6780 0.7340 -0.0450
vn -0.2520 -0.9670 -0.0350
vn 0.6430 0.7650 -0.0230
vn 0.6420 0.7660 -0.0350
vn 0.9090 -0.4010 -0.1160
vn -0.5920 0.7990 -0.1090
vn 0.8760 -0.4750 -0.0810
vn -0.6540 0.7540 -0.0650
vn 0.8840 -0.4590 -0.0900
vn -0.6470 0.7560 -0.0990
vn 0.8690 -0.4900 -0.0760
vn -0.6690 0.7410 -0.0680
vn 0.8680 -0.4900 -0.0770
vn -0.6710 0.7370 -0.0770
vn 0.7230 0.6890 -0.0550
vn -0.9660 -0.2530 -0.0450
vn 0.6650 0.7430 -0.0720
vn -0.9790 -0.1810 -0.0930
vn 0.7730 0.6330 -0.0400
vn -0.9500 -0.3070 0.0530
vn 0.7440 0.6660 -0.0500
vn -0.9560 -0.2880 -0.0640
vn 0.7440 0.6660 -0.0510
vn -0.9570 -0.2850 -0.0510
usemtl TrunkA
f 1//1 2//1 3//1
f 3//2 2//2 4//2
f 2//3 5//3 4//3
f 4//4 5//4 6//4
f 5//5 7//5 6//5
f 6//6 7//6 8//6
f 7//7 9//7 8//7
f 8//8 9//8 10//8
f 9//9 11//9 10//9
f 10//10 11//10 12//10
f 11//11 1//11 12//11
f 12//12 1//12 3//12
f 14//25 13//25 19//25
f 19//26 13//26 20//26
f 13//27 15//27 20//27
f 20//28 15//28 21//28
f 15//29 16//29 21//29
f 21//30 16//30 22//30
f 16//31 17//31 22//31
f 22//32 17//32 23//32
f 17//33 18//33 23//33
f 23//34 18//34 24//34
f 18//35 14//35 24//35
f 24//36 14//36 19//36
f 26//49 25//49 31//49
f 31//50 25//50 32//50
f 25//51 27//51 32//51
f 32//52 27//52 33//52
f 27//53 28//53 33//53
f 33//54 28//54 34//54
f 28//55 29//55 34//55
f 34//56 29//56 35//56
f 29//57 30//57 35//57
f 35//58 30//58 36//58
f 30//59 26//59 36//59
f 36//60 26//60 31//60
f 38//73 37//73 43//73
f 43//74 37//74 44//74
f 37//75 39//75 44//75
f 44//76 39//76 45//76
f 39//77 40//77 45//77
f 45//78 40//78 46//78
f 40//79 41//79 46//79
f 46//80 41//80 47//80
f 41//81 42//81 47//81
f 47//82 42//82 48//82
f 42//83 38//83 48//83
f 48//84 38//84 43//84
f 50//97 49//97 55//97
f 55//98 49//98 56//98
f 49//99 51//99 56//99
f 56//100 51//100 57//100
f 51//101 52//101 57//101
f 57//102 52//102 58//102
f 52//103 53//103 58//103
f 58//104 53//104 59//104
f 53//105 54//105 59//105
f 59//106 54//106 60//106
f 54//107 50//107 60//107
f 60//108 50//108 55//108
f 62//121 61//121 67//121
f 67//122 61//122 68//122
f 61//123 63//123 68//123
f 68//124 63//124 69//124
f 63//125 64//125 69//125
f 69//126 64//126 70//126
f 64//127 65//127 70//127
f 70//128 65//128 71//128
f 65//129 66//129 71//129
f 71//130 66//130 72//130
f 66//131 62//131 72//131
f 72//132 62//132 67//132
usemtl TrunkB
f 3//13 13//13 14//13
f 3//14 4//14 13//14
f 4//15 15//15 13//15
f 4//16 6//16 15//16
f 6//17 16//17 15//17
f 6//18 8//18 16//18
f 8//19 17//19 16//19
f 8//20 10//20 17//20
f 10//21 18//21 17//21
f 10//22 12//22 18//22
f 12//23 14//23 18//23
f 12//24 3//24 14//24
f 19//37 25//37 26//37
f 19//38 20//38 25//38
f 20//39 27//39 25//39
f 20//40 21//40 27//40
f 21//41 28//41 27//41
f 21//42 22//42 28//42
f 22//43 29//43 28//43
f 22//44 23//44 29//44
f 23//45 30//45 29//45
f 23//46 24//46 30//46
f 24//47 26//47 30//47
f 24//48 19//48 26//48
f 31//61 37//61 38//61
f 31//62 32//62 37//62
f 32//63 39//63 37//63
f 32//64 33//64 39//64
f 33//65 40//65 39//65
f 33//66 34//66 40//66
f 34//67 41//67 40//67
f 34//68 35//68 41//68
f 35//69 42//69 41//69
f 35//70 36//70 42//70
f 36//71 38//71 42//71
f 36//72 31//72 38//72
f 43//85 49//85 50//85
f 43//86 44//86 49//86
f 44//87 51//87 49//87
f 44//88 45//88 51//88
f 45//89 52//89 51//89
f 45//90 46//90 52//90
f 46//91 53//91 52//91
f 46//92 47//92 53//92
f 47//93 54//93 53//93
f 47//94 48//94 54//94
f 48//95 50//95 54//95
f 48//96 43//96 50//96
f 55//109 61//109 62//109
f 55//110 56//110 61//110
f 56//111 63//111 61//111
f 56//112 57//112 63//112
f 57//113 64//113 63//113
f 57//114 58//114 64//114
f 58//115 65//115 64//115
f 58//116 59//116 65//116
f 59//117 66//117 65//117
f 59//118 60//118 66//118
f 60//119 62//119 66//119
f 60//120 55//120 62//120
f 67//133 73//133 74//133
f 67//134 68//134 73//134
f 68//135 75//135 73//135
f 68//136 69//136 75//136
f 69//137 76//137 75//137
f 69//138 70//138 76//138
f 70//139 77//139 76//139
f 70//140 71//140 77//140
f 71//141 78//141 77//141
f 71//142 72//142 78//142
f 72//143 74//143 78//143
f 72//144 67//144 74//144
usemtl Husk
f 74//145 73//145 79//145 80//145
f 73//146 75//146 81//146 79//146
f 75//147 76//147 82//147 81//147
f 76//148 77//148 83//148 82//148
f 77//149 78//149 84//149 83//149
f 78//150 74//150 80//150 84//150
f 80//151 79//151 85//151
f 79//152 81//152 85//152
f 81//153 82//153 85//153
f 82//154 83//154 85//154
f 83//155 84//155 85//155
f 84//156 80//156 85//156
usemtl Young
f 86//157 87//157 88//157
f 87//158 89//158 88//158
f 89//159 86//159 88//159
f 90//160 91//160 92//160 93//160
f 94//161 95//161 91//161 90//161
f 91//162 96//162 97//162 92//162
f 95//163 98//163 96//163 91//163
f 96//164 99//164 100//164 97//164
f 98//165 101//165 99//165 96//165
f 99//166 102//166 103//166 100//166
f 101//167 104//167 102//167 99//167
f 102//168 105//168 106//168 103//168
f 104//169 107//169 105//169 102//169
f 105//170 108//170 109//170 106//170
f 107//171 110//171 108//171 105//171
f 108//172 111//172 112//172 109//172
f 110//173 113//173 111//173 108//173
f 111//174 114//174 115//174 112//174
f 113//175 116//175 114//175 111//175
f 114//176 117//176 118//176 115//176
f 116//177 119//177 117//177 114//177
f 117//178 120//178 118//178
f 119//179 120//179 117//179
f 121//180 122//180 123//180 124//180
f 125//181 126//181 122//181 121//181
f 122//182 127//182 128//182 123//182
f 126//183 129//183 127//183 122//183
f 127//184 130//184 131//184 128//184
f 129//185 132//185 130//185 127//185
f 130//186 133//186 134//186 131//186
f 132//187 135//187 133//187 130//187
f 133//188 136//188 137//188 134//188
f 135//189 138//189 136//189 133//189
f 136//190 139//190 140//190 137//190
f 138//191 141//191 139//191 136//191
f 139//192 142//192 143//192 140//192
f 141//193 144//193 142//193 139//193
f 142//194 145//194 146//194 143//194
f 144//195 147//195 145//195 142//195
f 145//196 148//196 149//196 146//196
f 147//197 150//197 148//197 145//197
f 148//198 151//198 149//198
f 150//199 151//199 148//199
f 152//200 153//200 154//200 155//200
f 156//201 157//201 153//201 152//201
f 153//202 158//202 159//202 154//202
f 157//203 160//203 158//203 153//203
f 158//204 161//204 162//204 159//204
f 160//205 163//205 161//205 158//205
f 161//206 164//206 165//206 162//206
f 163//207 166//207 164//207 161//207
f 164//208 167//208 168//208 165//208
f 166//209 169//209 167//209 164//209
f 167//210 170//210 171//210 168//210
f 169//211 172//211 170//211 167//211
f 170//212 173//212 174//212 171//212
f 172//213 175//213 173//213 170//213
f 173//214 176//214 177//214 174//214
f 175//215 178//215 176//215 173//215
f 176//216 179//216 180//216 177//216
f 178//217 181//217 179//217 176//217
f 179//218 182//218 180//218
f 181//219 182//219 179//219
usemtl Frond
f 183//220 184//220 185//220 186//220
f 187//221 188//221 184//221 183//221
f 184//222 189//222 190//222 185//222
f 188//223 191//223 189//223 184//223
f 189//224 192//224 193//224 190//224
f 191//225 194//225 192//225 189//225
f 192//226 195//226 196//226 193//226
f 194//227 197//227 195//227 192//227
f 195//228 198//228 199//228 196//228
f 197//229 200//229 198//229 195//229
f 198//230 201//230 202//230 199//230
f 200//231 203//231 201//231 198//231
f 201//232 204//232 205//232 202//232
f 203//233 206//233 204//233 201//233
f 204//234 207//234 208//234 205//234
f 206//235 209//235 207//235 204//235
f 207//236 210//236 211//236 208//236
f 209//237 212//237 210//237 207//237
f 210//238 213//238 211//238
f 212//239 213//239 210//239
f 214//240 215//240 216//240 217//240
f 218//241 219//241 215//241 214//241
f 215//242 220//242 221//242 216//242
f 219//243 222//243 220//243 215//243
f 220//244 223//244 224//244 221//244
f 222//245 225//245 223//245 220//245
f 223//246 226//246 227//246 224//246
f 225//247 228//247 226//247 223//247
f 226//248 229//248 230//248 227//248
f 228//249 231//249 229//249 226//249
f 229//250 232//250 233//250 230//250
f 231//251 234//251 232//251 229//251
f 232//252 235//252 236//252 233//252
f 234//253 237//253 235//253 232//253
f 235//254 238//254 239//254 236//254
f 237//255 240//255 238//255 235//255
f 238//256 241//256 242//256 239//256
f 240//257 243//257 241//257 238//257
f 241//258 244//258 242//258
f 243//259 244//259 241//259
f 245//260 246//260 247//260 248//260
f 249//261 250//261 246//261 245//261
f 246//262 251//262 252//262 247//262
f 250//263 253//263 251//263 246//263
f 251//264 254//264 255//264 252//264
f 253//265 256//265 254//265 251//265
f 254//266 257//266 258//266 255//266
f 256//267 259//267 257//267 254//267
f 257//268 260//268 261//268 258//268
f 259//269 262//269 260//269 257//269
f 260//270 263//270 264//270 261//270
f 262//271 265//271 263//271 260//271
f 263//272 266//272 267//272 264//272
f 265//273 268//273 266//273 263//273
f 266//274 269//274 270//274 267//274
f 268//275 271//275 269//275 266//275
f 269//276 272//276 273//276 270//276
f 271//277 274//277 272//277 269//277
f 272//278 275//278 273//278
f 274//279 275//279 272//279
f 276//280 277//280 278//280 279//280
f 280//281 281//281 277//281 276//281
f 277//282 282//282 283//282 278//282
f 281//283 284//283 282//283 277//283
f 282//284 285//284 286//284 283//284
f 284//285 287//285 285//285 282//285
f 285//286 288//286 289//286 286//286
f 287//287 290//287 288//287 285//287
f 288//288 291//288 292//288 289//288
f 290//289 293//289 291//289 288//289
f 291//290 294//290 295//290 292//290
f 293//291 296//291 294//291 291//291
f 294//292 297//292 298//292 295//292
f 296//293 299//293 297//293 294//293
f 297//294 300//294 301//294 298//294
f 299//295 302//295 300//295 297//295
f 300//296 303//296 304//296 301//296
f 302//297 305//297 303//297 300//297
f 303//298 306//298 304//298
f 305//299 306//299 303//299
f 307//300 308//300 309//300 310//300
f 311//301 312//301 308//301 307//301
f 308//302 313//302 314//302 309//302
f 312//303 315//303 313//303 308//303
f 313//304 316//304 317//304 314//304
f 315//305 318//305 316//305 313//305
f 316//306 319//306 320//306 317//306
f 318//307 321//307 319//307 316//307
f 319//308 322//308 323//308 320//308
f 321//309 324//309 322//309 319//309
f 322//310 325//310 326//310 323//310
f 324//311 327//311 325//311 322//311
f 325//312 328//312 329//312 326//312
f 327//313 330//313 328//313 325//313
f 328//314 331//314 332//314 329//314
f 330//315 333//315 331//315 328//315
f 331//316 334//316 335//316 332//316
f 333//317 336//317 334//317 331//317
f 334//318 337//318 335//318
f 336//319 337//319 334//319
f 338//320 339//320 340//320 341//320
f 342//321 343//321 339//321 338//321
f 339//322 344//322 345//322 340//322
f 343//323 346//323 344//323 339//323
f 344//324 347//324 348//324 345//324
f 346//325 349//325 347//325 344//325
f 347//326 350//326 351//326 348//326
f 349//327 352//327 350//327 347//327
f 350//328 353//328 354//328 351//328
f 352//329 355//329 353//329 350//329
f 353//330 356//330 357//330 354//330
f 355//331 358//331 356//331 353//331
f 356//332 359//332 360//332 357//332
f 358//333 361//333 359//333 356//333
f 359//334 362//334 363//334 360//334
f 361//335 364//335 362//335 359//335
f 362//336 365//336 366//336 363//336
f 364//337 367//337 365//337 362//337
f 365//338 368//338 366//338
f 367//339 368//339 365//339
f 369//340 370//340 371//340 372//340
f 373//341 374//341 370//341 369//341
f 370//342 375//342 376//342 371//342
f 374//343 377//343 375//343 370//343
f 375//344 378//344 379//344 376//344
f 377//345 380//345 378//345 375//345
f 378//346 381//346 382//346 379//346
f 380//347 383//347 381//347 378//347
f 381//348 384//348 385//348 382//348
f 383//349 386//349 384//349 381//349
f 384//350 387//350 388//350 385//350
f 386//351 389//351 387//351 384//351
f 387//352 390//352 391//352 388//352
f 389//353 392//353 390//353 387//353
f 390//354 393//354 394//354 391//354
f 392//355 395//355 393//355 390//355
f 393//356 396//356 397//356 394//356
f 395//357 398//357 396//357 393//357
f 396//358 399//358 397//358
f 398//359 399//359 396//359
f 400//360 401//360 402//360 403//360
f 404//361 405//361 401//361 400//361
f 401//362 406//362 407//362 402//362
f 405//363 408//363 406//363 401//363
f 406//364 409//364 410//364 407//364
f 408//365 411//365 409//365 406//365
f 409//366 412//366 413//366 410//366
f 411//367 414//367 412//367 409//367
f 412//368 415//368 416//368 413//368
f 414//369 417//369 415//369 412//369
f 415//370 418//370 419//370 416//370
f 417//371 420//371 418//371 415//371
f 418//372 421//372 422//372 419//372
f 420//373 423//373 421//373 418//373
f 421//374 424//374 425//374 422//374
f 423//375 426//375 424//375 421//375
f 424//376 427//376 428//376 425//376
f 426//377 429//377 427//377 424//377
f 427//378 430//378 428//378
f 429//379 430//379 427//379
f 431//380 432//380 433//380 434//380
f 435//381 436//381 432//381 431//381
f 432//382 437//382 438//382 433//382
f 436//383 439//383 437//383 432//383
f 437//384 440//384 441//384 438//384
f 439//385 442//385 440//385 437//385
f 440//386 443//386 444//386 441//386
f 442//387 445//387 443//387 440//387
f 443//388 446//388 447//388 444//388
f 445//389 448//389 446//389 443//389
f 446//390 449//390 450//390 447//390
f 448//391 451//391 449//391 446//391
f 449//392 452//392 453//392 450//392
f 451//393 454//393 452//393 449//393
f 452//394 455//394 456//394 453//394
f 454//395 457//395 455//395 452//395
f 455//396 458//396 459//396 456//396
f 457//397 460//397 458//397 455//397
f 458//398 461//398 459//398
f 460//399 461//399 458//399
usemtl Old
f 462//400 463//400 464//400 465//400
f 466//401 467//401 463//401 462//401
f 463//402 468//402 469//402 464//402
f 467//403 470//403 468//403 463//403
f 468//404 471//404 472//404 469//404
f 470//405 473//405 471//405 468//405
f 471//406 474//406 475//406 472//406
f 473//407 476//407 474//407 471//407
f 474//408 477//408 478//408 475//408
f 476//409 479//409 477//409 474//409
f 477//410 480//410 481//410 478//410
f 479//411 482//411 480//411 477//411
f 480//412 483//412 484//412 481//412
f 482//413 485//413 483//413 480//413
f 483//414 486//414 487//414 484//414
f 485//415 488//415 486//415 483//415
f 486//416 489//416 490//416 487//416
f 488//417 491//417 489//417 486//417
f 489//418 492//418 490//418
f 491//419 492//419 489//419
f 493//420 494//420 495//420 496//420
f 497//421 498//421 494//421 493//421
f 494//422 499//422 500//422 495//422
f 498//423 501//423 499//423 494//423
f 499//424 502//424 503//424 500//424
f 501//425 504//425 502//425 499//425
f 502//426 505//426 506//426 503//426
f 504//427 507//427 505//427 502//427
f 505//428 508//428 509//428 506//428
f 507//429 510//429 508//429 505//429
f 508//430 511//430 512//430 509//430
f 510//431 513//431 511//431 508//431
f 511//432 514//432 515//432 512//432
f 513//433 516//433 514//433 511//433
f 514//434 517//434 518//434 515//434
f 516//435 519//435 517//435 514//435
f 517//436 520//436 521//436 518//436
f 519//437 522//437 520//437 517//437
f 520//438 523//438 521//438
f 522//439 523//439 520//439
f 524//440 525//440 526//440 527//440
f 528//441 529//441 525//441 524//441
f 525//442 530//442 531//442 526//442
f 529//443 532//443 530//443 525//443
f 530//444 533//444 534//444 531//444
f 532//445 535//445 533//445 530//445
f 533//446 536//446 537//446 534//446
f 535//447 538//447 536//447 533//447
f 536//448 539//448 540//448 537//448
f 538//449 541//449 539//449 536//449
f 539//450 542//450 543//450 540//450
f 541//451 544//451 542//451 539//451
f 542//452 545//452 546//452 543//452
f 544//453 547//453 545//453 542//453
f 545//454 548//454 549//454 546//454
f 547//455 550//455 548//455 545//455
f 548//456 551//456 552//456 549//456
f 550//457 553//457 551//457 548//457
f 551//458 554//458 552//458
f 553//459 554//459 551//459
usemtl Dead
f 555//460 556//460 557//460 558//460
f 559//461 560//461 556//461 555//461
f 556//462 561//462 562//462 557//462
f 560//463 563//463 561//463 556//463
f 561//464 564//464 565//464 562//464
f 563//465 566//465 564//465 561//465
f 564//466 567//466 568//466 565//466
f 566//467 569//467 567//467 564//467
f 567//468 570//468 568//468
f 569//469 570//469 567//469
f 571//470 572//470 573//470 574//470
f 575//471 576//471 572//471 571//471
f 572//472 577//472 578//472 573//472
f 576//473 579//473 577//473 572//473
f 577//474 580//474 581//474 578//474
f 579//475 582//475 580//475 577//475
f 580//476 583//476 584//476 581//476
f 582//477 585//477 583//477 580//477
f 583//478 586//478 584//478
f 585//479 586//479 583//479
f 587//480 588//480 589//480 590//480
f 591//481 592//481 588//481 587//481
f 588//482 593//482 594//482 589//482
f 592//483 595//483 593//483 588//483
f 593//484 596//484 597//484 594//484
f 595//485 598//485 596//485 593//485
f 596//486 599//486 600//486 597//486
f 598//487 601//487 599//487 596//487
f 599//486 602//486 600//486
f 601//488 602//488 599//488
f 603//489 604//489 605//489 606//489
f 607//490 608//490 604//490 603//490
f 604//491 609//491 610//491 605//491
f 608//492 611//492 609//492 604//492
f 609//493 612//493 613//493 610//493
f 611//494 614//494 612//494 609//494
f 612//495 615//495 616//495 613//495
f 614//496 617//496 615//496 612//496
f 615//497 618//497 616//497
f 617//498 618//498 615//498
f 619//499 620//499 621//499 622//499
f 623//500 624//500 620//500 619//500
f 620//501 625//501 626//501 621//501
f 624//502 627//502 625//502 620//502
f 625//503 628//503 629//503 626//503
f 627//504 630//504 628//504 625//504
f 628//505 631//505 632//505 629//505
f 630//506 633//506 631//506 628//506
f 631//507 634//507 632//507
f 633//508 634//508 631//508
