# LowPolyPalms - dried dead palm (cm, Z up)
mtllib SM_Palm_Dead_B.mtl
o SM_Palm_Dead_B
v 35.80 0.00 -11.81
v 17.15 32.56 -8.17
v 36.64 16.20 42.67
v 15.96 28.53 48.33
v -18.65 32.56 3.64
v -4.19 16.20 55.66
v -35.80 0.00 11.81
v -3.66 -8.48 57.33
v -17.15 -32.56 8.17
v 17.02 -20.82 51.67
v 18.65 -32.56 -3.64
v 37.17 -8.48 44.34
v 42.74 27.80 95.47
v 54.38 7.46 93.37
v 20.17 27.80 102.10
v 9.24 7.46 106.63
v 20.88 -12.87 104.53
v 43.45 -12.87 97.90
v 64.42 21.51 144.53
v 45.59 32.67 149.04
v 27.01 21.51 154.51
v 27.27 -0.83 155.47
v 46.10 -11.99 150.96
v 64.68 -0.83 145.49
v 68.74 30.46 197.19
v 79.15 12.07 195.08
v 48.08 30.46 202.11
v 37.83 12.07 204.92
v 48.25 -6.31 202.81
v 68.90 -6.31 197.89
v 86.79 22.44 246.54
v 69.71 32.52 250.21
v 52.59 22.44 253.67
v 52.54 2.27 253.46
v 69.62 -7.82 249.79
v 86.75 2.27 246.33
v 88.89 27.56 299.04
v 98.20 10.98 296.64
v 70.02 27.56 302.40
v 60.45 10.98 303.36
v 69.76 -5.61 300.96
v 88.63 -5.61 297.60
v 103.17 16.97 348.40
v 87.65 26.06 351.40
v 71.93 16.97 353.00
v 71.73 -1.21 351.60
v 87.24 -10.29 348.60
v 102.96 -1.21 347.00
v 102.86 18.08 400.60
v 111.29 3.13 397.98
v 85.62 18.08 402.63
v 76.81 3.13 402.02
v 85.24 -11.82 399.40
v 102.48 -11.82 397.37
v 113.58 5.14 449.84
v 99.38 13.35 452.21
v 84.98 5.14 452.37
v 84.78 -11.29 450.16
v 98.99 -19.51 447.79
v 113.39 -11.29 447.63
v 110.99 3.18 501.60
v 118.79 -10.43 499.02
v 95.12 3.18 502.58
v 87.06 -10.43 500.98
v 94.87 -24.03 498.40
v 110.73 -24.03 497.42
v 118.71 -10.94 550.74
v 105.48 -3.37 552.48
v 92.16 -10.94 551.74
v 92.06 -26.07 549.26
v 105.29 -33.64 547.52
v 118.61 -26.07 548.26
v 114.23 -14.02 601.94
v 121.67 -26.84 599.61
v 99.23 -14.02 602.33
v 91.68 -26.84 600.39
v 99.12 -39.65 598.06
v 114.12 -39.65 597.67
v 118.61 -14.58 640.78
v 129.40 -33.16 637.40
v 96.86 -14.58 641.34
v 85.91 -33.16 638.53
v 96.70 -51.74 635.15
v 118.45 -51.74 634.59
v 108.46 -38.34 669.03
v 102.38 -25.73 657.03
v 91.81 -3.80 632.76
v 93.84 -4.49 631.43
v 107.15 -27.14 653.67
v 100.52 -30.34 653.67
v 91.09 -5.82 631.43
v 81.25 18.12 602.10
v 101.72 7.18 588.63
v 77.05 -4.71 588.63
v 70.68 40.05 565.04
v 81.03 33.00 558.48
v 69.75 27.56 558.48
v 60.12 61.98 521.59
v 87.69 42.07 505.99
v 58.51 28.01 505.99
v 49.55 83.90 471.74
v 61.84 75.54 465.84
v 48.43 69.08 465.84
v 38.98 105.83 415.49
v 63.99 83.70 402.89
v 40.71 72.48 402.89
v 28.42 127.75 352.85
v 37.95 120.38 348.86
v 28.25 115.70 348.86
v 17.85 149.68 283.81
v 32.81 135.51 277.32
v 19.61 129.16 277.32
v 7.29 171.61 208.37
v 9.53 168.97 207.33
v 7.95 168.21 207.33
v -3.28 193.53 126.54
v 104.84 -51.86 654.30
v 97.71 -78.51 626.91
v 96.78 -76.65 625.47
v 102.71 -47.57 650.68
v 108.82 -49.21 650.68
v 99.43 -77.36 625.47
v 90.57 -105.15 594.68
v 80.06 -79.53 577.14
v 112.48 -88.21 577.14
v 83.44 -131.80 557.63
v 78.77 -117.64 548.92
v 94.56 -121.86 548.92
v 76.31 -158.44 515.75
v 68.68 -119.30 493.43
v 102.47 -128.34 493.43
v 69.17 -185.09 469.04
v 65.93 -167.96 460.22
v 80.54 -171.87 460.22
v 62.04 -211.73 417.50
v 54.64 -172.83 399.27
v 87.89 -181.73 399.27
v 54.91 -238.38 361.13
v 53.49 -224.25 354.90
v 63.20 -226.85 354.90
v 47.78 -265.02 299.94
v 46.00 -240.68 289.94
v 61.48 -244.82 289.94
v 40.64 -291.67 233.91
v 40.31 -287.55 232.34
v 42.99 -288.27 232.34
v 33.51 -318.31 163.05
v 119.38 -29.59 651.57
v 144.77 -9.25 626.47
v 144.42 -11.09 624.78
v 119.11 -34.11 647.63
v 114.92 -28.87 647.63
v 142.90 -9.19 624.78
v 170.16 11.08 596.60
v 167.56 -13.54 579.03
v 145.56 13.92 579.03
v 195.54 31.42 561.96
v 192.19 18.80 552.73
v 182.49 30.90 552.73
v 220.93 51.75 522.55
v 208.96 18.60 499.15
v 185.96 47.31 499.15
v 246.31 72.09 478.38
v 240.99 57.49 469.10
v 230.91 70.08 469.10
v 271.70 92.42 429.44
v 258.85 59.45 410.02
v 236.71 87.08 410.02
v 297.08 112.76 375.74
v 290.89 101.73 368.94
v 284.97 109.12 368.94
v 322.47 133.09 317.27
v 311.75 114.01 306.42
v 301.51 126.80 306.42
v 347.85 153.43 254.03
v 345.99 150.22 252.31
v 344.31 152.31 252.31
v 373.24 173.76 186.02
v 94.46 -38.03 648.84
v 57.63 -37.22 652.62
v 57.62 -35.72 650.60
v 94.05 -34.46 644.04
v 93.89 -41.58 644.04
v 57.56 -38.72 650.60
v 20.79 -36.41 650.18
v 25.05 -19.20 624.43
v 24.29 -53.79 624.43
v -16.04 -35.59 641.52
v -11.57 -27.15 628.11
v -11.95 -44.23 628.11
v -52.88 -34.78 626.65
v -34.99 -17.70 590.78
v -35.76 -52.64 590.78
v -89.71 -33.97 605.56
v -80.49 -25.44 591.80
v -80.87 -42.89 591.80
v -126.55 -33.16 578.25
v -102.19 -16.09 549.21
v -102.97 -51.28 549.21
v -163.38 -32.34 544.72
v -153.78 -26.38 535.19
v -154.05 -38.73 535.19
v -200.22 -31.53 504.98
v -182.04 -23.63 489.50
v -182.41 -40.23 489.50
v -237.06 -30.72 459.02
v -233.85 -29.37 456.64
v -233.92 -32.21 456.64
v -273.89 -29.91 406.84
v 117.87 -48.70 646.12
v 135.83 -68.47 614.92
v 133.75 -68.05 613.57
v 112.95 -47.90 642.78
v 117.54 -43.73 642.78
v 135.61 -66.35 613.57
v 153.79 -88.24 578.30
v 129.19 -85.11 565.50
v 153.02 -63.45 565.50
v 171.74 -108.01 536.28
v 158.94 -104.88 529.76
v 169.86 -94.96 529.76
v 189.70 -127.77 488.83
v 156.96 -115.08 472.10
v 180.20 -93.97 472.10
v 207.66 -147.54 435.98
v 192.85 -143.33 429.69
v 204.89 -132.39 429.69
v 225.62 -167.31 377.70
v 193.10 -155.47 364.29
v 216.95 -133.81 364.29
v 243.57 -187.08 314.01
v 232.37 -181.81 309.42
v 239.41 -175.42 309.42
v 261.53 -206.85 244.91
v 242.54 -197.40 237.56
v 253.95 -187.03 237.56
v 279.49 -226.61 170.39
v 276.47 -224.71 169.21
v 277.89 -223.43 169.21
v 297.45 -246.38 90.46
v 109.65 -24.39 643.39
v 112.27 6.22 617.00
v 113.61 4.69 615.50
v 113.01 -27.80 639.77
v 105.76 -27.18 639.77
v 110.69 4.94 615.50
v 114.89 36.83 585.20
v 131.20 14.60 566.71
v 95.03 17.70 566.71
v 117.51 67.44 548.01
v 126.00 55.05 539.06
v 107.03 56.67 539.06
v 120.12 98.05 505.42
v 137.01 61.92 481.97
v 97.34 65.31 481.97
v 122.74 128.66 457.43
v 130.77 113.00 448.39
v 112.17 114.59 448.39
v 125.36 159.27 404.04
v 136.88 121.65 384.04
v 107.62 124.15 384.04
v 127.98 189.89 345.25
v 132.11 176.25 338.65
v 121.59 177.16 338.65
v 130.60 220.50 281.07
v 139.12 197.36 270.81
v 118.27 199.14 270.81
v 133.21 251.11 211.48
v 134.18 247.07 209.81
v 131.57 247.30 209.81
v 135.83 281.72 136.50
v 97.04 -46.44 640.66
v 64.67 -69.41 638.20
v 64.00 -68.02 636.21
v 95.29 -43.45 635.76
v 99.29 -49.08 635.76
v 65.77 -70.51 636.21
v 32.31 -92.38 630.37
v 29.40 -76.17 603.90
v 46.65 -100.48 603.90
v -0.06 -115.35 617.18
v -1.17 -105.01 604.47
v 9.34 -119.81 604.47
v -32.43 -138.32 598.64
v -28.32 -112.22 564.14
v -6.44 -143.06 564.14
v -64.79 -161.29 574.74
v -60.67 -150.37 560.28
v -53.12 -161.01 560.28
v -97.16 -184.26 545.47
v -85.36 -158.64 515.09
v -69.08 -181.57 515.09
v -129.53 -207.23 510.85
v -125.37 -197.08 500.99
v -118.57 -206.65 500.99
v -161.89 -230.20 470.87
v -152.36 -213.58 454.69
v -143.06 -226.68 454.69
v -194.26 -253.17 425.53
v -192.63 -250.22 423.02
v -190.94 -252.60 423.02
v -226.63 -276.14 374.83
v 122.35 -36.63 637.93
v 155.63 -32.55 628.75
v 155.14 -34.16 626.88
v 121.41 -39.96 633.03
v 120.63 -33.63 633.03
v 154.76 -31.11 626.88
v 188.91 -28.47 613.28
v 179.32 -44.60 592.60
v 175.71 -15.14 592.60
v 222.19 -24.39 591.51
v 215.31 -32.13 581.05
v 213.65 -18.54 581.05
v 255.47 -20.31 563.44
v 235.04 -42.41 538.76
v 230.30 -3.80 538.76
v 288.75 -16.23 529.07
v 278.12 -23.87 518.81
v 276.58 -11.38 518.81
v 322.03 -12.14 488.41
v 295.93 -27.77 467.13
v 292.92 -3.29 467.13
v 355.31 -8.06 441.45
v 345.67 -13.91 434.58
v 344.54 -4.72 434.58
v 388.59 -3.98 388.20
v 371.56 -13.91 377.43
v 369.66 1.54 377.43
v 421.87 0.10 328.65
v 418.78 -1.18 326.93
v 418.56 0.60 326.93
v 455.15 4.18 262.81
v 98.93 -28.08 635.21
v 71.96 0.96 632.96
v 73.22 1.78 630.94
v 101.76 -25.82 630.43
v 96.47 -30.74 630.43
v 71.04 -0.24 630.94
v 44.98 30.00 625.15
v 58.18 34.00 602.53
v 40.02 17.13 602.53
v 18.01 59.03 611.78
v 26.09 60.25 600.47
v 16.20 51.06 600.47
v -8.96 88.07 592.85
v 13.48 87.01 563.55
v -9.56 65.61 563.55
v -35.94 117.11 568.35
v -25.94 115.08 556.30
v -34.64 106.99 556.30
v -62.91 146.15 538.29
v -40.17 138.22 512.60
v -56.68 122.88 512.60
v -89.89 175.19 502.67
v -80.75 172.79 494.44
v -88.17 165.90 494.44
v -116.86 204.23 461.49
v -101.42 198.25 448.07
v -112.03 188.39 448.07
v -143.83 233.26 414.75
v -141.38 231.85 412.58
v -142.60 230.71 412.58
v -170.81 262.30 362.44
v 109.39 -52.31 632.48
v 111.86 -89.49 632.63
v 110.38 -89.48 630.59
v 106.08 -52.55 627.48
v 112.70 -52.11 627.48
v 113.32 -89.28 630.59
v 114.34 -126.67 628.33
v 99.71 -123.97 607.37
v 128.47 -122.06 607.37
v 116.81 -163.86 619.59
v 109.21 -161.15 608.71
v 123.98 -160.17 608.71
v 119.28 -201.04 606.41
v 101.64 -190.11 577.20
v 135.32 -187.87 577.20
v 121.76 -238.22 588.78
v 114.29 -232.31 576.78
v 128.37 -231.37 576.78
v 124.23 -275.40 566.71
v 109.85 -259.12 540.32
v 136.33 -257.36 540.32
v 126.71 -312.59 540.19
v 122.75 -305.72 530.97
v 129.72 -305.26 530.97
v 129.18 -349.77 509.23
v 120.54 -337.58 494.93
v 136.12 -336.54 494.93
v 131.65 -386.95 473.83
v 130.52 -384.66 471.49
v 132.48 -384.53 471.49
v 134.13 -424.13 433.98
v 116.50 -26.88 629.75
v 134.35 -1.42 618.06
v 134.87 -2.92 616.10
v 118.30 -30.26 625.14
v 112.70 -26.33 625.14
v 132.77 -1.45 616.10
v 152.21 24.04 600.15
v 158.47 3.16 580.18
v 130.45 22.81 580.18
v 170.07 49.49 576.01
v 170.09 38.11 565.39
v 159.36 45.64 565.39
v 187.92 74.95 545.66
v 186.66 42.50 520.30
v 157.84 62.72 520.30
v 205.78 100.41 509.08
v 203.85 86.08 499.02
v 192.96 93.72 499.02
v 223.64 125.86 466.29
v 217.09 93.11 445.58
v 195.06 108.56 445.58
v 241.49 151.32 417.27
v 240.01 139.04 410.76
v 230.45 145.74 410.76
v 259.35 176.78 362.04
v 255.85 155.63 351.74
v 240.66 166.29 351.74
v 277.21 202.23 300.58
v 276.38 198.69 298.96
v 274.16 200.25 298.96
v 295.06 227.69 232.91
v 88.74 -28.58 596.29
v 81.25 -24.87 538.74
v 93.42 -26.95 537.01
v 94.66 -29.13 595.49
v 92.77 -32.95 595.49
v 90.28 -33.29 537.01
v 73.76 -21.16 481.99
v 101.74 -27.72 477.84
v 95.94 -39.43 477.84
v 66.27 -17.45 426.04
v 80.54 -20.45 423.91
v 77.31 -26.99 423.91
v 58.78 -13.74 370.89
v 73.48 -19.15 368.51
v 71.99 -22.16 368.51
v 51.29 -10.03 316.54
v 86.65 -41.25 596.49
v 73.96 -42.94 541.43
v 84.19 -38.34 538.92
v 91.95 -38.75 595.19
v 92.42 -42.27 595.19
v 85.03 -44.70 538.92
v 61.27 -44.64 487.17
v 84.95 -33.66 481.25
v 87.00 -49.02 481.25
v 48.59 -46.33 433.71
v 60.78 -41.20 430.63
v 61.70 -48.08 430.63
v 35.90 -48.03 381.06
v 49.18 -42.99 377.67
v 50.04 -49.40 377.67
v 23.21 -49.72 329.20
v 95.31 -55.98 611.57
v 90.01 -63.09 555.91
v 93.59 -51.52 554.08
v 96.55 -50.17 610.71
v 100.52 -53.13 610.71
v 100.07 -56.36 554.08
v 84.71 -70.20 501.05
v 93.25 -43.34 496.71
v 108.01 -54.34 496.71
v 79.41 -77.31 446.99
v 85.04 -64.18 444.69
v 90.39 -68.16 444.69
v 74.11 -84.43 393.73
v 80.50 -70.46 391.21
v 85.66 -74.31 391.21
v 68.81 -91.54 341.27
v 104.80 -60.03 608.65
v 103.35 -68.64 550.77
v 102.20 -56.32 548.95
v 103.57 -54.22 607.82
v 107.87 -54.95 607.82
v 108.48 -57.38 548.95
v 101.90 -77.25 493.68
v 98.09 -48.68 489.44
v 114.87 -51.50 489.44
v 100.45 -85.86 437.40
v 99.69 -71.26 435.17
v 105.96 -72.31 435.17
v 99.00 -94.46 381.91
v 99.70 -78.77 379.44
v 103.49 -79.41 379.44
v 97.55 -103.07 327.23
v 118.62 -57.85 618.01
v 122.20 -64.72 565.57
v 112.64 -55.22 563.66
v 114.53 -53.55 617.17
v 117.44 -52.03 617.17
v 119.89 -51.45 563.66
v 125.78 -71.59 513.92
v 103.40 -49.59 509.41
v 120.58 -40.65 509.41
v 129.36 -78.46 463.08
v 118.32 -66.99 460.73
v 126.28 -62.84 460.73
v 132.93 -85.33 413.03
v 121.84 -72.32 410.43
v 128.63 -68.78 410.43
v 136.51 -92.20 363.79
v 127.65 -49.09 617.80
v 133.27 -52.23 559.64
v 122.11 -49.35 558.40
v 121.86 -47.68 617.16
v 123.42 -44.88 617.16
v 124.98 -44.23 558.40
v 138.88 -55.37 502.29
v 112.48 -50.53 499.42
v 120.95 -35.40 499.42
v 144.49 -58.52 445.73
v 131.41 -54.72 444.21
v 134.42 -49.35 444.21
v 150.10 -61.66 389.98
v 136.49 -56.28 388.29
v 138.41 -52.86 388.29
v 155.71 -64.80 335.02
v 130.20 -34.99 610.53
v 145.32 -32.66 545.46
v 134.59 -37.20 542.79
v 125.14 -37.95 609.25
v 124.49 -33.68 609.25
v 133.72 -31.56 542.79
v 160.45 -30.33 481.19
v 135.57 -41.19 474.91
v 133.46 -27.46 474.91
v 175.57 -28.00 417.72
v 162.84 -33.22 414.48
v 161.85 -26.85 414.48
v 190.69 -25.67 355.05
v 176.66 -30.29 351.47
v 175.92 -25.48 351.47
v 205.81 -23.34 293.18
v 117.25 -18.17 598.83
v 119.79 -12.36 546.06
v 118.74 -25.49 544.55
v 116.73 -24.11 598.15
v 113.25 -22.60 598.15
v 110.88 -22.06 544.55
v 122.33 -6.54 494.09
v 118.97 -37.04 490.48
v 102.26 -29.75 490.48
v 124.87 -0.72 442.92
v 123.20 -16.20 441.07
v 114.65 -12.48 441.07
v 127.40 5.10 392.56
v 124.72 -11.42 390.50
v 117.12 -8.11 390.50
v 129.94 10.92 342.99
v 104.73 -16.66 599.57
v 104.00 -12.42 539.37
v 109.28 -22.50 538.60
v 107.94 -21.71 599.17
v 103.39 -22.49 599.17
v 102.39 -23.69 538.60
v 103.27 -8.19 479.98
v 113.94 -32.44 478.11
v 101.32 -34.62 478.11
v 102.54 -3.95 421.39
v 107.45 -16.47 420.41
v 102.10 -17.39 420.41
v 101.81 0.28 363.59
v 107.83 -12.86 362.55
v 100.53 -14.12 362.55
v 101.08 4.52 306.60
vt 0.0000 0.0000
vt 0.5000 0.0000
vt 0.5000 0.3000
vt 0.5330 0.3000
vt 0.5785 0.0000
vt 0.4215 0.0000
vt 0.4670 0.3000
vt 0.5000 0.6000
vt 0.8512 0.6000
vt 0.1488 0.6000
vt 0.5000 0.9000
vt 0.6850 0.9000
vt 0.3150 0.9000
vt 0.5000 1.2000
vt 0.9896 1.2000
vt 0.0104 1.2000
vt 0.5000 1.5000
vt 0.7093 1.5000
vt 0.2907 1.5000
vt 0.5000 1.8000
vt 0.9671 1.8000
vt 0.0329 1.8000
vt 0.5000 2.1000
vt 0.6662 2.1000
vt 0.3338 2.1000
vt 0.5000 2.4000
vt 0.7826 2.4000
vt 0.2174 2.4000
vt 0.5000 2.7000
vt 0.5473 2.7000
vt 0.4527 2.7000
vt 0.5000 3.0000
vt 0.5270 0.3000
vt 0.5643 0.0000
vt 0.4357 0.0000
vt 0.4730 0.3000
vt 0.5292 0.3000
vt 0.5694 0.0000
vt 0.4306 0.0000
vt 0.4708 0.3000
vt 0.5283 0.3000
vt 0.5674 0.0000
vt 0.4326 0.0000
vt 0.4717 0.3000
vt 0.5317 0.3000
vt 0.5755 0.0000
vt 0.4245 0.0000
vt 0.4683 0.3000
vt 0.5267 0.3000
vt 0.5635 0.0000
vt 0.4365 0.0000
vt 0.4733 0.3000
vt 0.5284 0.3000
vt 0.5676 0.0000
vt 0.4324 0.0000
vt 0.4716 0.3000
vt 0.5334 0.3000
vt 0.5796 0.0000
vt 0.4204 0.0000
vt 0.4666 0.3000
vt 0.5344 0.3000
vt 0.5820 0.0000
vt 0.4180 0.0000
vt 0.4656 0.3000
vt 0.5299 0.3000
vt 0.5713 0.0000
vt 0.4287 0.0000
vt 0.4701 0.3000
vt 0.7128 0.6000
vt 0.6024 0.0000
vt 0.3976 0.0000
vt 0.2872 0.6000
vt 0.9958 1.2000
vt 0.0042 1.2000
vt 0.7516 1.8000
vt 0.2484 1.8000
vt 0.7705 2.4000
vt 0.2295 2.4000
vt 0.6112 0.0000
vt 0.3888 0.0000
vt 0.6043 0.0000
vt 0.3957 0.0000
vt 0.6021 0.0000
vt 0.3979 0.0000
vt 0.5938 0.0000
vt 0.4062 0.0000
vt 0.6102 0.0000
vt 0.3898 0.0000
vt 0.6068 0.0000
vt 0.3932 0.0000
vt 0.5963 0.0000
vt 0.4037 0.0000
vt 0.6120 0.0000
vt 0.3880 0.0000
vn 0.8482 0.5040 -0.1628
vn 0.5254 0.8479 0.0716
vn 0.0236 0.9972 0.0716
vn -0.3824 0.8457 0.3723
vn -0.7782 0.5040 0.3748
vn -0.8148 0.0217 0.5793
vn -0.7555 -0.4822 0.4436
vn -0.3451 -0.8020 0.4876
vn 0.0690 -0.9754 0.2092
vn 0.5617 -0.8058 0.1876
vn 0.8709 -0.4824 -0.0941
vn 0.9996 0.0201 -0.0213
vn 0.8396 0.5021 -0.2073
vn 0.4478 0.8611 -0.2409
vn 0.0039 0.9999 0.0134
vn -0.5078 0.8599 0.0516
vn -0.8109 0.5026 0.2998
vn -0.9671 -0.0036 0.2543
vn -0.7909 -0.4906 0.3657
vn -0.4717 -0.8662 0.1648
vn 0.0427 -0.9884 0.1456
vn 0.4837 -0.8659 -0.1277
vn 0.8586 -0.4929 -0.1411
vn 0.9438 -0.0021 -0.3306
vn 0.8152 0.4974 -0.2966
vn 0.4885 0.8663 -0.1048
vn -0.0262 0.9957 -0.0892
vn -0.4718 0.8660 0.1655
vn -0.8515 0.4957 0.1707
vn -0.9379 0.0042 0.3469
vn -0.8358 -0.5016 0.2234
vn -0.4461 -0.8568 0.2585
vn 0.0048 -0.9999 0.0163
vn 0.5127 -0.8585 -0.0114
vn 0.8306 -0.5007 -0.2438
vn 0.9811 0.0029 -0.1934
vn 0.8519 0.5002 -0.1549
vn 0.4679 0.8641 -0.1853
vn 0.0098 0.9991 0.0411
vn -0.5013 0.8632 0.0595
vn -0.8229 0.4998 0.2701
vn -0.9778 -0.0022 0.2095
vn -0.8139 -0.4957 0.3032
vn -0.4861 -0.8663 0.1150
vn 0.0257 -0.9938 0.1078
vn 0.4825 -0.8662 -0.1296
vn 0.8591 -0.4972 -0.1213
vn 0.9600 -0.0010 -0.2799
vn 0.8366 0.4996 -0.2249
vn 0.5011 0.8643 -0.0428
vn -0.0092 0.9992 -0.0387
vn -0.4730 0.8634 0.1757
vn -0.8533 0.4987 0.1522
vn -0.9571 -0.0010 0.2899
vn -0.8515 -0.5002 0.1570
vn -0.4696 -0.8630 0.1861
vn -0.0069 -0.9996 -0.0289
vn 0.5024 -0.8640 -0.0320
vn 0.8375 -0.5003 -0.2199
vn 0.9892 -0.0006 -0.1468
vn 0.8639 0.4969 -0.0830
vn 0.4890 0.8660 -0.1040
vn 0.0168 0.9954 0.0946
vn -0.4928 0.8660 0.0852
vn -0.8334 0.4948 0.2461
vn -0.9877 0.0005 0.1565
vn -0.8367 -0.5014 0.2202
vn -0.5019 -0.8641 0.0387
vn 0.0077 -0.9990 0.0432
vn 0.4790 -0.8648 -0.1504
vn 0.8584 -0.5013 -0.1086
vn 0.9751 0.0002 -0.2219
vn 0.8547 0.4999 -0.1400
vn 0.5103 0.8592 0.0368
vn 0.0051 0.9996 0.0289
vn -0.4754 0.8573 0.1975
vn -0.8546 0.5008 0.1372
vn -0.9741 -0.0063 0.2260
vn -0.8647 -0.4964 0.0767
vn -0.4895 -0.8669 0.0943
vn -0.0163 -0.9956 -0.0920
vn 0.4943 -0.8668 -0.0662
vn 0.8436 -0.4981 -0.2004
vn 0.9955 -0.0040 -0.0952
vn 0.8706 0.4920 -0.0053
vn 0.5031 0.8641 -0.0154
vn 0.0181 0.9878 0.1545
vn -0.4883 0.8650 0.1153
vn -0.8439 0.4885 0.2218
vn -0.9950 0.0036 0.0999
vn -0.8537 -0.5044 0.1294
vn -0.5114 -0.8581 -0.0459
vn -0.0035 -0.9995 -0.0302
vn 0.4790 -0.8599 -0.1766
vn 0.8591 -0.5025 -0.0977
vn 0.9869 0.0012 -0.1614
vn 0.8652 0.4982 -0.0575
vn 0.5115 0.8519 0.1125
vn 0.0108 0.9957 0.0919
vn -0.4821 0.8494 0.2148
vn -0.8574 0.5006 0.1192
vn -0.9870 -0.0098 0.1606
vn -0.8712 -0.4910 -0.0027
vn -0.5001 -0.8660 0.0045
vn -0.0178 -0.9882 -0.1520
vn 0.4923 -0.8649 -0.0978
vn 0.8506 -0.4942 -0.1794
vn 0.9990 -0.0060 -0.0439
vn 0.8708 0.4876 0.0621
vn 0.5071 0.8600 0.0579
vn 0.0123 0.9799 0.1990
vn -0.4900 0.8616 0.1326
vn -0.8541 0.4836 0.1914
vn -0.9990 0.0059 0.0447
vn -0.8626 -0.5037 0.0473
vn -0.5119 -0.8510 -0.1178
vn -0.0055 -0.9960 -0.0895
vn 0.4846 -0.8533 -0.1924
vn 0.8616 -0.5009 -0.0822
vn 0.9945 0.0022 -0.1046
vn 0.8680 0.4966 0.0063
vn 0.5060 0.8468 0.1638
vn 0.0080 0.9917 0.1285
vn -0.4916 0.8444 0.2128
vn -0.8614 0.4997 0.0915
vn -0.9950 -0.0102 0.0998
vn -0.8710 -0.4867 -0.0675
vn -0.5018 -0.8627 -0.0623
vn -0.0118 -0.9818 -0.1896
vn 0.4956 -0.8614 -0.1114
vn 0.8580 -0.4905 -0.1527
vn 1.0000 -0.0064 0.0016
vn 0.8681 0.4851 0.1052
vn 0.5038 0.8585 0.0958
vn 0.0054 0.9778 0.2097
vn -0.4954 0.8601 0.1218
vn -0.8615 0.4851 0.1501
vn -0.9999 0.0074 -0.0074
vn -0.8657 -0.5003 -0.0139
vn -0.5060 -0.8471 -0.1625
vn -0.0031 -0.9930 -0.1184
vn 0.4931 -0.8493 -0.1885
vn 0.8639 -0.5003 -0.0589
vn 0.9982 0.0036 -0.0594
vn 0.8542 0.5123 -0.0889
vn 0.0004 0.9999 0.0144
vn -0.8577 0.5123 -0.0447
vn -0.8618 -0.4630 -0.2071
vn -0.0080 -0.9506 -0.3104
vn 0.8500 -0.4630 -0.2513
vn 0.7579 0.3390 0.5574
vn 0.0167 0.7623 0.6470
vn -0.7281 0.3390 0.5957
vn -0.7318 -0.5076 0.4548
vn 0.0094 -0.9309 0.3651
vn 0.7543 -0.5076 0.4164
vn -0.5235 -0.7330 -0.4344
vn 0.8997 -0.0476 -0.4339
vn -0.5108 -0.7728 -0.3766
vn 0.9410 -0.1312 -0.3121
vn -0.5894 -0.7577 -0.2803
vn 0.9654 -0.0242 -0.2597
vn -0.6398 -0.7374 -0.2165
vn 0.9772 0.0369 -0.2090
vn -0.6431 -0.7419 -0.1900
vn 0.9789 0.0452 -0.1994
vn -0.6118 -0.7691 -0.1849
vn 0.9921 -0.0260 -0.1231
vn -0.6932 -0.7087 -0.1311
vn 0.9841 0.1050 -0.1430
vn -0.6420 -0.7536 -0.1411
vn 0.9930 0.0240 -0.1153
vn -0.7074 -0.6991 -0.1041
vn 0.9882 0.1164 -0.0997
vn -0.7735 -0.6300 -0.0689
vn 0.9747 0.2124 -0.0689
vn 0.9169 0.1392 -0.3742
vn -0.7250 0.5777 -0.3751
vn 0.9169 0.1832 -0.3545
vn -0.6964 0.6369 -0.3308
vn 0.9360 0.1746 -0.3057
vn -0.7206 0.6288 -0.2923
vn 0.9532 0.1538 -0.2602
vn -0.7306 0.6584 -0.1811
vn 0.9777 0.0794 -0.1946
vn -0.8075 0.5564 -0.1961
vn 0.9789 0.0912 -0.1826
vn -0.8033 0.5650 -0.1882
vn 0.9792 0.1049 -0.1735
vn -0.7934 0.5882 -0.1567
vn 0.9902 0.0409 -0.1332
vn -0.8364 0.5336 -0.1255
vn 0.9928 0.0245 -0.1171
vn -0.8479 0.5169 -0.1178
vn 0.9927 0.0378 -0.1142
vn -0.8411 0.5287 -0.1142
vn -0.7850 0.4334 -0.4427
vn 0.2482 -0.8633 -0.4394
vn -0.8026 0.4781 -0.3566
vn 0.3392 -0.8475 -0.4084
vn -0.8393 0.3717 -0.3969
vn 0.1580 -0.9158 -0.3692
vn -0.8387 0.4487 -0.3087
vn 0.2292 -0.9348 -0.2715
vn -0.8363 0.4839 -0.2578
vn 0.2917 -0.9202 -0.2610
vn -0.8494 0.4666 -0.2467
vn 0.2675 -0.9326 -0.2421
vn -0.8547 0.4668 -0.2272
vn 0.2575 -0.9445 -0.2041
vn -0.8150 0.5568 -0.1602
vn 0.3664 -0.9162 -0.1622
vn -0.8218 0.5487 -0.1535
vn 0.3559 -0.9219 -0.1530
vn -0.8213 0.5527 -0.1413
vn 0.3601 -0.9222 -0.1413
vn -0.0782 -0.8038 -0.5897
vn -0.0430 0.8065 -0.5897
vn 0.0217 -0.8035 -0.5949
vn 0.1054 0.7978 -0.5936
vn 0.1085 -0.8347 -0.5400
vn 0.1639 0.8278 -0.5366
vn 0.1757 -0.8584 -0.4820
vn 0.3679 0.8289 -0.4214
vn 0.1794 -0.9199 -0.3487
vn 0.1888 0.9121 -0.3639
vn 0.2597 -0.8892 -0.3767
vn 0.3397 0.8737 -0.3483
vn 0.2652 -0.9118 -0.3135
vn 0.3066 0.8992 -0.3122
vn 0.2864 -0.9150 -0.2842
vn 0.3580 0.8991 -0.2517
vn 0.2368 -0.9493 -0.2066
vn 0.2781 0.9380 -0.2070
vn 0.2544 -0.9474 -0.1943
vn 0.2959 0.9352 -0.1943
vn 0.3699 0.8662 -0.3359
vn -0.8982 -0.2847 -0.3350
vn 0.3701 0.8812 -0.2942
vn -0.8875 -0.3108 -0.3403
vn 0.2770 0.9097 -0.3095
vn -0.9413 -0.1774 -0.2872
vn 0.3461 0.9053 -0.2462
vn -0.9582 -0.2260 -0.1757
vn 0.4350 0.8819 -0.1820
vn -0.9108 -0.3579 -0.2059
vn 0.3466 0.9156 -0.2038
vn -0.9543 -0.2453 -0.1706
vn 0.3977 0.9020 -0.1678
vn -0.9399 -0.3048 -0.1536
vn 0.4649 0.8758 -0.1297
vn -0.9176 -0.3774 -0.1247
vn 0.4779 0.8708 -0.1158
vn -0.9135 -0.3912 -0.1117
vn 0.5540 0.8286 -0.0804
vn -0.8778 -0.4721 -0.0804
vn -0.8262 -0.3257 -0.4597
vn 0.7588 -0.4627 -0.4584
vn -0.8468 -0.3466 -0.4035
vn 0.7726 -0.5081 -0.3808
vn -0.8700 -0.3488 -0.3484
vn 0.7981 -0.4922 -0.3476
vn -0.8733 -0.3686 -0.3186
vn 0.7844 -0.5797 -0.2207
vn -0.9303 -0.2842 -0.2320
vn 0.8693 -0.4289 -0.2456
vn -0.9134 -0.3322 -0.2353
vn 0.8326 -0.5362 -0.1386
vn -0.9647 -0.2134 -0.1541
vn 0.9145 -0.3737 -0.1550
vn -0.9641 -0.2222 -0.1453
vn 0.9131 -0.3726 -0.1654
vn -0.9473 -0.2787 -0.1582
vn 0.8859 -0.4381 -0.1526
vn -0.9758 -0.1883 -0.1109
vn 0.9297 -0.3512 -0.1109
vn 0.5025 -0.6464 -0.5742
vn -0.4463 0.6862 -0.5744
vn 0.5557 -0.5802 -0.5955
vn -0.2566 0.7796 -0.5713
vn 0.6312 -0.6286 -0.4544
vn -0.4132 0.7837 -0.4637
vn 0.6731 -0.5438 -0.5012
vn -0.1757 0.8811 -0.4391
vn 0.7042 -0.6041 -0.3731
vn -0.3098 0.8822 -0.3546
vn 0.7119 -0.6429 -0.2828
vn -0.3640 0.8895 -0.2763
vn 0.7263 -0.6380 -0.2557
vn -0.3739 0.8882 -0.2671
vn 0.7613 -0.5846 -0.2804
vn -0.2776 0.9265 -0.2541
vn 0.7449 -0.6329 -0.2111
vn -0.3527 0.9113 -0.2125
vn 0.7656 -0.6067 -0.2139
vn -0.3199 0.9230 -0.2139
vn -0.2424 0.8239 -0.5124
vn -0.0294 -0.8572 -0.5142
vn -0.3502 0.7554 -0.5538
vn -0.2296 -0.8210 -0.5228
vn -0.3908 0.8050 -0.4465
vn -0.2100 -0.8774 -0.4315
vn -0.4044 0.8420 -0.3571
vn -0.1585 -0.9113 -0.3800
vn -0.4607 0.8160 -0.3492
vn -0.2842 -0.9053 -0.3156
vn -0.4025 0.8832 -0.2408
vn -0.2012 -0.9561 -0.2132
vn -0.3832 0.9033 -0.1931
vn -0.1508 -0.9688 -0.1967
vn -0.4087 0.8933 -0.1869
vn -0.1816 -0.9657 -0.1855
vn -0.4138 0.8943 -0.1700
vn -0.1886 -0.9682 -0.1646
vn -0.3293 0.9380 -0.1083
vn -0.0929 -0.9898 -0.1083
vn -0.5617 -0.5682 -0.6014
vn 0.6087 0.5176 -0.6013
vn -0.5136 -0.6329 -0.5793
vn 0.7311 0.3879 -0.5613
vn -0.5453 -0.7110 -0.4440
vn 0.7453 0.4959 -0.4457
vn -0.4991 -0.7484 -0.4368
vn 0.8179 0.4007 -0.4128
vn -0.5103 -0.7798 -0.3626
vn 0.8261 0.4390 -0.3532
vn -0.5240 -0.7972 -0.2999
vn 0.8574 0.4358 -0.2738
vn -0.5485 -0.8015 -0.2381
vn 0.8285 0.5002 -0.2519
vn -0.4718 -0.8359 -0.2804
vn 0.8807 0.3948 -0.2618
vn -0.5126 -0.8300 -0.2198
vn 0.8683 0.4469 -0.2151
vn -0.5849 -0.7986 -0.1417
vn 0.8395 0.5245 -0.1417
vn 0.8315 0.0531 -0.5530
vn -0.8310 -0.0602 -0.5530
vn 0.8044 0.1207 -0.5817
vn -0.8139 0.0347 -0.5799
vn 0.8173 0.1828 -0.5465
vn -0.8345 0.0791 -0.5452
vn 0.8232 0.2376 -0.5156
vn -0.8476 0.2082 -0.4881
vn 0.8665 0.2597 -0.4262
vn -0.8935 0.1469 -0.4244
vn 0.8699 0.2933 -0.3966
vn -0.9017 0.2340 -0.3635
vn 0.9045 0.2859 -0.3165
vn -0.9352 0.1876 -0.3003
vn 0.9435 0.2469 -0.2211
vn -0.9652 0.0865 -0.2466
vn 0.9066 0.3211 -0.2738
vn -0.9414 0.2031 -0.2693
vn 0.9431 0.2704 -0.1937
vn -0.9706 0.1430 -0.1937
vn -0.7879 0.3076 -0.5335
vn 0.5545 -0.6403 -0.5316
vn -0.8505 0.2860 -0.4414
vn 0.5986 -0.6453 -0.4746
vn -0.8712 0.1768 -0.4581
vn 0.4244 -0.8056 -0.4134
vn -0.9115 0.2798 -0.3015
vn 0.5766 -0.7574 -0.3063
vn -0.9271 0.2524 -0.2769
vn 0.5447 -0.7967 -0.2618
vn -0.9335 0.2814 -0.2221
vn 0.5715 -0.7962 -0.1986
vn -0.9352 0.3028 -0.1835
vn 0.6095 -0.7672 -0.1999
vn -0.9529 0.2238 -0.2049
vn 0.5314 -0.8243 -0.1951
vn -0.9537 0.2435 -0.1762
vn 0.5529 -0.8150 -0.1735
vn -0.9476 0.2859 -0.1425
vn 0.5915 -0.7936 -0.1425
vn -0.0997 -0.9937 -0.0511
vn 0.7318 0.6806 -0.0350
vn -0.1740 -0.9839 -0.0413
vn 0.6806 0.7326 -0.0110
vn -0.2329 -0.9719 -0.0332
vn 0.6309 0.7749 -0.0392
vn -0.2105 -0.9769 -0.0371
vn 0.6542 0.7563 0.0032
vn -0.3473 -0.9376 -0.0161
vn 0.5351 0.8446 -0.0161
vn 0.4125 -0.9085 -0.0671
vn 0.1606 0.9850 -0.0635
vn 0.3963 -0.9159 -0.0641
vn 0.1410 0.9876 -0.0692
vn 0.4059 -0.9114 -0.0675
vn 0.1546 0.9862 -0.0589
vn 0.3740 -0.9254 -0.0604
vn 0.1204 0.9914 -0.0512
vn 0.3422 -0.9381 -0.0531
vn 0.0841 0.9950 -0.0531
vn 0.9738 -0.2177 -0.0649
vn -0.4850 0.8733 -0.0459
vn 0.9516 -0.3026 -0.0527
vn -0.5616 0.8260 -0.0488
vn 0.9493 -0.3101 -0.0523
vn -0.5658 0.8241 -0.0271
vn 0.9159 -0.3996 -0.0378
vn -0.6440 0.7644 -0.0310
vn 0.9063 -0.4211 -0.0345
vn -0.6626 0.7482 -0.0345
vn 0.9783 0.2000 -0.0543
vn -0.8579 0.5130 -0.0299
vn 0.9955 0.0871 -0.0384
vn -0.9123 0.4055 -0.0579
vn 0.9911 0.1255 -0.0447
vn -0.8945 0.4463 -0.0244
vn 0.9983 0.0473 -0.0334
vn -0.9267 0.3758 -0.0067
vn 0.9987 -0.0474 -0.0190
vn -0.9591 0.2825 -0.0190
vn 0.7281 0.6843 -0.0400
vn -0.9776 -0.2053 -0.0470
vn 0.7088 0.7040 -0.0445
vn -0.9829 -0.1778 -0.0479
vn 0.7050 0.7077 -0.0460
vn -0.9846 -0.1709 -0.0375
vn 0.7242 0.6883 -0.0427
vn -0.9803 -0.1962 -0.0226
vn 0.7638 0.6445 -0.0344
vn -0.9659 -0.2565 -0.0344
vn 0.2396 0.9704 -0.0293
vn -0.7024 -0.7113 -0.0266
vn 0.2532 0.9670 -0.0282
vn -0.6886 -0.7226 -0.0612
vn 0.1841 0.9822 -0.0363
vn -0.7434 -0.6687 -0.0123
vn 0.2815 0.9592 -0.0257
vn -0.6730 -0.7397 -0.0015
vn 0.3691 0.9293 -0.0154
vn -0.5994 -0.8003 -0.0154
vn -0.4884 0.8687 -0.0824
vn -0.2092 -0.9760 -0.0603
vn -0.3773 0.9245 -0.0552
vn -0.0804 -0.9950 -0.0598
vn -0.3871 0.9202 -0.0584
vn -0.0932 -0.9942 -0.0538
vn -0.3672 0.9286 -0.0541
vn -0.0743 -0.9965 -0.0382
vn -0.3038 0.9520 -0.0384
vn -0.0031 -0.9993 -0.0384
vn -0.9951 0.0915 -0.0378
vn 0.7442 -0.6668 -0.0397
vn -0.9957 0.0839 -0.0392
vn 0.7380 -0.6745 -0.0217
vn -0.9929 0.1136 -0.0363
vn 0.7588 -0.6503 -0.0370
vn -0.9931 0.1114 -0.0372
vn 0.7563 -0.6539 -0.0196
vn -0.9860 0.1640 -0.0312
vn 0.7910 -0.6110 -0.0312
vn -0.8449 -0.5342 -0.0274
vn 0.9749 -0.2222 -0.0118
vn -0.8862 -0.4628 -0.0221
vn 0.9898 -0.1420 0.0081
vn -0.9156 -0.4016 -0.0176
vn 0.9973 -0.0731 -0.0083
vn -0.9313 -0.3639 -0.0149
vn 0.9991 -0.0307 -0.0288
vn -0.9097 -0.4149 -0.0192
vn 0.9960 -0.0870 -0.0192
usemtl TrunkA
f 1/1/1 2/1/1 3/1/1
f 3/1/2 2/1/2 4/1/2
f 2/1/3 5/1/3 4/1/3
f 4/1/4 5/1/4 6/1/4
f 5/1/5 7/1/5 6/1/5
f 6/1/6 7/1/6 8/1/6
f 7/1/7 9/1/7 8/1/7
f 8/1/8 9/1/8 10/1/8
f 9/1/9 11/1/9 10/1/9
f 10/1/10 11/1/10 12/1/10
f 11/1/11 1/1/11 12/1/11
f 12/1/12 1/1/12 3/1/12
f 14/1/25 13/1/25 19/1/25
f 19/1/26 13/1/26 20/1/26
f 13/1/27 15/1/27 20/1/27
f 20/1/28 15/1/28 21/1/28
f 15/1/29 16/1/29 21/1/29
f 21/1/30 16/1/30 22/1/30
f 16/1/31 17/1/31 22/1/31
f 22/1/32 17/1/32 23/1/32
f 17/1/33 18/1/33 23/1/33
f 23/1/34 18/1/34 24/1/34
f 18/1/35 14/1/35 24/1/35
f 24/1/36 14/1/36 19/1/36
f 26/1/49 25/1/49 31/1/49
f 31/1/50 25/1/50 32/1/50
f 25/1/51 27/1/51 32/1/51
f 32/1/52 27/1/52 33/1/52
f 27/1/53 28/1/53 33/1/53
f 33/1/54 28/1/54 34/1/54
f 28/1/55 29/1/55 34/1/55
f 34/1/56 29/1/56 35/1/56
f 29/1/57 30/1/57 35/1/57
f 35/1/58 30/1/58 36/1/58
f 30/1/59 26/1/59 36/1/59
f 36/1/60 26/1/60 31/1/60
f 38/1/73 37/1/73 43/1/73
f 43/1/74 37/1/74 44/1/74
f 37/1/75 39/1/75 44/1/75
f 44/1/76 39/1/76 45/1/76
f 39/1/77 40/1/77 45/1/77
f 45/1/78 40/1/78 46/1/78
f 40/1/79 41/1/79 46/1/79
f 46/1/80 41/1/80 47/1/80
f 41/1/81 42/1/81 47/1/81
f 47/1/82 42/1/82 48/1/82
f 42/1/83 38/1/83 48/1/83
f 48/1/84 38/1/84 43/1/84
f 50/1/97 49/1/97 55/1/97
f 55/1/98 49/1/98 56/1/98
f 49/1/99 51/1/99 56/1/99
f 56/1/100 51/1/100 57/1/100
f 51/1/101 52/1/101 57/1/101
f 57/1/102 52/1/102 58/1/102
f 52/1/103 53/1/103 58/1/103
f 58/1/104 53/1/104 59/1/104
f 53/1/105 54/1/105 59/1/105
f 59/1/106 54/1/106 60/1/106
f 54/1/107 50/1/107 60/1/107
f 60/1/108 50/1/108 55/1/108
f 62/1/121 61/1/121 67/1/121
f 67/1/122 61/1/122 68/1/122
f 61/1/123 63/1/123 68/1/123
f 68/1/124 63/1/124 69/1/124
f 63/1/125 64/1/125 69/1/125
f 69/1/126 64/1/126 70/1/126
f 64/1/127 65/1/127 70/1/127
f 70/1/128 65/1/128 71/1/128
f 65/1/129 66/1/129 71/1/129
f 71/1/130 66/1/130 72/1/130
f 66/1/131 62/1/131 72/1/131
f 72/1/132 62/1/132 67/1/132
usemtl TrunkB
f 3/1/13 13/1/13 14/1/13
f 3/1/14 4/1/14 13/1/14
f 4/1/15 15/1/15 13/1/15
f 4/1/16 6/1/16 15/1/16
f 6/1/17 16/1/17 15/1/17
f 6/1/18 8/1/18 16/1/18
f 8/1/19 17/1/19 16/1/19
f 8/1/20 10/1/20 17/1/20
f 10/1/21 18/1/21 17/1/21
f 10/1/22 12/1/22 18/1/22
f 12/1/23 14/1/23 18/1/23
f 12/1/24 3/1/24 14/1/24
f 19/1/37 25/1/37 26/1/37
f 19/1/38 20/1/38 25/1/38
f 20/1/39 27/1/39 25/1/39
f 20/1/40 21/1/40 27/1/40
f 21/1/41 28/1/41 27/1/41
f 21/1/42 22/1/42 28/1/42
f 22/1/43 29/1/43 28/1/43
f 22/1/44 23/1/44 29/1/44
f 23/1/45 30/1/45 29/1/45
f 23/1/46 24/1/46 30/1/46
f 24/1/47 26/1/47 30/1/47
f 24/1/48 19/1/48 26/1/48
f 31/1/61 37/1/61 38/1/61
f 31/1/62 32/1/62 37/1/62
f 32/1/63 39/1/63 37/1/63
f 32/1/64 33/1/64 39/1/64
f 33/1/65 40/1/65 39/1/65
f 33/1/66 34/1/66 40/1/66
f 34/1/67 41/1/67 40/1/67
f 34/1/68 35/1/68 41/1/68
f 35/1/69 42/1/69 41/1/69
f 35/1/70 36/1/70 42/1/70
f 36/1/71 38/1/71 42/1/71
f 36/1/72 31/1/72 38/1/72
f 43/1/85 49/1/85 50/1/85
f 43/1/86 44/1/86 49/1/86
f 44/1/87 51/1/87 49/1/87
f 44/1/88 45/1/88 51/1/88
f 45/1/89 52/1/89 51/1/89
f 45/1/90 46/1/90 52/1/90
f 46/1/91 53/1/91 52/1/91
f 46/1/92 47/1/92 53/1/92
f 47/1/93 54/1/93 53/1/93
f 47/1/94 48/1/94 54/1/94
f 48/1/95 50/1/95 54/1/95
f 48/1/96 43/1/96 50/1/96
f 55/1/109 61/1/109 62/1/109
f 55/1/110 56/1/110 61/1/110
f 56/1/111 63/1/111 61/1/111
f 56/1/112 57/1/112 63/1/112
f 57/1/113 64/1/113 63/1/113
f 57/1/114 58/1/114 64/1/114
f 58/1/115 65/1/115 64/1/115
f 58/1/116 59/1/116 65/1/116
f 59/1/117 66/1/117 65/1/117
f 59/1/118 60/1/118 66/1/118
f 60/1/119 62/1/119 66/1/119
f 60/1/120 55/1/120 62/1/120
f 67/1/133 73/1/133 74/1/133
f 67/1/134 68/1/134 73/1/134
f 68/1/135 75/1/135 73/1/135
f 68/1/136 69/1/136 75/1/136
f 69/1/137 76/1/137 75/1/137
f 69/1/138 70/1/138 76/1/138
f 70/1/139 77/1/139 76/1/139
f 70/1/140 71/1/140 77/1/140
f 71/1/141 78/1/141 77/1/141
f 71/1/142 72/1/142 78/1/142
f 72/1/143 74/1/143 78/1/143
f 72/1/144 67/1/144 74/1/144
usemtl Husk
f 74/1/145 73/1/145 79/1/145 80/1/145
f 73/1/146 75/1/146 81/1/146 79/1/146
f 75/1/147 76/1/147 82/1/147 81/1/147
f 76/1/148 77/1/148 83/1/148 82/1/148
f 77/1/149 78/1/149 84/1/149 83/1/149
f 78/1/150 74/1/150 80/1/150 84/1/150
f 80/1/151 79/1/151 85/1/151
f 79/1/152 81/1/152 85/1/152
f 81/1/153 82/1/153 85/1/153
f 82/1/154 83/1/154 85/1/154
f 83/1/155 84/1/155 85/1/155
f 84/1/156 80/1/156 85/1/156
usemtl Dead
f 86/2/157 87/3/157 88/4/157 89/5/157
f 90/6/158 91/7/158 87/3/158 86/2/158
f 87/3/159 92/8/159 93/9/159 88/4/159
f 91/7/160 94/10/160 92/8/160 87/3/160
f 92/8/161 95/11/161 96/12/161 93/9/161
f 94/10/162 97/13/162 95/11/162 92/8/162
f 95/11/163 98/14/163 99/15/163 96/12/163
f 97/13/164 100/16/164 98/14/164 95/11/164
f 98/14/165 101/17/165 102/18/165 99/15/165
f 100/16/166 103/19/166 101/17/166 98/14/166
f 101/17/167 104/20/167 105/21/167 102/18/167
f 103/19/168 106/22/168 104/20/168 101/17/168
f 104/20/169 107/23/169 108/24/169 105/21/169
f 106/22/170 109/25/170 107/23/170 104/20/170
f 107/23/171 110/26/171 111/27/171 108/24/171
f 109/25/172 112/28/172 110/26/172 107/23/172
f 110/26/173 113/29/173 114/30/173 111/27/173
f 112/28/174 115/31/174 113/29/174 110/26/174
f 113/29/175 116/32/175 114/30/175
f 115/31/176 116/32/176 113/29/176
f 117/2/177 118/3/177 119/33/177 120/34/177
f 121/35/178 122/36/178 118/3/178 117/2/178
f 118/3/179 123/8/179 124/9/179 119/33/179
f 122/36/180 125/10/180 123/8/180 118/3/180
f 123/8/181 126/11/181 127/12/181 124/9/181
f 125/10/182 128/13/182 126/11/182 123/8/182
f 126/11/183 129/14/183 130/15/183 127/12/183
f 128/13/184 131/16/184 129/14/184 126/11/184
f 129/14/185 132/17/185 133/18/185 130/15/185
f 131/16/186 134/19/186 132/17/186 129/14/186
f 132/17/187 135/20/187 136/21/187 133/18/187
f 134/19/188 137/22/188 135/20/188 132/17/188
f 135/20/189 138/23/189 139/24/189 136/21/189
f 137/22/190 140/25/190 138/23/190 135/20/190
f 138/23/191 141/26/191 142/27/191 139/24/191
f 140/25/192 143/28/192 141/26/192 138/23/192
f 141/26/193 144/29/193 145/30/193 142/27/193
f 143/28/194 146/31/194 144/29/194 141/26/194
f 144/29/195 147/32/195 145/30/195
f 146/31/196 147/32/196 144/29/196
f 148/2/197 149/3/197 150/37/197 151/38/197
f 152/39/198 153/40/198 149/3/198 148/2/198
f 149/3/199 154/8/199 155/9/199 150/37/199
f 153/40/200 156/10/200 154/8/200 149/3/200
f 154/8/201 157/11/201 158/12/201 155/9/201
f 156/10/202 159/13/202 157/11/202 154/8/202
f 157/11/203 160/14/203 161/15/203 158/12/203
f 159/13/204 162/16/204 160/14/204 157/11/204
f 160/14/205 163/17/205 164/18/205 161/15/205
f 162/16/206 165/19/206 163/17/206 160/14/206
f 163/17/207 166/20/207 167/21/207 164/18/207
f 165/19/208 168/22/208 166/20/208 163/17/208
f 166/20/209 169/23/209 170/24/209 167/21/209
f 168/22/210 171/25/210 169/23/210 166/20/210
f 169/23/211 172/26/211 173/27/211 170/24/211
f 171/25/212 174/28/212 172/26/212 169/23/212
f 172/26/213 175/29/213 176/30/213 173/27/213
f 174/28/214 177/31/214 175/29/214 172/26/214
f 175/29/215 178/32/215 176/30/215
f 177/31/216 178/32/216 175/29/216
f 179/2/217 180/3/217 181/41/217 182/42/217
f 183/43/218 184/44/218 180/3/218 179/2/218
f 180/3/219 185/8/219 186/9/219 181/41/219
f 184/44/220 187/10/220 185/8/220 180/3/220
f 185/8/221 188/11/221 189/12/221 186/9/221
f 187/10/222 190/13/222 188/11/222 185/8/222
f 188/11/223 191/14/223 192/15/223 189/12/223
f 190/13/224 193/16/224 191/14/224 188/11/224
f 191/14/225 194/17/225 195/18/225 192/15/225
f 193/16/226 196/19/226 194/17/226 191/14/226
f 194/17/227 197/20/227 198/21/227 195/18/227
f 196/19/228 199/22/228 197/20/228 194/17/228
f 197/20/229 200/23/229 201/24/229 198/21/229
f 199/22/230 202/25/230 200/23/230 197/20/230
f 200/23/231 203/26/231 204/27/231 201/24/231
f 202/25/232 205/28/232 203/26/232 200/23/232
f 203/26/233 206/29/233 207/30/233 204/27/233
f 205/28/234 208/31/234 206/29/234 203/26/234
f 206/29/235 209/32/235 207/30/235
f 208/31/236 209/32/236 206/29/236
f 210/2/237 211/3/237 212/45/237 213/46/237
f 214/47/238 215/48/238 211/3/238 210/2/238
f 211/3/239 216/8/239 217/9/239 212/45/239
f 215/48/240 218/10/240 216/8/240 211/3/240
f 216/8/241 219/11/241 220/12/241 217/9/241
f 218/10/242 221/13/242 219/11/242 216/8/242
f 219/11/243 222/14/243 223/15/243 220/12/243
f 221/13/244 224/16/244 222/14/244 219/11/244
f 222/14/245 225/17/245 226/18/245 223/15/245
f 224/16/246 227/19/246 225/17/246 222/14/246
f 225/17/247 228/20/247 229/21/247 226/18/247
f 227/19/248 230/22/248 228/20/248 225/17/248
f 228/20/249 231/23/249 232/24/249 229/21/249
f 230/22/250 233/25/250 231/23/250 228/20/250
f 231/23/251 234/26/251 235/27/251 232/24/251
f 233/25/252 236/28/252 234/26/252 231/23/252
f 234/26/253 237/29/253 238/30/253 235/27/253
f 236/28/254 239/31/254 237/29/254 234/26/254
f 237/29/255 240/32/255 238/30/255
f 239/31/256 240/32/256 237/29/256
f 241/2/257 242/3/257 243/49/257 244/50/257
f 245/51/258 246/52/258 242/3/258 241/2/258
f 242/3/259 247/8/259 248/9/259 243/49/259
f 246/52/260 249/10/260 247/8/260 242/3/260
f 247/8/261 250/11/261 251/12/261 248/9/261
f 249/10/262 252/13/262 250/11/262 247/8/262
f 250/11/263 253/14/263 254/15/263 251/12/263
f 252/13/264 255/16/264 253/14/264 250/11/264
f 253/14/265 256/17/265 257/18/265 254/15/265
f 255/16/266 258/19/266 256/17/266 253/14/266
f 256/17/267 259/20/267 260/21/267 257/18/267
f 258/19/268 261/22/268 259/20/268 256/17/268
f 259/20/269 262/23/269 263/24/269 260/21/269
f 261/22/270 264/25/270 262/23/270 259/20/270
f 262/23/271 265/26/271 266/27/271 263/24/271
f 264/25/272 267/28/272 265/26/272 262/23/272
f 265/26/273 268/29/273 269/30/273 266/27/273
f 267/28/274 270/31/274 268/29/274 265/26/274
f 268/29/275 271/32/275 269/30/275
f 270/31/276 271/32/276 268/29/276
f 272/2/277 273/3/277 274/53/277 275/54/277
f 276/55/278 277/56/278 273/3/278 272/2/278
f 273/3/279 278/8/279 279/9/279 274/53/279
f 277/56/280 280/10/280 278/8/280 273/3/280
f 278/8/281 281/11/281 282/12/281 279/9/281
f 280/10/282 283/13/282 281/11/282 278/8/282
f 281/11/283 284/14/283 285/15/283 282/12/283
f 283/13/284 286/16/284 284/14/284 281/11/284
f 284/14/285 287/17/285 288/18/285 285/15/285
f 286/16/286 289/19/286 287/17/286 284/14/286
f 287/17/287 290/20/287 291/21/287 288/18/287
f 289/19/288 292/22/288 290/20/288 287/17/288
f 290/20/289 293/23/289 294/24/289 291/21/289
f 292/22/290 295/25/290 293/23/290 290/20/290
f 293/23/291 296/26/291 297/27/291 294/24/291
f 295/25/292 298/28/292 296/26/292 293/23/292
f 296/26/293 299/29/293 300/30/293 297/27/293
f 298/28/294 301/31/294 299/29/294 296/26/294
f 299/29/295 302/32/295 300/30/295
f 301/31/296 302/32/296 299/29/296
f 303/2/297 304/3/297 305/45/297 306/46/297
f 307/47/298 308/48/298 304/3/298 303/2/298
f 304/3/299 309/8/299 310/9/299 305/45/299
f 308/48/300 311/10/300 309/8/300 304/3/300
f 309/8/301 312/11/301 313/12/301 310/9/301
f 311/10/302 314/13/302 312/11/302 309/8/302
f 312/11/303 315/14/303 316/15/303 313/12/303
f 314/13/304 317/16/304 315/14/304 312/11/304
f 315/14/305 318/17/305 319/18/305 316/15/305
f 317/16/306 320/19/306 318/17/306 315/14/306
f 318/17/307 321/20/307 322/21/307 319/18/307
f 320/19/308 323/22/308 321/20/308 318/17/308
f 321/20/309 324/23/309 325/24/309 322/21/309
f 323/22/310 326/25/310 324/23/310 321/20/310
f 324/23/311 327/26/311 328/27/311 325/24/311
f 326/25/312 329/28/312 327/26/312 324/23/312
f 327/26/313 330/29/313 331/30/313 328/27/313
f 329/28/314 332/31/314 330/29/314 327/26/314
f 330/29/315 333/32/315 331/30/315
f 332/31/316 333/32/316 330/29/316
f 334/2/317 335/3/317 336/57/317 337/58/317
f 338/59/318 339/60/318 335/3/318 334/2/318
f 335/3/319 340/8/319 341/9/319 336/57/319
f 339/60/320 342/10/320 340/8/320 335/3/320
f 340/8/321 343/11/321 344/12/321 341/9/321
f 342/10/322 345/13/322 343/11/322 340/8/322
f 343/11/323 346/14/323 347/15/323 344/12/323
f 345/13/324 348/16/324 346/14/324 343/11/324
f 346/14/325 349/17/325 350/18/325 347/15/325
f 348/16/326 351/19/326 349/17/326 346/14/326
f 349/17/327 352/20/327 353/21/327 350/18/327
f 351/19/328 354/22/328 352/20/328 349/17/328
f 352/20/329 355/23/329 356/24/329 353/21/329
f 354/22/330 357/25/330 355/23/330 352/20/330
f 355/23/331 358/26/331 359/27/331 356/24/331
f 357/25/332 360/28/332 358/26/332 355/23/332
f 358/26/333 361/29/333 362/30/333 359/27/333
f 360/28/334 363/31/334 361/29/334 358/26/334
f 361/29/335 364/32/335 362/30/335
f 363/31/336 364/32/336 361/29/336
f 365/2/337 366/3/337 367/61/337 368/62/337
f 369/63/338 370/64/338 366/3/338 365/2/338
f 366/3/339 371/8/339 372/9/339 367/61/339
f 370/64/340 373/10/340 371/8/340 366/3/340
f 371/8/341 374/11/341 375/12/341 372/9/341
f 373/10/342 376/13/342 374/11/342 371/8/342
f 374/11/343 377/14/343 378/15/343 375/12/343
f 376/13/344 379/16/344 377/14/344 374/11/344
f 377/14/345 380/17/345 381/18/345 378/15/345
f 379/16/346 382/19/346 380/17/346 377/14/346
f 380/17/347 383/20/347 384/21/347 381/18/347
f 382/19/348 385/22/348 383/20/348 380/17/348
f 383/20/349 386/23/349 387/24/349 384/21/349
f 385/22/350 388/25/350 386/23/350 383/20/350
f 386/23/351 389/26/351 390/27/351 387/24/351
f 388/25/352 391/28/352 389/26/352 386/23/352
f 389/26/353 392/29/353 393/30/353 390/27/353
f 391/28/354 394/31/354 392/29/354 389/26/354
f 392/29/355 395/32/355 393/30/355
f 394/31/356 395/32/356 392/29/356
f 396/2/357 397/3/357 398/65/357 399/66/357
f 400/67/358 401/68/358 397/3/358 396/2/358
f 397/3/359 402/8/359 403/9/359 398/65/359
f 401/68/360 404/10/360 402/8/360 397/3/360
f 402/8/361 405/11/361 406/12/361 403/9/361
f 404/10/362 407/13/362 405/11/362 402/8/362
f 405/11/363 408/14/363 409/15/363 406/12/363
f 407/13/364 410/16/364 408/14/364 405/11/364
f 408/14/365 411/17/365 412/18/365 409/15/365
f 410/16/366 413/19/366 411/17/366 408/14/366
f 411/17/367 414/20/367 415/21/367 412/18/367
f 413/19/368 416/22/368 414/20/368 411/17/368
f 414/20/369 417/23/369 418/24/369 415/21/369
f 416/22/370 419/25/370 417/23/370 414/20/370
f 417/23/371 420/26/371 421/27/371 418/24/371
f 419/25/372 422/28/372 420/26/372 417/23/372
f 420/26/373 423/29/373 424/30/373 421/27/373
f 422/28/374 425/31/374 423/29/374 420/26/374
f 423/29/375 426/32/375 424/30/375
f 425/31/376 426/32/376 423/29/376
f 427/2/377 428/8/377 429/69/377 430/70/377
f 431/71/378 432/72/378 428/8/378 427/2/378
f 428/8/379 433/14/379 434/73/379 429/69/379
f 432/72/380 435/74/380 433/14/380 428/8/380
f 433/14/381 436/20/381 437/75/381 434/73/381
f 435/74/382 438/76/382 436/20/382 433/14/382
f 436/20/383 439/26/383 440/77/383 437/75/383
f 438/76/384 441/78/384 439/26/384 436/20/384
f 439/26/385 442/32/385 440/77/385
f 441/78/386 442/32/386 439/26/386
f 443/2/387 444/8/387 445/69/387 446/79/387
f 447/80/388 448/72/388 444/8/388 443/2/388
f 444/8/389 449/14/389 450/73/389 445/69/389
f 448/72/390 451/74/390 449/14/390 444/8/390
f 449/14/391 452/20/391 453/75/391 450/73/391
f 451/74/392 454/76/392 452/20/392 449/14/392
f 452/20/393 455/26/393 456/77/393 453/75/393
f 454/76/394 457/78/394 455/26/394 452/20/394
f 455/26/395 458/32/395 456/77/395
f 457/78/396 458/32/396 455/26/396
f 459/2/397 460/8/397 461/69/397 462/81/397
f 463/82/398 464/72/398 460/8/398 459/2/398
f 460/8/399 465/14/399 466/73/399 461/69/399
f 464/72/400 467/74/400 465/14/400 460/8/400
f 465/14/401 468/20/401 469/75/401 466/73/401
f 467/74/402 470/76/402 468/20/402 465/14/402
f 468/20/403 471/26/403 472/77/403 469/75/403
f 470/76/404 473/78/404 471/26/404 468/20/404
f 471/26/405 474/32/405 472/77/405
f 473/78/406 474/32/406 471/26/406
f 475/2/407 476/8/407 477/69/407 478/83/407
f 479/84/408 480/72/408 476/8/408 475/2/408
f 476/8/409 481/14/409 482/73/409 477/69/409
f 480/72/410 483/74/410 481/14/410 476/8/410
f 481/14/411 484/20/411 485/75/411 482/73/411
f 483/74/412 486/76/412 484/20/412 481/14/412
f 484/20/413 487/26/413 488/77/413 485/75/413
f 486/76/414 489/78/414 487/26/414 484/20/414
f 487/26/415 490/32/415 488/77/415
f 489/78/416 490/32/416 487/26/416
f 491/2/417 492/8/417 493/69/417 494/85/417
f 495/86/418 496/72/418 492/8/418 491/2/418
f 492/8/419 497/14/419 498/73/419 493/69/419
f 496/72/420 499/74/420 497/14/420 492/8/420
f 497/14/421 500/20/421 501/75/421 498/73/421
f 499/74/422 502/76/422 500/20/422 497/14/422
f 500/20/423 503/26/423 504/77/423 501/75/423
f 502/76/424 505/78/424 503/26/424 500/20/424
f 503/26/425 506/32/425 504/77/425
f 505/78/426 506/32/426 503/26/426
f 507/2/427 508/8/427 509/69/427 510/87/427
f 511/88/428 512/72/428 508/8/428 507/2/428
f 508/8/429 513/14/429 514/73/429 509/69/429
f 512/72/430 515/74/430 513/14/430 508/8/430
f 513/14/431 516/20/431 517/75/431 514/73/431
f 515/74/432 518/76/432 516/20/432 513/14/432
f 516/20/433 519/26/433 520/77/433 517/75/433
f 518/76/434 521/78/434 519/26/434 516/20/434
f 519/26/435 522/32/435 520/77/435
f 521/78/436 522/32/436 519/26/436
f 523/2/437 524/8/437 525/69/437 526/89/437
f 527/90/438 528/72/438 524/8/438 523/2/438
f 524/8/439 529/14/439 530/73/439 525/69/439
f 528/72/440 531/74/440 529/14/440 524/8/440
f 529/14/441 532/20/441 533/75/441 530/73/441
f 531/74/442 534/76/442 532/20/442 529/14/442
f 532/20/443 535/26/443 536/77/443 533/75/443
f 534/76/444 537/78/444 535/26/444 532/20/444
f 535/26/445 538/32/445 536/77/445
f 537/78/446 538/32/446 535/26/446
f 539/2/447 540/8/447 541/69/447 542/91/447
f 543/92/448 544/72/448 540/8/448 539/2/448
f 540/8/449 545/14/449 546/73/449 541/69/449
f 544/72/450 547/74/450 545/14/450 540/8/450
f 545/14/451 548/20/451 549/75/451 546/73/451
f 547/74/452 550/76/452 548/20/452 545/14/452
f 548/20/453 551/26/453 552/77/453 549/75/453
f 550/76/454 553/78/454 551/26/454 548/20/454
f 551/26/455 554/32/455 552/77/455
f 553/78/456 554/32/456 551/26/456
f 555/2/457 556/8/457 557/69/457 558/93/457
f 559/94/458 560/72/458 556/8/458 555/2/458
f 556/8/459 561/14/459 562/73/459 557/69/459
f 560/72/460 563/74/460 561/14/460 556/8/460
f 561/14/461 564/20/461 565/75/461 562/73/461
f 563/74/462 566/76/462 564/20/462 561/14/462
f 564/20/463 567/26/463 568/77/463 565/75/463
f 566/76/464 569/78/464 567/26/464 564/20/464
f 567/26/465 570/32/465 568/77/465
f 569/78/466 570/32/466 567/26/466
