# LowPolyPalms - coconut palm SM_Palm_Coco_B (cm, Z up)
mtllib SM_Palm_Coco_B.mtl
o SM_Palm_Coco_B
v 29.16 0.00 23.90
v 13.81 32.63 12.88
v -31.26 9.58 71.93
v -48.39 21.94 59.05
v -15.34 32.63 -11.02
v -64.95 9.58 45.46
v -29.16 0.00 -23.90
v -64.39 -15.14 44.74
v -13.81 -32.63 -12.88
v -47.26 -27.50 57.61
v 15.34 -32.63 11.02
v -30.69 -15.14 71.21
v -82.45 14.87 124.05
v -72.50 -5.49 130.35
v -101.58 14.87 110.37
v -110.75 -5.49 102.98
v -100.80 -25.85 109.28
v -81.67 -25.85 122.97
v -115.14 3.69 185.67
v -131.54 14.86 175.37
v -147.69 3.69 164.70
v -147.46 -18.66 164.33
v -131.06 -29.84 174.63
v -114.91 -18.66 185.30
v -157.53 10.18 238.57
v -148.32 -8.21 243.87
v -175.97 10.18 228.04
v -185.20 -8.21 222.80
v -176.00 -26.60 228.10
v -157.56 -26.60 238.63
v -182.17 2.85 299.18
v -197.67 12.93 291.12
v -213.45 2.85 283.62
v -213.72 -17.32 284.16
v -198.21 -27.40 292.21
v -182.44 -17.32 299.72
v -215.56 12.28 352.78
v -207.14 -4.29 357.47
v -233.22 12.28 345.31
v -242.45 -4.29 342.53
v -234.03 -20.86 347.22
v -216.38 -20.86 354.69
v -232.11 9.79 412.70
v -246.73 18.86 406.67
v -261.92 9.79 402.30
v -262.50 -8.35 403.96
v -247.89 -17.43 410.00
v -232.69 -8.35 414.36
v -256.61 22.61 467.11
v -248.75 7.70 471.27
v -273.35 22.61 462.50
v -282.23 7.70 462.06
v -274.37 -7.22 466.23
v -257.63 -7.22 470.83
v -265.06 24.57 526.59
v -278.88 32.76 522.49
v -293.21 24.57 520.90
v -293.72 8.19 523.41
v -279.90 -0.01 527.51
v -265.57 8.19 529.10
v -280.89 39.89 582.01
v -273.32 26.33 585.39
v -296.65 39.89 579.95
v -304.84 26.33 581.27
v -297.26 12.77 584.66
v -281.50 12.77 586.72
v -281.29 44.54 641.10
v -294.47 52.08 638.91
v -307.81 44.54 639.48
v -307.98 29.45 642.24
v -294.81 21.91 644.42
v -281.46 29.45 643.85
v -288.62 60.51 697.85
v -281.18 47.73 700.40
v -303.61 60.51 697.45
v -311.17 47.73 699.60
v -303.74 34.95 702.15
v -288.74 34.95 702.55
v -286.22 73.22 734.73
v -275.44 54.70 738.43
v -307.96 73.22 734.16
v -318.92 54.70 737.28
v -308.14 36.17 740.97
v -286.40 36.17 741.54
v -298.00 60.39 768.82
v -289.00 60.39 758.82
v -302.54 68.16 758.82
v -301.89 87.53 916.29
v -302.41 52.55 758.82
v -306.77 49.49 756.82
v -314.36 40.06 789.49
v -316.81 39.99 788.89
v -312.58 49.09 755.36
v -305.92 43.73 755.36
v -313.90 37.65 788.89
v -321.94 30.63 821.38
v -376.74 31.30 808.40
v -309.55 -22.75 808.40
v -329.53 21.20 852.51
v -358.11 19.15 844.83
v -325.41 -7.16 844.83
v -337.12 11.77 882.86
v -410.91 -1.90 859.88
v -334.66 -63.24 859.88
v -344.70 2.34 912.45
v -375.79 -4.86 902.04
v -345.08 -29.57 902.04
v -352.29 -7.09 941.26
v -421.34 -23.51 917.38
v -353.54 -78.06 917.38
v -359.88 -16.52 969.30
v -384.59 -21.62 960.78
v -359.56 -41.76 960.78
v -367.46 -25.95 996.57
v -408.17 -38.09 980.82
v -370.60 -68.31 980.82
v -375.05 -35.38 1023.07
v -381.76 -37.60 1020.31
v -375.78 -42.41 1020.31
v -382.63 -44.81 1048.79
v -284.03 59.49 755.15
v -267.29 58.41 784.90
v -265.82 56.58 783.97
v -280.61 55.02 753.07
v -280.07 63.49 753.07
v -265.60 60.03 783.97
v -250.55 57.32 812.80
v -217.45 8.05 790.29
v -211.38 101.91 790.29
v -233.81 56.24 838.87
v -215.50 31.60 825.61
v -212.47 78.31 825.61
v -217.08 55.16 863.09
v -163.18 -1.53 821.75
v -156.32 104.42 821.75
v -200.34 54.07 885.48
v -179.17 28.27 867.67
v -176.02 76.93 867.67
v -183.60 52.99 906.03
v -132.06 5.06 859.44
v -126.31 93.87 859.44
v -166.87 51.91 924.74
v -149.76 34.17 907.58
v -147.62 67.28 907.58
v -150.13 50.82 941.62
v -121.25 23.62 909.47
v -117.98 74.07 909.47
v -133.39 49.74 956.65
v -128.77 45.50 950.84
v -128.26 53.35 950.84
v -116.66 48.66 969.85
v -307.75 70.43 753.49
v -321.48 84.55 785.10
v -321.27 86.87 784.12
v -306.69 75.98 751.47
v -313.33 69.53 751.47
v -323.80 84.41 784.12
v -335.20 98.67 814.75
v -332.12 150.96 790.47
v -387.56 97.07 790.47
v -348.93 112.79 842.43
v -345.58 140.19 829.67
v -376.41 110.22 829.67
v -362.65 126.91 868.15
v -364.43 196.34 827.54
v -432.01 130.66 827.54
v -376.37 141.03 891.91
v -375.53 170.49 874.16
v -405.85 141.02 874.16
v -390.10 155.14 913.71
v -387.62 219.39 871.76
v -454.39 154.48 871.76
v -403.82 169.26 933.54
v -404.05 191.04 917.06
v -425.58 170.11 917.06
v -417.55 183.38 951.41
v -421.79 217.10 919.76
v -451.14 188.58 919.76
v -431.27 197.50 967.31
v -431.57 203.00 961.83
v -436.76 197.95 961.83
v -444.99 211.62 981.25
v -294.94 46.73 751.82
v -289.86 24.02 780.06
v -291.22 22.28 778.85
v -298.20 42.54 749.03
v -290.20 44.33 749.03
v -287.88 23.02 778.85
v -284.78 1.30 805.72
v -316.58 -36.27 777.34
v -240.00 -19.14 777.34
v -279.70 -21.41 828.81
v -295.00 -40.92 812.04
v -257.54 -32.54 812.04
v -274.62 -44.13 849.31
v -309.69 -94.40 799.17
v -221.46 -74.66 799.17
v -269.53 -66.85 867.24
v -284.25 -86.94 844.30
v -247.66 -78.76 844.30
v -264.45 -89.56 882.60
v -297.82 -130.48 828.55
v -216.83 -112.37 828.55
v -259.37 -112.28 895.37
v -271.57 -125.20 875.21
v -242.83 -118.77 875.21
v -254.29 -134.99 905.57
v -274.08 -153.80 868.91
v -228.38 -143.57 868.91
v -249.21 -157.71 913.19
v -252.00 -160.19 906.51
v -245.63 -158.77 906.51
v -244.13 -180.42 918.23
v -288.03 70.22 750.15
v -270.73 87.28 778.96
v -268.56 87.12 777.69
v -282.75 69.52 747.40
v -288.66 75.52 747.40
v -270.86 89.45 777.69
v -253.43 104.34 805.12
v -203.32 100.61 772.79
v -256.46 154.49 772.79
v -236.13 121.40 828.63
v -210.89 120.21 809.87
v -236.97 146.65 809.87
v -218.84 138.45 849.50
v -155.41 135.91 795.59
v -220.49 201.91 795.59
v -201.54 155.51 867.72
v -175.33 152.65 843.79
v -204.03 181.76 843.79
v -184.24 172.57 883.30
v -131.27 168.20 824.24
v -187.86 225.59 824.24
v -166.94 189.62 896.23
v -149.07 186.21 874.61
v -170.10 207.55 874.61
v -149.64 206.68 906.51
v -121.57 198.23 868.42
v -157.71 234.87 868.42
v -132.35 223.74 914.15
v -128.44 222.32 907.26
v -133.71 227.67 907.26
v -115.05 240.80 919.14
v -311.32 56.10 748.49
v -343.57 45.70 776.82
v -345.20 46.98 775.38
v -315.24 59.20 745.17
v -312.69 51.29 745.17
v -344.14 43.71 775.38
v -375.82 35.31 802.97
v -411.67 62.15 767.97
v -389.25 -7.42 767.97
v -408.07 24.91 826.94
v -426.05 40.31 808.60
v -413.67 1.92 808.60
v -440.32 14.52 848.72
v -486.38 49.01 794.27
v -457.56 -40.39 794.27
v -472.57 4.12 868.32
v -491.19 17.30 843.28
v -479.99 -17.45 843.28
v -504.82 -6.28 885.74
v -543.64 24.67 828.75
v -518.26 -54.07 828.75
v -537.07 -16.67 900.97
v -549.81 -5.68 880.00
v -540.99 -33.03 880.00
v -569.32 -27.07 914.02
v -588.75 -10.33 876.16
v -575.31 -52.00 876.16
v -601.57 -37.46 924.88
v -604.43 -34.72 918.34
v -602.29 -41.37 918.34
v -633.82 -47.86 933.56
v -287.00 51.73 746.82
v -261.84 31.90 774.28
v -262.03 29.81 772.88
v -287.75 46.60 743.80
v -282.19 53.65 743.80
v -259.86 32.57 772.88
v -236.68 12.07 799.12
v -238.06 -39.57 757.07
v -186.80 25.48 757.07
v -211.52 -7.76 821.34
v -211.93 -33.46 797.45
v -186.63 -1.36 797.45
v -186.36 -27.59 840.94
v -188.88 -92.22 774.35
v -124.11 -10.04 774.35
v -161.20 -47.42 857.93
v -161.40 -72.19 826.91
v -137.16 -41.44 826.91
v -136.04 -67.25 872.30
v -143.38 -122.09 803.15
v -84.43 -47.30 803.15
v -110.88 -87.08 884.05
v -115.20 -105.73 859.03
v -93.75 -78.51 859.03
v -85.72 -106.90 893.18
v -91.84 -132.98 846.78
v -61.80 -94.86 846.78
v -60.56 -126.73 899.70
v -61.90 -130.53 891.68
v -57.18 -124.55 891.68
v -35.40 -146.56 903.60
v -302.39 73.69 745.15
v -312.57 104.48 768.02
v -311.23 105.97 766.50
v -299.11 77.33 741.70
v -307.20 74.66 741.70
v -314.55 104.87 766.50
v -322.76 135.27 787.52
v -293.50 167.02 749.35
v -365.18 143.32 749.35
v -332.94 166.06 803.64
v -320.48 181.09 780.40
v -351.90 170.69 780.40
v -343.12 196.85 816.40
v -301.05 231.90 757.65
v -397.80 199.90 757.65
v -353.31 227.64 825.79
v -337.19 239.91 798.06
v -373.56 227.88 798.06
v -363.49 258.43 831.82
v -327.21 279.46 767.69
v -405.16 253.69 767.69
v -373.67 289.22 834.47
v -360.61 294.28 811.09
v -387.17 285.50 811.09
v -383.86 320.01 833.76
v -363.25 323.61 792.39
v -402.54 310.61 792.39
v -394.04 350.81 829.67
v -390.40 350.72 822.82
v -396.91 348.57 822.82
v -404.22 381.60 822.22
v -304.36 47.93 743.49
v -322.49 12.44 759.80
v -324.32 12.68 758.09
v -308.66 48.20 739.30
v -301.63 44.61 739.30
v -321.22 11.09 758.09
v -340.61 -23.04 772.70
v -382.14 -16.88 725.01
v -311.26 -53.07 725.01
v -358.73 -58.52 782.19
v -378.30 -54.41 755.35
v -343.91 -71.97 755.35
v -376.85 -94.01 788.26
v -421.01 -80.75 712.64
v -340.21 -122.01 712.64
v -394.97 -129.49 790.91
v -414.17 -120.53 759.52
v -376.45 -139.79 759.52
v -413.09 -164.97 790.15
v -448.46 -141.82 716.99
v -373.60 -180.06 716.99
v -431.21 -200.46 785.98
v -440.25 -191.33 758.81
v -418.51 -202.44 758.81
v -449.33 -235.94 778.39
v -461.43 -217.66 732.21
v -427.43 -235.03 732.21
v -467.45 -271.42 767.39
v -469.62 -267.67 760.01
v -463.13 -270.99 760.01
v -485.57 -306.91 752.97
v -285.30 66.30 741.82
v -249.54 82.92 750.87
v -248.58 81.64 748.92
v -282.69 63.00 737.54
v -286.14 70.42 737.54
v -249.90 84.47 748.92
v -213.78 99.54 755.36
v -196.32 68.44 706.59
v -226.30 132.94 706.59
v -178.03 116.16 755.29
v -172.59 100.62 728.04
v -186.40 130.32 728.04
v -142.27 132.78 750.66
v -134.28 86.52 680.74
v -172.48 168.71 680.74
v -106.51 149.40 741.47
v -107.08 129.80 711.26
v -121.86 161.59 711.26
v -70.75 166.02 727.72
v -77.64 118.63 663.20
v -111.42 191.30 663.20
v -34.99 182.64 709.41
v -41.01 166.94 686.29
v -50.87 188.16 686.29
v 0.77 199.26 686.54
v -11.72 170.24 649.60
v -29.47 208.42 649.60
v 36.53 215.88 659.11
v 33.67 211.22 653.07
v 31.13 216.70 653.07
v 72.28 232.50 627.12
v -310.65 66.39 740.15
v -348.63 84.40 749.37
v -348.20 86.04 747.50
v -309.67 70.58 735.98
v -313.28 62.98 735.98
v -349.62 83.03 747.50
v -386.62 102.42 754.06
v -373.89 135.81 705.55
v -404.42 71.42 705.55
v -424.60 120.43 754.23
v -415.34 137.01 728.80
v -431.58 102.75 728.80
v -462.59 138.44 749.88
v -431.79 178.86 683.02
v -474.40 89.01 683.02
v -500.57 156.45 741.02
v -486.18 167.72 710.11
v -500.19 138.16 710.11
v -538.56 174.46 727.63
v -499.65 199.79 662.34
v -533.55 128.30 662.34
v -576.54 192.47 709.73
v -561.72 196.94 685.79
v -570.62 178.17 685.79
v -614.53 210.48 687.30
v -586.15 217.29 648.60
v -601.85 184.20 648.60
v -652.51 228.49 660.36
v -647.34 229.38 654.17
v -649.93 223.92 654.17
v -690.50 246.50 628.90
v -290.52 48.56 738.49
v -266.94 11.22 739.94
v -268.38 10.38 738.05
v -293.83 46.29 734.03
v -287.05 50.58 734.03
v -265.55 12.16 738.05
v -243.35 -26.11 735.92
v -279.60 -39.19 681.74
v -215.97 1.00 681.74
v -219.77 -63.44 726.42
v -239.04 -66.07 697.29
v -209.11 -47.16 697.29
v -196.18 -100.78 711.44
v -251.56 -100.50 637.14
v -172.65 -50.65 637.14
v -172.60 -138.11 690.98
v -196.29 -133.55 659.55
v -166.54 -114.76 659.55
v -149.01 -175.45 665.05
v -206.34 -161.15 599.28
v -137.30 -117.53 599.28
v -125.43 -212.78 633.63
v -145.41 -204.51 610.79
v -124.32 -191.19 610.79
v -101.85 -250.11 596.74
v -137.87 -234.38 560.48
v -100.59 -210.82 560.48
v -78.26 -287.45 554.37
v -84.14 -284.08 548.51
v -78.77 -280.69 548.51
v -54.68 -324.78 506.53
v -293.43 73.63 736.82
v -279.83 113.09 740.01
v -278.48 112.66 737.93
v -289.65 72.69 732.26
v -296.99 75.22 732.26
v -281.16 113.59 737.93
v -266.22 152.56 738.07
v -231.22 134.83 688.42
v -304.72 160.17 688.42
v -252.62 192.02 731.01
v -236.40 179.96 704.50
v -272.82 192.52 704.50
v -239.01 231.49 718.82
v -202.18 192.59 648.74
v -291.99 223.55 648.74
v -225.41 270.95 701.50
v -215.89 251.97 670.33
v -244.60 261.87 670.33
v -211.80 310.42 679.06
v -190.16 261.70 613.95
v -258.86 285.38 613.95
v -198.20 349.88 651.50
v -190.14 330.68 629.99
v -216.38 339.73 629.99
v -184.59 389.34 618.80
v -179.75 354.66 581.85
v -209.77 365.01 581.85
v -170.99 428.81 580.98
v -170.69 422.66 575.08
v -175.01 424.15 575.08
v -157.38 468.27 538.04
v -310.35 53.81 735.15
v -346.22 34.71 734.46
v -346.80 36.16 732.48
v -311.95 56.99 730.32
v -308.61 50.71 730.32
v -345.34 33.42 732.48
v -382.08 15.61 728.42
v -390.08 51.23 683.24
v -356.98 -10.91 683.24
v -417.95 -3.50 717.03
v -417.00 13.47 691.58
v -403.34 -12.18 691.58
v -453.81 -22.60 700.29
v -443.12 23.84 634.84
v -409.31 -39.64 634.84
v -489.68 -41.70 678.20
v -483.96 -19.17 652.55
v -467.79 -49.53 652.55
v -525.54 -60.80 650.76
v -500.99 -15.81 592.98
v -474.51 -65.54 592.98
v -561.40 -79.91 617.98
v -553.05 -61.34 599.52
v -541.34 -83.33 599.52
v -597.27 -99.01 579.84
v -578.44 -69.09 549.29
v -561.93 -100.08 549.29
v -633.13 -118.11 536.36
v -629.75 -112.92 531.58
v -626.94 -118.21 531.58
v -669.00 -137.22 487.53
v -284.67 56.11 733.49
v -242.08 42.43 727.07
v -242.94 41.10 725.11
v -286.40 52.99 728.66
v -284.26 59.65 728.66
v -242.01 44.01 725.11
v -199.49 28.75 714.61
v -222.37 3.43 674.05
v -203.34 62.65 674.05
v -156.90 15.06 696.11
v -171.24 3.39 675.17
v -161.76 32.89 675.17
v -114.31 1.38 671.56
v -157.59 -23.80 617.22
v -134.82 47.05 617.22
v -71.73 -12.30 640.96
v -92.13 -18.67 617.70
v -84.61 4.75 617.70
v -29.14 -25.99 604.31
v -78.55 -39.01 555.76
v -61.72 13.38 555.76
v 13.45 -39.67 561.62
v -5.25 -44.92 545.77
v 1.31 -24.51 545.77
v 56.04 -53.35 512.89
v 22.81 -56.29 486.32
v 30.74 -31.61 486.32
v 98.63 -67.04 458.10
v 92.85 -67.34 453.92
v 94.11 -63.42 453.92
v 141.21 -80.72 397.27
v -306.22 71.73 731.82
v -327.36 100.87 724.95
v -325.95 101.18 722.89
v -302.87 73.02 727.01
v -308.49 68.94 727.01
v -328.10 99.63 722.89
v -348.51 130.02 711.63
v -314.55 131.42 670.70
v -360.37 98.18 670.70
v -369.65 159.17 691.86
v -351.00 156.35 671.13
v -372.76 140.56 671.13
v -390.80 188.32 665.64
v -338.34 175.12 614.91
v -394.54 134.36 614.91
v -411.94 217.47 632.97
v -389.46 208.53 612.47
v -410.42 193.32 612.47
v -433.09 246.62 593.85
v -380.84 223.71 552.00
v -427.53 189.84 552.00
v -454.23 275.76 548.27
v -435.69 265.94 534.37
v -450.64 255.09 534.37
v -475.38 304.91 496.25
v -444.51 285.25 474.06
v -466.27 269.46 474.06
v -496.52 334.06 437.77
v -491.57 330.24 434.27
v -494.42 328.17 434.27
v -517.67 363.21 372.84
v -297.93 46.39 730.15
v -297.75 11.76 716.85
v -299.02 12.70 714.89
v -301.46 48.12 725.62
v -294.41 48.15 725.62
v -296.48 12.71 714.89
v -297.57 -22.88 696.41
v -322.54 1.96 660.39
v -272.86 2.21 660.39
v -297.39 -57.52 668.83
v -308.61 -41.47 650.92
v -286.33 -41.36 650.92
v -297.21 -92.16 634.10
v -327.16 -45.13 591.43
v -267.75 -44.83 591.43
v -297.03 -126.80 592.24
v -309.87 -105.24 575.76
v -284.42 -105.11 575.76
v -296.86 -161.43 543.24
v -323.27 -110.07 509.31
v -270.97 -109.81 509.31
v -296.68 -196.07 487.10
v -304.47 -176.60 475.79
v -289.08 -176.52 475.79
v -296.50 -230.71 423.82
v -307.30 -196.04 405.83
v -286.05 -195.93 405.83
v -296.32 -265.35 353.41
v -297.78 -259.35 350.60
v -294.93 -259.33 350.60
v -296.14 -299.98 275.85
v -286.25 68.01 728.49
v -258.63 85.94 713.17
v -258.67 84.13 711.42
v -285.87 63.80 724.24
v -289.95 70.08 724.24
v -260.30 86.64 711.42
v -231.01 103.86 690.43
v -237.03 67.50 659.52
v -266.67 113.17 659.52
v -203.39 121.78 660.24
v -208.80 101.99 645.37
v -223.67 124.90 645.37
v -175.77 139.70 622.63
v -197.39 88.04 585.78
v -231.76 141.01 585.78
v -148.15 157.62 577.57
v -158.80 135.17 563.29
v -172.99 157.04 563.29
v -120.53 175.55 525.08
v -152.54 129.32 494.61
v -175.79 165.14 494.61
v -92.91 193.47 465.16
v -105.25 177.15 455.21
v -112.84 188.84 455.21
v -65.28 211.39 397.80
v -89.56 185.79 381.91
v -98.56 199.65 381.91
v -37.66 229.31 323.01
v -41.98 225.16 320.54
v -43.22 227.06 320.54
v -10.04 247.24 240.78
v -302.32 38.82 718.12
v -304.69 27.02 662.29
v -305.25 39.12 659.73
v -303.51 44.59 716.95
v -299.00 43.69 716.95
v -299.50 37.97 659.73
v -307.05 15.21 607.25
v -309.24 43.35 601.27
v -294.19 40.34 601.27
v -309.42 3.41 553.02
v -310.55 17.68 549.94
v -302.88 16.14 549.94
v -311.78 -8.39 499.59
v -310.96 6.95 496.14
v -306.64 6.08 496.14
v -314.15 -20.20 446.96
v -289.75 40.00 710.92
v -286.98 33.16 652.43
v -294.46 41.02 651.15
v -293.93 44.25 710.23
v -289.69 45.96 710.23
v -287.07 44.01 651.15
v -284.21 26.31 594.75
v -299.18 46.65 591.60
v -287.59 51.34 591.60
v -281.44 19.47 537.86
v -287.99 30.48 536.21
v -284.39 31.94 536.21
v -278.68 12.62 481.77
v -285.14 24.78 479.96
v -282.48 25.86 479.96
v -275.91 5.78 426.49
v -276.46 55.90 709.76
v -264.13 53.32 651.89
v -277.30 52.81 649.09
v -282.25 54.82 708.58
v -281.33 59.19 708.58
v -276.00 59.06 649.09
v -251.79 50.74 594.82
v -282.45 49.23 588.21
v -279.29 64.40 588.21
v -239.46 48.17 538.54
v -255.02 48.24 535.11
v -253.75 54.33 535.11
v -227.12 45.59 483.07
v -243.83 44.59 479.38
v -242.03 53.20 479.38
v -214.79 43.01 428.40
v -277.36 68.02 700.55
v -260.54 74.24 640.73
v -268.90 68.12 637.72
v -281.91 64.47 698.90
v -283.12 67.76 698.90
v -270.87 73.44 637.72
v -243.72 80.45 581.70
v -262.81 65.71 574.66
v -267.81 79.23 574.66
v -226.90 86.67 523.48
v -236.93 79.70 519.82
v -239.05 85.44 519.82
v -210.08 92.89 466.06
v -221.67 86.80 461.98
v -222.84 89.97 461.98
v -193.26 99.10 409.44
v -288.82 80.39 713.95
v -278.13 103.71 662.52
v -279.06 93.94 657.87
v -289.18 74.96 711.42
v -292.70 76.58 711.42
v -284.92 96.63 657.87
v -267.43 127.02 611.90
v -269.92 104.39 600.87
v -282.96 110.37 600.87
v -256.74 150.34 562.07
v -258.25 138.93 556.37
v -264.39 141.75 556.37
v -246.04 173.65 513.05
v -248.54 161.63 506.73
v -253.52 163.92 506.73
v -235.34 196.97 464.82
v -301.85 82.05 705.30
v -306.06 105.69 647.63
v -301.80 97.20 643.81
v -299.31 77.09 703.08
v -302.53 76.52 703.08
v -307.14 96.25 643.81
v -310.27 129.34 590.77
v -299.55 109.98 581.87
v -313.65 107.47 581.87
v -314.48 152.98 534.70
v -309.80 142.84 530.04
v -315.38 141.84 530.04
v -318.69 176.62 479.44
v -313.55 165.78 474.38
v -319.77 164.68 474.38
v -322.90 200.26 424.97
v -318.61 68.08 714.50
v -330.75 72.60 653.42
v -319.62 71.95 651.14
v -312.73 68.03 713.33
v -314.13 64.26 713.33
v -321.91 65.81 651.14
v -342.90 77.12 593.13
v -317.08 74.58 587.71
v -321.71 62.15 587.71
v -355.04 81.65 533.65
v -341.96 80.23 530.85
v -344.22 74.16 530.85
v -367.18 86.17 474.96
v -353.19 84.21 471.90
v -355.31 78.50 471.90
v -379.33 90.70 417.08
v -316.01 47.76 710.56
v -324.38 41.89 659.84
v -318.32 50.05 657.88
v -312.66 52.62 709.45
v -310.31 49.26 709.45
v -314.65 44.81 657.88
v -332.76 36.02 609.91
v -318.72 55.06 605.28
v -310.07 42.73 605.28
v -341.14 30.14 560.79
v -333.27 39.20 558.35
v -329.94 34.45 558.35
v -349.51 24.27 512.46
v -340.96 33.91 509.79
v -337.54 29.02 509.79
v -357.89 18.40 464.94
v -292.68 35.04 657.54
v -305.34 47.70 657.54
v -305.34 35.04 672.74
v -305.34 35.04 641.71
v -318.01 35.04 657.54
v -305.34 22.38 657.54
v -295.37 28.37 689.99
v -308.74 41.74 689.99
v -308.74 28.37 706.04
v -308.74 28.37 673.27
v -322.12 28.37 689.99
v -308.74 14.99 689.99
v -284.89 40.66 673.53
v -296.92 52.68 673.53
v -296.92 40.66 687.96
v -296.92 40.66 658.49
v -308.95 40.66 673.53
v -296.92 28.63 673.53
v -299.45 26.25 654.45
v -313.34 40.14 654.45
v -313.34 26.25 671.12
v -313.34 26.25 637.09
v -327.23 26.25 654.45
v -313.34 12.36 654.45
v -297.65 35.60 696.86
v -312.08 50.03 696.86
v -312.08 35.60 714.18
v -312.08 35.60 678.82
v -326.52 35.60 696.86
v -312.08 21.16 696.86
v -262.44 66.81 675.54
v -276.21 80.58 675.54
v -276.21 66.81 692.06
v -276.21 66.81 658.32
v -289.98 66.81 675.54
v -276.21 53.04 675.54
v -262.52 79.71 656.28
v -275.71 92.90 656.28
v -275.71 79.71 672.11
v -275.71 79.71 639.79
v -288.90 79.71 656.28
v -275.71 66.52 656.28
v -273.46 85.19 685.90
v -286.33 98.06 685.90
v -286.33 85.19 701.34
v -286.33 85.19 669.81
v -299.20 85.19 685.90
v -286.33 72.32 685.90
v -261.21 87.81 699.47
v -274.62 101.22 699.47
v -274.62 87.81 715.56
v -274.62 87.81 682.71
v -288.02 87.81 699.47
v -274.62 74.41 699.47
v -265.12 83.51 674.08
v -278.82 97.22 674.08
v -278.82 83.51 690.52
v -278.82 83.51 656.95
v -292.52 83.51 674.08
v -278.82 69.81 674.08
vn 0.5880 0.4930 0.6410
vn 0.2270 0.8360 0.5000
vn -0.0890 0.9900 0.1090
vn -0.5280 0.8410 -0.1210
vn -0.7430 0.4930 -0.4520
vn -0.8890 -0.0070 -0.4580
vn -0.7200 -0.5010 -0.4800
vn -0.4890 -0.8550 -0.1700
vn -0.0430 -0.9980 0.0520
vn 0.2660 -0.8520 0.4510
vn 0.6110 -0.5010 0.6130
vn 0.6210 -0.0090 0.7830
vn 0.6440 0.4950 0.5830
vn 0.3980 0.8660 0.3030
vn -0.0560 0.9950 0.0790
vn -0.4020 0.8660 -0.2970
vn -0.7370 0.4980 -0.4570
vn -0.7820 0.0000 -0.6230
vn -0.7160 -0.5010 -0.4870
vn -0.3620 -0.8650 -0.3480
vn -0.0130 -1.0000 0.0180
vn 0.4370 -0.8630 0.2520
vn 0.6660 -0.5010 0.5530
vn 0.8170 0.0020 0.5770
vn 0.7240 0.5010 0.4750
vn 0.3670 0.8620 0.3510
vn -0.0000 1.0000 0.0000
vn -0.4580 0.8640 -0.2110
vn -0.7080 0.5000 -0.4980
vn -0.8580 -0.0010 -0.5130
vn -0.6920 -0.5000 -0.5210
vn -0.4320 -0.8660 -0.2530
vn 0.0330 -0.9980 -0.0460
vn 0.3940 -0.8650 0.3100
vn 0.7400 -0.4980 0.4520
vn 0.7920 -0.0020 0.6110
vn 0.7050 0.4980 0.5040
vn 0.4370 0.8660 0.2440
vn -0.0340 0.9980 0.0600
vn -0.4170 0.8660 -0.2750
vn -0.7710 0.5000 -0.3950
vn -0.8400 0.0000 -0.5420
vn -0.7660 -0.5000 -0.4050
vn -0.4080 -0.8660 -0.2900
vn -0.0230 -0.9990 0.0410
vn 0.4470 -0.8650 0.2290
vn 0.7120 -0.4980 0.4950
vn 0.8690 0.0010 0.4950
vn 0.7800 0.4990 0.3770
vn 0.4200 0.8650 0.2750
vn 0.0210 0.9990 -0.0360
vn -0.4600 0.8660 -0.1960
vn -0.7470 0.5000 -0.4380
vn -0.9070 0.0010 -0.4210
vn -0.7550 -0.5000 -0.4250
vn -0.4720 -0.8640 -0.1740
vn 0.0060 -1.0000 -0.0100
vn 0.4090 -0.8620 0.2980
vn 0.7730 -0.5000 0.3910
vn 0.8530 0.0030 0.5220
vn 0.7710 0.5030 0.3920
vn 0.4830 0.8630 0.1490
vn -0.0040 1.0000 0.0090
vn -0.4250 0.8650 -0.2680
vn -0.7990 0.5010 -0.3330
vn -0.8970 0.0000 -0.4420
vn -0.8170 -0.4980 -0.2910
vn -0.4610 -0.8660 -0.1970
vn -0.0390 -0.9950 0.0930
vn 0.4480 -0.8660 0.2210
vn 0.7540 -0.4930 0.4340
vn 0.9190 -0.0020 0.3940
vn 0.8330 0.4940 0.2500
vn 0.4700 0.8670 0.1660
vn 0.0410 0.9940 -0.0980
vn -0.4610 0.8660 -0.1940
vn -0.7830 0.4990 -0.3720
vn -0.9510 0.0020 -0.3100
vn -0.8140 -0.4980 -0.2990
vn -0.5070 -0.8600 -0.0650
vn -0.0210 -0.9990 0.0500
vn 0.4260 -0.8550 0.2960
vn 0.8020 -0.5010 0.3240
vn 0.9120 0.0080 0.4100
vn 0.8250 0.5050 0.2520
vn 0.5180 0.8550 0.0320
vn 0.0160 0.9980 -0.0590
vn -0.4370 0.8590 -0.2660
vn -0.8250 0.4990 -0.2630
vn -0.9470 0.0010 -0.3220
vn -0.8560 -0.4940 -0.1540
vn -0.5020 -0.8610 -0.0800
vn -0.0440 -0.9860 0.1590
vn 0.4530 -0.8640 0.2180
vn 0.7960 -0.4850 0.3620
vn 0.9620 -0.0060 0.2730
vn 0.8670 0.4870 0.1070
vn 0.5000 0.8650 0.0430
vn 0.0450 0.9860 -0.1630
vn -0.4710 0.8610 -0.1890
vn -0.8170 0.4950 -0.2950
vn -0.9830 0.0020 -0.1840
vn -0.8550 -0.4940 -0.1560
vn -0.5210 -0.8520 0.0530
vn -0.0310 -0.9930 0.1140
vn 0.4520 -0.8450 0.2850
vn 0.8300 -0.5010 0.2460
vn 0.9600 0.0130 0.2790
vn 0.8570 0.5050 0.1050
vn 0.5260 0.8460 -0.0840
vn 0.0150 0.9930 -0.1180
vn -0.4600 0.8530 -0.2480
vn -0.8500 0.4960 -0.1780
vn -0.9820 0.0010 -0.1890
vn -0.8720 -0.4900 -0.0140
vn -0.5170 -0.8550 0.0340
vn -0.0270 -0.9770 0.2100
vn 0.4700 -0.8600 0.1980
vn 0.8360 -0.4780 0.2690
vn 0.9900 -0.0090 0.1390
vn 0.8760 0.4810 -0.0320
vn 0.5040 0.8610 -0.0640
vn 0.0270 0.9790 -0.2030
vn -0.4910 0.8560 -0.1590
vn -0.8480 0.4930 -0.1970
vn -0.9990 0.0020 -0.0520
vn -0.8710 -0.4910 -0.0200
vn -0.5100 -0.8470 0.1500
vn -0.0200 -0.9880 0.1520
vn 0.4850 -0.8390 0.2450
vn 0.8530 -0.5010 0.1460
vn 0.9900 0.0140 0.1370
vn 0.8660 0.4990 -0.0280
vn 0.5110 0.8430 -0.1710
vn 0.0040 0.9900 -0.1420
vn -0.4890 0.8500 -0.1990
vn -0.8640 0.4980 -0.0750
vn -0.9980 0.0010 -0.0560
vn -0.8680 -0.4840 0.1060
vn -0.5080 -0.8540 0.1140
vn -0.0060 -0.9760 0.2200
vn 0.4920 -0.8590 0.1420
vn 0.8620 -0.4840 0.1520
vn 1.0000 -0.0110 -0.0010
vn 0.8620 0.4590 -0.2140
vn 0.0090 0.9450 -0.3260
vn -0.8500 0.4590 -0.2600
vn -0.8540 -0.5130 -0.0810
vn -0.0010 -1.0000 0.0310
vn 0.8570 -0.5130 -0.0360
vn 0.7320 0.5150 0.4470
vn -0.0090 0.9370 0.3490
vn -0.7540 0.5150 0.4070
vn -0.7580 -0.3290 0.5630
vn -0.0170 -0.7510 0.6600
vn 0.7280 -0.3290 0.6020
vn 0.4950 0.8620 -0.1080
vn -1.0000 -0.0080 0.0050
vn 0.4960 -0.8480 0.1870
vn 0.0890 -0.9620 -0.2570
vn -0.9600 -0.1220 -0.2510
vn 0.0520 -0.9610 -0.2720
vn -0.9510 -0.1550 -0.2690
vn 0.1370 -0.9570 -0.2560
vn -0.9210 -0.0290 -0.3890
vn 0.2460 -0.9410 -0.2310
vn -0.9430 0.0690 -0.3250
vn 0.2900 -0.9310 -0.2220
vn -0.9380 0.1170 -0.3250
vn 0.2980 -0.9280 -0.2250
vn -0.9680 0.0950 -0.2330
vn 0.2750 -0.9310 -0.2390
vn -0.9830 0.0470 -0.1760
vn 0.3550 -0.9100 -0.2160
vn -0.9420 0.1760 -0.2860
vn 0.3830 -0.8990 -0.2100
vn -0.9470 0.1970 -0.2540
vn 0.3850 -0.8970 -0.2150
vn -0.9590 0.1840 -0.2150
vn 0.6430 0.6880 -0.3370
vn 0.5460 -0.7650 -0.3410
vn 0.6770 0.6290 -0.3820
vn 0.5930 -0.7110 -0.3760
vn 0.6330 0.6750 -0.3790
vn 0.4680 -0.7410 -0.4810
vn 0.5440 0.7660 -0.3420
vn 0.3480 -0.8160 -0.4610
vn 0.5640 0.7300 -0.3860
vn 0.5750 -0.7870 -0.2250
vn 0.4630 0.8220 -0.3330
vn 0.2080 -0.8480 -0.4880
vn 0.4640 0.8050 -0.3690
vn 0.4340 -0.8560 -0.2810
vn 0.4070 0.8440 -0.3490
vn 0.2290 -0.8830 -0.4100
vn 0.3640 0.8660 -0.3430
vn 0.1700 -0.8970 -0.4070
vn 0.3410 0.8680 -0.3620
vn 0.2270 -0.9040 -0.3620
vn -0.9260 -0.0730 -0.3700
vn 0.1060 0.9170 -0.3840
vn -0.9210 -0.1180 -0.3700
vn 0.1450 0.9170 -0.3730
vn -0.9090 -0.0800 -0.4100
vn 0.0680 0.9400 -0.3350
vn -0.9050 -0.2310 -0.3560
vn 0.3200 0.8220 -0.4710
vn -0.8950 -0.2110 -0.3920
vn 0.1880 0.9310 -0.3120
vn -0.8840 -0.2310 -0.4070
vn 0.2620 0.8710 -0.4160
vn -0.8710 -0.3020 -0.3870
vn 0.4260 0.7360 -0.5250
vn -0.8500 -0.4130 -0.3260
vn 0.5050 0.7590 -0.4110
vn -0.8390 -0.4070 -0.3630
vn 0.3970 0.8580 -0.3270
vn -0.8220 -0.4230 -0.3810
vn 0.4470 0.8100 -0.3810
vn 0.8310 -0.3510 -0.4320
vn -0.6020 -0.6710 -0.4330
vn 0.8170 -0.3410 -0.4640
vn -0.5940 -0.6580 -0.4630
vn 0.8470 -0.2730 -0.4550
vn -0.6660 -0.5180 -0.5370
vn 0.8840 -0.1890 -0.4280
vn -0.7320 -0.4790 -0.4840
vn 0.8860 -0.1480 -0.4390
vn -0.7500 -0.4590 -0.4770
vn 0.8810 -0.1130 -0.4590
vn -0.7510 -0.4720 -0.4620
vn 0.8740 -0.0750 -0.4810
vn -0.7600 -0.4360 -0.4830
vn 0.8830 -0.0130 -0.4700
vn -0.8030 -0.3440 -0.4870
vn 0.9120 0.0680 -0.4060
vn -0.8830 -0.1210 -0.4540
vn 0.9020 0.1090 -0.4170
vn -0.8630 -0.2860 -0.4170
vn -0.1800 0.8900 -0.4190
vn 0.8820 -0.1970 -0.4280
vn -0.2130 0.8770 -0.4310
vn 0.8730 -0.2260 -0.4320
vn -0.2750 0.8630 -0.4240
vn 0.8010 -0.3400 -0.4930
vn -0.3250 0.8460 -0.4220
vn 0.8180 -0.3600 -0.4490
vn -0.3290 0.8250 -0.4590
vn 0.8580 -0.3000 -0.4180
vn -0.4100 0.8060 -0.4270
vn 0.7320 -0.4840 -0.4790
vn -0.4180 0.7790 -0.4680
vn 0.8300 -0.3640 -0.4230
vn -0.4440 0.7480 -0.4930
vn 0.7460 -0.4500 -0.4910
vn -0.5210 0.7280 -0.4450
vn 0.5910 -0.6450 -0.4850
vn -0.5540 0.6960 -0.4570
vn 0.6880 -0.5640 -0.4570
vn -0.1920 -0.8300 -0.5230
vn -0.6390 0.5630 -0.5240
vn -0.1390 -0.8490 -0.5090
vn -0.6070 0.6090 -0.5110
vn -0.1430 -0.8230 -0.5500
vn -0.6410 0.5680 -0.5160
vn -0.0580 -0.8650 -0.4990
vn -0.4870 0.6870 -0.5390
vn 0.0020 -0.8850 -0.4660
vn -0.3920 0.7510 -0.5310
vn 0.0190 -0.8730 -0.4870
vn -0.5030 0.7170 -0.4830
vn 0.0510 -0.8720 -0.4880
vn -0.4380 0.7470 -0.5010
vn 0.1060 -0.8880 -0.4470
vn -0.3880 0.7970 -0.4630
vn 0.1400 -0.8900 -0.4350
vn -0.3730 0.8140 -0.4440
vn 0.1650 -0.8820 -0.4420
vn -0.3810 0.8120 -0.4420
vn 0.8000 0.2820 -0.5290
vn -0.0940 -0.8390 -0.5360
vn 0.7840 0.3790 -0.4910
vn -0.1890 -0.8480 -0.4950
vn 0.7640 0.4330 -0.4790
vn -0.3010 -0.7950 -0.5270
vn 0.7420 0.4670 -0.4810
vn -0.2950 -0.8190 -0.4920
vn 0.7200 0.5400 -0.4360
vn -0.5170 -0.6720 -0.5300
vn 0.6950 0.5260 -0.4910
vn -0.3020 -0.8320 -0.4660
vn 0.6660 0.5380 -0.5170
vn -0.3330 -0.7980 -0.5020
vn 0.6490 0.6230 -0.4360
vn -0.5380 -0.7060 -0.4610
vn 0.6270 0.6590 -0.4160
vn -0.5390 -0.7270 -0.4250
vn 0.6010 0.6790 -0.4210
vn -0.5200 -0.7430 -0.4210
vn -0.8090 0.1540 -0.5680
vn 0.5580 0.6030 -0.5700
vn -0.8230 0.0830 -0.5620
vn 0.6120 0.5550 -0.5630
vn -0.8720 -0.0330 -0.4880
vn 0.7710 0.2770 -0.5740
vn -0.8070 -0.0220 -0.5910
vn 0.6250 0.5510 -0.5530
vn -0.8370 -0.1130 -0.5360
vn 0.7990 0.1490 -0.5820
vn -0.8320 -0.1720 -0.5270
vn 0.7800 0.3300 -0.5310
vn -0.8280 -0.2300 -0.5120
vn 0.8250 0.2340 -0.5140
vn -0.8460 -0.2900 -0.4470
vn 0.8730 0.2060 -0.4410
vn -0.8340 -0.3340 -0.4390
vn 0.8720 0.2210 -0.4370
vn -0.8200 -0.3760 -0.4310
vn 0.8830 0.1880 -0.4310
vn 0.5230 -0.5620 -0.6410
vn -0.7650 0.0890 -0.6380
vn 0.6060 -0.5260 -0.5960
vn -0.7800 0.1870 -0.5980
vn 0.6670 -0.4900 -0.5610
vn -0.7380 0.3440 -0.5800
vn 0.7300 -0.4590 -0.5070
vn -0.7690 0.3810 -0.5140
vn 0.7210 -0.4100 -0.5580
vn -0.8110 0.2100 -0.5470
vn 0.7770 -0.3860 -0.4980
vn -0.7340 0.4680 -0.4930
vn 0.8330 -0.3780 -0.4040
vn -0.6610 0.6600 -0.3570
vn 0.8580 -0.3600 -0.3670
vn -0.7820 0.5080 -0.3610
vn 0.8570 -0.3100 -0.4110
vn -0.7840 0.4440 -0.4330
vn 0.8720 -0.2820 -0.4010
vn -0.7400 0.5410 -0.4010
vn -0.2050 0.7700 -0.6040
vn 0.4460 -0.6590 -0.6060
vn -0.2800 0.7610 -0.5850
vn 0.3990 -0.7060 -0.5860
vn -0.3620 0.7770 -0.5150
vn 0.2150 -0.8380 -0.5020
vn -0.4120 0.7380 -0.5350
vn 0.3190 -0.7800 -0.5390
vn -0.4680 0.7450 -0.4750
vn 0.1330 -0.8940 -0.4280
vn -0.5140 0.7160 -0.4710
vn 0.2270 -0.8500 -0.4760
vn -0.5410 0.7550 -0.3720
vn 0.0510 -0.9630 -0.2650
vn -0.5770 0.7260 -0.3750
vn 0.1960 -0.9020 -0.3840
vn -0.5840 0.7530 -0.3050
vn 0.1450 -0.9550 -0.2600
vn -0.6030 0.7430 -0.2880
vn 0.1790 -0.9410 -0.2880
vn -0.4490 -0.6160 -0.6470
vn 0.2000 0.7350 -0.6480
vn -0.4050 -0.7000 -0.5880
vn 0.2910 0.7540 -0.5890
vn -0.3460 -0.7230 -0.5980
vn 0.3300 0.7300 -0.5980
vn -0.2900 -0.7540 -0.5890
vn 0.4050 0.7000 -0.5890
vn -0.2960 -0.8440 -0.4460
vn 0.7480 0.5750 -0.3310
vn -0.2370 -0.8500 -0.4710
vn 0.4750 0.7350 -0.4830
vn -0.2700 -0.9030 -0.3350
vn 0.7380 0.6440 -0.2020
vn -0.2360 -0.9130 -0.3340
vn 0.5500 0.7630 -0.3380
vn -0.2160 -0.9250 -0.3140
vn 0.5840 0.7500 -0.3100
vn -0.1960 -0.9340 -0.2980
vn 0.5990 0.7430 -0.2980
vn 0.6450 0.3810 -0.6620
vn -0.6220 -0.4180 -0.6620
vn 0.6690 0.4830 -0.5640
vn -0.7280 -0.3910 -0.5630
vn 0.6720 0.5510 -0.4950
vn -0.8460 -0.2690 -0.4600
vn 0.6440 0.5980 -0.4770
vn -0.8170 -0.3230 -0.4770
vn 0.6580 0.6360 -0.4030
vn -0.9230 -0.2030 -0.3280
vn 0.6250 0.6720 -0.3990
vn -0.8670 -0.2870 -0.4070
vn 0.6530 0.6850 -0.3230
vn -0.9490 -0.2050 -0.2400
vn 0.6290 0.7100 -0.3170
vn -0.9070 -0.2690 -0.3230
vn 0.6590 0.7070 -0.2560
vn -0.9420 -0.2570 -0.2150
vn 0.6510 0.7200 -0.2410
vn -0.9300 -0.2790 -0.2410
vn -0.7660 0.3100 -0.5630
vn 0.7900 -0.2430 -0.5630
vn -0.7550 0.2300 -0.6140
vn 0.7370 -0.2800 -0.6150
vn -0.8030 0.1750 -0.5700
vn 0.7140 -0.4300 -0.5530
vn -0.8460 0.1320 -0.5170
vn 0.7350 -0.4530 -0.5050
vn -0.9160 0.1520 -0.3720
vn 0.6700 -0.7130 -0.2050
vn -0.9190 0.1000 -0.3810
vn 0.7930 -0.4650 -0.3940
vn -0.9210 0.0470 -0.3870
vn 0.7700 -0.4760 -0.4260
vn -0.9610 0.1280 -0.2460
vn 0.8090 -0.5590 -0.1830
vn -0.9690 0.1440 -0.1990
vn 0.8410 -0.5140 -0.1680
vn -0.9730 0.1320 -0.1870
vn 0.8480 -0.4960 -0.1870
vn 0.3790 -0.6900 -0.6170
vn -0.3650 0.6970 -0.6170
vn 0.4520 -0.6600 -0.6000
vn -0.2940 0.7440 -0.6000
vn 0.5270 -0.7160 -0.4580
vn -0.0920 0.9250 -0.3680
vn 0.5710 -0.7110 -0.4110
vn -0.2510 0.8810 -0.4000
vn 0.6170 -0.6540 -0.4370
vn -0.2890 0.8190 -0.4960
vn 0.6180 -0.7260 -0.3020
vn -0.1790 0.9550 -0.2360
vn 0.6700 -0.6530 -0.3530
vn -0.2710 0.8500 -0.4520
vn 0.6630 -0.6970 -0.2740
vn -0.1810 0.9530 -0.2430
vn 0.6810 -0.6840 -0.2610
vn -0.1910 0.9450 -0.2660
vn 0.6940 -0.6770 -0.2450
vn -0.1750 0.9540 -0.2450
vn 0.1620 0.7840 -0.6000
vn -0.3220 -0.7320 -0.6000
vn 0.0970 0.8190 -0.5660
vn -0.3990 -0.7220 -0.5660
vn 0.0520 0.8570 -0.5130
vn -0.4970 -0.7140 -0.4930
vn 0.0330 0.8960 -0.4420
vn -0.5230 -0.7390 -0.4240
vn 0.0720 0.9440 -0.3220
vn -0.6300 -0.7500 -0.2010
vn 0.0460 0.9520 -0.3020
vn -0.5170 -0.8010 -0.3020
vn -0.0050 0.9510 -0.3090
vn -0.5230 -0.7790 -0.3450
vn 0.0780 0.9760 -0.2060
vn -0.5360 -0.8270 -0.1670
vn 0.0800 0.9800 -0.1830
vn -0.5120 -0.8410 -0.1750
vn 0.0710 0.9830 -0.1710
vn -0.5140 -0.8400 -0.1710
vn -0.6300 -0.5790 -0.5180
vn 0.7520 0.4110 -0.5150
vn -0.5760 -0.6460 -0.5000
vn 0.7930 0.3470 -0.5000
vn -0.5740 -0.7020 -0.4210
vn 0.8900 0.2640 -0.3710
vn -0.5530 -0.7420 -0.3790
vn 0.8810 0.2900 -0.3730
vn -0.5780 -0.7580 -0.3030
vn 0.9440 0.2450 -0.2190
vn -0.5630 -0.7790 -0.2760
vn 0.9150 0.2930 -0.2760
vn -0.5840 -0.7790 -0.2280
vn 0.9410 0.2850 -0.1810
vn -0.6170 -0.7670 -0.1790
vn 0.9270 0.3380 -0.1600
vn -0.6620 -0.7380 -0.1290
vn 0.9200 0.3810 -0.0890
vn -0.6590 -0.7430 -0.1190
vn 0.9110 0.3960 -0.1190
vn 0.8610 0.1860 -0.4730
vn -0.8640 0.1910 -0.4660
vn 0.8680 0.2560 -0.4260
vn -0.8710 0.2470 -0.4250
vn 0.9060 0.2670 -0.3290
vn -0.9060 0.3360 -0.2560
vn 0.9040 0.3050 -0.2990
vn -0.9070 0.2940 -0.3010
vn 0.9040 0.3310 -0.2700
vn -0.9070 0.3210 -0.2710
vn 0.9190 0.3240 -0.2250
vn -0.9220 0.3250 -0.2100
vn 0.9450 0.2800 -0.1700
vn -0.9460 0.3080 -0.1020
vn 0.9640 0.2350 -0.1260
vn -0.9660 0.2350 -0.1070
vn 0.9770 0.1940 -0.0930
vn -0.9780 0.1950 -0.0670
vn 0.9770 0.1970 -0.0860
vn -0.9790 0.1870 -0.0860
vn -0.6480 0.5360 -0.5410
vn 0.2220 -0.8130 -0.5380
vn -0.7190 0.5160 -0.4660
vn 0.1770 -0.8670 -0.4650
vn -0.7640 0.5080 -0.3980
vn 0.1290 -0.9200 -0.3700
vn -0.7780 0.5470 -0.3100
vn 0.1610 -0.9470 -0.2780
vn -0.7930 0.5470 -0.2680
vn 0.1650 -0.9540 -0.2480
vn -0.7500 0.6370 -0.1770
vn 0.2490 -0.9610 -0.1230
vn -0.7430 0.6520 -0.1480
vn 0.2820 -0.9520 -0.1220
vn -0.6930 0.7150 -0.0940
vn 0.3600 -0.9300 -0.0670
vn -0.6700 0.7390 -0.0710
vn 0.3950 -0.9170 -0.0530
vn -0.6720 0.7370 -0.0650
vn 0.4000 -0.9140 -0.0650
vn 0.9980 0.0360 -0.0500
vn -0.9060 0.4210 -0.0340
vn 0.9960 0.0650 -0.0570
vn -0.8940 0.4430 -0.0630
vn 0.9960 0.0660 -0.0580
vn -0.8940 0.4450 -0.0580
vn 0.9980 -0.0610 -0.0310
vn -0.9420 0.3360 0.0030
vn -0.9440 0.3280 -0.0310
vn 0.7280 0.6840 -0.0460
vn -0.9990 -0.0140 -0.0440
vn 0.8070 0.5890 -0.0310
vn -0.9910 -0.1350 -0.0080
vn 0.8610 0.5090 -0.0190
vn -0.9740 -0.2270 0.0230
vn 0.8840 0.4680 -0.0130
vn -0.9610 -0.2770 -0.0030
vn 0.8840 0.4680 -0.0140
vn -0.9610 -0.2780 -0.0140
vn -0.0280 0.9980 -0.0500
vn -0.4280 -0.9030 -0.0360
vn -0.0380 0.9980 -0.0530
vn -0.4330 -0.8990 -0.0550
vn 0.0140 0.9990 -0.0430
vn -0.3930 -0.9190 -0.0150
vn -0.0470 0.9970 -0.0570
vn -0.4390 -0.8960 -0.0740
vn -0.0470 0.9970 -0.0580
vn -0.4420 -0.8950 -0.0580
vn -0.5710 0.8180 -0.0750
vn 0.0970 -0.9930 -0.0730
vn -0.5900 0.8030 -0.0830
vn 0.0760 -0.9930 -0.0880
vn -0.5520 0.8310 -0.0710
vn 0.1160 -0.9920 -0.0520
vn -0.4540 0.8900 -0.0370
vn 0.2270 -0.9740 -0.0130
vn 0.2340 -0.9720 -0.0370
vn -0.9790 0.1570 -0.1330
vn 0.7570 -0.6410 -0.1300
vn -0.9770 0.1700 -0.1280
vn 0.7660 -0.6310 -0.1260
vn -0.9740 0.1890 -0.1210
vn 0.7770 -0.6190 -0.1120
vn -0.9640 0.2490 -0.0920
vn 0.8140 -0.5750 -0.0780
vn -0.9640 0.2490 -0.0930
vn 0.8180 -0.5680 -0.0930
vn -0.9070 -0.4100 -0.1020
vn 0.9920 -0.0720 -0.1010
vn -0.8910 -0.4400 -0.1170
vn 0.9870 -0.1030 -0.1220
vn -0.9190 -0.3820 -0.0920
vn 0.9960 -0.0520 -0.0680
vn -0.9160 -0.3890 -0.0970
vn 0.9940 -0.0480 -0.0980
vn -0.9160 -0.3890 -0.0980
vn 0.9940 -0.0490 -0.0980
vn -0.0710 -0.9960 -0.0600
vn 0.5990 0.7990 -0.0550
vn -0.1090 -0.9930 -0.0530
vn 0.5690 0.8210 -0.0460
vn -0.1190 -0.9920 -0.0510
vn 0.5600 0.8270 -0.0470
vn -0.1490 -0.9880 -0.0450
vn 0.5350 0.8440 -0.0390
vn -0.1490 -0.9880 -0.0460
vn 0.5340 0.8440 -0.0460
vn 0.7940 -0.6050 -0.0610
vn -0.2980 0.9530 -0.0570
vn 0.7960 -0.6020 -0.0630
vn -0.2950 0.9530 -0.0630
vn 0.7480 -0.6620 -0.0480
vn -0.3610 0.9320 -0.0120
vn 0.7410 -0.6700 -0.0470
vn -0.3770 0.9250 -0.0440
vn 0.7410 -0.6700 -0.0480
vn -0.3780 0.9250 -0.0480
vn 0.6090 0.6090 0.5080
vn 0.6150 0.6150 -0.4920
vn -0.6090 0.6090 0.5080
vn -0.6150 0.6150 -0.4920
vn -0.6090 -0.6090 0.5080
vn -0.6150 -0.6150 -0.4920
vn 0.6090 -0.6090 0.5080
vn 0.6150 -0.6150 -0.4920
usemtl TrunkA
f 1//1 2//1 3//1
f 3//2 2//2 4//2
f 2//3 5//3 4//3
f 4//4 5//4 6//4
f 5//5 7//5 6//5
f 6//6 7//6 8//6
f 7//7 9//7 8//7
f 8//8 9//8 10//8
f 9//9 11//9 10//9
f 10//10 11//10 12//10
f 11//11 1//11 12//11
f 12//12 1//12 3//12
f 14//25 13//25 19//25
f 19//26 13//26 20//26
f 13//27 15//27 20//27
f 20//28 15//28 21//28
f 15//29 16//29 21//29
f 21//30 16//30 22//30
f 16//31 17//31 22//31
f 22//32 17//32 23//32
f 17//33 18//33 23//33
f 23//34 18//34 24//34
f 18//35 14//35 24//35
f 24//36 14//36 19//36
f 26//49 25//49 31//49
f 31//50 25//50 32//50
f 25//51 27//51 32//51
f 32//52 27//52 33//52
f 27//53 28//53 33//53
f 33//54 28//54 34//54
f 28//55 29//55 34//55
f 34//56 29//56 35//56
f 29//57 30//57 35//57
f 35//58 30//58 36//58
f 30//59 26//59 36//59
f 36//60 26//60 31//60
f 38//73 37//73 43//73
f 43//74 37//74 44//74
f 37//75 39//75 44//75
f 44//76 39//76 45//76
f 39//77 40//77 45//77
f 45//78 40//78 46//78
f 40//79 41//79 46//79
f 46//80 41//80 47//80
f 41//81 42//81 47//81
f 47//82 42//82 48//82
f 42//83 38//83 48//83
f 48//84 38//84 43//84
f 50//97 49//97 55//97
f 55//98 49//98 56//98
f 49//99 51//99 56//99
f 56//100 51//100 57//100
f 51//101 52//101 57//101
f 57//102 52//102 58//102
f 52//103 53//103 58//103
f 58//104 53//104 59//104
f 53//105 54//105 59//105
f 59//106 54//106 60//106
f 54//107 50//107 60//107
f 60//108 50//108 55//108
f 62//121 61//121 67//121
f 67//122 61//122 68//122
f 61//123 63//123 68//123
f 68//124 63//124 69//124
f 63//125 64//125 69//125
f 69//126 64//126 70//126
f 64//127 65//127 70//127
f 70//128 65//128 71//128
f 65//129 66//129 71//129
f 71//130 66//130 72//130
f 66//131 62//131 72//131
f 72//132 62//132 67//132
usemtl TrunkB
f 3//13 13//13 14//13
f 3//14 4//14 13//14
f 4//15 15//15 13//15
f 4//16 6//16 15//16
f 6//17 16//17 15//17
f 6//18 8//18 16//18
f 8//19 17//19 16//19
f 8//20 10//20 17//20
f 10//21 18//21 17//21
f 10//22 12//22 18//22
f 12//23 14//23 18//23
f 12//24 3//24 14//24
f 19//37 25//37 26//37
f 19//38 20//38 25//38
f 20//39 27//39 25//39
f 20//40 21//40 27//40
f 21//41 28//41 27//41
f 21//42 22//42 28//42
f 22//43 29//43 28//43
f 22//44 23//44 29//44
f 23//45 30//45 29//45
f 23//46 24//46 30//46
f 24//47 26//47 30//47
f 24//48 19//48 26//48
f 31//61 37//61 38//61
f 31//62 32//62 37//62
f 32//63 39//63 37//63
f 32//64 33//64 39//64
f 33//65 40//65 39//65
f 33//66 34//66 40//66
f 34//67 41//67 40//67
f 34//68 35//68 41//68
f 35//69 42//69 41//69
f 35//70 36//70 42//70
f 36//71 38//71 42//71
f 36//72 31//72 38//72
f 43//85 49//85 50//85
f 43//86 44//86 49//86
f 44//87 51//87 49//87
f 44//88 45//88 51//88
f 45//89 52//89 51//89
f 45//90 46//90 52//90
f 46//91 53//91 52//91
f 46//92 47//92 53//92
f 47//93 54//93 53//93
f 47//94 48//94 54//94
f 48//95 50//95 54//95
f 48//96 43//96 50//96
f 55//109 61//109 62//109
f 55//110 56//110 61//110
f 56//111 63//111 61//111
f 56//112 57//112 63//112
f 57//113 64//113 63//113
f 57//114 58//114 64//114
f 58//115 65//115 64//115
f 58//116 59//116 65//116
f 59//117 66//117 65//117
f 59//118 60//118 66//118
f 60//119 62//119 66//119
f 60//120 55//120 62//120
f 67//133 73//133 74//133
f 67//134 68//134 73//134
f 68//135 75//135 73//135
f 68//136 69//136 75//136
f 69//137 76//137 75//137
f 69//138 70//138 76//138
f 70//139 77//139 76//139
f 70//140 71//140 77//140
f 71//141 78//141 77//141
f 71//142 72//142 78//142
f 72//143 74//143 78//143
f 72//144 67//144 74//144
usemtl Husk
f 74//145 73//145 79//145 80//145
f 73//146 75//146 81//146 79//146
f 75//147 76//147 82//147 81//147
f 76//148 77//148 83//148 82//148
f 77//149 78//149 84//149 83//149
f 78//150 74//150 80//150 84//150
f 80//151 79//151 85//151
f 79//152 81//152 85//152
f 81//153 82//153 85//153
f 82//154 83//154 85//154
f 83//155 84//155 85//155
f 84//156 80//156 85//156
usemtl Young
f 86//157 87//157 88//157
f 87//158 89//158 88//158
f 89//159 86//159 88//159
f 90//160 91//160 92//160 93//160
f 94//161 95//161 91//161 90//161
f 91//162 96//162 97//162 92//162
f 95//163 98//163 96//163 91//163
f 96//164 99//164 100//164 97//164
f 98//165 101//165 99//165 96//165
f 99//166 102//166 103//166 100//166
f 101//167 104//167 102//167 99//167
f 102//168 105//168 106//168 103//168
f 104//169 107//169 105//169 102//169
f 105//170 108//170 109//170 106//170
f 107//171 110//171 108//171 105//171
f 108//172 111//172 112//172 109//172
f 110//173 113//173 111//173 108//173
f 111//174 114//174 115//174 112//174
f 113//175 116//175 114//175 111//175
f 114//176 117//176 118//176 115//176
f 116//177 119//177 117//177 114//177
f 117//178 120//178 118//178
f 119//179 120//179 117//179
f 121//180 122//180 123//180 124//180
f 125//181 126//181 122//181 121//181
f 122//182 127//182 128//182 123//182
f 126//183 129//183 127//183 122//183
f 127//184 130//184 131//184 128//184
f 129//185 132//185 130//185 127//185
f 130//186 133//186 134//186 131//186
f 132//187 135//187 133//187 130//187
f 133//188 136//188 137//188 134//188
f 135//189 138//189 136//189 133//189
f 136//190 139//190 140//190 137//190
f 138//191 141//191 139//191 136//191
f 139//192 142//192 143//192 140//192
f 141//193 144//193 142//193 139//193
f 142//194 145//194 146//194 143//194
f 144//195 147//195 145//195 142//195
f 145//196 148//196 149//196 146//196
f 147//197 150//197 148//197 145//197
f 148//198 151//198 149//198
f 150//199 151//199 148//199
f 152//200 153//200 154//200 155//200
f 156//201 157//201 153//201 152//201
f 153//202 158//202 159//202 154//202
f 157//203 160//203 158//203 153//203
f 158//204 161//204 162//204 159//204
f 160//205 163//205 161//205 158//205
f 161//206 164//206 165//206 162//206
f 163//207 166//207 164//207 161//207
f 164//208 167//208 168//208 165//208
f 166//209 169//209 167//209 164//209
f 167//210 170//210 171//210 168//210
f 169//211 172//211 170//211 167//211
f 170//212 173//212 174//212 171//212
f 172//213 175//213 173//213 170//213
f 173//214 176//214 177//214 174//214
f 175//215 178//215 176//215 173//215
f 176//216 179//216 180//216 177//216
f 178//217 181//217 179//217 176//217
f 179//218 182//218 180//218
f 181//219 182//219 179//219
usemtl Frond
f 183//220 184//220 185//220 186//220
f 187//221 188//221 184//221 183//221
f 184//222 189//222 190//222 185//222
f 188//223 191//223 189//223 184//223
f 189//224 192//224 193//224 190//224
f 191//225 194//225 192//225 189//225
f 192//226 195//226 196//226 193//226
f 194//227 197//227 195//227 192//227
f 195//228 198//228 199//228 196//228
f 197//229 200//229 198//229 195//229
f 198//230 201//230 202//230 199//230
f 200//231 203//231 201//231 198//231
f 201//232 204//232 205//232 202//232
f 203//233 206//233 204//233 201//233
f 204//234 207//234 208//234 205//234
f 206//235 209//235 207//235 204//235
f 207//236 210//236 211//236 208//236
f 209//237 212//237 210//237 207//237
f 210//238 213//238 211//238
f 212//239 213//239 210//239
f 214//240 215//240 216//240 217//240
f 218//241 219//241 215//241 214//241
f 215//242 220//242 221//242 216//242
f 219//243 222//243 220//243 215//243
f 220//244 223//244 224//244 221//244
f 222//245 225//245 223//245 220//245
f 223//246 226//246 227//246 224//246
f 225//247 228//247 226//247 223//247
f 226//248 229//248 230//248 227//248
f 228//249 231//249 229//249 226//249
f 229//250 232//250 233//250 230//250
f 231//251 234//251 232//251 229//251
f 232//252 235//252 236//252 233//252
f 234//253 237//253 235//253 232//253
f 235//254 238//254 239//254 236//254
f 237//255 240//255 238//255 235//255
f 238//256 241//256 242//256 239//256
f 240//257 243//257 241//257 238//257
f 241//258 244//258 242//258
f 243//259 244//259 241//259
f 245//260 246//260 247//260 248//260
f 249//261 250//261 246//261 245//261
f 246//262 251//262 252//262 247//262
f 250//263 253//263 251//263 246//263
f 251//264 254//264 255//264 252//264
f 253//265 256//265 254//265 251//265
f 254//266 257//266 258//266 255//266
f 256//267 259//267 257//267 254//267
f 257//268 260//268 261//268 258//268
f 259//269 262//269 260//269 257//269
f 260//270 263//270 264//270 261//270
f 262//271 265//271 263//271 260//271
f 263//272 266//272 267//272 264//272
f 265//273 268//273 266//273 263//273
f 266//274 269//274 270//274 267//274
f 268//275 271//275 269//275 266//275
f 269//276 272//276 273//276 270//276
f 271//277 274//277 272//277 269//277
f 272//278 275//278 273//278
f 274//279 275//279 272//279
f 276//280 277//280 278//280 279//280
f 280//281 281//281 277//281 276//281
f 277//282 282//282 283//282 278//282
f 281//283 284//283 282//283 277//283
f 282//284 285//284 286//284 283//284
f 284//285 287//285 285//285 282//285
f 285//286 288//286 289//286 286//286
f 287//287 290//287 288//287 285//287
f 288//288 291//288 292//288 289//288
f 290//289 293//289 291//289 288//289
f 291//290 294//290 295//290 292//290
f 293//291 296//291 294//291 291//291
f 294//292 297//292 298//292 295//292
f 296//293 299//293 297//293 294//293
f 297//294 300//294 301//294 298//294
f 299//295 302//295 300//295 297//295
f 300//296 303//296 304//296 301//296
f 302//297 305//297 303//297 300//297
f 303//298 306//298 304//298
f 305//299 306//299 303//299
f 307//300 308//300 309//300 310//300
f 311//301 312//301 308//301 307//301
f 308//302 313//302 314//302 309//302
f 312//303 315//303 313//303 308//303
f 313//304 316//304 317//304 314//304
f 315//305 318//305 316//305 313//305
f 316//306 319//306 320//306 317//306
f 318//307 321//307 319//307 316//307
f 319//308 322//308 323//308 320//308
f 321//309 324//309 322//309 319//309
f 322//310 325//310 326//310 323//310
f 324//311 327//311 325//311 322//311
f 325//312 328//312 329//312 326//312
f 327//313 330//313 328//313 325//313
f 328//314 331//314 332//314 329//314
f 330//315 333//315 331//315 328//315
f 331//316 334//316 335//316 332//316
f 333//317 336//317 334//317 331//317
f 334//318 337//318 335//318
f 336//319 337//319 334//319
f 338//320 339//320 340//320 341//320
f 342//321 343//321 339//321 338//321
f 339//322 344//322 345//322 340//322
f 343//323 346//323 344//323 339//323
f 344//324 347//324 348//324 345//324
f 346//325 349//325 347//325 344//325
f 347//326 350//326 351//326 348//326
f 349//327 352//327 350//327 347//327
f 350//328 353//328 354//328 351//328
f 352//329 355//329 353//329 350//329
f 353//330 356//330 357//330 354//330
f 355//331 358//331 356//331 353//331
f 356//332 359//332 360//332 357//332
f 358//333 361//333 359//333 356//333
f 359//334 362//334 363//334 360//334
f 361//335 364//335 362//335 359//335
f 362//336 365//336 366//336 363//336
f 364//337 367//337 365//337 362//337
f 365//338 368//338 366//338
f 367//339 368//339 365//339
f 369//340 370//340 371//340 372//340
f 373//341 374//341 370//341 369//341
f 370//342 375//342 376//342 371//342
f 374//343 377//343 375//343 370//343
f 375//344 378//344 379//344 376//344
f 377//345 380//345 378//345 375//345
f 378//346 381//346 382//346 379//346
f 380//347 383//347 381//347 378//347
f 381//348 384//348 385//348 382//348
f 383//349 386//349 384//349 381//349
f 384//350 387//350 388//350 385//350
f 386//351 389//351 387//351 384//351
f 387//352 390//352 391//352 388//352
f 389//353 392//353 390//353 387//353
f 390//354 393//354 394//354 391//354
f 392//355 395//355 393//355 390//355
f 393//356 396//356 397//356 394//356
f 395//357 398//357 396//357 393//357
f 396//358 399//358 397//358
f 398//359 399//359 396//359
f 400//360 401//360 402//360 403//360
f 404//361 405//361 401//361 400//361
f 401//362 406//362 407//362 402//362
f 405//363 408//363 406//363 401//363
f 406//364 409//364 410//364 407//364
f 408//365 411//365 409//365 406//365
f 409//366 412//366 413//366 410//366
f 411//367 414//367 412//367 409//367
f 412//368 415//368 416//368 413//368
f 414//369 417//369 415//369 412//369
f 415//370 418//370 419//370 416//370
f 417//371 420//371 418//371 415//371
f 418//372 421//372 422//372 419//372
f 420//373 423//373 421//373 418//373
f 421//374 424//374 425//374 422//374
f 423//375 426//375 424//375 421//375
f 424//376 427//376 428//376 425//376
f 426//377 429//377 427//377 424//377
f 427//378 430//378 428//378
f 429//379 430//379 427//379
f 431//380 432//380 433//380 434//380
f 435//381 436//381 432//381 431//381
f 432//382 437//382 438//382 433//382
f 436//383 439//383 437//383 432//383
f 437//384 440//384 441//384 438//384
f 439//385 442//385 440//385 437//385
f 440//386 443//386 444//386 441//386
f 442//387 445//387 443//387 440//387
f 443//388 446//388 447//388 444//388
f 445//389 448//389 446//389 443//389
f 446//390 449//390 450//390 447//390
f 448//391 451//391 449//391 446//391
f 449//392 452//392 453//392 450//392
f 451//393 454//393 452//393 449//393
f 452//394 455//394 456//394 453//394
f 454//395 457//395 455//395 452//395
f 455//396 458//396 459//396 456//396
f 457//397 460//397 458//397 455//397
f 458//398 461//398 459//398
f 460//399 461//399 458//399
f 462//400 463//400 464//400 465//400
f 466//401 467//401 463//401 462//401
f 463//402 468//402 469//402 464//402
f 467//403 470//403 468//403 463//403
f 468//404 471//404 472//404 469//404
f 470//405 473//405 471//405 468//405
f 471//406 474//406 475//406 472//406
f 473//407 476//407 474//407 471//407
f 474//408 477//408 478//408 475//408
f 476//409 479//409 477//409 474//409
f 477//410 480//410 481//410 478//410
f 479//411 482//411 480//411 477//411
f 480//412 483//412 484//412 481//412
f 482//413 485//413 483//413 480//413
f 483//414 486//414 487//414 484//414
f 485//415 488//415 486//415 483//415
f 486//416 489//416 490//416 487//416
f 488//417 491//417 489//417 486//417
f 489//418 492//418 490//418
f 491//419 492//419 489//419
f 493//420 494//420 495//420 496//420
f 497//421 498//421 494//421 493//421
f 494//422 499//422 500//422 495//422
f 498//423 501//423 499//423 494//423
f 499//424 502//424 503//424 500//424
f 501//425 504//425 502//425 499//425
f 502//426 505//426 506//426 503//426
f 504//427 507//427 505//427 502//427
f 505//428 508//428 509//428 506//428
f 507//429 510//429 508//429 505//429
f 508//430 511//430 512//430 509//430
f 510//431 513//431 511//431 508//431
f 511//432 514//432 515//432 512//432
f 513//433 516//433 514//433 511//433
f 514//434 517//434 518//434 515//434
f 516//435 519//435 517//435 514//435
f 517//436 520//436 521//436 518//436
f 519//437 522//437 520//437 517//437
f 520//438 523//438 521//438
f 522//439 523//439 520//439
f 524//440 525//440 526//440 527//440
f 528//441 529//441 525//441 524//441
f 525//442 530//442 531//442 526//442
f 529//443 532//443 530//443 525//443
f 530//444 533//444 534//444 531//444
f 532//445 535//445 533//445 530//445
f 533//446 536//446 537//446 534//446
f 535//447 538//447 536//447 533//447
f 536//448 539//448 540//448 537//448
f 538//449 541//449 539//449 536//449
f 539//450 542//450 543//450 540//450
f 541//451 544//451 542//451 539//451
f 542//452 545//452 546//452 543//452
f 544//453 547//453 545//453 542//453
f 545//454 548//454 549//454 546//454
f 547//455 550//455 548//455 545//455
f 548//456 551//456 552//456 549//456
f 550//457 553//457 551//457 548//457
f 551//458 554//458 552//458
f 553//459 554//459 551//459
usemtl Old
f 555//460 556//460 557//460 558//460
f 559//461 560//461 556//461 555//461
f 556//462 561//462 562//462 557//462
f 560//463 563//463 561//463 556//463
f 561//464 564//464 565//464 562//464
f 563//465 566//465 564//465 561//465
f 564//466 567//466 568//466 565//466
f 566//467 569//467 567//467 564//467
f 567//468 570//468 571//468 568//468
f 569//469 572//469 570//469 567//469
f 570//470 573//470 574//470 571//470
f 572//471 575//471 573//471 570//471
f 573//472 576//472 577//472 574//472
f 575//473 578//473 576//473 573//473
f 576//474 579//474 580//474 577//474
f 578//475 581//475 579//475 576//475
f 579//476 582//476 583//476 580//476
f 581//477 584//477 582//477 579//477
f 582//478 585//478 583//478
f 584//479 585//479 582//479
f 586//480 587//480 588//480 589//480
f 590//481 591//481 587//481 586//481
f 587//482 592//482 593//482 588//482
f 591//483 594//483 592//483 587//483
f 592//484 595//484 596//484 593//484
f 594//485 597//485 595//485 592//485
f 595//486 598//486 599//486 596//486
f 597//487 600//487 598//487 595//487
f 598//488 601//488 602//488 599//488
f 600//489 603//489 601//489 598//489
f 601//490 604//490 605//490 602//490
f 603//491 606//491 604//491 601//491
f 604//492 607//492 608//492 605//492
f 606//493 609//493 607//493 604//493
f 607//494 610//494 611//494 608//494
f 609//495 612//495 610//495 607//495
f 610//496 613//496 614//496 611//496
f 612//497 615//497 613//497 610//497
f 613//498 616//498 614//498
f 615//499 616//499 613//499
f 617//500 618//500 619//500 620//500
f 621//501 622//501 618//501 617//501
f 618//502 623//502 624//502 619//502
f 622//503 625//503 623//503 618//503
f 623//504 626//504 627//504 624//504
f 625//505 628//505 626//505 623//505
f 626//506 629//506 630//506 627//506
f 628//507 631//507 629//507 626//507
f 629//508 632//508 633//508 630//508
f 631//509 634//509 632//509 629//509
f 632//510 635//510 636//510 633//510
f 634//511 637//511 635//511 632//511
f 635//512 638//512 639//512 636//512
f 637//513 640//513 638//513 635//513
f 638//514 641//514 642//514 639//514
f 640//515 643//515 641//515 638//515
f 641//516 644//516 645//516 642//516
f 643//517 646//517 644//517 641//517
f 644//518 647//518 645//518
f 646//519 647//519 644//519
usemtl Dead
f 648//520 649//520 650//520 651//520
f 652//521 653//521 649//521 648//521
f 649//522 654//522 655//522 650//522
f 653//523 656//523 654//523 649//523
f 654//524 657//524 658//524 655//524
f 656//525 659//525 657//525 654//525
f 657//526 660//526 661//526 658//526
f 659//527 662//527 660//527 657//527
f 660//526 663//526 661//526
f 662//528 663//528 660//528
f 664//529 665//529 666//529 667//529
f 668//530 669//530 665//530 664//530
f 665//531 670//531 671//531 666//531
f 669//532 672//532 670//532 665//532
f 670//533 673//533 674//533 671//533
f 672//534 675//534 673//534 670//534
f 673//535 676//535 677//535 674//535
f 675//536 678//536 676//536 673//536
f 676//537 679//537 677//537
f 678//538 679//538 676//538
f 680//539 681//539 682//539 683//539
f 684//540 685//540 681//540 680//540
f 681//541 686//541 687//541 682//541
f 685//542 688//542 686//542 681//542
f 686//543 689//543 690//543 687//543
f 688//544 691//544 689//544 686//544
f 689//545 692//545 693//545 690//545
f 691//546 694//546 692//546 689//546
f 692//547 695//547 693//547
f 694//548 695//548 692//548
f 696//549 697//549 698//549 699//549
f 700//550 701//550 697//550 696//550
f 697//551 702//551 703//551 698//551
f 701//552 704//552 702//552 697//552
f 702//553 705//553 706//553 703//553
f 704//554 707//554 705//554 702//554
f 705//555 708//555 709//555 706//555
f 707//556 710//556 708//556 705//556
f 708//555 711//555 709//555
f 710//557 711//557 708//557
f 712//558 713//558 714//558 715//558
f 716//559 717//559 713//559 712//559
f 713//560 718//560 719//560 714//560
f 717//561 720//561 718//561 713//561
f 718//562 721//562 722//562 719//562
f 720//563 723//563 721//563 718//563
f 721//564 724//564 725//564 722//564
f 723//565 726//565 724//565 721//565
f 724//566 727//566 725//566
f 726//567 727//567 724//567
f 728//568 729//568 730//568 731//568
f 732//569 733//569 729//569 728//569
f 729//570 734//570 735//570 730//570
f 733//571 736//571 734//571 729//571
f 734//572 737//572 738//572 735//572
f 736//573 739//573 737//573 734//573
f 737//574 740//574 741//574 738//574
f 739//575 742//575 740//575 737//575
f 740//576 743//576 741//576
f 742//577 743//577 740//577
f 744//578 745//578 746//578 747//578
f 748//579 749//579 745//579 744//579
f 745//580 750//580 751//580 746//580
f 749//581 752//581 750//581 745//581
f 750//582 753//582 754//582 751//582
f 752//583 755//583 753//583 750//583
f 753//584 756//584 757//584 754//584
f 755//585 758//585 756//585 753//585
f 756//586 759//586 757//586
f 758//587 759//587 756//587
f 760//588 761//588 762//588 763//588
f 764//589 765//589 761//589 760//589
f 761//590 766//590 767//590 762//590
f 765//591 768//591 766//591 761//591
f 766//592 769//592 770//592 767//592
f 768//593 771//593 769//593 766//593
f 769//594 772//594 773//594 770//594
f 771//595 774//595 772//595 769//595
f 772//596 775//596 773//596
f 774//597 775//597 772//597
usemtl Nut
f 776//598 777//598 778//598
f 777//599 776//599 779//599
f 777//600 780//600 778//600
f 780//601 777//601 779//601
f 780//602 781//602 778//602
f 781//603 780//603 779//603
f 781//604 776//604 778//604
f 776//605 781//605 779//605
f 782//598 783//598 784//598
f 783//599 782//599 785//599
f 783//600 786//600 784//600
f 786//601 783//601 785//601
f 786//602 787//602 784//602
f 787//603 786//603 785//603
f 787//604 782//604 784//604
f 782//605 787//605 785//605
f 788//598 789//598 790//598
f 789//599 788//599 791//599
f 789//600 792//600 790//600
f 792//601 789//601 791//601
f 792//602 793//602 790//602
f 793//603 792//603 791//603
f 793//604 788//604 790//604
f 788//605 793//605 791//605
f 794//598 795//598 796//598
f 795//599 794//599 797//599
f 795//600 798//600 796//600
f 798//601 795//601 797//601
f 798//602 799//602 796//602
f 799//603 798//603 797//603
f 799//604 794//604 796//604
f 794//605 799//605 797//605
f 800//598 801//598 802//598
f 801//599 800//599 803//599
f 801//600 804//600 802//600
f 804//601 801//601 803//601
f 804//602 805//602 802//602
f 805//603 804//603 803//603
f 805//604 800//604 802//604
f 800//605 805//605 803//605
f 806//598 807//598 808//598
f 807//599 806//599 809//599
f 807//600 810//600 808//600
f 810//601 807//601 809//601
f 810//602 811//602 808//602
f 811//603 810//603 809//603
f 811//604 806//604 808//604
f 806//605 811//605 809//605
f 812//598 813//598 814//598
f 813//599 812//599 815//599
f 813//600 816//600 814//600
f 816//601 813//601 815//601
f 816//602 817//602 814//602
f 817//603 816//603 815//603
f 817//604 812//604 814//604
f 812//605 817//605 815//605
f 818//598 819//598 820//598
f 819//599 818//599 821//599
f 819//600 822//600 820//600
f 822//601 819//601 821//601
f 822//602 823//602 820//602
f 823//603 822//603 821//603
f 823//604 818//604 820//604
f 818//605 823//605 821//605
f 824//598 825//598 826//598
f 825//599 824//599 827//599
f 825//600 828//600 826//600
f 828//601 825//601 827//601
f 828//602 829//602 826//602
f 829//603 828//603 827//603
f 829//604 824//604 826//604
f 824//605 829//605 827//605
f 830//598 831//598 832//598
f 831//599 830//599 833//599
f 831//600 834//600 832//600
f 834//601 831//601 833//601
f 834//602 835//602 832//602
f 835//603 834//603 833//603
f 835//604 830//604 832//604
f 830//605 835//605 833//605
