# LowPolyPalms - dead palm snag (cm, Z up)
mtllib SM_Palm_Dead_A.mtl
o SM_Palm_Dead_A
v 36.25 0.00 -0.21
v 18.07 30.05 -9.18
v 20.91 28.88 54.38
v 0.30 40.31 51.25
v -18.18 30.05 -8.97
v -20.28 28.88 54.65
v -36.25 0.00 0.21
v -20.23 6.01 61.18
v -18.07 -30.05 9.18
v 0.38 -5.42 64.31
v 18.18 -30.05 8.97
v 20.96 6.01 60.91
v 12.01 52.02 110.65
v 23.39 33.01 115.22
v -10.62 52.02 110.99
v -21.86 33.01 115.89
v -10.47 13.99 120.46
v 12.15 13.99 120.12
v 20.63 56.77 170.52
v 1.91 67.32 169.00
v -16.65 56.77 171.82
v -16.50 35.67 176.15
v 2.22 25.13 177.66
v 20.78 35.67 174.85
v 14.88 74.30 227.72
v 25.29 56.75 229.83
v -5.60 74.30 229.00
v -15.66 56.75 232.40
v -5.25 39.20 234.51
v 15.22 39.20 233.22
v 26.10 74.14 286.28
v 9.12 83.87 286.81
v -7.65 74.14 289.42
v -7.46 54.68 291.50
v 9.51 44.95 290.97
v 26.29 54.68 288.36
v 24.76 85.39 344.59
v 34.17 69.21 344.42
v 6.18 85.39 346.84
v -3.00 69.21 348.92
v 6.41 53.02 348.74
v 24.99 53.02 346.50
v 38.69 80.30 402.13
v 23.26 89.29 404.16
v 7.86 80.30 406.48
v 7.90 62.33 406.76
v 23.34 53.34 404.73
v 38.73 62.33 402.41
v 40.52 86.12 461.24
v 49.06 71.08 459.66
v 23.34 86.12 463.81
v 14.70 71.08 464.79
v 23.25 56.04 463.20
v 40.43 56.04 460.64
v 55.16 77.45 480.18
v 40.65 85.95 485.69
v 26.04 77.45 496.14
v 25.95 60.47 510.00
v 40.46 51.97 475.80
v 55.07 60.47 473.08
v 40.55 68.96 460.00
v 25.61 67.66 400.00
v -1.87 65.26 375.77
v 0.51 67.33 373.01
v 28.56 71.33 396.29
v 29.16 64.55 396.29
v 0.83 63.65 373.01
v -29.35 62.87 349.04
v 54.15 75.30 330.00
v 82.73 88.63 311.80
v 81.86 85.97 308.69
v 53.22 71.31 325.61
v 50.49 77.15 325.61
v 80.13 89.67 308.69
v 111.32 101.96 291.10
v 39.67 53.98 260.00
v 37.26 12.91 239.56
v 35.50 14.76 236.25
v 36.43 56.38 255.56
v 43.18 55.99 255.56
v 39.23 14.54 236.25
v 34.85 -28.16 216.63
vn 0.8590 0.5110 -0.0290
vn 0.4860 0.8740 -0.0060
vn -0.0010 0.9860 -0.1680
vn -0.4860 0.8740 0.0000
vn -0.8590 0.5110 -0.0190
vn -0.9670 0.0690 0.2470
vn -0.8580 -0.4390 0.2690
vn -0.4790 -0.7310 0.4870
vn 0.0020 -0.9130 0.4070
vn 0.4850 -0.7300 0.4810
vn 0.8610 -0.4390 0.2580
vn 0.9690 0.0690 0.2360
vn 0.8630 0.5000 -0.0690
vn 0.4980 0.8270 -0.2610
vn -0.0030 0.9810 -0.1930
vn -0.5020 0.8270 -0.2540
vn -0.8660 0.4970 -0.0560
vn -1.0000 -0.0090 -0.0250
vn -0.8610 -0.4660 0.2040
vn -0.4980 -0.8450 0.1960
vn 0.0050 -0.9450 0.3280
vn 0.5010 -0.8450 0.1880
vn 0.8660 -0.4630 0.1910
vn 0.9990 -0.0100 -0.0400
vn 0.8630 0.4780 -0.1620
vn 0.4950 0.8580 -0.1390
vn -0.0040 0.9670 -0.2540
vn -0.5040 0.8560 -0.1170
vn -0.8680 0.4810 -0.1240
vn -0.9960 0.0110 0.0880
vn -0.8640 -0.4940 0.0990
vn -0.4890 -0.8290 0.2700
vn 0.0030 -0.9820 0.1900
vn 0.5070 -0.8260 0.2470
vn 0.8660 -0.4960 0.0600
vn 0.9990 0.0160 0.0430
vn 0.8620 0.5030 -0.0680
vn 0.4930 0.8450 -0.2090
vn -0.0070 0.9930 -0.1170
vn -0.5060 0.8470 -0.1620
vn -0.8660 0.4990 0.0140
vn -1.0000 -0.0040 0.0160
vn -0.8540 -0.4830 0.1940
vn -0.4950 -0.8570 0.1470
vn 0.0150 -0.9700 0.2420
vn 0.5030 -0.8590 0.1000
vn 0.8710 -0.4780 0.1120
vn 0.9970 -0.0090 -0.0780
vn 0.8570 0.4890 -0.1630
vn 0.4930 0.8650 -0.0920
vn -0.0100 0.9870 -0.1610
vn -0.5030 0.8640 -0.0150
vn -0.8690 0.4930 -0.0280
vn -0.9900 0.0050 0.1380
vn -0.8610 -0.4980 0.1020
vn -0.4810 -0.8510 0.2120
vn 0.0060 -0.9950 0.1000
vn 0.5130 -0.8480 0.1350
vn 0.8640 -0.5020 -0.0330
vn 1.0000 0.0080 -0.0170
vn 0.8620 0.5020 -0.0770
vn 0.4880 0.8590 -0.1550
vn -0.0030 1.0000 -0.0250
vn -0.5070 0.8610 -0.0470
vn -0.8590 0.5010 0.1090
vn -0.9970 -0.0020 0.0780
vn -0.8480 -0.4950 0.1910
vn -0.4930 -0.8650 0.0940
vn 0.0170 -0.9900 0.1390
vn 0.5000 -0.8660 -0.0140
vn 0.8700 -0.4930 0.0050
vn 0.9900 -0.0050 -0.1380
vn 0.8520 0.4970 -0.1620
vn 0.4980 0.8660 -0.0440
vn -0.0080 0.9980 -0.0650
vn -0.4920 0.8660 0.0880
vn -0.8640 0.4990 0.0670
vn -0.9830 0.0010 0.1850
vn -0.8600 -0.5010 0.1020
vn -0.4830 -0.8630 0.1510
vn 0.0010 -1.0000 0.0050
vn 0.5060 -0.8620 0.0190
vn 0.8560 -0.5020 -0.1270
vn 0.9970 0.0010 -0.0780
vn 0.8640 0.4990 -0.0760
vn 0.4910 0.8660 -0.1000
vn 0.0080 0.9990 0.0530
vn -0.4980 0.8660 0.0470
vn -0.8480 0.4990 0.1780
vn -0.9930 -0.0000 0.1160
vn -0.8480 -0.5000 0.1750
vn -0.4990 -0.8660 0.0390
vn 0.0070 -0.9990 0.0460
vn 0.4890 -0.8660 -0.1080
vn 0.8620 -0.5000 -0.0790
vn 0.9840 -0.0010 -0.1770
vn 0.7850 0.4860 -0.3840
vn 0.5060 0.8620 0.0030
vn 0.0010 1.0000 0.0070
vn -0.3320 0.9040 0.2700
vn -0.8430 0.4970 0.2040
vn -0.9280 0.2390 0.2870
vn -0.8610 -0.4990 0.0970
vn -0.3020 -0.9470 0.1070
vn -0.0390 -0.9650 -0.2590
vn 0.4560 -0.8590 -0.2320
vn 0.6580 -0.4190 -0.6260
vn 0.9390 0.1280 -0.3190
vn -0.2680 -0.8030 0.5320
vn 0.6600 -0.6270 0.4130
vn 0.9180 0.2480 0.3100
vn 0.9060 0.2860 0.3130
vn -0.2520 0.6600 0.7080
vn -0.7260 -0.2620 0.6360
vn 0.3680 -0.8690 -0.3320
vn 0.2300 0.9210 -0.3150
vn 0.3840 -0.8670 -0.3170
vn 0.2280 0.9210 -0.3170
vn -0.5900 0.6880 -0.4230
vn 0.1410 -0.8980 -0.4180
vn -0.6120 0.6780 -0.4080
vn 0.1260 -0.9040 -0.4080
vn 0.9040 0.1460 -0.4010
vn -0.8800 0.2670 -0.3930
vn 0.9060 0.1650 -0.3910
vn -0.8800 0.2700 -0.3910
usemtl TrunkA
f 1//1 2//1 3//1
f 3//2 2//2 4//2
f 2//3 5//3 4//3
f 4//4 5//4 6//4
f 5//5 7//5 6//5
f 6//6 7//6 8//6
f 7//7 9//7 8//7
f 8//8 9//8 10//8
f 9//9 11//9 10//9
f 10//10 11//10 12//10
f 11//11 1//11 12//11
f 12//12 1//12 3//12
f 14//25 13//25 19//25
f 19//26 13//26 20//26
f 13//27 15//27 20//27
f 20//28 15//28 21//28
f 15//29 16//29 21//29
f 21//30 16//30 22//30
f 16//31 17//31 22//31
f 22//32 17//32 23//32
f 17//33 18//33 23//33
f 23//34 18//34 24//34
f 18//35 14//35 24//35
f 24//36 14//36 19//36
f 26//49 25//49 31//49
f 31//50 25//50 32//50
f 25//51 27//51 32//51
f 32//52 27//52 33//52
f 27//53 28//53 33//53
f 33//54 28//54 34//54
f 28//55 29//55 34//55
f 34//56 29//56 35//56
f 29//57 30//57 35//57
f 35//58 30//58 36//58
f 30//59 26//59 36//59
f 36//60 26//60 31//60
f 38//73 37//73 43//73
f 43//74 37//74 44//74
f 37//75 39//75 44//75
f 44//76 39//76 45//76
f 39//77 40//77 45//77
f 45//78 40//78 46//78
f 40//79 41//79 46//79
f 46//80 41//80 47//80
f 41//81 42//81 47//81
f 47//82 42//82 48//82
f 42//83 38//83 48//83
f 48//84 38//84 43//84
f 50//97 49//97 55//97
f 55//98 49//98 56//98
f 49//99 51//99 56//99
f 56//100 51//100 57//100
f 51//101 52//101 57//101
f 57//102 52//102 58//102
f 52//103 53//103 58//103
f 58//104 53//104 59//104
f 53//105 54//105 59//105
f 59//106 54//106 60//106
f 54//107 50//107 60//107
f 60//108 50//108 55//108
usemtl TrunkB
f 3//13 13//13 14//13
f 3//14 4//14 13//14
f 4//15 15//15 13//15
f 4//16 6//16 15//16
f 6//17 16//17 15//17
f 6//18 8//18 16//18
f 8//19 17//19 16//19
f 8//20 10//20 17//20
f 10//21 18//21 17//21
f 10//22 12//22 18//22
f 12//23 14//23 18//23
f 12//24 3//24 14//24
f 19//37 25//37 26//37
f 19//38 20//38 25//38
f 20//39 27//39 25//39
f 20//40 21//40 27//40
f 21//41 28//41 27//41
f 21//42 22//42 28//42
f 22//43 29//43 28//43
f 22//44 23//44 29//44
f 23//45 30//45 29//45
f 23//46 24//46 30//46
f 24//47 26//47 30//47
f 24//48 19//48 26//48
f 31//61 37//61 38//61
f 31//62 32//62 37//62
f 32//63 39//63 37//63
f 32//64 33//64 39//64
f 33//65 40//65 39//65
f 33//66 34//66 40//66
f 34//67 41//67 40//67
f 34//68 35//68 41//68
f 35//69 42//69 41//69
f 35//70 36//70 42//70
f 36//71 38//71 42//71
f 36//72 31//72 38//72
f 43//85 49//85 50//85
f 43//86 44//86 49//86
f 44//87 51//87 49//87
f 44//88 45//88 51//88
f 45//89 52//89 51//89
f 45//90 46//90 52//90
f 46//91 53//91 52//91
f 46//92 47//92 53//92
f 47//93 54//93 53//93
f 47//94 48//94 54//94
f 48//95 50//95 54//95
f 48//96 43//96 50//96
usemtl Husk
f 55//109 56//109 61//109
f 56//110 57//110 61//110
f 57//111 58//111 61//111
f 58//112 59//112 61//112
f 59//113 60//113 61//113
f 60//114 55//114 61//114
usemtl Dead
f 62//115 63//115 64//115 65//115
f 66//116 67//116 63//116 62//116
f 63//117 68//117 64//117
f 67//118 68//118 63//118
f 69//119 70//119 71//119 72//119
f 73//120 74//120 70//120 69//120
f 70//121 75//121 71//121
f 74//122 75//122 70//122
f 76//123 77//123 78//123 79//123
f 80//124 81//124 77//124 76//124
f 77//125 82//125 78//125
f 81//126 82//126 77//126
