# LowPolyPalms - coconut palm SM_Palm_Coco_A (cm, Z up)
mtllib SM_Palm_Coco_A.mtl
o SM_Palm_Coco_A
v 34.76 0.00 14.59
v 17.67 32.64 6.61
v -1.72 13.64 59.45
v -21.48 26.00 51.17
v -17.09 32.64 -7.98
v -41.44 13.64 43.39
v -34.76 0.00 -14.59
v -41.65 -11.10 43.89
v -17.67 -32.64 -6.61
v -21.88 -23.46 52.16
v 17.09 -32.64 7.98
v -1.92 -11.10 59.94
v -30.59 22.78 107.01
v -19.72 2.42 111.54
v -52.63 22.78 98.80
v -63.81 2.42 95.13
v -52.95 -17.95 99.66
v -30.91 -17.95 107.87
v -41.72 14.93 160.91
v -59.95 26.10 154.39
v -78.39 14.93 148.48
v -78.60 -7.41 149.09
v -60.37 -18.59 155.61
v -41.93 -7.41 161.52
v -66.40 23.93 209.06
v -56.45 5.56 212.84
v -86.72 23.93 202.89
v -97.09 5.56 200.49
v -87.14 -12.82 204.28
v -66.82 -12.82 210.45
v -74.53 18.09 262.33
v -91.27 28.17 257.29
v -108.28 18.09 253.29
v -108.56 -2.05 254.34
v -91.83 -12.12 259.38
v -74.81 -2.05 263.37
v -94.84 27.85 311.04
v -85.76 11.29 314.32
v -113.52 27.85 306.72
v -123.11 11.29 305.68
v -114.04 -5.27 308.96
v -95.36 -5.27 313.28
v -99.79 24.47 363.92
v -115.14 33.55 360.14
v -130.78 24.47 357.89
v -131.08 6.31 359.41
v -115.73 -2.77 363.19
v -100.09 6.31 365.45
v -115.74 35.26 413.21
v -107.40 20.29 416.05
v -132.89 35.26 410.49
v -141.70 20.29 410.61
v -133.36 5.33 413.45
v -116.21 5.33 416.17
v -117.46 34.10 465.85
v -131.60 42.34 463.18
v -145.96 34.10 462.33
v -146.19 17.63 464.15
v -132.05 9.39 466.82
v -117.69 17.63 467.67
v -129.26 45.57 515.77
v -121.49 31.90 518.09
v -145.10 45.57 514.35
v -153.16 31.90 515.24
v -145.39 18.22 517.56
v -129.55 18.22 518.99
v -127.81 45.73 568.20
v -141.02 53.35 566.52
v -154.34 45.73 566.66
v -154.44 30.50 568.47
v -141.23 22.89 570.14
v -127.92 30.50 570.01
v -135.78 57.12 618.80
v -128.35 44.21 620.64
v -150.76 57.12 618.16
v -158.32 44.21 619.36
v -150.89 31.31 621.20
v -135.91 31.31 621.84
v -134.01 67.43 656.46
v -123.24 48.72 659.13
v -155.74 67.43 655.53
v -166.70 48.72 657.27
v -155.93 30.02 659.94
v -134.20 30.02 660.87
v -146.30 52.41 689.46
v -137.30 52.41 679.46
v -150.85 60.18 679.46
v -152.66 69.98 838.29
v -150.71 44.57 679.46
v -146.11 66.41 677.46
v -145.93 79.63 710.83
v -144.03 81.17 710.20
v -141.39 69.84 676.07
v -150.74 69.97 676.07
v -147.79 81.22 710.20
v -145.76 92.86 743.04
v -104.49 134.91 725.23
v -185.87 136.01 725.23
v -145.58 106.08 774.09
v -122.95 127.34 764.74
v -167.62 127.94 764.74
v -145.40 119.31 803.99
v -88.86 178.00 777.17
v -200.32 179.50 777.17
v -145.22 132.53 832.73
v -123.48 159.22 820.05
v -166.23 159.80 820.05
v -145.04 145.75 860.30
v -91.99 201.59 832.61
v -196.56 203.00 832.61
v -144.86 158.98 886.72
v -126.75 179.22 876.24
v -162.42 179.71 876.24
v -144.68 172.20 911.98
v -120.42 210.18 891.46
v -167.91 210.82 891.46
v -144.50 185.43 936.09
v -140.62 191.80 932.47
v -148.22 191.90 932.47
v -144.33 198.65 959.03
v -157.08 43.48 675.88
v -168.63 33.90 706.11
v -170.99 34.18 705.28
v -162.70 44.51 674.06
v -157.10 37.76 674.06
v -168.80 31.53 705.28
v -180.17 24.33 734.89
v -238.56 36.14 714.88
v -179.38 -35.23 714.88
v -191.72 14.76 762.19
v -222.23 16.18 749.45
v -195.97 -15.49 749.45
v -203.26 5.19 788.04
v -283.11 7.21 752.10
v -216.07 -73.65 752.10
v -214.81 -4.38 812.42
v -248.65 -3.04 796.44
v -219.76 -37.89 796.44
v -226.35 -13.96 835.34
v -300.94 -11.00 797.79
v -237.27 -87.80 797.79
v -237.90 -23.53 856.79
v -264.15 -21.86 842.94
v -241.12 -49.63 842.94
v -249.45 -33.10 876.78
v -293.21 -31.02 851.57
v -255.51 -76.49 851.57
v -260.99 -42.67 895.30
v -267.79 -43.65 890.36
v -263.21 -49.17 890.36
v -272.54 -52.24 912.36
v -132.38 53.88 674.30
v -115.68 55.64 704.78
v -113.91 54.09 703.87
v -128.57 49.62 672.46
v -129.54 58.84 672.46
v -114.27 57.52 703.87
v -98.99 57.40 733.76
v -59.18 22.38 712.40
v -67.36 99.95 712.40
v -82.29 59.16 761.24
v -61.75 40.45 749.64
v -66.10 81.74 749.64
v -65.59 60.92 787.22
v -11.30 12.56 754.67
v -22.57 119.53 754.67
v -48.90 62.68 811.71
v -24.25 45.50 795.64
v -28.38 84.61 795.64
v -32.20 64.44 834.69
v 19.68 21.79 799.11
v 9.65 116.96 799.11
v -15.50 66.20 856.17
v 3.18 52.44 842.30
v -0.10 83.55 842.30
v 1.19 67.96 876.16
v 33.41 48.17 850.00
v 28.58 94.03 850.00
v 17.89 69.72 894.65
v 23.26 66.99 889.86
v 22.58 73.51 889.86
v 34.58 71.48 911.63
v -156.41 62.10 672.72
v -172.22 77.24 705.74
v -171.93 79.55 704.79
v -156.16 67.59 670.32
v -161.89 61.61 670.32
v -174.52 76.85 704.79
v -188.02 92.37 737.27
v -180.54 153.16 711.22
v -248.42 82.30 711.22
v -203.82 107.51 767.32
v -202.14 138.99 751.97
v -235.20 104.48 751.97
v -219.63 122.65 795.88
v -219.97 204.04 751.39
v -300.96 119.50 751.39
v -235.43 137.79 822.95
v -234.39 172.43 803.66
v -269.99 135.27 803.66
v -251.23 152.93 848.54
v -252.46 228.14 801.93
v -326.43 150.93 801.93
v -267.04 168.07 872.65
v -269.00 193.81 854.63
v -292.84 168.93 854.63
v -282.84 183.21 895.26
v -288.70 224.89 862.18
v -324.73 187.28 862.18
v -298.64 198.35 916.39
v -299.24 205.30 910.77
v -305.62 198.65 910.77
v -314.45 213.49 936.04
v -142.86 38.84 671.14
v -136.84 15.13 703.60
v -138.15 13.30 702.46
v -145.90 34.41 668.47
v -138.08 36.40 668.47
v -134.82 14.14 702.46
v -130.83 -8.59 733.57
v -158.99 -50.31 705.03
v -86.19 -31.84 705.03
v -124.81 -32.30 761.06
v -139.25 -53.78 744.96
v -101.88 -44.30 744.96
v -118.79 -56.02 786.06
v -159.74 -110.10 742.44
v -57.02 -84.04 742.44
v -112.78 -79.73 808.57
v -129.91 -102.01 788.59
v -87.10 -91.15 788.59
v -106.76 -103.45 828.60
v -143.31 -150.94 780.36
v -51.99 -127.77 780.36
v -100.74 -127.16 846.15
v -109.62 -143.32 825.92
v -85.24 -137.14 825.92
v -94.73 -150.88 861.21
v -110.23 -175.84 825.11
v -69.20 -165.43 825.11
v -88.71 -174.59 873.78
v -90.85 -178.26 867.24
v -85.09 -176.80 867.24
v -82.70 -198.31 883.86
v -138.75 64.20 669.56
v -120.61 92.53 694.52
v -118.62 92.55 692.98
v -133.78 63.97 666.21
v -141.05 68.62 666.21
v -121.43 94.35 692.98
v -102.47 120.85 717.34
v -56.56 118.88 681.62
v -123.47 161.73 681.62
v -84.33 149.18 738.03
v -62.82 150.50 716.22
v -92.13 169.27 716.22
v -66.19 177.50 756.58
v -6.27 172.74 702.10
v -95.58 229.94 702.10
v -48.06 205.83 772.99
v -25.19 205.31 746.91
v -58.09 226.38 746.91
v -29.92 234.15 787.26
v 16.13 233.66 725.05
v -49.62 275.77 725.05
v -11.78 262.47 799.39
v 2.74 262.31 776.00
v -18.00 275.60 776.00
v 6.36 290.80 809.39
v 29.38 288.90 768.66
v -4.99 310.91 768.66
v 24.50 319.12 817.25
v 27.94 318.60 810.22
v 22.59 322.03 810.22
v 42.64 347.45 822.97
v -159.49 47.70 667.98
v -190.26 36.70 689.88
v -191.77 37.92 688.27
v -163.12 51.01 664.54
v -160.20 42.84 664.54
v -190.65 34.80 688.27
v -221.04 25.70 708.83
v -254.94 52.35 665.90
v -230.37 -16.39 665.90
v -251.82 14.71 724.83
v -268.04 28.38 700.81
v -255.70 -6.16 700.81
v -282.59 3.71 737.88
v -321.04 43.94 673.90
v -286.83 -51.78 673.90
v -313.37 -7.29 747.99
v -327.14 7.72 717.99
v -314.51 -27.63 717.99
v -344.15 -18.29 755.14
v -368.53 13.69 684.94
v -342.74 -58.48 684.94
v -374.92 -29.29 759.35
v -381.56 -16.98 734.19
v -372.25 -43.01 734.19
v -405.70 -40.29 760.61
v -412.64 -19.99 716.61
v -398.21 -60.38 716.61
v -436.48 -51.28 758.92
v -437.02 -47.66 751.58
v -434.60 -54.43 751.58
v -467.25 -62.28 754.28
v -133.95 45.82 666.40
v -103.93 29.80 691.13
v -103.76 27.85 689.55
v -133.97 40.77 663.16
v -129.77 48.64 663.16
v -102.22 30.74 689.55
v -73.91 13.78 712.37
v -68.55 -29.22 668.77
v -35.21 33.25 668.77
v -43.89 -2.25 730.12
v -42.33 -23.59 705.82
v -25.29 8.33 705.82
v -13.87 -18.27 744.38
v -14.07 -71.22 677.03
v 30.01 11.37 677.03
v 16.14 -34.29 755.14
v 13.37 -56.02 725.79
v 32.65 -19.88 725.79
v 46.16 -50.31 762.42
v 37.91 -90.22 691.57
v 74.73 -21.24 691.57
v 76.18 -66.33 766.20
v 71.16 -79.00 740.52
v 83.91 -55.11 740.52
v 106.20 -82.35 766.49
v 94.04 -101.14 722.40
v 115.04 -61.80 722.40
v 136.22 -98.38 763.29
v 133.85 -100.46 755.64
v 136.63 -95.25 755.64
v 166.24 -114.40 756.60
v -151.51 65.41 664.82
v -165.17 99.47 685.04
v -163.98 100.88 683.32
v -148.12 68.87 661.28
v -156.35 65.57 661.28
v -167.00 99.67 683.32
v -178.83 133.54 701.86
v -147.19 167.50 653.94
v -225.16 136.24 653.94
v -192.49 167.60 715.29
v -175.02 183.56 689.30
v -216.14 167.07 689.30
v -206.14 201.67 725.33
v -166.19 236.40 648.89
v -259.03 199.18 648.89
v -219.80 235.73 731.97
v -201.84 247.78 698.60
v -241.11 232.03 698.60
v -233.46 269.80 735.22
v -194.99 288.76 657.57
v -274.37 256.94 657.57
v -247.12 303.86 735.08
v -234.77 307.25 706.24
v -258.38 297.79 706.24
v -260.77 337.92 731.55
v -235.19 340.95 684.47
v -281.37 322.44 684.47
v -274.43 371.99 724.62
v -269.89 371.85 716.87
v -277.62 368.75 716.87
v -288.09 406.05 714.30
v -151.52 39.42 663.24
v -166.07 3.21 683.61
v -167.96 3.13 681.94
v -156.20 39.19 659.50
v -148.30 36.02 659.50
v -164.75 1.84 681.94
v -180.61 -33.01 699.72
v -217.91 -35.91 653.42
v -155.69 -60.90 653.42
v -195.16 -69.22 711.58
v -213.89 -68.46 686.45
v -181.11 -81.63 686.45
v -209.71 -105.44 719.20
v -256.36 -97.02 651.12
v -170.19 -131.63 651.12
v -224.25 -141.65 722.57
v -239.91 -136.45 691.16
v -209.34 -148.72 691.16
v -238.80 -177.87 721.68
v -274.22 -158.00 653.75
v -199.48 -188.03 653.75
v -253.34 -214.08 716.56
v -262.75 -205.29 691.51
v -240.47 -214.24 691.51
v -267.89 -250.30 707.18
v -283.76 -230.96 666.35
v -243.05 -247.31 666.35
v -282.44 -286.51 693.55
v -284.30 -282.79 686.70
v -278.51 -285.11 686.70
v -296.98 -322.73 675.68
v -134.14 59.34 661.67
v -99.26 79.22 671.16
v -98.14 77.98 669.28
v -131.36 56.66 657.08
v -135.03 63.10 657.08
v -99.76 80.82 669.28
v -64.39 99.10 676.83
v -41.31 68.36 625.32
v -79.08 134.62 625.32
v -29.51 118.98 678.67
v -19.56 101.43 651.48
v -39.54 136.49 651.48
v 5.37 138.86 676.69
v 25.34 89.66 604.53
v -26.78 181.12 604.53
v 40.24 158.74 670.88
v 44.42 138.80 638.44
v 25.21 172.50 638.44
v 75.12 178.62 661.24
v 74.43 136.58 586.82
v 38.60 199.44 586.82
v 110.00 198.50 647.77
v 107.08 183.34 621.57
v 95.47 203.71 621.57
v 144.87 218.38 630.47
v 136.32 191.51 587.13
v 117.40 224.71 587.13
v 179.75 238.25 609.35
v 177.45 233.99 602.18
v 174.90 238.45 602.18
v 214.63 258.13 584.40
v -158.93 58.46 660.09
v -198.53 77.45 667.97
v -198.04 79.04 666.07
v -157.93 62.38 655.65
v -161.36 55.24 655.65
v -199.46 76.08 666.07
v -238.13 96.44 671.30
v -221.23 134.54 619.75
v -257.26 59.41 619.75
v -277.73 115.43 670.08
v -267.05 132.44 641.50
v -284.30 96.46 641.50
v -317.33 134.42 664.30
v -284.04 170.68 586.10
v -324.76 85.76 586.10
v -356.94 153.41 653.97
v -339.95 166.90 620.94
v -356.82 131.72 620.94
v -396.54 172.40 639.08
v -352.77 198.75 567.24
v -389.68 121.77 567.24
v -436.14 191.39 619.64
v -419.45 196.36 593.55
v -429.57 175.26 593.55
v -475.74 210.38 595.64
v -445.06 214.26 552.19
v -459.56 184.02 552.19
v -515.35 229.36 567.09
v -509.65 230.17 560.26
v -512.40 224.42 560.26
v -554.95 248.35 533.99
v -141.62 39.22 658.51
v -128.62 2.56 665.50
v -130.14 1.78 663.64
v -144.71 37.22 653.77
v -137.97 39.61 653.77
v -126.96 2.91 663.64
v -115.62 -34.11 667.80
v -149.92 -46.20 612.97
v -81.37 -21.89 612.97
v -102.62 -70.77 665.41
v -121.38 -73.67 636.41
v -86.23 -61.20 636.41
v -89.62 -107.43 658.32
v -142.37 -106.84 583.32
v -49.03 -73.74 583.32
v -76.62 -144.09 646.55
v -96.84 -138.49 613.42
v -64.45 -127.01 613.42
v -63.62 -180.75 630.07
v -116.79 -164.88 562.43
v -32.33 -134.93 562.43
v -50.62 -217.41 608.91
v -68.93 -208.75 585.28
v -41.86 -199.15 585.28
v -37.62 -254.07 583.05
v -66.14 -233.68 543.41
v -28.32 -220.27 543.41
v -24.62 -290.73 552.51
v -29.76 -287.01 546.32
v -22.98 -284.60 546.32
v -11.62 -327.39 517.26
v -141.65 65.61 656.93
v -126.42 108.77 657.56
v -124.89 108.15 655.66
v -137.81 64.33 652.50
v -145.44 67.02 652.50
v -128.01 109.25 655.66
v -111.20 151.93 652.92
v -84.38 134.65 606.49
v -142.93 155.30 606.49
v -95.98 195.09 643.01
v -82.99 183.52 618.96
v -113.35 194.23 618.96
v -80.75 238.25 627.83
v -53.28 202.11 563.76
v -124.82 227.35 563.76
v -65.53 281.41 607.37
v -55.97 263.67 580.52
v -84.11 273.60 580.52
v -50.31 324.57 581.65
v -35.14 280.62 522.91
v -89.70 299.87 522.91
v -35.09 367.73 550.65
v -31.84 350.77 530.36
v -48.25 356.56 530.36
v -19.86 410.89 514.38
v -14.95 379.78 481.79
v -43.20 389.75 481.79
v -4.64 454.05 472.84
v -3.65 448.50 467.76
v -8.89 450.35 467.76
v 10.58 497.21 426.03
v -158.77 46.04 655.35
v -198.54 25.72 653.48
v -199.03 27.14 651.46
v -160.46 49.76 650.95
v -156.75 42.49 650.95
v -197.67 24.48 651.46
v -238.31 5.39 646.13
v -242.33 35.84 600.63
v -215.99 -15.70 600.63
v -278.08 -14.94 633.31
v -278.53 3.20 610.79
v -263.65 -25.93 610.79
v -317.85 -35.26 615.01
v -311.14 12.82 555.87
v -274.95 -57.99 555.87
v -357.62 -55.59 591.24
v -351.60 -35.06 566.48
v -337.46 -62.74 566.48
v -397.39 -75.91 562.00
v -375.42 -32.84 507.31
v -349.61 -83.34 507.31
v -437.16 -96.24 527.27
v -427.87 -80.47 508.85
v -418.93 -97.94 508.85
v -476.93 -116.56 487.08
v -457.73 -90.56 456.99
v -444.61 -116.24 456.99
v -516.70 -136.89 441.41
v -512.93 -132.75 436.58
v -511.13 -136.26 436.58
v -556.47 -157.21 390.27
v -132.35 51.22 653.77
v -87.11 47.36 644.71
v -87.75 45.82 642.82
v -133.61 47.98 648.88
v -133.04 54.63 648.88
v -87.48 48.98 642.82
v -41.86 43.49 629.23
v -61.86 19.14 585.85
v -57.44 70.88 585.85
v 3.38 39.63 607.33
v -9.73 27.17 585.63
v -7.42 54.13 585.63
v 48.62 35.77 579.01
v 9.17 -0.34 526.82
v 15.87 78.04 526.82
v 93.87 31.90 544.27
v 74.39 19.25 522.33
v 76.81 47.67 522.33
v 139.11 28.04 503.12
v 90.96 4.60 456.06
v 95.64 59.30 456.06
v 184.36 24.18 455.54
v 165.76 18.00 439.44
v 167.08 33.41 439.44
v 229.60 20.31 401.54
v 196.77 8.05 376.41
v 199.32 37.96 376.41
v 274.85 16.45 341.13
v 269.05 14.91 337.10
v 269.40 18.95 337.10
v 320.09 12.58 274.29
v -155.80 62.70 652.19
v -178.58 87.38 641.30
v -176.99 87.78 639.39
v -152.37 63.75 647.38
v -157.12 59.36 647.38
v -179.10 85.83 639.39
v -201.37 112.07 624.47
v -162.10 113.56 581.14
v -205.99 73.04 581.14
v -224.16 136.75 601.69
v -201.27 136.37 581.06
v -225.60 113.90 581.06
v -246.94 161.44 572.97
v -186.92 148.11 519.43
v -238.46 100.54 519.43
v -269.73 186.12 538.31
v -243.69 177.42 516.83
v -263.13 159.47 516.83
v -292.52 210.81 497.70
v -232.60 188.18 453.56
v -274.75 149.28 453.56
v -315.30 235.49 451.15
v -294.09 225.55 436.43
v -307.09 213.55 436.43
v -338.09 260.18 398.66
v -300.22 244.00 375.90
v -324.98 221.13 375.90
v -360.88 284.86 340.23
v -355.06 281.05 336.54
v -357.54 278.76 336.54
v -383.66 309.55 275.85
v -145.49 38.44 650.61
v -143.47 3.64 635.24
v -144.82 4.59 633.34
v -149.08 40.20 646.14
v -142.13 40.61 646.14
v -142.24 4.74 633.34
v -141.45 -31.15 613.10
v -170.62 -7.44 578.49
v -115.22 -4.23 578.49
v -139.43 -65.94 584.19
v -151.83 -50.07 566.32
v -128.95 -48.74 566.32
v -137.41 -100.73 548.50
v -168.47 -53.67 504.99
v -112.01 -50.39 504.99
v -135.39 -135.52 506.05
v -149.87 -114.49 489.45
v -123.45 -112.95 489.45
v -133.38 -170.31 456.82
v -165.95 -121.15 423.07
v -106.71 -117.72 423.07
v -131.36 -205.10 400.82
v -140.87 -186.07 389.35
v -124.11 -185.10 389.35
v -129.34 -239.89 338.05
v -143.36 -205.87 319.73
v -119.34 -204.48 319.73
v -127.32 -274.68 268.51
v -129.18 -268.72 265.61
v -126.15 -268.54 265.61
v -125.30 -309.47 192.20
v -134.77 60.35 649.03
v -107.48 79.11 635.09
v -107.41 77.33 633.30
v -134.58 56.60 644.35
v -138.20 61.86 644.35
v -109.12 79.81 633.30
v -80.20 97.88 613.77
v -88.83 64.44 579.26
v -114.50 101.77 579.26
v -52.91 116.64 585.07
v -58.07 96.97 569.33
v -73.12 118.86 569.33
v -25.63 135.41 549.01
v -46.21 83.36 510.32
v -81.59 134.81 510.32
v 1.66 154.17 505.57
v -10.80 133.03 489.94
v -22.54 150.10 489.94
v 28.94 172.94 454.76
v 2.60 122.16 424.09
v -27.90 166.51 424.09
v 56.22 191.70 396.58
v 45.61 173.85 386.48
v 35.76 188.18 386.48
v 83.51 210.47 331.02
v 61.82 182.05 314.77
v 49.21 200.37 314.77
v 110.79 229.23 258.10
v 106.72 224.74 255.55
v 105.14 227.04 255.55
v 138.08 247.99 177.80
v -155.89 72.21 615.81
v -162.24 85.34 562.76
v -155.36 77.08 559.87
v -151.67 68.22 614.32
v -155.37 66.43 614.32
v -160.03 74.81 559.87
v -168.59 98.46 510.50
v -150.71 80.89 503.87
v -165.90 73.53 503.87
v -174.94 111.58 459.05
v -166.49 102.11 455.57
v -172.76 99.08 455.57
v -181.29 124.71 408.40
v -173.22 113.75 404.52
v -177.71 111.58 404.52
v -187.65 137.83 358.55
v -167.85 56.84 623.48
v -195.82 62.59 568.71
v -185.81 63.40 563.64
v -162.54 57.82 620.87
v -163.36 53.84 620.87
v -186.94 57.90 563.64
v -223.79 68.34 514.73
v -200.54 70.32 502.80
v -203.20 57.34 502.80
v -251.76 74.08 461.55
v -239.99 75.07 455.42
v -241.33 68.53 455.42
v -279.73 79.83 409.17
v -267.12 80.15 402.42
v -268.27 74.57 402.42
v -307.69 85.58 357.60
v -161.93 36.93 634.25
v -178.84 20.17 584.66
v -173.52 29.19 579.76
v -159.47 41.80 631.76
v -157.03 39.34 631.76
v -169.78 25.41 579.76
v -195.76 3.41 535.87
v -184.08 24.78 524.38
v -174.28 14.90 524.38
v -212.67 -13.34 487.88
v -206.20 -2.89 481.90
v -202.16 -6.97 481.90
v -229.58 -30.10 440.68
v -222.88 -18.75 434.20
v -218.17 -23.50 434.20
v -246.50 -46.86 394.29
v -148.30 30.50 624.32
v -150.67 4.56 568.32
v -152.25 14.04 563.96
v -150.31 35.66 622.02
v -145.39 35.21 622.02
v -147.41 13.60 563.96
v -153.05 -21.39 513.12
v -157.45 0.55 502.93
v -144.73 -0.62 502.93
v -155.42 -47.34 458.73
v -157.37 -36.19 453.46
v -151.48 -36.73 453.46
v -157.79 -73.29 405.13
v -158.48 -61.23 399.27
v -154.92 -61.55 399.27
v -160.16 -99.24 352.33
v -130.51 37.09 622.18
v -111.99 19.11 573.55
v -120.98 23.26 568.55
v -135.69 38.71 619.61
v -132.29 42.21 619.61
v -116.40 27.98 568.55
v -93.46 1.14 525.72
v -114.08 11.23 513.84
v -104.17 21.45 513.84
v -74.94 -16.84 478.68
v -84.45 -10.35 472.40
v -81.72 -7.53 472.40
v -56.42 -34.81 432.45
v -66.29 -27.46 425.57
v -64.06 -25.16 425.57
v -37.89 -52.79 387.02
v -124.46 55.01 636.28
v -102.24 57.65 583.97
v -111.80 53.64 579.67
v -129.33 52.30 634.07
v -129.83 56.50 634.07
v -112.48 59.30 579.67
v -80.02 60.29 532.46
v -102.71 52.33 522.18
v -103.94 62.71 522.18
v -57.80 62.93 481.75
v -69.18 58.57 476.49
v -69.89 64.50 476.49
v -35.59 65.57 431.83
v -47.86 61.10 426.09
v -48.56 67.03 426.09
v -13.37 68.21 382.72
v -136.09 71.90 616.32
v -132.81 78.17 563.75
v -135.42 66.36 562.17
v -136.52 65.96 615.59
v -140.74 68.17 615.59
v -141.03 69.30 562.17
v -129.52 84.45 511.98
v -133.40 56.53 508.33
v -150.26 65.37 508.33
v -126.23 90.72 461.01
v -129.18 76.73 459.08
v -136.06 80.33 459.08
v -122.95 96.99 410.84
v -126.83 82.13 408.71
v -132.96 85.34 408.71
v -119.66 103.26 361.47
v -145.62 76.38 597.27
v -157.66 88.42 597.27
v -157.66 76.38 611.72
v -157.66 76.38 582.22
v -169.70 76.38 597.27
v -157.66 64.34 597.27
v -150.62 64.88 603.83
v -163.13 77.40 603.83
v -163.13 64.88 618.84
v -163.13 64.88 588.18
v -175.65 64.88 603.83
v -163.13 52.37 603.83
v -142.27 81.83 608.25
v -155.19 94.75 608.25
v -155.19 81.83 623.75
v -155.19 81.83 592.10
v -168.11 81.83 608.25
v -155.19 68.91 608.25
v -150.04 78.55 624.87
v -162.41 90.92 624.87
v -162.41 78.55 639.71
v -162.41 78.55 609.42
v -174.77 78.55 624.87
v -162.41 66.19 624.87
v -132.77 19.10 602.68
v -147.23 33.57 602.68
v -147.23 19.10 620.04
v -147.23 19.10 584.59
v -161.70 19.10 602.68
v -147.23 4.63 602.68
v -134.18 13.90 620.50
v -148.28 28.01 620.50
v -148.28 13.90 637.42
v -148.28 13.90 602.86
v -162.39 13.90 620.50
v -148.28 -0.21 620.50
v -126.20 13.44 615.50
v -138.92 26.16 615.50
v -138.92 13.44 630.77
v -138.92 13.44 599.60
v -151.65 13.44 615.50
v -138.92 0.72 615.50
v -124.37 30.37 574.55
v -138.95 44.95 574.55
v -138.95 30.37 592.06
v -138.95 30.37 556.32
v -153.54 30.37 574.55
v -138.95 15.78 574.55
v -110.14 54.89 590.86
v -122.69 67.43 590.86
v -122.69 54.89 605.91
v -122.69 54.89 575.18
v -135.23 54.89 590.86
v -122.69 42.34 590.86
v -94.13 54.69 609.16
v -108.40 68.96 609.16
v -108.40 54.69 626.28
v -108.40 54.69 591.32
v -122.67 54.69 609.16
v -108.40 40.43 609.16
v -107.00 55.03 593.34
v -118.76 66.79 593.34
v -118.76 55.03 607.45
v -118.76 55.03 578.64
v -130.52 55.03 593.34
v -118.76 43.28 593.34
v -97.66 58.73 579.77
v -112.51 73.58 579.77
v -112.51 58.73 597.59
v -112.51 58.73 561.21
v -127.36 58.73 579.77
v -112.51 43.88 579.77
vt 0.0000 0.0000
vt 0.5000 0.0000
vt 0.5000 0.3000
vt 0.5144 0.3000
vt 0.5342 0.0000
vt 0.4658 0.0000
vt 0.4856 0.3000
vt 0.5000 0.6000
vt 0.8512 0.6000
vt 0.1488 0.6000
vt 0.5000 0.9000
vt 0.6850 0.9000
vt 0.3150 0.9000
vt 0.5000 1.2000
vt 0.9896 1.2000
vt 0.0104 1.2000
vt 0.5000 1.5000
vt 0.7093 1.5000
vt 0.2907 1.5000
vt 0.5000 1.8000
vt 0.9671 1.8000
vt 0.0329 1.8000
vt 0.5000 2.1000
vt 0.6662 2.1000
vt 0.3338 2.1000
vt 0.5000 2.4000
vt 0.7826 2.4000
vt 0.2174 2.4000
vt 0.5000 2.7000
vt 0.5473 2.7000
vt 0.4527 2.7000
vt 0.5000 3.0000
vt 0.5141 0.3000
vt 0.5335 0.0000
vt 0.4665 0.0000
vt 0.4859 0.3000
vt 0.5155 0.3000
vt 0.5369 0.0000
vt 0.4631 0.0000
vt 0.4845 0.3000
vt 0.5133 0.3000
vt 0.5317 0.0000
vt 0.4683 0.0000
vt 0.4867 0.3000
vt 0.5153 0.3000
vt 0.5364 0.0000
vt 0.4636 0.0000
vt 0.4847 0.3000
vt 0.5152 0.3000
vt 0.5362 0.0000
vt 0.4638 0.0000
vt 0.4848 0.3000
vt 0.5145 0.3000
vt 0.5346 0.0000
vt 0.4654 0.0000
vt 0.4855 0.3000
vt 0.5343 0.0000
vt 0.4657 0.0000
vt 0.5316 0.0000
vt 0.4684 0.0000
vt 0.5149 0.3000
vt 0.5354 0.0000
vt 0.4646 0.0000
vt 0.4851 0.3000
vt 0.5138 0.3000
vt 0.5328 0.0000
vt 0.4672 0.0000
vt 0.4862 0.3000
vt 0.5134 0.3000
vt 0.5318 0.0000
vt 0.4682 0.0000
vt 0.4866 0.3000
vt 0.5135 0.3000
vt 0.5320 0.0000
vt 0.4680 0.0000
vt 0.4865 0.3000
vt 0.5157 0.3000
vt 0.5374 0.0000
vt 0.4626 0.0000
vt 0.4843 0.3000
vt 0.5161 0.3000
vt 0.5384 0.0000
vt 0.4616 0.0000
vt 0.4839 0.3000
vt 0.5165 0.3000
vt 0.5393 0.0000
vt 0.4607 0.0000
vt 0.4835 0.3000
vt 0.5151 0.3000
vt 0.5360 0.0000
vt 0.4640 0.0000
vt 0.4849 0.3000
vt 0.5173 0.3000
vt 0.5412 0.0000
vt 0.4588 0.0000
vt 0.4827 0.3000
vt 0.5181 0.3000
vt 0.5432 0.0000
vt 0.4568 0.0000
vt 0.4819 0.3000
vt 0.7128 0.6000
vt 0.6147 0.0000
vt 0.3853 0.0000
vt 0.2872 0.6000
vt 0.9958 1.2000
vt 0.0042 1.2000
vt 0.7516 1.8000
vt 0.2484 1.8000
vt 0.7705 2.4000
vt 0.2295 2.4000
vt 0.6135 0.0000
vt 0.3865 0.0000
vt 0.6105 0.0000
vt 0.3895 0.0000
vt 0.6210 0.0000
vt 0.3790 0.0000
vt 0.6151 0.0000
vt 0.3849 0.0000
vt 0.6138 0.0000
vt 0.3862 0.0000
vt 0.6047 0.0000
vt 0.3953 0.0000
vn 0.7407 0.4981 0.4509
vn 0.3443 0.8361 0.4271
vn -0.0454 0.9931 0.1081
vn -0.5410 0.8393 0.0541
vn -0.8403 0.4982 -0.2140
vn -0.9933 0.0057 -0.1158
vn -0.8490 -0.4919 -0.1933
vn -0.5550 -0.8271 0.0894
vn -0.0628 -0.9868 0.1496
vn 0.3299 -0.8232 0.4620
vn 0.7319 -0.4917 0.4717
vn 0.7767 0.0064 0.6298
vn 0.7797 0.4998 0.3771
vn 0.4866 0.8640 0.1292
vn -0.0202 0.9983 0.0543
vn -0.4450 0.8648 -0.2326
vn -0.8290 0.5003 -0.2499
vn -0.9179 -0.0005 -0.3969
vn -0.8363 -0.4974 -0.2306
vn -0.4585 -0.8661 -0.1993
vn -0.0346 -0.9951 0.0929
vn 0.4731 -0.8659 0.1624
vn 0.7727 -0.4958 0.3965
vn 0.9452 -0.0011 0.3264
vn 0.8319 0.4981 0.2445
vn 0.4516 0.8649 0.2193
vn 0.0211 0.9982 -0.0568
vn -0.4873 0.8655 -0.1158
vn -0.7990 0.4992 -0.3353
vn -0.9645 0.0017 -0.2640
vn -0.8076 -0.5003 -0.3124
vn -0.5010 -0.8621 -0.0763
vn 0.0041 -0.9999 -0.0109
vn 0.4385 -0.8606 0.2590
vn 0.8235 -0.5004 0.2674
vn 0.9137 0.0026 0.4065
vn 0.8045 0.5011 0.3187
vn 0.4959 0.8634 0.0928
vn -0.0116 0.9992 0.0383
vn -0.4556 0.8644 -0.2128
vn -0.8392 0.5011 -0.2114
vn -0.9410 -0.0005 -0.3384
vn -0.8490 -0.4967 -0.1801
vn -0.4742 -0.8661 -0.1583
vn -0.0307 -0.9944 0.1010
vn 0.4776 -0.8661 0.1473
vn 0.7955 -0.4945 0.3502
vn 0.9621 -0.0014 0.2727
vn 0.8481 0.4970 0.1839
vn 0.4711 0.8662 0.1668
vn 0.0230 0.9969 -0.0756
vn -0.4875 0.8664 -0.1081
vn -0.8164 0.4986 -0.2914
vn -0.9781 0.0028 -0.2080
vn -0.8298 -0.5002 -0.2474
vn -0.5082 -0.8606 -0.0323
vn -0.0038 -0.9999 0.0124
vn 0.4513 -0.8587 0.2428
vn 0.8350 -0.5009 0.2279
vn 0.9397 0.0047 0.3420
vn 0.8289 0.5029 0.2449
vn 0.5066 0.8613 0.0388
vn -0.0014 1.0000 0.0059
vn -0.4631 0.8628 -0.2029
vn -0.8471 0.5019 -0.1746
vn -0.9622 -0.0008 -0.2725
vn -0.8612 -0.4950 -0.1155
vn -0.4907 -0.8655 -0.1003
vn -0.0287 -0.9919 0.1241
vn 0.4794 -0.8661 0.1414
vn 0.8158 -0.4919 0.3041
vn 0.9775 -0.0026 0.2108
vn 0.8618 0.4947 0.1122
vn 0.4881 0.8669 0.1010
vn 0.0244 0.9941 -0.1055
vn -0.4875 0.8665 -0.1074
vn -0.8314 0.4973 -0.2478
vn -0.9892 0.0039 -0.1463
vn -0.8490 -0.4995 -0.1721
vn -0.5134 -0.8578 0.0235
vn -0.0106 -0.9989 0.0458
vn 0.4631 -0.8554 0.2319
vn 0.8447 -0.5013 0.1879
vn 0.9627 0.0070 0.2704
vn 0.8480 0.5038 0.1642
vn 0.5131 0.8581 -0.0217
vn 0.0051 0.9995 -0.0320
vn -0.4712 0.8602 -0.1952
vn -0.8541 0.5018 -0.1371
vn -0.9792 -0.0010 -0.2028
vn -0.8689 -0.4929 -0.0456
vn -0.5022 -0.8640 -0.0368
vn -0.0239 -0.9883 0.1509
vn 0.4825 -0.8652 0.1367
vn 0.8340 -0.4890 0.2557
vn 0.9895 -0.0041 0.1442
vn 0.8696 0.4922 0.0392
vn 0.4982 0.8663 0.0353
vn 0.0212 0.9908 -0.1338
vn -0.4902 0.8653 -0.1044
vn -0.8447 0.4957 -0.2020
vn -0.9965 0.0044 -0.0833
vn -0.8614 -0.4986 -0.0971
vn -0.5129 -0.8549 0.0775
vn -0.0121 -0.9970 0.0760
vn 0.4760 -0.8522 0.2171
vn 0.8532 -0.5012 0.1441
vn 0.9806 0.0083 0.1958
vn 0.8596 0.5035 0.0876
vn 0.5127 0.8553 -0.0752
vn 0.0055 0.9981 -0.0614
vn -0.4813 0.8577 -0.1810
vn -0.8602 0.5009 -0.0960
vn -0.9909 -0.0014 -0.1347
vn -0.8706 -0.4917 0.0186
vn -0.5059 -0.8624 0.0173
vn -0.0151 -0.9857 0.1677
vn 0.4883 -0.8640 0.1230
vn 0.8494 -0.4876 0.2021
vn 0.9970 -0.0051 0.0767
vn 0.8709 0.4907 -0.0256
vn 0.5010 0.8653 -0.0166
vn 0.0134 0.9888 -0.1485
vn -0.4952 0.8641 -0.0902
vn -0.8557 0.4945 -0.1527
vn -0.9997 0.0040 -0.0241
vn -0.8664 -0.4982 -0.0340
vn -0.5071 -0.8541 0.1157
vn -0.0080 -0.9960 0.0889
vn 0.4890 -0.8515 0.1892
vn 0.8603 -0.5012 0.0930
vn 0.9924 0.0078 0.1230
vn 0.8649 0.5013 0.0233
vn 0.5070 0.8546 -0.1125
vn 0.0031 0.9974 -0.0722
vn -0.4917 0.8568 -0.1553
vn -0.8638 0.5013 -0.0509
vn -0.9971 -0.0021 -0.0754
vn -0.8688 -0.4908 0.0660
vn -0.5034 -0.8628 0.0472
vn -0.0069 -0.9868 0.1616
vn 0.4952 -0.8641 0.0899
vn 0.8599 -0.4908 0.1402
vn 0.9999 -0.0057 0.0100
vn 0.8643 0.4734 -0.1702
vn 0.0113 0.9643 -0.2646
vn -0.8466 0.4734 -0.2433
vn -0.8515 -0.5085 -0.1276
vn 0.0014 -0.9994 -0.0333
vn 0.8593 -0.5085 -0.0546
vn 0.7230 0.4863 0.4907
vn -0.0175 0.9125 0.4088
vn -0.7622 0.4863 0.4273
vn -0.7665 -0.3661 0.5277
vn -0.0260 -0.7923 0.6096
vn 0.7187 -0.3661 0.5911
vn 0.4970 0.8664 -0.0478
vn -0.9999 -0.0084 -0.0109
vn 0.4997 -0.8544 0.1428
vn -0.6171 0.7327 -0.2870
vn 0.6366 0.7144 -0.2904
vn -0.6568 0.6989 -0.2833
vn 0.6588 0.5870 -0.4706
vn -0.7419 0.6184 -0.2591
vn 0.7582 0.6119 -0.2253
vn -0.7162 0.6398 -0.2787
vn 0.7246 0.5573 -0.4055
vn -0.7522 0.6004 -0.2716
vn 0.7634 0.5358 -0.3608
vn -0.8055 0.5363 -0.2520
vn 0.8062 0.5872 -0.0728
vn -0.7615 0.5816 -0.2860
vn 0.7762 0.5456 -0.3161
vn -0.7830 0.5533 -0.2841
vn 0.7647 0.3871 -0.5152
vn -0.8717 0.4323 -0.2307
vn 0.8830 0.4051 -0.2371
vn -0.8833 0.4092 -0.2290
vn 0.8940 0.3851 -0.2290
vn -0.0686 -0.9433 -0.3248
vn -0.9378 0.1088 -0.3295
vn 0.0024 -0.9492 -0.3148
vn -0.9768 0.1304 -0.1701
vn -0.0669 -0.9324 -0.3551
vn -0.8528 0.1561 -0.4984
vn 0.0862 -0.9462 -0.3119
vn -0.8775 0.2857 -0.3851
vn 0.1176 -0.9421 -0.3142
vn -0.9072 0.2874 -0.3071
vn 0.1190 -0.9361 -0.3310
vn -0.8845 0.3007 -0.3567
vn 0.1353 -0.9299 -0.3421
vn -0.8949 0.3001 -0.3301
vn 0.1336 -0.9217 -0.3642
vn -0.8517 0.3238 -0.4120
vn 0.1683 -0.9146 -0.3677
vn -0.8336 0.3599 -0.4190
vn 0.3330 -0.9004 -0.2799
vn -0.8231 0.4941 -0.2799
vn 0.6062 0.7027 -0.3726
vn 0.7348 -0.5613 -0.3808
vn 0.5121 0.7875 -0.3429
vn 0.6631 -0.6636 -0.3463
vn 0.5025 0.7880 -0.3557
vn 0.6605 -0.6655 -0.3477
vn 0.5001 0.7809 -0.3742
vn 0.6225 -0.6612 -0.4187
vn 0.4764 0.7920 -0.3818
vn 0.5429 -0.6755 -0.4989
vn 0.3780 0.8609 -0.3405
vn 0.6466 -0.7402 -0.1847
vn 0.4120 0.8246 -0.3877
vn 0.5342 -0.7227 -0.4386
vn 0.3551 0.8576 -0.3721
vn 0.4126 -0.7636 -0.4967
vn 0.2786 0.8993 -0.3372
vn 0.4423 -0.8227 -0.3571
vn 0.2064 0.9315 -0.2994
vn 0.3961 -0.8680 -0.2994
vn -0.9160 -0.1241 -0.3815
vn 0.0828 0.9223 -0.3775
vn -0.9038 -0.0609 -0.4237
vn 0.0283 0.8993 -0.4364
vn -0.8977 -0.0756 -0.4341
vn 0.0684 0.8667 -0.4941
vn -0.8969 -0.1541 -0.4146
vn 0.1905 0.8130 -0.5502
vn -0.8910 -0.2206 -0.3967
vn 0.1702 0.9110 -0.3757
vn -0.8825 -0.2085 -0.4217
vn 0.2408 0.8085 -0.5371
vn -0.8742 -0.2660 -0.4062
vn 0.2603 0.8508 -0.4565
vn -0.8630 -0.3322 -0.3807
vn 0.3544 0.8088 -0.4692
vn -0.8484 -0.3972 -0.3500
vn 0.3556 0.8693 -0.3433
vn -0.8413 -0.3819 -0.3825
vn 0.3454 0.8569 -0.3825
vn 0.8494 -0.3386 -0.4048
vn -0.5852 -0.7030 -0.4042
vn 0.8387 -0.3324 -0.4314
vn -0.5874 -0.6484 -0.4843
vn 0.8566 -0.2829 -0.4316
vn -0.6208 -0.6451 -0.4455
vn 0.8619 -0.2477 -0.4424
vn -0.6247 -0.6811 -0.3820
vn 0.8400 -0.2460 -0.4836
vn -0.6249 -0.5997 -0.4998
vn 0.8441 -0.2044 -0.4956
vn -0.6585 -0.5061 -0.5570
vn 0.8540 -0.1516 -0.4977
vn -0.6995 -0.3995 -0.5926
vn 0.9201 -0.0151 -0.3915
vn -0.8034 -0.4441 -0.3967
vn 0.9143 0.0174 -0.4047
vn -0.8164 -0.4006 -0.4159
vn 0.9317 0.0862 -0.3529
vn -0.8601 -0.3683 -0.3529
vn -0.3539 0.7356 -0.5776
vn 0.8141 -0.0169 -0.5804
vn -0.4301 0.7172 -0.5483
vn 0.8489 -0.0628 -0.5247
vn -0.4226 0.6952 -0.5814
vn 0.7484 -0.1748 -0.6398
vn -0.5455 0.6748 -0.4970
vn 0.9318 -0.0311 -0.3616
vn -0.4826 0.6495 -0.5876
vn 0.7335 -0.2469 -0.6333
vn -0.5772 0.6309 -0.5185
vn 0.7232 -0.3793 -0.5771
vn -0.6347 0.6098 -0.4746
vn 0.7916 -0.3614 -0.4926
vn -0.6844 0.5896 -0.4289
vn 0.8121 -0.3895 -0.4345
vn -0.7044 0.5689 -0.4245
vn 0.8072 -0.4080 -0.4265
vn -0.7331 0.5502 -0.3998
vn 0.8064 -0.4357 -0.3998
vn -0.1471 -0.7854 -0.6012
vn -0.6069 0.5160 -0.6045
vn -0.0568 -0.8207 -0.5685
vn -0.4556 0.6288 -0.6301
vn 0.0207 -0.8421 -0.5390
vn -0.4907 0.6731 -0.5533
vn 0.0760 -0.8436 -0.5316
vn -0.5566 0.6697 -0.4916
vn 0.1025 -0.8132 -0.5730
vn -0.3328 0.7232 -0.6052
vn 0.1836 -0.8428 -0.5059
vn -0.2520 0.8054 -0.5365
vn 0.2393 -0.8496 -0.4701
vn -0.3599 0.8066 -0.4689
vn 0.2777 -0.8320 -0.4802
vn -0.2357 0.8424 -0.4845
vn 0.3238 -0.8387 -0.4380
vn -0.2811 0.8539 -0.4380
vn 0.3605 -0.8256 -0.4340
vn -0.2444 0.8671 -0.4340
vn 0.7005 0.3844 -0.6013
vn 0.0651 -0.7930 -0.6058
vn 0.6616 0.5067 -0.5528
vn -0.1679 -0.7561 -0.6326
vn 0.6199 0.5955 -0.5109
vn -0.1639 -0.8384 -0.5199
vn 0.5810 0.6297 -0.5157
vn -0.2324 -0.8140 -0.5323
vn 0.5397 0.6610 -0.5213
vn -0.2346 -0.8241 -0.5156
vn 0.4934 0.6761 -0.5472
vn -0.5015 -0.6312 -0.5917
vn 0.4600 0.7496 -0.4759
vn -0.3781 -0.7929 -0.4778
vn 0.4201 0.7786 -0.4661
vn -0.4371 -0.7685 -0.4673
vn 0.3829 0.8071 -0.4494
vn -0.4794 -0.7547 -0.4479
vn 0.3789 0.8564 -0.3506
vn -0.5006 -0.7915 -0.3506
vn -0.7580 0.0802 -0.6473
vn 0.4952 0.5753 -0.6510
vn -0.8092 -0.0348 -0.5865
vn 0.6203 0.5029 -0.6020
vn -0.8015 -0.0881 -0.5915
vn 0.6401 0.4907 -0.5912
vn -0.7822 -0.1344 -0.6083
vn 0.7313 0.1356 -0.6684
vn -0.8179 -0.2246 -0.5296
vn 0.7494 0.3952 -0.5313
vn -0.8032 -0.2714 -0.5303
vn 0.8165 0.1959 -0.5431
vn -0.8123 -0.3277 -0.4824
vn 0.8398 0.2472 -0.4834
vn -0.8349 -0.3764 -0.4015
vn 0.8192 0.4057 -0.4054
vn -0.7902 -0.4095 -0.4559
vn 0.8543 0.2498 -0.4559
vn -0.7756 -0.4462 -0.4465
vn 0.8690 0.2131 -0.4465
vn 0.5312 -0.5672 -0.6294
vn -0.7753 -0.0406 -0.6303
vn 0.5777 -0.5141 -0.6340
vn -0.6643 0.2277 -0.7119
vn 0.7053 -0.4600 -0.5393
vn -0.8276 0.1557 -0.5393
vn 0.7261 -0.4080 -0.5534
vn -0.8023 0.2175 -0.5558
vn 0.7507 -0.3534 -0.5581
vn -0.7391 0.3619 -0.5682
vn 0.8256 -0.3203 -0.4646
vn -0.8611 0.2200 -0.4583
vn 0.8233 -0.2591 -0.5050
vn -0.7437 0.4468 -0.4973
vn 0.8764 -0.2446 -0.4149
vn -0.8194 0.3862 -0.4236
vn 0.8810 -0.1910 -0.4329
vn -0.7626 0.4847 -0.4284
vn 0.9152 -0.1929 -0.3539
vn -0.7944 0.4937 -0.3539
vn -0.2656 0.7534 -0.6015
vn 0.5150 -0.6113 -0.6010
vn -0.2976 0.7056 -0.6431
vn 0.3421 -0.6699 -0.6590
vn -0.3748 0.7125 -0.5931
vn 0.4247 -0.6842 -0.5929
vn -0.4231 0.6828 -0.5957
vn 0.3469 -0.7251 -0.5949
vn -0.4738 0.6611 -0.5819
vn 0.2399 -0.7873 -0.5680
vn -0.5297 0.6904 -0.4927
vn 0.1208 -0.8925 -0.4346
vn -0.5656 0.7203 -0.4016
vn 0.3050 -0.8677 -0.3925
vn -0.5895 0.7259 -0.3544
vn 0.3057 -0.8870 -0.3461
vn -0.6097 0.7220 -0.3272
vn 0.2987 -0.8989 -0.3206
vn -0.6089 0.7522 -0.2519
vn 0.3369 -0.9072 -0.2519
vn -0.4300 -0.6272 -0.6494
vn 0.2203 0.7277 -0.6495
vn -0.3724 -0.6626 -0.6498
vn 0.3280 0.6814 -0.6543
vn -0.3203 -0.7086 -0.6287
vn 0.4053 0.6646 -0.6277
vn -0.2875 -0.7720 -0.5669
vn 0.5771 0.6129 -0.5397
vn -0.2666 -0.8261 -0.4965
vn 0.4924 0.7173 -0.4931
vn -0.2329 -0.8525 -0.4680
vn 0.5398 0.7045 -0.4608
vn -0.2014 -0.8736 -0.4431
vn 0.6229 0.6662 -0.4100
vn -0.2398 -0.9139 -0.3275
vn 0.6186 0.7285 -0.2944
vn -0.2558 -0.9301 -0.2638
vn 0.5590 0.7847 -0.2678
vn -0.2099 -0.9352 -0.2853
vn 0.5977 0.7492 -0.2853
vn 0.7921 0.1690 -0.5866
vn -0.7196 -0.3733 -0.5855
vn 0.7137 0.2112 -0.6678
vn -0.7452 -0.0078 -0.6667
vn 0.7737 0.3104 -0.5524
vn -0.8015 -0.2301 -0.5520
vn 0.7618 0.3726 -0.5300
vn -0.8242 -0.1970 -0.5309
vn 0.7405 0.4288 -0.5174
vn -0.8757 -0.0193 -0.4825
vn 0.7898 0.4616 -0.4040
vn -0.8229 -0.3217 -0.4684
vn 0.7274 0.5179 -0.4503
vn -0.9024 -0.0191 -0.4305
vn 0.7506 0.5373 -0.3845
vn -0.9456 0.0348 -0.3235
vn 0.7937 0.5301 -0.2984
vn -0.9490 -0.0924 -0.3015
vn 0.7701 0.5625 -0.3011
vn -0.9524 -0.0483 -0.3011
vn -0.6927 0.2542 -0.6750
vn 0.6984 -0.2378 -0.6750
vn -0.7328 0.1882 -0.6539
vn 0.6132 -0.4751 -0.6311
vn -0.8254 0.1673 -0.5391
vn 0.7453 -0.3940 -0.5379
vn -0.8489 0.1182 -0.5152
vn 0.6843 -0.5537 -0.4744
vn -0.8911 0.1051 -0.4414
vn 0.7493 -0.5039 -0.4296
vn -0.9171 0.0924 -0.3877
vn 0.7361 -0.5861 -0.3387
vn -0.9419 0.1024 -0.3199
vn 0.7879 -0.5362 -0.3028
vn -0.9588 0.1230 -0.2561
vn 0.8247 -0.5032 -0.2581
vn -0.9639 0.1044 -0.2448
vn 0.8173 -0.5201 -0.2479
vn -0.9646 0.0626 -0.2560
vn 0.7905 -0.5565 -0.2560
vn 0.3592 -0.6402 -0.6791
vn -0.3028 0.6690 -0.6788
vn 0.4522 -0.6733 -0.5850
vn -0.1829 0.8022 -0.5683
vn 0.5162 -0.6900 -0.5073
vn -0.2833 0.8095 -0.5142
vn 0.5662 -0.6364 -0.5239
vn -0.0982 0.8681 -0.4866
vn 0.6063 -0.6493 -0.4591
vn -0.1425 0.8849 -0.4434
vn 0.6323 -0.6649 -0.3977
vn -0.0551 0.9464 -0.3182
vn 0.6317 -0.7119 -0.3069
vn -0.2029 0.9309 -0.3037
vn 0.6465 -0.7093 -0.2810
vn -0.1670 0.9528 -0.2535
vn 0.6381 -0.7353 -0.2284
vn -0.2174 0.9502 -0.2234
vn 0.6177 -0.7666 -0.1757
vn -0.2594 0.9497 -0.1757
vn -0.0377 0.8375 -0.5452
vn -0.1742 -0.8194 -0.5462
vn -0.1365 0.7910 -0.5964
vn -0.4672 -0.7143 -0.5210
vn -0.1355 0.8893 -0.4368
vn -0.2877 -0.8531 -0.4353
vn -0.1781 0.8960 -0.4068
vn -0.2510 -0.8580 -0.4482
vn -0.2466 0.8742 -0.4184
vn -0.4339 -0.8137 -0.3867
vn -0.2227 0.9170 -0.3309
vn -0.4381 -0.8559 -0.2746
vn -0.1992 0.9432 -0.2660
vn -0.3799 -0.8928 -0.2422
vn -0.1517 0.9687 -0.1964
vn -0.2946 -0.9305 -0.2178
vn -0.1975 0.9577 -0.2091
vn -0.3612 -0.9100 -0.2038
vn -0.1500 0.9760 -0.1579
vn -0.3133 -0.9364 -0.1579
vn -0.5064 -0.6935 -0.5124
vn 0.7300 0.4513 -0.5133
vn -0.4302 -0.7449 -0.5100
vn 0.8490 0.2738 -0.4520
vn -0.4368 -0.7938 -0.4232
vn 0.8114 0.3886 -0.4366
vn -0.3823 -0.8286 -0.4089
vn 0.9610 0.1494 -0.2328
vn -0.4535 -0.8394 -0.2996
vn 0.8923 0.3617 -0.2700
vn -0.4813 -0.8425 -0.2421
vn 0.8865 0.4029 -0.2277
vn -0.4801 -0.8502 -0.2159
vn 0.8960 0.3988 -0.1953
vn -0.5134 -0.8406 -0.1724
vn 0.8666 0.4577 -0.1988
vn -0.4754 -0.8615 -0.1785
vn 0.9026 0.3983 -0.1635
vn -0.5885 -0.8024 -0.0994
vn 0.8468 0.5225 -0.0994
vn 0.7992 0.2811 -0.5312
vn -0.8266 0.1915 -0.5291
vn 0.8403 0.3250 -0.4339
vn -0.8702 0.1811 -0.4583
vn 0.8177 0.3952 -0.4185
vn -0.8565 0.3642 -0.3658
vn 0.8855 0.3567 -0.2977
vn -0.9208 0.2888 -0.2622
vn 0.8983 0.3598 -0.2521
vn -0.9331 0.2377 -0.2698
vn 0.8785 0.4063 -0.2511
vn -0.9196 0.3002 -0.2535
vn 0.8766 0.4224 -0.2308
vn -0.9197 0.3378 -0.2003
vn 0.9186 0.3574 -0.1686
vn -0.9540 0.2656 -0.1393
vn 0.9394 0.3167 -0.1311
vn -0.9699 0.2089 -0.1252
vn 0.9622 0.2566 -0.0915
vn -0.9854 0.1435 -0.0915
vn -0.6500 0.5804 -0.4906
vn 0.3137 -0.8116 -0.4928
vn -0.7209 0.4761 -0.5035
vn 0.0141 -0.9258 -0.3777
vn -0.7526 0.5570 -0.3514
vn 0.2758 -0.8854 -0.3742
vn -0.7989 0.4894 -0.3497
vn 0.1083 -0.9557 -0.2738
vn -0.8043 0.5250 -0.2784
vn 0.1690 -0.9585 -0.2296
vn -0.7754 0.6007 -0.1945
vn 0.3174 -0.9138 -0.2535
vn -0.8126 0.5455 -0.2052
vn 0.2123 -0.9580 -0.1927
vn -0.8019 0.5728 -0.1698
vn 0.2265 -0.9664 -0.1219
vn -0.7559 0.6441 -0.1171
vn 0.3288 -0.9378 -0.1116
vn -0.7154 0.6940 -0.0809
vn 0.3921 -0.9164 -0.0809
vn -0.7013 -0.7070 -0.0909
vn 0.9920 0.1058 -0.0685
vn -0.7775 -0.6258 -0.0627
vn 0.9668 0.2323 -0.1067
vn -0.7147 -0.6938 -0.0887
vn 0.9893 0.1263 -0.0737
vn -0.7571 -0.6492 -0.0732
vn 0.9815 0.1850 -0.0499
vn -0.8123 -0.5812 -0.0495
vn 0.9597 0.2765 -0.0495
vn 0.1047 -0.9821 -0.1565
vn 0.4911 0.8595 -0.1415
vn 0.0211 -0.9929 -0.1167
vn 0.4103 0.9043 -0.1180
vn 0.0235 -0.9925 -0.1196
vn 0.4132 0.9028 -0.1192
vn 0.0209 -0.9925 -0.1201
vn 0.4165 0.9026 -0.1089
vn -0.0266 -0.9950 -0.0965
vn 0.3680 0.9248 -0.0965
vn 0.8588 -0.4969 -0.1250
vn -0.4850 0.8671 -0.1135
vn 0.8319 -0.5457 -0.1009
vn -0.5424 0.8324 -0.1139
vn 0.8444 -0.5233 -0.1149
vn -0.5114 0.8531 -0.1035
vn 0.8214 -0.5625 -0.0947
vn -0.5564 0.8250 -0.0990
vn 0.8291 -0.5494 -0.1038
vn -0.5417 0.8341 -0.1038
vn 0.9414 0.2891 -0.1738
vn -0.8717 0.4684 -0.1441
vn 0.9881 0.1186 -0.0982
vn -0.9506 0.2904 -0.1093
vn 0.9830 0.1454 -0.1122
vn -0.9402 0.3232 -0.1078
vn 0.9869 0.1239 -0.1036
vn -0.9469 0.3109 -0.0822
vn 0.9979 0.0285 -0.0588
vn -0.9762 0.2089 -0.0588
vn 0.3787 0.9057 -0.1905
vn -0.9016 -0.3979 -0.1696
vn 0.4779 0.8671 -0.1408
vn -0.8558 -0.5003 -0.1316
vn 0.4962 0.8581 -0.1325
vn -0.8531 -0.5110 -0.1050
vn 0.5947 0.8006 -0.0730
vn -0.7857 -0.6152 -0.0645
vn 0.6211 0.7817 -0.0561
vn -0.7627 -0.6443 -0.0561
vn -0.4318 0.8913 -0.1384
vn -0.2188 -0.9684 -0.1197
vn -0.3454 0.9330 -0.1011
vn -0.1272 -0.9889 -0.0775
vn -0.2972 0.9514 -0.0807
vn -0.0635 -0.9942 -0.0864
vn -0.3190 0.9433 -0.0921
vn -0.0908 -0.9920 -0.0882
vn -0.3044 0.9486 -0.0867
vn -0.0737 -0.9935 -0.0867
vn -0.9956 0.0773 -0.0530
vn 0.6279 -0.7780 -0.0199
vn -0.9748 0.2204 -0.0352
vn 0.7382 -0.6701 -0.0777
vn -0.9886 0.1433 -0.0461
vn 0.6793 -0.7334 -0.0269
vn -0.9768 0.2110 -0.0376
vn 0.7286 -0.6846 -0.0233
vn -0.9660 0.2566 -0.0317
vn 0.7609 -0.6481 -0.0317
vn 0.6092 0.6092 0.5077
vn 0.6155 0.6155 -0.4924
vn -0.6092 0.6092 0.5077
vn -0.6155 0.6155 -0.4924
vn -0.6092 -0.6092 0.5077
vn -0.6155 -0.6155 -0.4924
vn 0.6092 -0.6092 0.5077
vn 0.6155 -0.6155 -0.4924
usemtl TrunkA
f 1/1/1 2/1/1 3/1/1
f 3/1/2 2/1/2 4/1/2
f 2/1/3 5/1/3 4/1/3
f 4/1/4 5/1/4 6/1/4
f 5/1/5 7/1/5 6/1/5
f 6/1/6 7/1/6 8/1/6
f 7/1/7 9/1/7 8/1/7
f 8/1/8 9/1/8 10/1/8
f 9/1/9 11/1/9 10/1/9
f 10/1/10 11/1/10 12/1/10
f 11/1/11 1/1/11 12/1/11
f 12/1/12 1/1/12 3/1/12
f 14/1/25 13/1/25 19/1/25
f 19/1/26 13/1/26 20/1/26
f 13/1/27 15/1/27 20/1/27
f 20/1/28 15/1/28 21/1/28
f 15/1/29 16/1/29 21/1/29
f 21/1/30 16/1/30 22/1/30
f 16/1/31 17/1/31 22/1/31
f 22/1/32 17/1/32 23/1/32
f 17/1/33 18/1/33 23/1/33
f 23/1/34 18/1/34 24/1/34
f 18/1/35 14/1/35 24/1/35
f 24/1/36 14/1/36 19/1/36
f 26/1/49 25/1/49 31/1/49
f 31/1/50 25/1/50 32/1/50
f 25/1/51 27/1/51 32/1/51
f 32/1/52 27/1/52 33/1/52
f 27/1/53 28/1/53 33/1/53
f 33/1/54 28/1/54 34/1/54
f 28/1/55 29/1/55 34/1/55
f 34/1/56 29/1/56 35/1/56
f 29/1/57 30/1/57 35/1/57
f 35/1/58 30/1/58 36/1/58
f 30/1/59 26/1/59 36/1/59
f 36/1/60 26/1/60 31/1/60
f 38/1/73 37/1/73 43/1/73
f 43/1/74 37/1/74 44/1/74
f 37/1/75 39/1/75 44/1/75
f 44/1/76 39/1/76 45/1/76
f 39/1/77 40/1/77 45/1/77
f 45/1/78 40/1/78 46/1/78
f 40/1/79 41/1/79 46/1/79
f 46/1/80 41/1/80 47/1/80
f 41/1/81 42/1/81 47/1/81
f 47/1/82 42/1/82 48/1/82
f 42/1/83 38/1/83 48/1/83
f 48/1/84 38/1/84 43/1/84
f 50/1/97 49/1/97 55/1/97
f 55/1/98 49/1/98 56/1/98
f 49/1/99 51/1/99 56/1/99
f 56/1/100 51/1/100 57/1/100
f 51/1/101 52/1/101 57/1/101
f 57/1/102 52/1/102 58/1/102
f 52/1/103 53/1/103 58/1/103
f 58/1/104 53/1/104 59/1/104
f 53/1/105 54/1/105 59/1/105
f 59/1/106 54/1/106 60/1/106
f 54/1/107 50/1/107 60/1/107
f 60/1/108 50/1/108 55/1/108
f 62/1/121 61/1/121 67/1/121
f 67/1/122 61/1/122 68/1/122
f 61/1/123 63/1/123 68/1/123
f 68/1/124 63/1/124 69/1/124
f 63/1/125 64/1/125 69/1/125
f 69/1/126 64/1/126 70/1/126
f 64/1/127 65/1/127 70/1/127
f 70/1/128 65/1/128 71/1/128
f 65/1/129 66/1/129 71/1/129
f 71/1/130 66/1/130 72/1/130
f 66/1/131 62/1/131 72/1/131
f 72/1/132 62/1/132 67/1/132
usemtl TrunkB
f 3/1/13 13/1/13 14/1/13
f 3/1/14 4/1/14 13/1/14
f 4/1/15 15/1/15 13/1/15
f 4/1/16 6/1/16 15/1/16
f 6/1/17 16/1/17 15/1/17
f 6/1/18 8/1/18 16/1/18
f 8/1/19 17/1/19 16/1/19
f 8/1/20 10/1/20 17/1/20
f 10/1/21 18/1/21 17/1/21
f 10/1/22 12/1/22 18/1/22
f 12/1/23 14/1/23 18/1/23
f 12/1/24 3/1/24 14/1/24
f 19/1/37 25/1/37 26/1/37
f 19/1/38 20/1/38 25/1/38
f 20/1/39 27/1/39 25/1/39
f 20/1/40 21/1/40 27/1/40
f 21/1/41 28/1/41 27/1/41
f 21/1/42 22/1/42 28/1/42
f 22/1/43 29/1/43 28/1/43
f 22/1/44 23/1/44 29/1/44
f 23/1/45 30/1/45 29/1/45
f 23/1/46 24/1/46 30/1/46
f 24/1/47 26/1/47 30/1/47
f 24/1/48 19/1/48 26/1/48
f 31/1/61 37/1/61 38/1/61
f 31/1/62 32/1/62 37/1/62
f 32/1/63 39/1/63 37/1/63
f 32/1/64 33/1/64 39/1/64
f 33/1/65 40/1/65 39/1/65
f 33/1/66 34/1/66 40/1/66
f 34/1/67 41/1/67 40/1/67
f 34/1/68 35/1/68 41/1/68
f 35/1/69 42/1/69 41/1/69
f 35/1/70 36/1/70 42/1/70
f 36/1/71 38/1/71 42/1/71
f 36/1/72 31/1/72 38/1/72
f 43/1/85 49/1/85 50/1/85
f 43/1/86 44/1/86 49/1/86
f 44/1/87 51/1/87 49/1/87
f 44/1/88 45/1/88 51/1/88
f 45/1/89 52/1/89 51/1/89
f 45/1/90 46/1/90 52/1/90
f 46/1/91 53/1/91 52/1/91
f 46/1/92 47/1/92 53/1/92
f 47/1/93 54/1/93 53/1/93
f 47/1/94 48/1/94 54/1/94
f 48/1/95 50/1/95 54/1/95
f 48/1/96 43/1/96 50/1/96
f 55/1/109 61/1/109 62/1/109
f 55/1/110 56/1/110 61/1/110
f 56/1/111 63/1/111 61/1/111
f 56/1/112 57/1/112 63/1/112
f 57/1/113 64/1/113 63/1/113
f 57/1/114 58/1/114 64/1/114
f 58/1/115 65/1/115 64/1/115
f 58/1/116 59/1/116 65/1/116
f 59/1/117 66/1/117 65/1/117
f 59/1/118 60/1/118 66/1/118
f 60/1/119 62/1/119 66/1/119
f 60/1/120 55/1/120 62/1/120
f 67/1/133 73/1/133 74/1/133
f 67/1/134 68/1/134 73/1/134
f 68/1/135 75/1/135 73/1/135
f 68/1/136 69/1/136 75/1/136
f 69/1/137 76/1/137 75/1/137
f 69/1/138 70/1/138 76/1/138
f 70/1/139 77/1/139 76/1/139
f 70/1/140 71/1/140 77/1/140
f 71/1/141 78/1/141 77/1/141
f 71/1/142 72/1/142 78/1/142
f 72/1/143 74/1/143 78/1/143
f 72/1/144 67/1/144 74/1/144
usemtl Husk
f 74/1/145 73/1/145 79/1/145 80/1/145
f 73/1/146 75/1/146 81/1/146 79/1/146
f 75/1/147 76/1/147 82/1/147 81/1/147
f 76/1/148 77/1/148 83/1/148 82/1/148
f 77/1/149 78/1/149 84/1/149 83/1/149
f 78/1/150 74/1/150 80/1/150 84/1/150
f 80/1/151 79/1/151 85/1/151
f 79/1/152 81/1/152 85/1/152
f 81/1/153 82/1/153 85/1/153
f 82/1/154 83/1/154 85/1/154
f 83/1/155 84/1/155 85/1/155
f 84/1/156 80/1/156 85/1/156
usemtl Young
f 86/1/157 87/1/157 88/1/157
f 87/1/158 89/1/158 88/1/158
f 89/1/159 86/1/159 88/1/159
f 90/2/160 91/3/160 92/4/160 93/5/160
f 94/6/161 95/7/161 91/3/161 90/2/161
f 91/3/162 96/8/162 97/9/162 92/4/162
f 95/7/163 98/10/163 96/8/163 91/3/163
f 96/8/164 99/11/164 100/12/164 97/9/164
f 98/10/165 101/13/165 99/11/165 96/8/165
f 99/11/166 102/14/166 103/15/166 100/12/166
f 101/13/167 104/16/167 102/14/167 99/11/167
f 102/14/168 105/17/168 106/18/168 103/15/168
f 104/16/169 107/19/169 105/17/169 102/14/169
f 105/17/170 108/20/170 109/21/170 106/18/170
f 107/19/171 110/22/171 108/20/171 105/17/171
f 108/20/172 111/23/172 112/24/172 109/21/172
f 110/22/173 113/25/173 111/23/173 108/20/173
f 111/23/174 114/26/174 115/27/174 112/24/174
f 113/25/175 116/28/175 114/26/175 111/23/175
f 114/26/176 117/29/176 118/30/176 115/27/176
f 116/28/177 119/31/177 117/29/177 114/26/177
f 117/29/178 120/32/178 118/30/178
f 119/31/179 120/32/179 117/29/179
f 121/2/180 122/3/180 123/33/180 124/34/180
f 125/35/181 126/36/181 122/3/181 121/2/181
f 122/3/182 127/8/182 128/9/182 123/33/182
f 126/36/183 129/10/183 127/8/183 122/3/183
f 127/8/184 130/11/184 131/12/184 128/9/184
f 129/10/185 132/13/185 130/11/185 127/8/185
f 130/11/186 133/14/186 134/15/186 131/12/186
f 132/13/187 135/16/187 133/14/187 130/11/187
f 133/14/188 136/17/188 137/18/188 134/15/188
f 135/16/189 138/19/189 136/17/189 133/14/189
f 136/17/190 139/20/190 140/21/190 137/18/190
f 138/19/191 141/22/191 139/20/191 136/17/191
f 139/20/192 142/23/192 143/24/192 140/21/192
f 141/22/193 144/25/193 142/23/193 139/20/193
f 142/23/194 145/26/194 146/27/194 143/24/194
f 144/25/195 147/28/195 145/26/195 142/23/195
f 145/26/196 148/29/196 149/30/196 146/27/196
f 147/28/197 150/31/197 148/29/197 145/26/197
f 148/29/198 151/32/198 149/30/198
f 150/31/199 151/32/199 148/29/199
f 152/2/200 153/3/200 154/37/200 155/38/200
f 156/39/201 157/40/201 153/3/201 152/2/201
f 153/3/202 158/8/202 159/9/202 154/37/202
f 157/40/203 160/10/203 158/8/203 153/3/203
f 158/8/204 161/11/204 162/12/204 159/9/204
f 160/10/205 163/13/205 161/11/205 158/8/205
f 161/11/206 164/14/206 165/15/206 162/12/206
f 163/13/207 166/16/207 164/14/207 161/11/207
f 164/14/208 167/17/208 168/18/208 165/15/208
f 166/16/209 169/19/209 167/17/209 164/14/209
f 167/17/210 170/20/210 171/21/210 168/18/210
f 169/19/211 172/22/211 170/20/211 167/17/211
f 170/20/212 173/23/212 174/24/212 171/21/212
f 172/22/213 175/25/213 173/23/213 170/20/213
f 173/23/214 176/26/214 177/27/214 174/24/214
f 175/25/215 178/28/215 176/26/215 173/23/215
f 176/26/216 179/29/216 180/30/216 177/27/216
f 178/28/217 181/31/217 179/29/217 176/26/217
f 179/29/218 182/32/218 180/30/218
f 181/31/219 182/32/219 179/29/219
usemtl Frond
f 183/2/220 184/3/220 185/41/220 186/42/220
f 187/43/221 188/44/221 184/3/221 183/2/221
f 184/3/222 189/8/222 190/9/222 185/41/222
f 188/44/223 191/10/223 189/8/223 184/3/223
f 189/8/224 192/11/224 193/12/224 190/9/224
f 191/10/225 194/13/225 192/11/225 189/8/225
f 192/11/226 195/14/226 196/15/226 193/12/226
f 194/13/227 197/16/227 195/14/227 192/11/227
f 195/14/228 198/17/228 199/18/228 196/15/228
f 197/16/229 200/19/229 198/17/229 195/14/229
f 198/17/230 201/20/230 202/21/230 199/18/230
f 200/19/231 203/22/231 201/20/231 198/17/231
f 201/20/232 204/23/232 205/24/232 202/21/232
f 203/22/233 206/25/233 204/23/233 201/20/233
f 204/23/234 207/26/234 208/27/234 205/24/234
f 206/25/235 209/28/235 207/26/235 204/23/235
f 207/26/236 210/29/236 211/30/236 208/27/236
f 209/28/237 212/31/237 210/29/237 207/26/237
f 210/29/238 213/32/238 211/30/238
f 212/31/239 213/32/239 210/29/239
f 214/2/240 215/3/240 216/45/240 217/46/240
f 218/47/241 219/48/241 215/3/241 214/2/241
f 215/3/242 220/8/242 221/9/242 216/45/242
f 219/48/243 222/10/243 220/8/243 215/3/243
f 220/8/244 223/11/244 224/12/244 221/9/244
f 222/10/245 225/13/245 223/11/245 220/8/245
f 223/11/246 226/14/246 227/15/246 224/12/246
f 225/13/247 228/16/247 226/14/247 223/11/247
f 226/14/248 229/17/248 230/18/248 227/15/248
f 228/16/249 231/19/249 229/17/249 226/14/249
f 229/17/250 232/20/250 233/21/250 230/18/250
f 231/19/251 234/22/251 232/20/251 229/17/251
f 232/20/252 235/23/252 236/24/252 233/21/252
f 234/22/253 237/25/253 235/23/253 232/20/253
f 235/23/254 238/26/254 239/27/254 236/24/254
f 237/25/255 240/28/255 238/26/255 235/23/255
f 238/26/256 241/29/256 242/30/256 239/27/256
f 240/28/257 243/31/257 241/29/257 238/26/257
f 241/29/258 244/32/258 242/30/258
f 243/31/259 244/32/259 241/29/259
f 245/2/260 246/3/260 247/49/260 248/50/260
f 249/51/261 250/52/261 246/3/261 245/2/261
f 246/3/262 251/8/262 252/9/262 247/49/262
f 250/52/263 253/10/263 251/8/263 246/3/263
f 251/8/264 254/11/264 255/12/264 252/9/264
f 253/10/265 256/13/265 254/11/265 251/8/265
f 254/11/266 257/14/266 258/15/266 255/12/266
f 256/13/267 259/16/267 257/14/267 254/11/267
f 257/14/268 260/17/268 261/18/268 258/15/268
f 259/16/269 262/19/269 260/17/269 257/14/269
f 260/17/270 263/20/270 264/21/270 261/18/270
f 262/19/271 265/22/271 263/20/271 260/17/271
f 263/20/272 266/23/272 267/24/272 264/21/272
f 265/22/273 268/25/273 266/23/273 263/20/273
f 266/23/274 269/26/274 270/27/274 267/24/274
f 268/25/275 271/28/275 269/26/275 266/23/275
f 269/26/276 272/29/276 273/30/276 270/27/276
f 271/28/277 274/31/277 272/29/277 269/26/277
f 272/29/278 275/32/278 273/30/278
f 274/31/279 275/32/279 272/29/279
f 276/2/280 277/3/280 278/53/280 279/54/280
f 280/55/281 281/56/281 277/3/281 276/2/281
f 277/3/282 282/8/282 283/9/282 278/53/282
f 281/56/283 284/10/283 282/8/283 277/3/283
f 282/8/284 285/11/284 286/12/284 283/9/284
f 284/10/285 287/13/285 285/11/285 282/8/285
f 285/11/286 288/14/286 289/15/286 286/12/286
f 287/13/287 290/16/287 288/14/287 285/11/287
f 288/14/288 291/17/288 292/18/288 289/15/288
f 290/16/289 293/19/289 291/17/289 288/14/289
f 291/17/290 294/20/290 295/21/290 292/18/290
f 293/19/291 296/22/291 294/20/291 291/17/291
f 294/20/292 297/23/292 298/24/292 295/21/292
f 296/22/293 299/25/293 297/23/293 294/20/293
f 297/23/294 300/26/294 301/27/294 298/24/294
f 299/25/295 302/28/295 300/26/295 297/23/295
f 300/26/296 303/29/296 304/30/296 301/27/296
f 302/28/297 305/31/297 303/29/297 300/26/297
f 303/29/298 306/32/298 304/30/298
f 305/31/299 306/32/299 303/29/299
f 307/2/300 308/3/300 309/4/300 310/57/300
f 311/58/301 312/7/301 308/3/301 307/2/301
f 308/3/302 313/8/302 314/9/302 309/4/302
f 312/7/303 315/10/303 313/8/303 308/3/303
f 313/8/304 316/11/304 317/12/304 314/9/304
f 315/10/305 318/13/305 316/11/305 313/8/305
f 316/11/306 319/14/306 320/15/306 317/12/306
f 318/13/307 321/16/307 319/14/307 316/11/307
f 319/14/308 322/17/308 323/18/308 320/15/308
f 321/16/309 324/19/309 322/17/309 319/14/309
f 322/17/310 325/20/310 326/21/310 323/18/310
f 324/19/311 327/22/311 325/20/311 322/17/311
f 325/20/312 328/23/312 329/24/312 326/21/312
f 327/22/313 330/25/313 328/23/313 325/20/313
f 328/23/314 331/26/314 332/27/314 329/24/314
f 330/25/315 333/28/315 331/26/315 328/23/315
f 331/26/316 334/29/316 335/30/316 332/27/316
f 333/28/317 336/31/317 334/29/317 331/26/317
f 334/29/318 337/32/318 335/30/318
f 336/31/319 337/32/319 334/29/319
f 338/2/320 339/3/320 340/41/320 341/59/320
f 342/60/321 343/44/321 339/3/321 338/2/321
f 339/3/322 344/8/322 345/9/322 340/41/322
f 343/44/323 346/10/323 344/8/323 339/3/323
f 344/8/324 347/11/324 348/12/324 345/9/324
f 346/10/325 349/13/325 347/11/325 344/8/325
f 347/11/326 350/14/326 351/15/326 348/12/326
f 349/13/327 352/16/327 350/14/327 347/11/327
f 350/14/328 353/17/328 354/18/328 351/15/328
f 352/16/329 355/19/329 353/17/329 350/14/329
f 353/17/330 356/20/330 357/21/330 354/18/330
f 355/19/331 358/22/331 356/20/331 353/17/331
f 356/20/332 359/23/332 360/24/332 357/21/332
f 358/22/333 361/25/333 359/23/333 356/20/333
f 359/23/334 362/26/334 363/27/334 360/24/334
f 361/25/335 364/28/335 362/26/335 359/23/335
f 362/26/336 365/29/336 366/30/336 363/27/336
f 364/28/337 367/31/337 365/29/337 362/26/337
f 365/29/338 368/32/338 366/30/338
f 367/31/339 368/32/339 365/29/339
f 369/2/340 370/3/340 371/61/340 372/62/340
f 373/63/341 374/64/341 370/3/341 369/2/341
f 370/3/342 375/8/342 376/9/342 371/61/342
f 374/64/343 377/10/343 375/8/343 370/3/343
f 375/8/344 378/11/344 379/12/344 376/9/344
f 377/10/345 380/13/345 378/11/345 375/8/345
f 378/11/346 381/14/346 382/15/346 379/12/346
f 380/13/347 383/16/347 381/14/347 378/11/347
f 381/14/348 384/17/348 385/18/348 382/15/348
f 383/16/349 386/19/349 384/17/349 381/14/349
f 384/17/350 387/20/350 388/21/350 385/18/350
f 386/19/351 389/22/351 387/20/351 384/17/351
f 387/20/352 390/23/352 391/24/352 388/21/352
f 389/22/353 392/25/353 390/23/353 387/20/353
f 390/23/354 393/26/354 394/27/354 391/24/354
f 392/25/355 395/28/355 393/26/355 390/23/355
f 393/26/356 396/29/356 397/30/356 394/27/356
f 395/28/357 398/31/357 396/29/357 393/26/357
f 396/29/358 399/32/358 397/30/358
f 398/31/359 399/32/359 396/29/359
f 400/2/360 401/3/360 402/65/360 403/66/360
f 404/67/361 405/68/361 401/3/361 400/2/361
f 401/3/362 406/8/362 407/9/362 402/65/362
f 405/68/363 408/10/363 406/8/363 401/3/363
f 406/8/364 409/11/364 410/12/364 407/9/364
f 408/10/365 411/13/365 409/11/365 406/8/365
f 409/11/366 412/14/366 413/15/366 410/12/366
f 411/13/367 414/16/367 412/14/367 409/11/367
f 412/14/368 415/17/368 416/18/368 413/15/368
f 414/16/369 417/19/369 415/17/369 412/14/369
f 415/17/370 418/20/370 419/21/370 416/18/370
f 417/19/371 420/22/371 418/20/371 415/17/371
f 418/20/372 421/23/372 422/24/372 419/21/372
f 420/22/373 423/25/373 421/23/373 418/20/373
f 421/23/374 424/26/374 425/27/374 422/24/374
f 423/25/375 426/28/375 424/26/375 421/23/375
f 424/26/376 427/29/376 428/30/376 425/27/376
f 426/28/377 429/31/377 427/29/377 424/26/377
f 427/29/378 430/32/378 428/30/378
f 429/31/379 430/32/379 427/29/379
f 431/2/380 432/3/380 433/69/380 434/70/380
f 435/71/381 436/72/381 432/3/381 431/2/381
f 432/3/382 437/8/382 438/9/382 433/69/382
f 436/72/383 439/10/383 437/8/383 432/3/383
f 437/8/384 440/11/384 441/12/384 438/9/384
f 439/10/385 442/13/385 440/11/385 437/8/385
f 440/11/386 443/14/386 444/15/386 441/12/386
f 442/13/387 445/16/387 443/14/387 440/11/387
f 443/14/388 446/17/388 447/18/388 444/15/388
f 445/16/389 448/19/389 446/17/389 443/14/389
f 446/17/390 449/20/390 450/21/390 447/18/390
f 448/19/391 451/22/391 449/20/391 446/17/391
f 449/20/392 452/23/392 453/24/392 450/21/392
f 451/22/393 454/25/393 452/23/393 449/20/393
f 452/23/394 455/26/394 456/27/394 453/24/394
f 454/25/395 457/28/395 455/26/395 452/23/395
f 455/26/396 458/29/396 459/30/396 456/27/396
f 457/28/397 460/31/397 458/29/397 455/26/397
f 458/29/398 461/32/398 459/30/398
f 460/31/399 461/32/399 458/29/399
f 462/2/400 463/3/400 464/73/400 465/74/400
f 466/75/401 467/76/401 463/3/401 462/2/401
f 463/3/402 468/8/402 469/9/402 464/73/402
f 467/76/403 470/10/403 468/8/403 463/3/403
f 468/8/404 471/11/404 472/12/404 469/9/404
f 470/10/405 473/13/405 471/11/405 468/8/405
f 471/11/406 474/14/406 475/15/406 472/12/406
f 473/13/407 476/16/407 474/14/407 471/11/407
f 474/14/408 477/17/408 478/18/408 475/15/408
f 476/16/409 479/19/409 477/17/409 474/14/409
f 477/17/410 480/20/410 481/21/410 478/18/410
f 479/19/411 482/22/411 480/20/411 477/17/411
f 480/20/412 483/23/412 484/24/412 481/21/412
f 482/22/413 485/25/413 483/23/413 480/20/413
f 483/23/414 486/26/414 487/27/414 484/24/414
f 485/25/415 488/28/415 486/26/415 483/23/415
f 486/26/416 489/29/416 490/30/416 487/27/416
f 488/28/417 491/31/417 489/29/417 486/26/417
f 489/29/418 492/32/418 490/30/418
f 491/31/419 492/32/419 489/29/419
f 493/2/420 494/3/420 495/77/420 496/78/420
f 497/79/421 498/80/421 494/3/421 493/2/421
f 494/3/422 499/8/422 500/9/422 495/77/422
f 498/80/423 501/10/423 499/8/423 494/3/423
f 499/8/424 502/11/424 503/12/424 500/9/424
f 501/10/425 504/13/425 502/11/425 499/8/425
f 502/11/426 505/14/426 506/15/426 503/12/426
f 504/13/427 507/16/427 505/14/427 502/11/427
f 505/14/428 508/17/428 509/18/428 506/15/428
f 507/16/429 510/19/429 508/17/429 505/14/429
f 508/17/430 511/20/430 512/21/430 509/18/430
f 510/19/431 513/22/431 511/20/431 508/17/431
f 511/20/432 514/23/432 515/24/432 512/21/432
f 513/22/433 516/25/433 514/23/433 511/20/433
f 514/23/434 517/26/434 518/27/434 515/24/434
f 516/25/435 519/28/435 517/26/435 514/23/435
f 517/26/436 520/29/436 521/30/436 518/27/436
f 519/28/437 522/31/437 520/29/437 517/26/437
f 520/29/438 523/32/438 521/30/438
f 522/31/439 523/32/439 520/29/439
f 524/2/440 525/3/440 526/81/440 527/82/440
f 528/83/441 529/84/441 525/3/441 524/2/441
f 525/3/442 530/8/442 531/9/442 526/81/442
f 529/84/443 532/10/443 530/8/443 525/3/443
f 530/8/444 533/11/444 534/12/444 531/9/444
f 532/10/445 535/13/445 533/11/445 530/8/445
f 533/11/446 536/14/446 537/15/446 534/12/446
f 535/13/447 538/16/447 536/14/447 533/11/447
f 536/14/448 539/17/448 540/18/448 537/15/448
f 538/16/449 541/19/449 539/17/449 536/14/449
f 539/17/450 542/20/450 543/21/450 540/18/450
f 541/19/451 544/22/451 542/20/451 539/17/451
f 542/20/452 545/23/452 546/24/452 543/21/452
f 544/22/453 547/25/453 545/23/453 542/20/453
f 545/23/454 548/26/454 549/27/454 546/24/454
f 547/25/455 550/28/455 548/26/455 545/23/455
f 548/26/456 551/29/456 552/30/456 549/27/456
f 550/28/457 553/31/457 551/29/457 548/26/457
f 551/29/458 554/32/458 552/30/458
f 553/31/459 554/32/459 551/29/459
f 555/2/460 556/3/460 557/85/460 558/86/460
f 559/87/461 560/88/461 556/3/461 555/2/461
f 556/3/462 561/8/462 562/9/462 557/85/462
f 560/88/463 563/10/463 561/8/463 556/3/463
f 561/8/464 564/11/464 565/12/464 562/9/464
f 563/10/465 566/13/465 564/11/465 561/8/465
f 564/11/466 567/14/466 568/15/466 565/12/466
f 566/13/467 569/16/467 567/14/467 564/11/467
f 567/14/468 570/17/468 571/18/468 568/15/468
f 569/16/469 572/19/469 570/17/469 567/14/469
f 570/17/470 573/20/470 574/21/470 571/18/470
f 572/19/471 575/22/471 573/20/471 570/17/471
f 573/20/472 576/23/472 577/24/472 574/21/472
f 575/22/473 578/25/473 576/23/473 573/20/473
f 576/23/474 579/26/474 580/27/474 577/24/474
f 578/25/475 581/28/475 579/26/475 576/23/475
f 579/26/476 582/29/476 583/30/476 580/27/476
f 581/28/477 584/31/477 582/29/477 579/26/477
f 582/29/478 585/32/478 583/30/478
f 584/31/479 585/32/479 582/29/479
usemtl Old
f 586/2/480 587/3/480 588/89/480 589/90/480
f 590/91/481 591/92/481 587/3/481 586/2/481
f 587/3/482 592/8/482 593/9/482 588/89/482
f 591/92/483 594/10/483 592/8/483 587/3/483
f 592/8/484 595/11/484 596/12/484 593/9/484
f 594/10/485 597/13/485 595/11/485 592/8/485
f 595/11/486 598/14/486 599/15/486 596/12/486
f 597/13/487 600/16/487 598/14/487 595/11/487
f 598/14/488 601/17/488 602/18/488 599/15/488
f 600/16/489 603/19/489 601/17/489 598/14/489
f 601/17/490 604/20/490 605/21/490 602/18/490
f 603/19/491 606/22/491 604/20/491 601/17/491
f 604/20/492 607/23/492 608/24/492 605/21/492
f 606/22/493 609/25/493 607/23/493 604/20/493
f 607/23/494 610/26/494 611/27/494 608/24/494
f 609/25/495 612/28/495 610/26/495 607/23/495
f 610/26/496 613/29/496 614/30/496 611/27/496
f 612/28/497 615/31/497 613/29/497 610/26/497
f 613/29/498 616/32/498 614/30/498
f 615/31/499 616/32/499 613/29/499
f 617/2/500 618/3/500 619/93/500 620/94/500
f 621/95/501 622/96/501 618/3/501 617/2/501
f 618/3/502 623/8/502 624/9/502 619/93/502
f 622/96/503 625/10/503 623/8/503 618/3/503
f 623/8/504 626/11/504 627/12/504 624/9/504
f 625/10/505 628/13/505 626/11/505 623/8/505
f 626/11/506 629/14/506 630/15/506 627/12/506
f 628/13/507 631/16/507 629/14/507 626/11/507
f 629/14/508 632/17/508 633/18/508 630/15/508
f 631/16/509 634/19/509 632/17/509 629/14/509
f 632/17/510 635/20/510 636/21/510 633/18/510
f 634/19/511 637/22/511 635/20/511 632/17/511
f 635/20/512 638/23/512 639/24/512 636/21/512
f 637/22/513 640/25/513 638/23/513 635/20/513
f 638/23/514 641/26/514 642/27/514 639/24/514
f 640/25/515 643/28/515 641/26/515 638/23/515
f 641/26/516 644/29/516 645/30/516 642/27/516
f 643/28/517 646/31/517 644/29/517 641/26/517
f 644/29/518 647/32/518 645/30/518
f 646/31/519 647/32/519 644/29/519
f 648/2/520 649/3/520 650/97/520 651/98/520
f 652/99/521 653/100/521 649/3/521 648/2/521
f 649/3/522 654/8/522 655/9/522 650/97/522
f 653/100/523 656/10/523 654/8/523 649/3/523
f 654/8/524 657/11/524 658/12/524 655/9/524
f 656/10/525 659/13/525 657/11/525 654/8/525
f 657/11/526 660/14/526 661/15/526 658/12/526
f 659/13/527 662/16/527 660/14/527 657/11/527
f 660/14/528 663/17/528 664/18/528 661/15/528
f 662/16/529 665/19/529 663/17/529 660/14/529
f 663/17/530 666/20/530 667/21/530 664/18/530
f 665/19/531 668/22/531 666/20/531 663/17/531
f 666/20/532 669/23/532 670/24/532 667/21/532
f 668/22/533 671/25/533 669/23/533 666/20/533
f 669/23/534 672/26/534 673/27/534 670/24/534
f 671/25/535 674/28/535 672/26/535 669/23/535
f 672/26/536 675/29/536 676/30/536 673/27/536
f 674/28/537 677/31/537 675/29/537 672/26/537
f 675/29/538 678/32/538 676/30/538
f 677/31/539 678/32/539 675/29/539
usemtl Dead
f 679/2/540 680/8/540 681/101/540 682/102/540
f 683/103/541 684/104/541 680/8/541 679/2/541
f 680/8/542 685/14/542 686/105/542 681/101/542
f 684/104/543 687/106/543 685/14/543 680/8/543
f 685/14/544 688/20/544 689/107/544 686/105/544
f 687/106/545 690/108/545 688/20/545 685/14/545
f 688/20/546 691/26/546 692/109/546 689/107/546
f 690/108/547 693/110/547 691/26/547 688/20/547
f 691/26/548 694/32/548 692/109/548
f 693/110/549 694/32/549 691/26/549
f 695/2/550 696/8/550 697/101/550 698/111/550
f 699/112/551 700/104/551 696/8/551 695/2/551
f 696/8/552 701/14/552 702/105/552 697/101/552
f 700/104/553 703/106/553 701/14/553 696/8/553
f 701/14/554 704/20/554 705/107/554 702/105/554
f 703/106/555 706/108/555 704/20/555 701/14/555
f 704/20/556 707/26/556 708/109/556 705/107/556
f 706/108/557 709/110/557 707/26/557 704/20/557
f 707/26/558 710/32/558 708/109/558
f 709/110/559 710/32/559 707/26/559
f 711/2/560 712/8/560 713/101/560 714/113/560
f 715/114/561 716/104/561 712/8/561 711/2/561
f 712/8/562 717/14/562 718/105/562 713/101/562
f 716/104/563 719/106/563 717/14/563 712/8/563
f 717/14/564 720/20/564 721/107/564 718/105/564
f 719/106/565 722/108/565 720/20/565 717/14/565
f 720/20/566 723/26/566 724/109/566 721/107/566
f 722/108/567 725/110/567 723/26/567 720/20/567
f 723/26/568 726/32/568 724/109/568
f 725/110/569 726/32/569 723/26/569
f 727/2/570 728/8/570 729/101/570 730/115/570
f 731/116/571 732/104/571 728/8/571 727/2/571
f 728/8/572 733/14/572 734/105/572 729/101/572
f 732/104/573 735/106/573 733/14/573 728/8/573
f 733/14/574 736/20/574 737/107/574 734/105/574
f 735/106/575 738/108/575 736/20/575 733/14/575
f 736/20/576 739/26/576 740/109/576 737/107/576
f 738/108/577 741/110/577 739/26/577 736/20/577
f 739/26/578 742/32/578 740/109/578
f 741/110/579 742/32/579 739/26/579
f 743/2/580 744/8/580 745/101/580 746/117/580
f 747/118/581 748/104/581 744/8/581 743/2/581
f 744/8/582 749/14/582 750/105/582 745/101/582
f 748/104/583 751/106/583 749/14/583 744/8/583
f 749/14/584 752/20/584 753/107/584 750/105/584
f 751/106/585 754/108/585 752/20/585 749/14/585
f 752/20/586 755/26/586 756/109/586 753/107/586
f 754/108/587 757/110/587 755/26/587 752/20/587
f 755/26/588 758/32/588 756/109/588
f 757/110/589 758/32/589 755/26/589
f 759/2/590 760/8/590 761/101/590 762/119/590
f 763/120/591 764/104/591 760/8/591 759/2/591
f 760/8/592 765/14/592 766/105/592 761/101/592
f 764/104/593 767/106/593 765/14/593 760/8/593
f 765/14/594 768/20/594 769/107/594 766/105/594
f 767/106/595 770/108/595 768/20/595 765/14/595
f 768/20/596 771/26/596 772/109/596 769/107/596
f 770/108/597 773/110/597 771/26/597 768/20/597
f 771/26/598 774/32/598 772/109/598
f 773/110/599 774/32/599 771/26/599
f 775/2/600 776/8/600 777/101/600 778/121/600
f 779/122/601 780/104/601 776/8/601 775/2/601
f 776/8/602 781/14/602 782/105/602 777/101/602
f 780/104/603 783/106/603 781/14/603 776/8/603
f 781/14/604 784/20/604 785/107/604 782/105/604
f 783/106/605 786/108/605 784/20/605 781/14/605
f 784/20/606 787/26/606 788/109/606 785/107/606
f 786/108/607 789/110/607 787/26/607 784/20/607
f 787/26/608 790/32/608 788/109/608
f 789/110/609 790/32/609 787/26/609
usemtl Nut
f 791/1/610 792/1/610 793/1/610
f 792/1/611 791/1/611 794/1/611
f 792/1/612 795/1/612 793/1/612
f 795/1/613 792/1/613 794/1/613
f 795/1/614 796/1/614 793/1/614
f 796/1/615 795/1/615 794/1/615
f 796/1/616 791/1/616 793/1/616
f 791/1/617 796/1/617 794/1/617
f 797/1/610 798/1/610 799/1/610
f 798/1/611 797/1/611 800/1/611
f 798/1/612 801/1/612 799/1/612
f 801/1/613 798/1/613 800/1/613
f 801/1/614 802/1/614 799/1/614
f 802/1/615 801/1/615 800/1/615
f 802/1/616 797/1/616 799/1/616
f 797/1/617 802/1/617 800/1/617
f 803/1/610 804/1/610 805/1/610
f 804/1/611 803/1/611 806/1/611
f 804/1/612 807/1/612 805/1/612
f 807/1/613 804/1/613 806/1/613
f 807/1/614 808/1/614 805/1/614
f 808/1/615 807/1/615 806/1/615
f 808/1/616 803/1/616 805/1/616
f 803/1/617 808/1/617 806/1/617
f 809/1/610 810/1/610 811/1/610
f 810/1/611 809/1/611 812/1/611
f 810/1/612 813/1/612 811/1/612
f 813/1/613 810/1/613 812/1/613
f 813/1/614 814/1/614 811/1/614
f 814/1/615 813/1/615 812/1/615
f 814/1/616 809/1/616 811/1/616
f 809/1/617 814/1/617 812/1/617
f 815/1/610 816/1/610 817/1/610
f 816/1/611 815/1/611 818/1/611
f 816/1/612 819/1/612 817/1/612
f 819/1/613 816/1/613 818/1/613
f 819/1/614 820/1/614 817/1/614
f 820/1/615 819/1/615 818/1/615
f 820/1/616 815/1/616 817/1/616
f 815/1/617 820/1/617 818/1/617
f 821/1/610 822/1/610 823/1/610
f 822/1/611 821/1/611 824/1/611
f 822/1/612 825/1/612 823/1/612
f 825/1/613 822/1/613 824/1/613
f 825/1/614 826/1/614 823/1/614
f 826/1/615 825/1/615 824/1/615
f 826/1/616 821/1/616 823/1/616
f 821/1/617 826/1/617 824/1/617
f 827/1/610 828/1/610 829/1/610
f 828/1/611 827/1/611 830/1/611
f 828/1/612 831/1/612 829/1/612
f 831/1/613 828/1/613 830/1/613
f 831/1/614 832/1/614 829/1/614
f 832/1/615 831/1/615 830/1/615
f 832/1/616 827/1/616 829/1/616
f 827/1/617 832/1/617 830/1/617
f 833/1/610 834/1/610 835/1/610
f 834/1/611 833/1/611 836/1/611
f 834/1/612 837/1/612 835/1/612
f 837/1/613 834/1/613 836/1/613
f 837/1/614 838/1/614 835/1/614
f 838/1/615 837/1/615 836/1/615
f 838/1/616 833/1/616 835/1/616
f 833/1/617 838/1/617 836/1/617
f 839/1/610 840/1/610 841/1/610
f 840/1/611 839/1/611 842/1/611
f 840/1/612 843/1/612 841/1/612
f 843/1/613 840/1/613 842/1/613
f 843/1/614 844/1/614 841/1/614
f 844/1/615 843/1/615 842/1/615
f 844/1/616 839/1/616 841/1/616
f 839/1/617 844/1/617 842/1/617
f 845/1/610 846/1/610 847/1/610
f 846/1/611 845/1/611 848/1/611
f 846/1/612 849/1/612 847/1/612
f 849/1/613 846/1/613 848/1/613
f 849/1/614 850/1/614 847/1/614
f 850/1/615 849/1/615 848/1/615
f 850/1/616 845/1/616 847/1/616
f 845/1/617 850/1/617 848/1/617
f 851/1/610 852/1/610 853/1/610
f 852/1/611 851/1/611 854/1/611
f 852/1/612 855/1/612 853/1/612
f 855/1/613 852/1/613 854/1/613
f 855/1/614 856/1/614 853/1/614
f 856/1/615 855/1/615 854/1/615
f 856/1/616 851/1/616 853/1/616
f 851/1/617 856/1/617 854/1/617
f 857/1/610 858/1/610 859/1/610
f 858/1/611 857/1/611 860/1/611
f 858/1/612 861/1/612 859/1/612
f 861/1/613 858/1/613 860/1/613
f 861/1/614 862/1/614 859/1/614
f 862/1/615 861/1/615 860/1/615
f 862/1/616 857/1/616 859/1/616
f 857/1/617 862/1/617 860/1/617
